<?xml version="1.0" encoding="UTF-8"?>
<svg version="1.1" xmlns="http://www.w3.org/2000/svg" width="512" height="512">
<path d="M0 0 C0.85620941 -0.0065712 1.71241882 -0.0131424 2.59457397 -0.01991272 C5.41656602 -0.03955352 8.23850495 -0.0512904 11.06054688 -0.0612793 C12.51547798 -0.06739259 12.51547798 -0.06739259 13.99980164 -0.07362938 C19.13821191 -0.09445522 24.27659578 -0.10876956 29.41503906 -0.11816406 C34.68911855 -0.12919516 39.96277229 -0.16356706 45.23670197 -0.20333576 C49.32056392 -0.22964342 53.40432678 -0.23786859 57.48826599 -0.24144554 C59.43048463 -0.24627839 61.37269984 -0.2577965 63.31483459 -0.27648354 C77.77545985 -0.40692752 90.305702 0.99977802 103.34179688 7.86450195 C104.3382019 8.37823364 104.3382019 8.37823364 105.35473633 8.90234375 C115.22339522 14.11929233 123.95350007 20.71788755 132.38085938 27.99804688 C136.3153212 31.39463139 140.34397088 34.63683574 144.46679688 37.80200195 C145.01980469 38.22795654 145.5728125 38.65391113 146.14257812 39.09277344 C150.74909366 42.60625427 152.91504898 43.30199746 158.72583008 43.31884766 C159.38799026 43.32232208 160.05015045 43.32579651 160.7323761 43.32937622 C162.17394989 43.33673735 163.61553506 43.34208083 165.05712318 43.34566689 C167.3502828 43.35284646 169.64323016 43.36852984 171.93632507 43.38700867 C178.45792492 43.43936611 184.97941585 43.48731522 191.5012207 43.50292969 C195.49140126 43.51310844 199.48105748 43.54269118 203.47102928 43.5842495 C204.98138619 43.59643844 206.49181765 43.60170327 208.00222206 43.59945107 C225.24837429 43.58008733 239.36269636 48.028543 252.17773438 59.9152832 C260.20916408 68.55877354 265.40831848 79.41879358 266.27929688 91.17700195 C267.49617188 91.42450195 268.71304687 91.67200195 269.96679688 91.92700195 C273.87118964 92.90310015 276.38976521 94.28747029 279.27929688 97.17700195 C280.44383013 100.67060173 280.45994293 103.84122804 280.48242188 107.4777832 C280.48812195 108.1917778 280.49382202 108.9057724 280.49969482 109.6414032 C280.50913338 111.15187097 280.51567426 112.66235923 280.51953125 114.17285156 C280.52921816 116.47082982 280.56024294 118.76790609 280.59179688 121.06567383 C280.59832944 122.53637167 280.60357891 124.00707588 280.60742188 125.4777832 C280.61976868 126.15923904 280.63211548 126.84069489 280.64483643 127.5428009 C280.62358525 132.1494222 279.65986044 135.24850203 277.27929688 139.17700195 C275.66601563 140.6027832 275.66601563 140.6027832 273.96679688 141.48950195 C273.41378906 141.79500977 272.86078125 142.10051758 272.29101562 142.4152832 C266.92710117 144.44627994 261.07258247 144.44648041 255.40429688 144.73950195 C254.62054688 144.78268555 253.83679688 144.82586914 253.02929688 144.87036133 C251.11279039 144.97553546 249.19606354 145.0766812 247.27929688 145.17700195 C247.13234375 146.06000977 246.98539062 146.94301758 246.83398438 147.8527832 C244.92319177 158.07662181 241.54072265 165.91322439 235.27929688 174.17700195 C236.26325439 174.19158447 237.24721191 174.20616699 238.26098633 174.22119141 C241.91223462 174.27917194 245.56286599 174.35640381 249.21362305 174.43945312 C250.79359931 174.47270383 252.37369439 174.50073542 253.95385742 174.5234375 C256.22561266 174.55698211 258.49627891 174.60929423 260.76757812 174.6652832 C261.47392899 174.67167313 262.18027985 174.67806305 262.90803528 174.68464661 C265.83584734 174.77239414 267.81302179 174.8386964 270.22387695 176.58789062 C272.18766755 179.54470603 271.81887359 182.77624869 271.27929688 186.17700195 C269.73591596 188.35176597 268.64264414 188.99532832 266.27929688 190.17700195 C264.24642262 190.27479389 262.21026026 190.30620188 260.17503643 190.30842972 C258.86438109 190.31227086 257.55372575 190.31611201 256.20335358 190.32006955 C254.73490881 190.31928921 253.26646408 190.31841041 251.79801941 190.31744385 C250.24893107 190.32002592 248.6998434 190.32303863 247.15075666 190.32644725 C242.87793334 190.3345391 238.6051268 190.33630803 234.33229673 190.33704472 C229.73028 190.33889148 225.12827205 190.3464369 220.52626038 190.35317993 C210.45611751 190.36677925 200.38597861 190.37279045 190.31582808 190.37719059 C184.031818 190.37995029 177.74780947 190.38418714 171.46380043 190.38869476 C154.07625392 190.40088948 136.68870865 190.41118842 119.30115795 190.41456985 C117.63091728 190.4148992 117.63091728 190.4148992 115.92693438 190.41523521 C114.81072743 190.41545348 113.69452049 190.41567176 112.54448909 190.41589665 C110.2825077 190.41634013 108.02052631 190.41678669 105.75854492 190.41723633 C104.63651632 190.41745776 103.51448772 190.41767919 102.35845826 190.41790733 C84.17160581 190.42185656 65.9847934 190.43931352 47.79795643 190.46259585 C29.14023262 190.48628884 10.48252892 190.49877077 -8.17521018 190.49993777 C-18.65666774 190.50085569 -29.13807315 190.50663719 -39.61951637 190.52475739 C-48.54371814 190.54013071 -57.46785164 190.54529525 -66.39206413 190.53701928 C-70.94757333 190.53310294 -75.50294493 190.53409015 -80.05843735 190.54807663 C-84.22646918 190.56075679 -88.39425918 190.55967019 -92.56229039 190.54748592 C-94.07240608 190.54551866 -95.58253856 190.54865451 -97.0926306 190.55733028 C-99.14136572 190.56835806 -101.19018005 190.55917849 -103.23891926 190.54893875 C-104.37813526 190.54953584 -105.51735127 190.55013293 -106.69108897 190.55074811 C-110.09623958 190.13067417 -111.98179546 189.21050503 -114.72070312 187.17700195 C-116.12528049 184.36784721 -115.9696547 182.28889661 -115.72070312 179.17700195 C-114.8112793 177.01977539 -114.8112793 177.01977539 -112.72070312 175.17700195 C-109.49962065 174.53797363 -106.29701127 174.57197728 -103.02148438 174.56762695 C-102.07129929 174.5510907 -101.1211142 174.53455444 -100.14213562 174.51751709 C-97.10575987 174.46891237 -94.06988535 174.44763843 -91.03320312 174.42700195 C-88.97523503 174.39885272 -86.91729041 174.36892677 -84.859375 174.3371582 C-79.81319229 174.26314998 -74.76728988 174.21365155 -69.72070312 174.17700195 C-70.12772461 173.6459082 -70.53474609 173.11481445 -70.95410156 172.56762695 C-71.49067383 171.8612207 -72.02724609 171.15481445 -72.58007812 170.42700195 C-73.11084961 169.7309082 -73.64162109 169.03481445 -74.18847656 168.31762695 C-79.46900806 160.94036434 -81.87517022 153.26481606 -81.72070312 144.17700195 C-82.49671875 144.18747559 -83.27273437 144.19794922 -84.07226562 144.20874023 C-87.62171125 144.25056694 -91.1711048 144.27641268 -94.72070312 144.30200195 C-95.94144531 144.31875977 -97.1621875 144.33551758 -98.41992188 144.3527832 C-108.19093994 144.40559952 -115.49828296 144.22326552 -122.72070312 137.17700195 C-129.99799762 122.62241297 -122.80791101 93.68584166 -117.97070312 78.61450195 C-113.46402919 65.55276208 -106.27481718 54.40646076 -93.84570312 47.80200195 C-89.96507937 45.95968562 -86.5937721 44.86499905 -82.34570312 44.30200195 C-78.49225725 43.67711884 -76.96032078 42.84320213 -74.65820312 39.67700195 C-74.1915625 38.96157227 -73.72492188 38.24614258 -73.24414062 37.5090332 C-60.51996376 18.03125476 -36.90189585 6.0609343 -14.72070312 1.17700195 C-9.76793112 0.18324863 -5.02798162 0.01694205 0 0 Z M12.27929688 145.17700195 C11.86400349 147.29828469 11.47257626 149.42425289 11.09179688 151.55200195 C9.55707971 158.9534212 7.08379194 166.39892699 1.59179688 171.8527832 C0.0446445 173.10300609 0.0446445 173.10300609 0.27929688 175.17700195 C54.72929687 175.17700195 109.17929688 175.17700195 165.27929688 175.17700195 C163.29929687 172.20700195 161.31929687 169.23700195 159.27929688 166.17700195 C156.25561219 161.07993348 154.86506075 156.72706156 153.66601562 150.9074707 C153.27289185 149.01677856 153.27289185 149.01677856 152.87182617 147.08789062 C152.6762915 146.12729736 152.48075684 145.1667041 152.27929688 144.17700195 C134.17322072 144.1536738 116.06714844 144.13602319 97.96106052 144.12518978 C89.55468304 144.12002664 81.14831487 144.11298361 72.74194336 144.1015625 C65.41761756 144.0916162 58.0932985 144.08514866 50.76896614 144.08291346 C46.888389 144.08160626 43.00783117 144.07851983 39.12726021 144.0712719 C35.47890131 144.06451253 31.83056977 144.06238482 28.1822052 144.06389427 C26.19641268 144.06348558 24.21062318 144.05808995 22.22483826 144.05258179 C20.46842514 144.05464378 20.46842514 144.05464378 18.67652893 144.05674744 C17.65241693 144.05582564 16.62830492 144.05490385 15.57315922 144.05395412 C13.31465593 143.91890446 13.31465593 143.91890446 12.27929688 145.17700195 Z " fill="#52050C" transform="translate(123.720703125,205.822998046875)"/>
<path d="M0 0 C1.00792099 -0.01583633 2.01584198 -0.03167267 3.05430603 -0.04798889 C4.1418367 -0.04302902 5.22936737 -0.03806915 6.34985352 -0.03295898 C8.02725365 -0.04225685 8.02725365 -0.04225685 9.73854065 -0.05174255 C12.10481901 -0.05885042 14.47114729 -0.05564999 16.83740234 -0.04296875 C20.46162897 -0.0291182 24.08326762 -0.06314498 27.70727539 -0.10131836 C30.00480207 -0.10226965 32.30233198 -0.10041021 34.59985352 -0.09545898 C35.68535995 -0.10871719 36.77086639 -0.1219754 37.88926697 -0.13563538 C38.90034012 -0.12310226 39.91141327 -0.11056915 40.953125 -0.09765625 C41.84120346 -0.09669449 42.72928192 -0.09573273 43.64427185 -0.09474182 C47.11668097 0.8152876 48.08056302 2.58744658 50.04125977 5.53344727 C50.53805375 8.30246955 50.53805375 8.30246955 50.53345108 11.38050556 C50.54141527 12.55739832 50.54937947 13.73429108 50.557585 14.94684726 C50.54010795 16.88020247 50.54010795 16.88020247 50.52227783 18.85261536 C50.52402231 20.23874196 50.52752495 21.62486727 50.5326345 23.01098555 C50.54158273 26.81938497 50.52557329 30.6273348 50.50552225 34.43567693 C50.48825929 38.54264841 50.49409313 42.64959424 50.49713135 46.7565918 C50.49922944 53.87203294 50.48667225 60.98732745 50.46417999 68.1027317 C50.43168114 78.39040522 50.42125514 88.67800777 50.41622803 98.96572705 C50.40747205 115.65655355 50.38084827 132.34730188 50.34301758 149.03808594 C50.30630532 165.25227467 50.27798971 181.46644217 50.26098633 197.68066406 C50.25993543 198.67999396 50.25888454 199.67932386 50.2578018 200.70893649 C50.25258168 205.72224705 50.24752684 210.73555777 50.24255419 215.74886858 C50.20108274 257.34378252 50.13062607 298.93861042 50.04125977 340.53344727 C50.7222876 340.5125 51.40331543 340.49155273 52.10498047 340.4699707 C55.18775699 340.38687274 58.27029813 340.33480772 61.35375977 340.28344727 C62.42561523 340.24993164 63.4974707 340.21641602 64.60180664 340.18188477 C65.62983398 340.16899414 66.65786133 340.15610352 67.71704102 340.14282227 C68.66490479 340.121875 69.61276855 340.10092773 70.58935547 340.0793457 C73.04125977 340.53344727 73.04125977 340.53344727 74.84979343 342.39660645 C76.35964077 345.10444916 76.42814525 346.97030411 76.4453125 350.06469727 C76.46433876 351.72662109 76.46433876 351.72662109 76.48374939 353.42211914 C76.48081375 354.61385742 76.47787811 355.8055957 76.47485352 357.03344727 C76.48009537 358.2612793 76.48533722 359.48911133 76.49073792 360.75415039 C76.49716076 363.34984582 76.49581778 365.94557035 76.48730469 368.54125977 C76.47879208 372.51834768 76.50755998 376.49400118 76.53930664 380.47094727 C76.54091861 382.99178017 76.54034121 385.51261562 76.53735352 388.03344727 C76.54858749 389.22518555 76.55982147 390.41692383 76.57139587 391.64477539 C76.56201492 392.75272461 76.55263397 393.86067383 76.54296875 395.00219727 C76.54280258 395.97608398 76.54263641 396.9499707 76.54246521 397.95336914 C76.04125977 400.53344727 76.04125977 400.53344727 74.63198853 402.84680176 C70.61280104 405.46341861 66.78677372 405.09093224 62.08789062 405.05102539 C61.07775406 405.05803467 60.06761749 405.06504395 59.02687073 405.07226562 C55.68633578 405.0898779 52.34664715 405.07821179 49.00610352 405.06469727 C46.68729998 405.06739103 44.36849754 405.07127247 42.04969788 405.07629395 C37.18992356 405.08219322 32.33044328 405.0736111 27.47070312 405.05493164 C21.23361562 405.03212954 14.99721609 405.04527102 8.76015377 405.0692215 C3.97240489 405.0836568 -0.81518014 405.07908405 -5.60293388 405.06871033 C-7.90310179 405.06603744 -10.20328446 405.06933244 -12.50343513 405.07862854 C-15.71428123 405.0887579 -18.92400351 405.07334339 -22.13476562 405.05102539 C-23.09017242 405.05912231 -24.04557922 405.06721924 -25.02993774 405.07556152 C-31.38881015 404.99344297 -31.38881015 404.99344297 -34.04847717 402.84680176 C-35.1368646 400.08075967 -35.33963003 397.97831501 -35.34692383 395.00219727 C-35.35638031 393.89424805 -35.36583679 392.78629883 -35.37557983 391.64477539 C-35.36950714 390.45303711 -35.36343445 389.26129883 -35.35717773 388.03344727 C-35.36004791 386.80561523 -35.36291809 385.5777832 -35.36587524 384.31274414 C-35.36791654 381.71703632 -35.36238216 379.12131315 -35.34985352 376.52563477 C-35.33380189 372.54872291 -35.34970115 368.57282745 -35.36889648 364.59594727 C-35.36691407 362.07511169 -35.36307042 359.55427674 -35.35717773 357.03344727 C-35.36325043 355.84170898 -35.36932312 354.6499707 -35.37557983 353.42211914 C-35.36139511 351.76019531 -35.36139511 351.76019531 -35.34692383 350.06469727 C-35.34453705 349.09081055 -35.34215027 348.11692383 -35.33969116 347.11352539 C-34.95874023 344.53344727 -34.95874023 344.53344727 -31.95874023 340.53344727 C-24.03874023 340.53344727 -16.11874023 340.53344727 -7.95874023 340.53344727 C-7.95874023 269.25344727 -7.95874023 197.97344727 -7.95874023 124.53344727 C-12.90874023 124.53344727 -17.85874023 124.53344727 -22.95874023 124.53344727 C-22.92393555 125.60723633 -22.88913086 126.68102539 -22.85327148 127.78735352 C-22.82511105 129.22353565 -22.79781333 130.65973488 -22.77124023 132.09594727 C-22.74610352 132.80041992 -22.7209668 133.50489258 -22.69506836 134.23071289 C-22.61271685 140.18747207 -23.64164845 144.83465358 -27.64233398 149.49438477 C-28.22112305 149.96102539 -28.79991211 150.42766602 -29.39624023 150.90844727 C-30.26055664 151.63161133 -30.26055664 151.63161133 -31.14233398 152.36938477 C-34.36455922 154.43438072 -37.57271403 154.65902698 -41.33416748 154.67388916 C-42.20317688 154.6795993 -43.07218628 154.68530945 -43.9675293 154.69119263 C-45.38582031 154.69286942 -45.38582031 154.69286942 -46.83276367 154.69458008 C-47.83486877 154.69954498 -48.83697388 154.70450989 -49.8694458 154.70962524 C-53.18567593 154.72423349 -56.50185821 154.73104696 -59.81811523 154.73657227 C-62.12493898 154.74232517 -64.43176271 154.74808289 -66.73858643 154.75384521 C-71.57727277 154.76435164 -76.41594252 154.77019654 -81.25463867 154.77368164 C-87.44625198 154.7791631 -93.63764502 154.80318541 -99.8291893 154.83165359 C-104.59564855 154.85030413 -109.36205502 154.85548689 -114.12854767 154.85701752 C-116.41063897 154.86003951 -118.69272944 154.86805269 -120.97478485 154.8812027 C-124.1724051 154.89831201 -127.36949085 154.89637072 -130.56713867 154.88989258 C-131.50456909 154.89910736 -132.44199951 154.90832214 -133.40783691 154.91781616 C-139.51687619 154.87916728 -145.76171944 154.43518894 -150.5194664 150.11687088 C-154.07369128 146.0291671 -155.07968486 142.84356788 -155.11264038 137.55696106 C-155.12124084 136.5294574 -155.12984131 135.50195374 -155.13870239 134.4433136 C-155.14296234 133.31652695 -155.14722229 132.1897403 -155.15161133 131.02880859 C-155.16387756 129.24789322 -155.16387756 129.24789322 -155.1763916 127.43099976 C-155.20125236 123.49250633 -155.21791814 119.55402045 -155.23217773 115.61547852 C-155.23753916 114.25763124 -155.24291667 112.89978402 -155.24831009 111.54193687 C-155.26993599 105.89127555 -155.28867047 100.24061704 -155.29993248 94.58992481 C-155.31615742 86.5033196 -155.34930229 78.41719593 -155.40633333 70.33077222 C-155.44510111 64.63891408 -155.46457332 58.94718436 -155.46985304 53.2551977 C-155.47349787 49.85880947 -155.48542438 46.46293521 -155.51795578 43.06669044 C-155.54957066 39.27244134 -155.54964847 35.47940482 -155.54223633 31.68505859 C-155.55864166 30.5683931 -155.575047 29.4517276 -155.59194946 28.30122375 C-155.53781091 21.52223765 -154.69592387 16.60468438 -149.95874023 11.53344727 C-144.84615179 7.71608447 -139.40438634 8.10173601 -133.27514648 8.12939453 C-132.21101532 8.12253128 -131.14688416 8.11566803 -130.05050659 8.1085968 C-126.54061459 8.0903278 -123.03116948 8.09416623 -119.52124023 8.09985352 C-117.07796076 8.09529216 -114.63468257 8.08998672 -112.19140625 8.08396912 C-107.07375878 8.07503807 -101.95626737 8.07746165 -96.83862305 8.08740234 C-90.28131669 8.09889854 -83.72454831 8.07866985 -77.16731262 8.04948521 C-72.1229714 8.03113888 -67.07875952 8.03141248 -62.03439331 8.03712273 C-59.61668136 8.0372761 -57.19896073 8.03121892 -54.78128052 8.01883125 C-51.40128813 8.00395138 -48.02229513 8.01457698 -44.64233398 8.03173828 C-43.14595901 8.01723633 -43.14595901 8.01723633 -41.61935425 8.00244141 C-35.89562662 8.0632844 -32.44830829 8.61804717 -27.95874023 12.53344727 C-24.73009853 16.809216 -22.82062738 20.16443811 -22.86108398 25.54516602 C-22.86430664 26.30249023 -22.8675293 27.05981445 -22.87084961 27.84008789 C-22.87922852 28.62577148 -22.88760742 29.41145508 -22.89624023 30.22094727 C-22.90075195 31.01823242 -22.90526367 31.81551758 -22.90991211 32.63696289 C-22.92168173 34.60248983 -22.93961675 36.56797812 -22.95874023 38.53344727 C-18.00874023 38.53344727 -13.05874023 38.53344727 -7.95874023 38.53344727 C-7.99354492 36.12547852 -8.02834961 33.71750977 -8.06420898 31.23657227 C-8.08761667 28.89999578 -8.10582629 26.56343244 -8.12353516 24.22680664 C-8.13860588 22.60500221 -8.15906616 20.98323843 -8.18505859 19.36157227 C-8.22151852 17.02813681 -8.23848338 14.69524096 -8.25170898 12.36157227 C-8.26719284 11.63850891 -8.2826767 10.91544556 -8.29862976 10.17047119 C-8.30078545 3.6974506 -6.85387473 0.04788132 0 0 Z M-22.95874023 53.53344727 C-22.95874023 72.01344727 -22.95874023 90.49344727 -22.95874023 109.53344727 C-18.00874023 109.53344727 -13.05874023 109.53344727 -7.95874023 109.53344727 C-7.95874023 91.05344727 -7.95874023 72.57344727 -7.95874023 53.53344727 C-12.90874023 53.53344727 -17.85874023 53.53344727 -22.95874023 53.53344727 Z " fill="#53050C" transform="translate(435.958740234375,53.466552734375)"/>
<path d="M0 0 C1.17730179 -0.01226624 1.17730179 -0.01226624 2.37838745 -0.02478027 C4.95806151 -0.04944655 7.53768101 -0.06610713 10.11743164 -0.08056641 C11.0067444 -0.08589008 11.89605717 -0.09121376 12.8123188 -0.09669876 C17.52509826 -0.12335661 22.23785198 -0.14274977 26.95068359 -0.15722656 C30.8194161 -0.17052006 34.68761547 -0.19829838 38.55615234 -0.23925781 C43.2586826 -0.28902348 47.96073287 -0.31340079 52.66351509 -0.32045364 C54.43943093 -0.32709564 56.21533906 -0.34212901 57.99110222 -0.36634445 C81.44342614 -0.66776652 98.97198535 7.43567491 116.31274414 22.84667969 C132.48119421 37.79049812 132.48119421 37.79049812 152.87011719 43.56176758 C153.86686211 43.5674173 153.86686211 43.5674173 154.88374329 43.57318115 C156.31485783 43.57957458 157.7460149 43.57932056 159.17712975 43.57299614 C161.45380412 43.5638054 163.72966871 43.5742013 166.00630188 43.58961487 C172.47489284 43.62948077 178.94341586 43.63092995 185.41210938 43.62866211 C189.38205487 43.62861058 193.35156458 43.64799249 197.32139015 43.67799568 C199.5437216 43.68868545 201.76517115 43.67677053 203.98747253 43.66416931 C218.35155021 43.6995173 228.50265841 47.08703688 238.80883789 57.10693359 C246.16923834 64.9351561 248.22028975 72.46291477 249.15258789 83.05615234 C249.97649073 86.81520904 250.65355358 88.04298176 253.84008789 90.19287109 C257.80008789 90.68787109 257.80008789 90.68787109 261.84008789 91.19287109 C261.84008789 99.11287109 261.84008789 107.03287109 261.84008789 115.19287109 C254.91008789 115.19287109 247.98008789 115.19287109 240.84008789 115.19287109 C240.30383789 113.72849609 239.76758789 112.26412109 239.21508789 110.75537109 C234.35522906 98.72467162 227.01678764 90.84823671 215.33227539 85.23583984 C204.13182692 80.54850483 190.16370077 80.07950198 178.65258789 84.25537109 C163.4331177 91.30397436 157.73178703 100.03113299 150.84008789 115.19287109 C103.65008789 115.19287109 56.46008789 115.19287109 7.84008789 115.19287109 C5.20008789 109.91287109 2.56008789 104.63287109 -0.15991211 99.19287109 C-7.8175115 89.79490821 -18.57706937 83.17159341 -30.74584961 81.40771484 C-31.54249023 81.33681641 -32.33913086 81.26591797 -33.15991211 81.19287109 C-34.44768555 81.07105469 -34.44768555 81.07105469 -35.76147461 80.94677734 C-48.75139853 80.32910085 -61.92535989 85.7285184 -71.53491211 94.40380859 C-76.97126014 100.38901868 -79.91503762 107.89190349 -83.15991211 115.19287109 C-93.05991211 115.19287109 -102.95991211 115.19287109 -113.15991211 115.19287109 C-113.54296678 93.7418094 -112.05830625 70.70396521 -98.84741211 52.75537109 C-92.29930408 46.51182623 -85.88067537 44.60430883 -76.98022461 43.55224609 C-74.08662944 43.27609692 -74.08662944 43.27609692 -71.15991211 42.19287109 C-70.45936773 40.54015823 -69.7980487 38.87066843 -69.15991211 37.19287109 C-66.70545818 33.6832841 -63.94167222 30.44681189 -61.15991211 27.19287109 C-60.64686523 26.58185547 -60.13381836 25.97083984 -59.60522461 25.34130859 C-44.89184985 9.25570199 -21.40057049 0.12560536 0 0 Z " fill="#FE4400" transform="translate(127.159912109375,219.80712890625)"/>
<path d="M0 0 C1.42796229 0.00539716 1.42796229 0.00539716 2.8847723 0.01090336 C3.89593577 0.01078282 4.90709925 0.01066229 5.94890404 0.0105381 C9.23866531 0.01128754 12.5283707 0.01891716 15.81812191 0.0267725 C17.842495 0.02824182 19.86686848 0.02926259 21.89124203 0.02982426 C29.41765568 0.03507825 36.94406121 0.04903931 44.47046566 0.06192875 C61.27984066 0.08255375 78.08921566 0.10317875 95.40796566 0.12442875 C95.40796566 38.73442875 95.40796566 77.34442875 95.40796566 117.12442875 C78.59859066 117.14505375 61.78921566 117.16567875 44.47046566 117.18692875 C36.49644588 117.20058475 36.49644588 117.20058475 28.3613348 117.21451664 C21.89124203 117.21903324 21.89124203 117.21903324 18.8664465 117.21987247 C16.74482164 117.22141239 14.62319769 117.22493826 12.50157833 117.23000431 C9.29596075 117.23727893 6.09039685 117.23833626 2.8847723 117.23795414 C1.45681001 117.2433513 1.45681001 117.2433513 0 117.2488575 C-6.478008 117.23845509 -6.478008 117.23845509 -7.59203434 116.12442875 C-7.68991698 114.63391607 -7.71835216 113.1387817 -7.71901798 111.64505863 C-7.72183781 110.67750141 -7.72465763 109.70994419 -7.7275629 108.71306705 C-7.72553867 107.64289845 -7.72351444 106.57272984 -7.72142887 105.47013187 C-7.72318119 104.34993153 -7.72493351 103.22973118 -7.72673893 102.07558537 C-7.73116011 98.35226766 -7.72821851 94.62899699 -7.72484684 90.90567875 C-7.7255198 88.33117507 -7.72648976 85.75667146 -7.72774601 83.18216801 C-7.72922334 77.778312 -7.72716188 72.37447385 -7.72240543 66.97062016 C-7.71696284 60.71481403 -7.71872551 54.45904049 -7.72423184 48.20323515 C-7.72930868 42.19591825 -7.72878142 36.18861735 -7.72585011 30.18129826 C-7.72518057 27.61990702 -7.72601018 25.05851495 -7.72832966 22.49712467 C-7.73085461 18.92430222 -7.7270178 15.35154332 -7.72142887 11.77872562 C-7.7234531 10.70855701 -7.72547733 9.6383884 -7.7275629 8.53579044 C-7.72474308 7.56823322 -7.72192326 6.600676 -7.71901798 5.60379887 C-7.71864096 4.75796993 -7.71826393 3.912141 -7.71787548 3.04068089 C-7.42549603 -1.41154159 -3.59472134 0.00577242 0 0 Z " fill="#FED200" transform="translate(302.5920343399048,75.87557125091553)"/>
<path d="M0 0 C0.98259796 -0.01007584 1.96519592 -0.02015167 2.97756958 -0.03053284 C6.22897699 -0.05905034 9.47992058 -0.06489181 12.73144531 -0.06811523 C14.99343049 -0.07775531 17.25541379 -0.08784771 19.51739502 -0.09837341 C24.26196629 -0.11634545 29.00637365 -0.12189349 33.75097656 -0.12011719 C39.8218602 -0.11981266 45.8916885 -0.16073231 51.96232224 -0.21243382 C56.63617752 -0.24584495 61.30977928 -0.25187324 65.98374176 -0.25028801 C68.22120036 -0.2538221 70.45866594 -0.26705801 72.69600677 -0.29028511 C75.83193535 -0.31978708 78.96559488 -0.31101576 82.1015625 -0.29296875 C83.02029144 -0.30982727 83.93902039 -0.32668579 84.8855896 -0.34405518 C91.68344375 -0.24498802 95.34948188 1.89168391 100.30957031 6.43579102 C101.16164062 7.17442383 102.01371094 7.91305664 102.89160156 8.67407227 C103.62765625 9.35856445 104.36371094 10.04305664 105.12207031 10.74829102 C108.57937462 13.90955703 112.10010386 16.93285938 115.74707031 19.87329102 C120.51453209 23.72883324 125.03192197 27.79801486 129.54003906 31.95141602 C132.33341981 34.45718492 135.20135356 36.83024678 138.12207031 39.18579102 C149.03952153 48.08554709 149.03952153 48.08554709 149.93457031 52.56079102 C149.14733425 56.18207691 148.25813189 57.20562375 145.30957031 59.43579102 C142.57143132 59.83086876 140.23420019 59.98094331 137.49720764 59.95045471 C136.70510861 59.95740024 135.91300959 59.96434577 135.09690756 59.97150177 C132.43972646 59.98981459 129.78343387 59.97949585 127.1262207 59.96923828 C125.22243073 59.97629462 123.31864636 59.98503842 121.41487122 59.99534607 C116.24129201 60.01788216 111.06801812 60.01489042 105.89440846 60.0060246 C101.57764267 60.00092087 97.26093456 60.00820229 92.94417471 60.01549667 C82.76164154 60.03250919 72.57925817 60.0289163 62.39672852 60.01220703 C51.88676614 59.99528362 41.37721902 60.01112032 30.867302 60.04342991 C21.84807828 60.0701079 12.82898397 60.07740667 3.80972475 60.06891483 C-1.57895437 60.06398048 -6.96738357 60.06622877 -12.35603142 60.08670235 C-17.42295941 60.10503127 -22.48928911 60.0991348 -27.55618477 60.07450294 C-29.41658859 60.06948621 -31.27703778 60.07300712 -33.1374054 60.0856514 C-35.67598939 60.10154127 -38.21259344 60.08667125 -40.75108337 60.0639801 C-41.8574103 60.08173369 -41.8574103 60.08173369 -42.98608726 60.09984595 C-46.88912315 60.02888738 -48.57407098 59.52732987 -51.68077946 57.08329678 C-53.69042969 54.43579102 -53.69042969 54.43579102 -53.78417969 51.44750977 C-52.48064235 47.85812658 -50.85999329 45.97141068 -48.19042969 43.24829102 C-47.28164062 42.29438477 -46.37285156 41.34047852 -45.43652344 40.35766602 C-44.97358887 39.87233398 -44.5106543 39.38700195 -44.03369141 38.88696289 C-41.99225447 36.68152829 -40.1284422 34.3452253 -38.25292969 31.99829102 C-34.60008201 27.46927529 -30.75728218 23.18816672 -26.79199219 18.9362793 C-22.86041933 14.69322619 -19.23762402 10.26315426 -15.66308594 5.71313477 C-10.7859917 0.08274677 -7.19286066 -0.01055119 0 0 Z " fill="#53050C" transform="translate(116.6904296875,230.564208984375)"/>
<path d="M0 0 C9.57 0 19.14 0 29 0 C29 107.58 29 215.16 29 326 C19.43 326 9.86 326 0 326 C0 218.42 0 110.84 0 0 Z " fill="#FE4400" transform="translate(442,68)"/>
<path d="M0 0 C7.44580282 6.10976159 13.06529611 12.94792952 14.1328125 22.7734375 C14.46931678 33.83321141 12.75899832 42.08230356 5.5625 50.625 C-1.58072043 58.03933275 -8.6623365 61.34737738 -18.875 61.5625 C-28.91915525 61.44800704 -35.88768016 58.57225914 -43.203125 51.671875 C-50.81715651 42.66290642 -53.19734528 32.74352724 -52.25 21.25 C-50.49694579 12.52026386 -46.02619109 5.95680737 -39.25 0.25 C-26.91467512 -7.0904464 -12.1482085 -8.65415234 0 0 Z " fill="#54050C" transform="translate(342.25,319.75)"/>
<path d="M0 0 C6.87587477 4.69794429 11.16568952 10.54524597 14.3125 18.1875 C16.09926365 28.09591659 15.92024666 37.63623917 10.55859375 46.33984375 C5.82437468 52.94138821 0.24324428 57.1695809 -7.1875 60.375 C-18.0763108 62.16005095 -27.92403124 61.89484577 -37.1796875 55.4921875 C-44.03889753 49.92716804 -49.39863172 42.80752557 -51 34 C-51.86363244 23.80913718 -49.2300625 14.33700829 -43.01953125 6.19140625 C-39.76630878 2.66131378 -36.22919629 0.23248515 -32 -2 C-31.36320312 -2.33902344 -30.72640625 -2.67804688 -30.0703125 -3.02734375 C-19.89969527 -7.60623159 -9.38329941 -5.25570943 0 0 Z " fill="#54060C" transform="translate(107,319)"/>
<path d="M0 0 C1.53914063 0.00386719 1.53914063 0.00386719 3.109375 0.0078125 C4.1715625 0.03617187 5.23375 0.06453125 6.328125 0.09375 C7.37484375 0.09117188 8.4215625 0.08859375 9.5 0.0859375 C19.03208052 0.20508851 26.79229515 1.78156671 33.78125 8.546875 C40.66317393 16.386284 41.46196685 24.22015952 40.98828125 34.30078125 C40.39513264 41.89605752 38.36605497 47.26793329 32.765625 52.53125 C26.29130954 57.96433534 20.31080313 59.03800822 12.140625 58.78125 C10.90022461 58.76094727 10.90022461 58.76094727 9.63476562 58.74023438 C7.6155986 58.70521992 5.59677182 58.65142562 3.578125 58.59375 C3.59907227 59.81481445 3.62001953 61.03587891 3.64160156 62.29394531 C3.71402659 66.82621524 3.75993388 71.35843407 3.79785156 75.89111328 C3.81796132 77.85246381 3.84525318 79.81375444 3.87988281 81.77490234 C3.92842921 84.59487695 3.95109986 87.41405865 3.96875 90.234375 C3.98939514 91.11055481 4.01004028 91.98673462 4.03131104 92.88946533 C4.03354677 98.96158293 4.03354677 98.96158293 1.74121094 102.14355469 C-1.24351642 104.14460215 -2.90333695 104.25347589 -6.421875 103.59375 C-9.49075395 100.78570674 -10.66790423 98.56377046 -10.9365387 94.4954834 C-10.96325396 92.85331408 -10.96802416 91.21069687 -10.95532227 89.56835938 C-10.96393784 88.66857864 -10.97255341 87.76879791 -10.98143005 86.8417511 C-11.0040963 83.87337315 -10.99735034 80.9059387 -10.98828125 77.9375 C-10.99351627 75.87153849 -10.9997923 73.80557937 -11.00706482 71.73962402 C-11.01747005 67.41207625 -11.01290526 63.08485728 -10.99829102 58.75732422 C-10.98109692 53.21197543 -11.00460594 47.66766215 -11.03978062 42.12242889 C-11.06174094 37.85700618 -11.06031651 33.59183181 -11.0520153 29.32637024 C-11.05119516 27.28183353 -11.05807059 25.23727871 -11.07278633 23.1927948 C-11.09020825 20.33426228 -11.07570976 17.47759798 -11.05297852 14.61914062 C-11.06467072 13.77535355 -11.07636292 12.93156647 -11.08840942 12.06221008 C-11.0184833 7.73995204 -10.80696146 6.0842905 -8.04667664 2.56811523 C-5.05744508 0.31962728 -3.69456752 -0.02840982 0 0 Z " fill="#54080C" transform="translate(334.421875,82.40625)"/>
<path d="M0 0 C27.39 0 54.78 0 83 0 C83 11.88 83 23.76 83 36 C55.61 36 28.22 36 0 36 C0 24.12 0 12.24 0 0 Z " fill="#FE4400" transform="translate(415,408)"/>
<path d="M0 0 C0.74168427 0.00444122 1.48336853 0.00888245 2.24752808 0.01345825 C3.50860886 0.01368484 3.50860886 0.01368484 4.79516602 0.01391602 C6.15773026 0.02939987 6.15773026 0.02939987 7.54782104 0.04519653 C8.94192703 0.04944138 8.94192703 0.04944138 10.36419678 0.05377197 C13.33959704 0.06498834 16.3146989 0.09009543 19.29000854 0.11550903 C21.30432712 0.12553696 23.31865041 0.13466313 25.33297729 0.14285278 C30.27719584 0.16323291 35.22076723 0.20237864 40.16500854 0.24050903 C40.16500854 10.47050903 40.16500854 20.70050903 40.16500854 31.24050903 C17.72500854 31.24050903 -4.71499146 31.24050903 -27.83499146 31.24050903 C-21.15615934 22.33539954 -21.15615934 22.33539954 -17.52249146 18.42800903 C-13.39726812 13.91823098 -9.51581611 9.24985746 -5.68264771 4.49050903 C-2.23576597 0.29303783 -2.23576597 0.29303783 0 0 Z " fill="#FE4400" transform="translate(113.83499145507813,244.75949096679688)"/>
<path d="M0 0 C36.48216663 -2.2036208 36.48216663 -2.2036208 44.20727539 3.99145508 C46.43988228 6.26197477 48.48260412 8.61559588 50.43554688 11.13037109 C53.26857297 14.51603181 56.73402616 17.19402826 60.125 20 C61.34000236 21.03692253 62.55118023 22.07834932 63.7578125 23.125 C64.2645752 23.56070312 64.77133789 23.99640625 65.29345703 24.4453125 C67.60422569 26.55045912 69.78965002 28.78965002 72 31 C48.24 31 24.48 31 0 31 C0 20.77 0 10.54 0 0 Z " fill="#FE4400" transform="translate(168,245)"/>
<path d="M0 0 C7.44580282 6.10976159 13.06529611 12.94792952 14.1328125 22.7734375 C14.46931678 33.83321141 12.75899832 42.08230356 5.5625 50.625 C-1.58072043 58.03933275 -8.6623365 61.34737738 -18.875 61.5625 C-28.91915525 61.44800704 -35.88768016 58.57225914 -43.203125 51.671875 C-50.81715651 42.66290642 -53.19734528 32.74352724 -52.25 21.25 C-50.49694579 12.52026386 -46.02619109 5.95680737 -39.25 0.25 C-26.91467512 -7.0904464 -12.1482085 -8.65415234 0 0 Z M-38.83984375 13.15234375 C-43.39341693 19.92594153 -42.90099528 27.41301831 -42.25 35.25 C-40.58439596 42.02837592 -35.73564204 46.24936005 -30.25 50.25 C-24.99087264 53.43315604 -18.44779227 53.00186187 -12.625 51.6328125 C-5.37531437 49.13520739 -0.89567408 44.95552033 2.84375 38.3046875 C5.48442108 32.26537494 5.95190951 25.87175399 3.87109375 19.6015625 C0.89037191 13.04987687 -2.85268826 8.33377115 -9.41796875 5.22265625 C-21.21165275 0.81778632 -30.73550709 3.51527202 -38.83984375 13.15234375 Z " fill="#FB4300" transform="translate(342.25,319.75)"/>
<path d="M0 0 C6.87587477 4.69794429 11.16568952 10.54524597 14.3125 18.1875 C16.09926365 28.09591659 15.92024666 37.63623917 10.55859375 46.33984375 C5.82437468 52.94138821 0.24324428 57.1695809 -7.1875 60.375 C-18.0763108 62.16005095 -27.92403124 61.89484577 -37.1796875 55.4921875 C-44.03889753 49.92716804 -49.39863172 42.80752557 -51 34 C-51.86363244 23.80913718 -49.2300625 14.33700829 -43.01953125 6.19140625 C-39.76630878 2.66131378 -36.22919629 0.23248515 -32 -2 C-31.36320312 -2.33902344 -30.72640625 -2.67804688 -30.0703125 -3.02734375 C-19.89969527 -7.60623159 -9.38329941 -5.25570943 0 0 Z M-36 12 C-39.7800022 17.81349579 -43.19931259 23.9373814 -42 31 C-40.30895459 38.53408849 -37.13920244 45.00815543 -30.7734375 49.609375 C-24.64205732 53.07409142 -18.96051212 54.21138727 -12 53 C-4.55541312 50.65812418 0.15596721 46.74721839 4 40 C6.90274599 34.06256502 7.12866519 26.7757923 5.2421875 20.46484375 C2.26630638 13.44691939 -1.07929331 9.09502428 -8 5.796875 C-18.46306184 1.6279988 -27.89150732 4.60619818 -36 12 Z " fill="#FB4300" transform="translate(107,319)"/>
<path d="M0 0 C15 0 15 0 21 4 C23.63190432 7.46622558 23.2999115 11.20356804 23.3125 15.4375 C23.32925781 16.73558594 23.34601563 18.03367187 23.36328125 19.37109375 C22.97895378 23.21023591 22.45564964 25.05215043 20 28 C15 30 15 30 0 30 C0 20.1 0 10.2 0 0 Z " fill="#FD4400" transform="translate(338,97)"/>
<path d="M0 0 C3.51323399 2.82772492 3.93159096 4.46127881 4.5 8.9375 C4.29249732 13.15140065 2.69593666 15.74901756 0 19 C-3.2311773 20.61558865 -6.50661249 20.57553894 -10 20 C-12.94250373 17.9965932 -14.51687779 16.48837651 -15.62890625 13.0625 C-16.23574423 9.68975837 -16.14483456 7.34302921 -14.8125 4.1875 C-10.32105744 -1.23320654 -6.79557188 -2.00749922 0 0 Z " fill="#FB4300" transform="translate(95,338)"/>
<path d="M0 0 C2.44597914 1.90242822 3.35040209 2.80586139 4.25 5.75 C4.73672731 10.13054581 4.53491116 12.23715991 2.375 16.125 C0.25 18.75 0.25 18.75 -1.75 19.75 C-8.71180396 20.4347676 -8.71180396 20.4347676 -12.6875 17.8125 C-15.37325606 13.82455919 -16.05357923 10.52920443 -15.75 5.75 C-14.52958841 2.73108712 -13.55119643 1.33017673 -10.9375 -0.5625 C-6.88938379 -1.83476509 -3.87012891 -1.75914951 0 0 Z " fill="#FB4300" transform="translate(328.75,338.25)"/>
</svg>
