<svg version="1.1" id="Layer_1" xmlns="http://www.w3.org/2000/svg" xmlns:xlink="http://www.w3.org/1999/xlink" x="0px" y="0px"
	 width="100%" viewBox="0 0 512 512" enable-background="new 0 0 512 512" xml:space="preserve">
<path fill="#000000" opacity="1.000000" stroke="none" 
	d="
M230.000000,513.000000 
	C153.351913,513.000000 77.203827,513.000000 1.027873,513.000000 
	C1.027873,342.393555 1.027873,171.787109 1.027873,1.090327 
	C171.564774,1.090327 342.129608,1.090327 512.847229,1.090327 
	C512.847229,171.666565 512.847229,342.333252 512.847229,513.000000 
	C418.787079,513.000000 324.643524,513.000000 230.000000,513.000000 
M448.985077,334.012543 
	C448.985077,334.012543 449.023590,334.075714 449.694000,333.911438 
	C453.518463,329.256897 457.342896,324.602325 462.075623,319.975128 
	C473.255920,319.975128 484.436218,319.975128 496.347626,319.975128 
	C496.347626,311.821960 496.347626,304.412476 496.874664,296.535065 
	C499.916626,289.079010 502.958588,281.622986 506.857849,273.994659 
	C507.363861,270.729584 507.869873,267.464508 508.384308,264.145325 
	C505.590057,264.007599 503.795532,263.919189 501.710022,263.222778 
	C499.099182,261.273560 496.464935,259.354797 493.881409,257.370056 
	C480.371246,246.991226 466.369598,237.474365 449.191132,232.039078 
	C435.422119,227.229797 421.320068,224.721024 406.660095,224.922272 
	C392.036163,225.123032 377.403839,224.712982 362.483734,224.052307 
	C358.488403,221.303101 354.493683,218.553085 350.497620,215.804901 
	C343.731110,211.151398 337.128448,206.233673 330.158325,201.908188 
	C319.581879,195.344696 308.749939,189.192932 297.655945,182.261673 
	C279.072998,174.025116 259.801483,168.925323 239.305252,168.974564 
	C203.865143,169.059738 168.424377,168.932053 132.984726,169.086487 
	C128.813751,169.104645 124.516045,169.891235 120.504372,171.085251 
	C107.934555,174.826462 95.473488,178.933044 82.177818,182.942627 
	C81.680077,182.963120 81.149010,182.876511 80.689407,183.019547 
	C63.285076,188.435593 45.880852,193.852142 28.492130,199.317993 
	C22.237801,201.283936 16.022907,203.375336 9.033400,205.371338 
	C8.531856,205.313217 8.030313,205.255112 7.422328,205.071747 
	C7.422328,205.071747 7.339477,205.321091 6.711792,206.000626 
	C6.528955,209.000061 6.346117,211.999496 6.031826,215.867172 
	C6.090832,217.126663 6.149838,218.386139 6.230145,220.100281 
	C10.022225,220.100281 13.467911,220.100281 16.976068,221.020065 
	C16.955206,234.979980 16.934343,248.939896 16.004866,262.979462 
	C12.760969,262.979462 9.517073,262.979462 6.150251,262.979462 
	C6.150251,274.823364 6.150251,285.914764 6.040727,297.708740 
	C10.353275,303.657867 14.666775,309.606323 18.978024,315.556396 
	C21.440275,318.954620 24.453503,320.433929 28.938061,320.131897 
	C36.227444,319.640900 43.574749,320.009979 51.206192,320.632263 
	C54.334305,324.477295 57.283260,328.486053 60.621201,332.139374 
	C75.968849,348.937012 107.775459,349.308105 124.391068,334.904785 
	C124.608528,334.595093 124.825981,334.285431 124.984970,334.010101 
	C124.984970,334.010101 125.023872,334.065643 125.605331,333.722717 
	C129.442383,329.150360 133.279449,324.578033 138.039215,320.000824 
	C216.989761,320.027985 295.940308,320.055115 375.253937,320.655609 
	C375.912109,321.611237 376.571106,322.566284 377.228241,323.522614 
	C390.097565,342.251190 409.542847,348.656036 430.807281,343.634583 
	C436.855988,342.206207 442.271851,338.098022 448.400421,334.860474 
	C448.616333,334.564972 448.832245,334.269440 448.985077,334.012543 
z"/>
<path fill="#DB3328" opacity="1.000000" stroke="none" 
	d="
M449.952026,232.164978 
	C466.369598,237.474365 480.371246,246.991226 493.881409,257.370056 
	C496.464935,259.354797 499.099182,261.273560 501.391785,263.595978 
	C493.163208,263.969177 485.252899,263.969177 477.344421,263.969177 
	C477.344421,267.645782 477.344421,270.688751 477.344421,274.166962 
	C487.124390,274.166962 496.562469,274.166962 506.000549,274.166962 
	C502.958588,281.622986 499.916626,289.079010 496.109619,296.774231 
	C485.950378,296.989105 476.556244,296.964844 467.108154,296.504120 
	C465.274323,288.733948 464.669922,280.840881 461.496155,274.170349 
	C451.605957,253.383469 425.709595,242.216507 405.625641,249.379578 
	C395.921478,252.298508 387.668671,256.758789 381.766968,264.823792 
	C381.815186,264.891022 381.949310,264.794037 381.653168,264.872192 
	C381.107117,265.267456 380.857208,265.584564 380.351746,266.100189 
	C372.364197,275.098145 369.709686,285.719543 368.586090,297.046570 
	C293.122894,297.004700 218.131821,296.975983 143.085007,296.511841 
	C141.040726,288.427002 140.271591,280.172607 136.833328,273.242401 
	C126.816177,253.051727 101.390327,242.414505 81.629333,249.328400 
	C71.894264,252.177979 63.662037,256.675629 57.637081,264.616119 
	C57.673611,264.676422 57.793182,264.601685 57.524143,264.678345 
	C56.916996,265.182831 56.578892,265.610626 55.987263,266.272217 
	C47.990833,275.209747 45.688824,285.842682 44.452290,297.010742 
	C31.376411,297.004730 18.763330,297.005432 6.150251,297.006134 
	C6.150251,285.914764 6.150251,274.823364 6.150251,262.979462 
	C9.517073,262.979462 12.760969,262.979462 16.893520,262.963318 
	C19.528543,262.956299 21.274912,262.965454 23.455465,262.984924 
	C26.183449,262.981415 28.477249,262.967529 31.217922,262.963318 
	C34.204205,262.538055 37.979362,262.997009 39.058212,261.505585 
	C42.731319,256.427826 46.326046,250.934875 48.167088,245.043106 
	C49.073292,242.143021 46.128609,237.994522 44.802582,234.457413 
	C43.870033,231.969879 42.374718,229.647293 41.751060,227.099197 
	C40.284508,221.107208 36.587173,219.039825 30.345137,220.043182 
	C27.619890,220.035141 25.320583,220.030258 22.584324,220.020233 
	C20.402779,220.043488 18.658188,220.071884 16.913595,220.100281 
	C13.467911,220.100281 10.022225,220.100281 6.230145,220.100281 
	C6.149838,218.386139 6.090832,217.126663 6.538854,215.432678 
	C25.950356,213.491333 44.851696,211.943573 63.760643,210.495087 
	C73.036903,209.784485 82.501793,207.807281 91.581062,208.899384 
	C131.058823,213.647995 170.424179,219.329239 209.834503,224.641068 
	C225.828644,226.796814 241.783920,230.087067 257.843201,230.741089 
	C293.750610,232.203491 329.710114,232.514587 365.652557,232.947418 
	C391.461212,233.258209 417.276703,233.028351 443.088959,232.970184 
	C445.377258,232.965027 447.664368,232.445557 449.952026,232.164978 
M252.170990,255.202637 
	C282.751129,258.767761 313.319061,262.447327 343.931641,265.708069 
	C346.764923,266.009888 350.434845,264.305878 352.735046,262.368347 
	C356.034424,259.589142 355.056854,257.190735 350.839844,256.306885 
	C348.235260,255.760956 345.580353,255.452667 342.945648,255.053375 
	C299.819061,248.517578 256.681671,242.051804 213.573029,235.399689 
	C203.657440,233.869598 194.036011,232.098206 184.688461,238.049622 
	C179.961441,241.059235 174.507019,243.016235 169.222717,245.033188 
	C164.751984,246.739624 165.117096,248.833237 167.677628,251.994446 
	C174.281677,260.147705 181.223953,268.088501 187.120239,276.735291 
	C192.443069,284.541107 198.797668,288.615814 208.324661,287.074097 
	C209.287155,286.918335 210.315277,287.167450 211.312897,287.229370 
	C231.572372,288.486694 251.832016,289.741302 272.091248,291.002563 
	C286.538025,291.901947 300.983368,292.824066 315.430939,293.710449 
	C327.887726,294.474731 340.345154,295.232147 352.806793,295.908905 
	C354.335693,295.991913 355.892700,295.557770 357.492767,295.356232 
	C356.196045,289.551086 353.604340,287.739197 346.828796,287.056458 
	C336.231689,285.988678 325.640045,284.862915 315.053467,283.694702 
	C285.776123,280.464020 256.560303,276.383240 227.202209,274.304962 
	C213.366119,273.325439 205.296310,266.190887 197.682449,256.501373 
	C204.472717,251.186157 208.893631,250.262482 217.528214,251.355042 
	C228.752487,252.775269 240.017746,253.871582 252.170990,255.202637 
z"/>
<path fill="#B5100B" opacity="1.000000" stroke="none" 
	d="
M143.140747,296.947266 
	C218.131821,296.975983 293.122894,297.004700 368.694855,297.431702 
	C371.147461,305.247437 373.019165,312.664886 374.890869,320.082275 
	C295.940308,320.055115 216.989761,320.027985 137.600128,319.641479 
	C138.447845,315.508728 139.734650,311.735352 141.229797,307.646576 
	C142.005692,303.869904 142.573212,300.408569 143.140747,296.947266 
z"/>
<path fill="#E57267" opacity="1.000000" stroke="none" 
	d="
M449.571594,232.102020 
	C447.664368,232.445557 445.377258,232.965027 443.088959,232.970184 
	C417.276703,233.028351 391.461212,233.258209 365.652557,232.947418 
	C329.710114,232.514587 293.750610,232.203491 257.843201,230.741089 
	C241.783920,230.087067 225.828644,226.796814 209.834503,224.641068 
	C170.424179,219.329239 131.058823,213.647995 91.581062,208.899384 
	C82.501793,207.807281 73.036903,209.784485 63.760643,210.495087 
	C44.851696,211.943573 25.950356,213.491333 6.604581,214.998566 
	C6.346117,211.999496 6.528955,209.000061 7.085410,205.723938 
	C7.459027,205.447266 7.528768,205.197006 7.528769,205.197006 
	C8.030313,205.255112 8.531856,205.313217 9.764044,205.573730 
	C21.511633,204.492310 32.528580,203.208496 44.008904,201.953613 
	C46.458851,201.820404 48.449703,201.698853 50.431297,201.489609 
	C64.153503,200.040680 77.873787,198.573471 91.990875,197.253922 
	C103.501266,199.153519 114.606384,200.971375 125.731956,202.653992 
	C139.798935,204.781479 153.882584,206.798798 168.314041,209.029602 
	C170.995529,209.549057 173.322037,209.902573 175.996384,210.460251 
	C182.917847,211.586319 189.491470,212.508224 196.427582,213.531067 
	C200.661911,214.087494 204.533722,214.543015 208.717438,215.200760 
	C223.644684,217.610397 238.260040,219.817810 253.287384,222.133148 
	C255.333923,222.489410 256.968353,222.953156 258.602966,222.953781 
	C282.811340,222.963058 307.019684,222.910904 331.672058,222.903809 
	C336.596832,223.196320 341.077576,223.458328 345.960205,223.789307 
	C351.833130,224.095749 357.304169,224.333237 362.775208,224.570709 
	C377.403839,224.712982 392.036163,225.123032 406.660095,224.922272 
	C421.320068,224.721024 435.422119,227.229797 449.571594,232.102020 
z"/>
<path fill="#DA3328" opacity="1.000000" stroke="none" 
	d="
M345.558350,223.720337 
	C341.077576,223.458328 336.596832,223.196320 331.480652,222.620667 
	C326.947998,219.474701 323.017670,216.686584 319.158630,213.803085 
	C288.157532,190.638885 253.184006,181.033981 214.321747,183.111465 
	C207.958237,183.094681 202.035904,183.130615 195.638367,183.107635 
	C188.776169,183.086777 182.389175,183.124847 175.539444,183.107056 
	C170.309296,183.085663 165.541855,183.120132 160.322906,183.106079 
	C154.189697,183.093384 148.508011,183.129211 142.407074,183.112396 
	C139.867905,183.277313 137.650909,183.168167 135.643570,183.764603 
	C120.937019,188.134384 106.272476,192.645554 91.594688,197.112137 
	C77.873787,198.573471 64.153503,200.040680 50.431297,201.489609 
	C48.449703,201.698853 46.458851,201.820404 44.329216,201.722412 
	C61.861881,195.603317 79.537605,189.744370 97.213333,183.885422 
	C97.175034,183.556305 97.136726,183.227188 97.098419,182.898071 
	C92.389046,182.898071 87.679665,182.898071 82.970284,182.898071 
	C95.473488,178.933044 107.934555,174.826462 120.504372,171.085251 
	C124.516045,169.891235 128.813751,169.104645 132.984726,169.086487 
	C168.424377,168.932053 203.865143,169.059738 239.305252,168.974564 
	C259.801483,168.925323 279.072998,174.025116 297.395935,182.600433 
	C294.213287,182.939178 291.290680,182.939178 288.368042,182.939178 
	C288.261749,183.296783 288.155457,183.654404 288.049164,184.012009 
	C307.218872,197.248123 326.388611,210.484238 345.558350,223.720337 
z"/>
<path fill="#1D2617" opacity="1.000000" stroke="none" 
	d="
M44.915089,297.017487 
	C45.688824,285.842682 47.990833,275.209747 56.240379,266.168884 
	C57.095737,265.421722 57.444458,265.011688 57.793182,264.601685 
	C57.793182,264.601685 57.673611,264.676422 58.077896,264.719238 
	C67.210274,265.685944 69.446671,267.854248 70.804825,276.514740 
	C71.209572,279.095673 71.823730,281.643768 72.260406,284.591064 
	C71.796005,286.414734 71.437042,287.861084 71.026512,289.292633 
	C67.331810,302.176605 73.731461,314.762207 86.496468,319.091614 
	C93.030807,321.307770 99.578072,320.154968 106.316299,318.074005 
	C107.791298,318.514191 108.892441,318.871918 110.021706,319.066467 
	C112.290344,319.457184 114.578888,319.730927 116.851089,320.102631 
	C122.929924,321.097107 124.945412,324.555573 125.023872,334.065643 
	C125.023872,334.065643 124.984970,334.010101 124.815155,334.194458 
	C124.422691,334.686432 124.200058,334.993988 123.977417,335.301575 
	C107.775459,349.308105 75.968849,348.937012 60.621201,332.139374 
	C57.283260,328.486053 54.334305,324.477295 51.042503,319.957794 
	C48.890903,311.861389 46.902996,304.439423 44.915089,297.017487 
z"/>
<path fill="#1D2617" opacity="1.000000" stroke="none" 
	d="
M375.072388,320.368958 
	C373.019165,312.664886 371.147461,305.247437 369.166992,297.444885 
	C369.709686,285.719543 372.364197,275.098145 380.608582,265.957764 
	C381.397095,265.342590 381.673218,265.068298 381.949310,264.794037 
	C381.949310,264.794037 381.815186,264.891022 382.202972,264.881042 
	C391.769836,265.561707 394.128937,268.017853 395.066895,277.378265 
	C395.291962,279.624390 396.172852,281.804810 396.694763,284.375977 
	C389.265442,300.859467 398.206879,315.038025 410.054596,318.979248 
	C416.797058,321.222198 423.421570,320.186554 430.317444,318.060669 
	C434.232605,318.829132 437.768280,319.526886 441.331146,320.033600 
	C446.106384,320.712738 448.668762,323.386536 448.968750,328.168030 
	C449.091919,330.130676 449.011444,332.106110 449.023590,334.075714 
	C449.023590,334.075714 448.985077,334.012543 448.820251,334.183655 
	C448.429626,334.642792 448.203796,334.930786 447.977966,335.218750 
	C442.271851,338.098022 436.855988,342.206207 430.807281,343.634583 
	C409.542847,348.656036 390.097565,342.251190 377.228241,323.522614 
	C376.571106,322.566284 375.912109,321.611237 375.072388,320.368958 
z"/>
<path fill="#333D2C" opacity="1.000000" stroke="none" 
	d="
M72.341934,284.206909 
	C71.823730,281.643768 71.209572,279.095673 70.804825,276.514740 
	C69.446671,267.854248 67.210274,265.685944 58.041367,264.658936 
	C63.662037,256.675629 71.894264,252.177979 81.622421,249.772461 
	C81.895439,254.477615 84.315048,255.952881 88.290207,256.000427 
	C90.762337,256.030029 93.286629,256.190918 95.690598,256.727264 
	C118.114159,261.730133 132.671875,278.596344 134.846024,302.407684 
	C135.238358,306.704468 136.826157,308.478027 141.021439,307.961945 
	C139.734650,311.735352 138.447845,315.508728 137.138779,319.643921 
	C133.279449,324.578033 129.442383,329.150360 125.314606,333.894165 
	C124.945412,324.555573 122.929924,321.097107 116.851089,320.102631 
	C114.578888,319.730927 112.290344,319.457184 110.021706,319.066467 
	C108.892441,318.871918 107.791298,318.514191 106.443375,317.880920 
	C106.469650,317.148010 106.729988,316.764435 107.282776,316.179504 
	C112.926132,312.002930 116.872612,307.182922 117.323792,299.775391 
	C117.683769,297.626953 118.049431,295.819519 117.936356,294.042542 
	C117.059082,280.256439 102.172691,269.115936 89.758362,273.133118 
	C82.524780,274.321320 77.301849,277.843170 73.675949,284.018158 
	C73.050346,284.089355 72.696144,284.148132 72.341934,284.206909 
z"/>
<path fill="#333D2C" opacity="1.000000" stroke="none" 
	d="
M396.752136,284.015442 
	C396.172852,281.804810 395.291962,279.624390 395.066895,277.378265 
	C394.128937,268.017853 391.769836,265.561707 382.154724,264.813782 
	C387.668671,256.758789 395.921478,252.298508 405.619995,249.821304 
	C405.906708,254.545914 408.385681,255.956497 412.344940,256.002960 
	C414.821289,256.032013 417.349945,256.203033 419.757904,256.743469 
	C442.041809,261.744812 456.653473,278.574646 458.818207,302.105164 
	C459.230804,306.590210 460.765106,308.562103 465.212341,308.343567 
	C463.841339,312.474976 462.504333,316.211365 461.167358,319.947754 
	C457.342896,324.602325 453.518463,329.256897 449.358795,333.993591 
	C449.011444,332.106110 449.091919,330.130676 448.968750,328.168030 
	C448.668762,323.386536 446.106384,320.712738 441.331146,320.033600 
	C437.768280,319.526886 434.232605,318.829132 430.446228,317.869995 
	C430.468567,317.142670 430.729431,316.761780 431.282776,316.179565 
	C436.926117,312.002960 440.872528,307.182892 441.323761,299.775391 
	C441.683746,297.626953 442.049469,295.819489 441.936371,294.042542 
	C441.058990,280.256287 426.172607,269.115845 413.758301,273.133118 
	C406.523254,274.320282 401.302399,277.846405 397.646423,284.002197 
	C397.149567,284.004089 396.950836,284.009766 396.752136,284.015442 
z"/>
<path fill="#B6110C" opacity="1.000000" stroke="none" 
	d="
M44.452290,297.010742 
	C46.902996,304.439423 48.890903,311.861389 50.888210,319.649689 
	C43.574749,320.009979 36.227444,319.640900 28.938061,320.131897 
	C24.453503,320.433929 21.440275,318.954620 18.978024,315.556396 
	C14.666775,309.606323 10.353275,303.657867 6.095490,297.357422 
	C18.763330,297.005432 31.376411,297.004730 44.452290,297.010742 
z"/>
<path fill="#B5100B" opacity="1.000000" stroke="none" 
	d="
M461.621460,319.961426 
	C462.504333,316.211365 463.841339,312.474976 465.405151,308.034363 
	C466.141998,303.866913 466.652039,300.403748 467.162079,296.940552 
	C476.556244,296.964844 485.950378,296.989105 495.846069,297.008179 
	C496.347626,304.412476 496.347626,311.821960 496.347626,319.975128 
	C484.436218,319.975128 473.255920,319.975128 461.621460,319.961426 
z"/>
<path fill="#797A69" opacity="1.000000" stroke="none" 
	d="
M345.960205,223.789307 
	C326.388611,210.484238 307.218872,197.248123 288.049164,184.012009 
	C288.155457,183.654404 288.261749,183.296783 288.368042,182.939178 
	C291.290680,182.939178 294.213287,182.939178 297.581238,182.902710 
	C308.749939,189.192932 319.581879,195.344696 330.158325,201.908188 
	C337.128448,206.233673 343.731110,211.151398 350.497620,215.804901 
	C354.493683,218.553085 358.488403,221.303101 362.629456,224.311523 
	C357.304169,224.333237 351.833130,224.095749 345.960205,223.789307 
z"/>
<path fill="#4B5143" opacity="1.000000" stroke="none" 
	d="
M82.574051,182.920349 
	C87.679665,182.898071 92.389046,182.898071 97.098419,182.898071 
	C97.136726,183.227188 97.175034,183.556305 97.213333,183.885422 
	C79.537605,189.744370 61.861881,195.603317 43.865837,201.693481 
	C32.528580,203.208496 21.511633,204.492310 10.142351,205.592789 
	C16.022907,203.375336 22.237801,201.283936 28.492130,199.317993 
	C45.880852,193.852142 63.285076,188.435593 80.689407,183.019547 
	C81.149010,182.876511 81.680077,182.963120 82.574051,182.920349 
z"/>
<path fill="#EBEADF" opacity="1.000000" stroke="none" 
	d="
M506.429199,274.080811 
	C496.562469,274.166962 487.124390,274.166962 477.344421,274.166962 
	C477.344421,270.688751 477.344421,267.645782 477.344421,263.969177 
	C485.252899,263.969177 493.163208,263.969177 501.537292,263.899963 
	C503.795532,263.919189 505.590057,264.007599 508.384308,264.145325 
	C507.869873,267.464508 507.363861,270.729584 506.429199,274.080811 
z"/>
<path fill="#B5100B" opacity="1.000000" stroke="none" 
	d="
M23.021280,262.974609 
	C21.274912,262.965454 19.528543,262.956299 17.347828,262.923462 
	C16.934343,248.939896 16.955206,234.979980 16.944832,220.560181 
	C18.658188,220.071884 20.402779,220.043488 22.574781,220.486038 
	C23.008554,234.962875 23.014917,248.968765 23.021280,262.974609 
z"/>
<path fill="#4B5143" opacity="1.000000" stroke="none" 
	d="
M7.475548,205.134369 
	C7.528768,205.197006 7.459027,205.447266 7.399252,205.384186 
	C7.339477,205.321091 7.422328,205.071747 7.475548,205.134369 
z"/>
<path fill="#333D2C" opacity="1.000000" stroke="none" 
	d="
M124.184242,335.103180 
	C124.200058,334.993988 124.422691,334.686432 124.844391,334.177307 
	C124.825981,334.285431 124.608528,334.595093 124.184242,335.103180 
z"/>
<path fill="#333D2C" opacity="1.000000" stroke="none" 
	d="
M448.189209,335.039612 
	C448.203796,334.930786 448.429626,334.642792 448.851807,334.164368 
	C448.832245,334.269440 448.616333,334.564972 448.189209,335.039612 
z"/>
<path fill="#B6110C" opacity="1.000000" stroke="none" 
	d="
M251.718170,255.154968 
	C240.017746,253.871582 228.752487,252.775269 217.528214,251.355042 
	C208.893631,250.262482 204.472717,251.186157 197.682449,256.501373 
	C205.296310,266.190887 213.366119,273.325439 227.202209,274.304962 
	C256.560303,276.383240 285.776123,280.464020 315.053467,283.694702 
	C325.640045,284.862915 336.231689,285.988678 346.828796,287.056458 
	C353.604340,287.739197 356.196045,289.551086 357.492767,295.356232 
	C355.892700,295.557770 354.335693,295.991913 352.806793,295.908905 
	C340.345154,295.232147 327.887726,294.474731 315.430939,293.710449 
	C300.983368,292.824066 286.538025,291.901947 272.091248,291.002563 
	C251.832016,289.741302 231.572372,288.486694 211.312897,287.229370 
	C210.315277,287.167450 209.287155,286.918335 208.324661,287.074097 
	C198.797668,288.615814 192.443069,284.541107 187.120239,276.735291 
	C181.223953,268.088501 174.281677,260.147705 167.677628,251.994446 
	C165.117096,248.833237 164.751984,246.739624 169.222717,245.033188 
	C174.507019,243.016235 179.961441,241.059235 184.688461,238.049622 
	C194.036011,232.098206 203.657440,233.869598 213.573029,235.399689 
	C256.681671,242.051804 299.819061,248.517578 342.945648,255.053375 
	C345.580353,255.452667 348.235260,255.760956 350.839844,256.306885 
	C355.056854,257.190735 356.034424,259.589142 352.735046,262.368347 
	C350.434845,264.305878 346.764923,266.009888 343.931641,265.708069 
	C313.319061,262.447327 282.751129,258.767761 251.718170,255.154968 
z"/>
<path fill="#495143" opacity="1.000000" stroke="none" 
	d="
M467.108154,296.504120 
	C466.652039,300.403748 466.141998,303.866913 465.439148,307.639313 
	C460.765106,308.562103 459.230804,306.590210 458.818207,302.105164 
	C456.653473,278.574646 442.041809,261.744812 419.757904,256.743469 
	C417.349945,256.203033 414.821289,256.032013 412.344940,256.002960 
	C408.385681,255.956497 405.906708,254.545914 406.019836,249.747482 
	C425.709595,242.216507 451.605957,253.383469 461.496155,274.170349 
	C464.669922,280.840881 465.274323,288.733948 467.108154,296.504120 
z"/>
<path fill="#495143" opacity="1.000000" stroke="none" 
	d="
M141.229797,307.646576 
	C136.826157,308.478027 135.238358,306.704468 134.846024,302.407684 
	C132.671875,278.596344 118.114159,261.730133 95.690598,256.727264 
	C93.286629,256.190918 90.762337,256.030029 88.290207,256.000427 
	C84.315048,255.952881 81.895439,254.477615 82.025536,249.706924 
	C101.390327,242.414505 126.816177,253.051727 136.833328,273.242401 
	C140.271591,280.172607 141.040726,288.427002 143.085007,296.511841 
	C142.573212,300.408569 142.005692,303.869904 141.229797,307.646576 
z"/>
<path fill="#B5100B" opacity="1.000000" stroke="none" 
	d="
M30.771074,220.046371 
	C36.587173,219.039825 40.284508,221.107208 41.751060,227.099197 
	C42.374718,229.647293 43.870033,231.969879 44.802582,234.457413 
	C46.128609,237.994522 49.073292,242.143021 48.167088,245.043106 
	C46.326046,250.934875 42.731319,256.427826 39.058212,261.505585 
	C37.979362,262.997009 34.204205,262.538055 31.232292,262.499054 
	C30.790218,248.032196 30.780645,234.039291 30.771074,220.046371 
z"/>
<path fill="#E57267" opacity="1.000000" stroke="none" 
	d="
M30.345137,220.043182 
	C30.780645,234.039291 30.790218,248.032196 30.785419,262.489380 
	C28.477249,262.967529 26.183449,262.981415 23.455465,262.984955 
	C23.014917,248.968765 23.008554,234.962875 23.011734,220.491180 
	C25.320583,220.030258 27.619890,220.035141 30.345137,220.043182 
z"/>
<path fill="#333D2C" opacity="1.000000" stroke="none" 
	d="
M57.524139,264.678345 
	C57.444458,265.011688 57.095737,265.421722 56.493904,265.935059 
	C56.578892,265.610626 56.916996,265.182831 57.524139,264.678345 
z"/>
<path fill="#333D2C" opacity="1.000000" stroke="none" 
	d="
M381.653168,264.872192 
	C381.673218,265.068298 381.397095,265.342590 380.864136,265.759277 
	C380.857208,265.584564 381.107117,265.267456 381.653168,264.872192 
z"/>
<path fill="#495143" opacity="1.000000" stroke="none" 
	d="
M214.762909,183.164169 
	C253.184006,181.033981 288.157532,190.638885 319.158630,213.803085 
	C323.017670,216.686584 326.947998,219.474701 331.036682,222.590164 
	C307.019684,222.910904 282.811340,222.963058 258.602966,222.953781 
	C256.968353,222.953156 255.333923,222.489410 253.138367,221.844131 
	C251.332748,220.112411 250.123169,218.742920 248.838150,217.448288 
	C237.487366,206.012680 226.123154,194.590393 214.762909,183.164169 
z"/>
<path fill="#747E6C" opacity="1.000000" stroke="none" 
	d="
M214.321747,183.111465 
	C226.123154,194.590393 237.487366,206.012680 248.838150,217.448288 
	C250.123169,218.742920 251.332748,220.112411 252.726349,221.736206 
	C238.260040,219.817810 223.644684,217.610397 208.485077,214.924683 
	C204.044266,210.553558 200.147705,206.660721 196.217865,202.315369 
	C196.160904,195.630737 196.137238,189.398636 196.113571,183.166534 
	C202.035904,183.130615 207.958237,183.094681 214.321747,183.111465 
z"/>
<path fill="#4B5143" opacity="1.000000" stroke="none" 
	d="
M91.990875,197.253922 
	C106.272476,192.645554 120.937019,188.134384 135.643570,183.764603 
	C137.650909,183.168167 139.867905,183.277313 142.605591,183.384277 
	C151.468567,192.093719 159.713806,200.478668 167.959045,208.863617 
	C153.882584,206.798798 139.798935,204.781479 125.731956,202.653992 
	C114.606384,200.971375 103.501266,199.153519 91.990875,197.253922 
z"/>
<path fill="#333D2C" opacity="1.000000" stroke="none" 
	d="
M195.638367,183.107635 
	C196.137238,189.398636 196.160904,195.630737 196.163574,202.797958 
	C196.116730,206.965424 196.090897,210.197784 196.065063,213.430130 
	C189.491470,212.508224 182.917847,211.586319 176.065109,209.987885 
	C175.683228,205.364334 175.580475,201.417297 175.598053,196.976562 
	C175.812973,192.042877 175.907578,187.602890 176.002167,183.162903 
	C182.389175,183.124847 188.776169,183.086777 195.638367,183.107635 
z"/>
<path fill="#747E6C" opacity="1.000000" stroke="none" 
	d="
M175.477722,197.470276 
	C175.580475,201.417297 175.683228,205.364334 175.717255,209.783722 
	C173.322037,209.902573 170.995529,209.549057 168.314041,209.029587 
	C159.713806,200.478668 151.468567,192.093719 143.024841,183.436890 
	C148.508011,183.129211 154.189697,183.093384 160.524597,183.381134 
	C165.944427,188.293228 170.711075,192.881760 175.477722,197.470276 
z"/>
<path fill="#4B5143" opacity="1.000000" stroke="none" 
	d="
M196.427582,213.531067 
	C196.090897,210.197784 196.116730,206.965424 196.196854,203.250488 
	C200.147705,206.660721 204.044266,210.553558 208.173187,214.722458 
	C204.533722,214.543015 200.661911,214.087494 196.427582,213.531067 
z"/>
<path fill="#495143" opacity="1.000000" stroke="none" 
	d="
M175.598053,196.976562 
	C170.711075,192.881760 165.944427,188.293228 160.976105,183.429657 
	C165.541855,183.120132 170.309296,183.085663 175.539459,183.107056 
	C175.907578,187.602890 175.812973,192.042877 175.598053,196.976562 
z"/>
<path fill="#495143" opacity="1.000000" stroke="none" 
	d="
M106.990318,316.380859 
	C106.729988,316.764435 106.469650,317.148010 106.082245,317.724670 
	C99.578072,320.154968 93.030807,321.307770 86.496468,319.091614 
	C73.731461,314.762207 67.331810,302.176605 71.026512,289.292633 
	C71.437042,287.861084 71.796005,286.414734 72.260406,284.591064 
	C72.696144,284.148132 73.050346,284.089355 74.086746,283.990234 
	C78.913185,283.465271 80.658638,285.642670 81.488716,289.454895 
	C83.740067,299.794342 90.029457,306.498596 100.445229,308.675751 
	C105.004707,309.628784 107.082001,311.877289 106.990318,316.380859 
z"/>
<path fill="#495143" opacity="1.000000" stroke="none" 
	d="
M430.990295,316.380890 
	C430.729431,316.761780 430.468567,317.142670 430.078857,317.714233 
	C423.421570,320.186554 416.797058,321.222198 410.054596,318.979248 
	C398.206879,315.038025 389.265442,300.859467 396.694763,284.375977 
	C396.950836,284.009766 397.149567,284.004089 398.057495,283.974243 
	C402.910156,283.465149 404.658081,285.639679 405.488251,289.453217 
	C407.739288,299.793152 414.028381,306.498322 424.444794,308.675659 
	C429.004364,309.628754 431.082062,311.877014 430.990295,316.380890 
z"/>
<path fill="#747E6C" opacity="1.000000" stroke="none" 
	d="
M107.282776,316.179504 
	C107.082001,311.877289 105.004707,309.628784 100.445229,308.675751 
	C90.029457,306.498596 83.740067,299.794342 81.488716,289.454895 
	C80.658638,285.642670 78.913185,283.465271 74.358139,283.977783 
	C77.301849,277.843170 82.524780,274.321320 89.814575,273.479340 
	C91.448784,274.826935 92.516075,276.379395 93.848381,276.656128 
	C104.897179,278.951202 111.179497,285.770905 113.801941,296.534637 
	C114.139351,297.919495 115.969200,298.940796 117.107697,300.130493 
	C116.872612,307.182922 112.926132,312.002930 107.282776,316.179504 
z"/>
<path fill="#BEBBA6" opacity="1.000000" stroke="none" 
	d="
M117.323792,299.775391 
	C115.969200,298.940796 114.139351,297.919495 113.801941,296.534637 
	C111.179497,285.770905 104.897179,278.951202 93.848381,276.656128 
	C92.516075,276.379395 91.448784,274.826935 90.202454,273.519531 
	C102.172691,269.115936 117.059082,280.256439 117.936356,294.042542 
	C118.049431,295.819519 117.683769,297.626953 117.323792,299.775391 
z"/>
<path fill="#747E6C" opacity="1.000000" stroke="none" 
	d="
M431.282776,316.179565 
	C431.082062,311.877014 429.004364,309.628754 424.444794,308.675659 
	C414.028381,306.498322 407.739288,299.793152 405.488251,289.453217 
	C404.658081,285.639679 402.910156,283.465149 398.355652,283.978027 
	C401.302399,277.846405 406.523254,274.320282 413.814545,273.479340 
	C415.448792,274.826935 416.516083,276.379364 417.848389,276.656128 
	C428.897156,278.951263 435.179474,285.770905 437.801971,296.534607 
	C438.139374,297.919464 439.969208,298.940765 441.107666,300.130493 
	C440.872528,307.182892 436.926117,312.002960 431.282776,316.179565 
z"/>
<path fill="#BEBBA6" opacity="1.000000" stroke="none" 
	d="
M441.323761,299.775391 
	C439.969208,298.940765 438.139374,297.919464 437.801971,296.534607 
	C435.179474,285.770905 428.897156,278.951263 417.848389,276.656128 
	C416.516083,276.379364 415.448792,274.826935 414.202393,273.519531 
	C426.172607,269.115845 441.058990,280.256287 441.936371,294.042542 
	C442.049469,295.819489 441.683746,297.626953 441.323761,299.775391 
z"/>
</svg>