<?xml version="1.0" encoding="UTF-8"?>
<svg version="1.1" xmlns="http://www.w3.org/2000/svg" width="512" height="512">
<path d="M0 0 C0.79301693 -0.00465992 1.58603385 -0.00931984 2.4030816 -0.01412097 C5.05281239 -0.02604473 7.70202795 -0.01668574 10.35176277 -0.00736332 C12.27370042 -0.01153738 14.19563561 -0.0170153 16.11756623 -0.02368313 C21.39336783 -0.03814694 26.66901333 -0.03389004 31.9448235 -0.02651632 C37.6368305 -0.02178928 43.32880351 -0.03429041 49.02079964 -0.04453373 C60.16980739 -0.06173623 71.31875882 -0.06255871 82.4677764 -0.05732083 C91.52929132 -0.05328055 100.59078958 -0.054721 109.6523037 -0.06006908 C110.94165089 -0.06081751 112.23099807 -0.06156593 113.55941639 -0.06233703 C116.17866881 -0.0638685 118.79792123 -0.06540684 121.41717364 -0.066952 C139.00523516 -0.07678184 156.5932879 -0.08094338 174.18135071 -0.07332611 C174.86898328 -0.07302894 175.55661585 -0.07273176 176.26508577 -0.07242559 C181.84899507 -0.0699767 187.4329043 -0.06736509 193.01681353 -0.06474145 C214.7959832 -0.05463975 236.57507577 -0.06299343 258.3542347 -0.086236 C282.82982812 -0.112314 307.30536746 -0.12510554 331.78097641 -0.11804825 C344.73793438 -0.11455367 357.69482903 -0.11680385 370.65177727 -0.13429928 C381.68191163 -0.14900816 392.71193809 -0.14967383 403.7420703 -0.13222837 C409.36962283 -0.1237052 414.99698251 -0.12160113 420.62452507 -0.13687992 C425.77766664 -0.1506975 430.93044959 -0.14600134 436.08357026 -0.12664068 C437.94621438 -0.12287139 439.80888702 -0.12582934 441.67150579 -0.13625234 C452.69525047 -0.19354584 461.55201387 0.31742009 471.01585579 6.50531673 C477.40806352 13.18807936 480.88583158 20.0145487 480.90287018 29.24958801 C480.905522 29.95579378 480.90817383 30.66199955 480.91090602 31.38960549 C480.91861173 33.77397875 480.91915868 36.15830062 480.91975594 38.54268551 C480.92376973 40.26231531 480.92820781 41.98194417 480.93303549 43.70157188 C480.94501625 48.44134487 480.95065293 53.18110767 480.95521665 57.92089283 C480.96116709 63.02742535 480.97277837 68.13394565 480.98350716 73.24046993 C481.00804458 85.58049097 481.0226606 97.92051605 481.03556722 110.26055399 C481.03927828 113.74513114 481.04325159 117.2297079 481.04731989 120.71428466 C481.07255632 142.3461478 481.09461271 163.97801155 481.10704803 185.60988617 C481.10997781 190.62198609 481.11293946 195.634086 481.11595345 200.64618587 C481.1166995 201.89194324 481.11744555 203.13770061 481.1182142 204.4212082 C481.13086844 224.6028005 481.16409158 244.78430472 481.20575528 264.96585584 C481.24816661 285.67912701 481.27174218 306.39235306 481.2769686 327.10566753 C481.2803837 338.73811054 481.29215056 350.3704159 481.32507133 362.0028162 C481.35306199 371.90952568 481.36407547 381.81606932 481.35287587 391.72281528 C481.34768668 396.77724761 481.35059313 401.83133258 481.37534142 406.88571453 C481.39782116 411.51545501 481.39710387 416.14459835 481.37813754 420.77434921 C481.37533575 422.44670914 481.38094607 424.11910946 481.39595048 425.79140443 C481.47364963 435.01746692 481.05434429 442.44398585 475.76585579 450.38031673 C475.20898079 451.28781673 474.65210579 452.19531673 474.07835579 453.13031673 C466.92247281 460.09279747 459.76274437 462.53421586 450.02390289 462.51453781 C449.23550134 462.51689004 448.44709979 462.51924227 447.63480729 462.52166578 C444.97684676 462.52835506 442.31893512 462.52789758 439.66096687 462.52748775 C437.74248385 462.53078642 435.82400152 462.53451199 433.90552008 462.53862923 C428.62072918 462.54865699 423.33594963 462.55236727 418.05115056 462.55501854 C412.35635663 462.55891927 406.66157171 462.56849775 400.96678352 462.57723141 C387.20780973 462.59700195 373.4488352 462.6070626 359.68985075 462.6159592 C353.21287229 462.62034097 346.73589466 462.62570805 340.25891685 462.63094807 C318.73224145 462.64796064 297.20556735 462.66248028 275.67888641 462.66969681 C274.28671395 462.67017156 272.89454149 462.67064745 271.50236902 462.67112447 C270.46678295 462.67147903 270.46678295 462.67147903 269.41027595 462.67184076 C265.91242886 462.67304196 262.41458178 462.67425741 258.9167347 462.67548275 C258.22257714 462.6757229 257.52841958 462.67596305 256.81322694 462.67621048 C234.3079885 462.68410305 211.80280276 462.70753408 189.29758733 462.74003869 C165.50286001 462.77434301 141.70816998 462.79404736 117.9134165 462.79734105 C104.94297596 462.79950752 91.97261288 462.80827633 79.00219536 462.83380222 C67.95733579 462.85548821 56.91257251 462.86356994 45.86769406 462.85383544 C40.23206058 462.84928474 34.59662586 462.85122193 28.96101952 462.87059689 C23.80032951 462.88818594 18.63998389 462.88726527 13.47929044 462.87169959 C11.61382976 462.86931707 9.74834549 462.87368038 7.88292091 462.88552824 C-3.15144568 462.95126131 -12.01075084 462.44945856 -21.48414421 456.25531673 C-27.87397411 449.57504002 -31.35294007 442.7482823 -31.37395191 433.51663208 C-31.37690334 432.8110255 -31.37985476 432.10541893 -31.38289562 431.37843034 C-31.39160989 428.99607771 -31.39316938 426.6137735 -31.39477348 424.23140621 C-31.3995029 422.51320163 -31.40465359 420.79499816 -31.41019112 419.076796 C-31.42411934 414.3408861 -31.43168709 409.60498391 -31.43816411 404.86905873 C-31.44452909 400.81034686 -31.4546001 396.75164767 -31.46472477 392.6929437 C-31.49807331 379.31804684 -31.51957594 365.94314226 -31.53792462 352.56821743 C-31.54271875 349.08567536 -31.54770219 345.60313361 -31.55272985 342.12059188 C-31.58370272 320.49852468 -31.6103909 298.87645482 -31.62714863 277.25437164 C-31.6310982 272.24435134 -31.63510118 267.23433108 -31.63917351 262.22431087 C-31.64018187 260.97907813 -31.64119023 259.73384539 -31.64222915 258.45087831 C-31.65923221 238.28355237 -31.70033602 218.11634922 -31.7511965 197.94908322 C-31.8029762 177.24710348 -31.83209148 156.54518688 -31.83934551 135.84314293 C-31.84400758 124.21843271 -31.8587569 112.59392349 -31.89908981 100.96927738 C-31.93340223 91.0677315 -31.94732419 81.16642287 -31.93466567 71.26482094 C-31.92884151 66.21413145 -31.93268594 61.16394364 -31.96283531 56.11332989 C-31.99024004 51.48463472 -31.98966732 46.85679664 -31.96732486 42.22808205 C-31.96410798 40.55837379 -31.97093486 38.8886077 -31.98912209 37.2189954 C-32.09167008 27.19277834 -31.25107199 18.85320812 -25.23414421 10.38031673 C-18.03896054 3.18592326 -10.15693391 -0.09455453 0 0 Z " fill="#B35349" transform="translate(31.23414421081543,24.619683265686035)"/>
<path d="M0 0 C1.90552041 -0.00853686 1.90552041 -0.00853686 3.84953618 -0.01724619 C5.27769032 -0.01853903 6.70584456 -0.01972701 8.13399887 -0.02082157 C9.63685195 -0.02554876 11.13970374 -0.03069915 12.64255404 -0.03623921 C16.79221315 -0.05019164 20.94186346 -0.05774195 25.0915401 -0.0642122 C28.64588129 -0.0705696 32.20020791 -0.08064159 35.75454006 -0.09077286 C47.46778566 -0.12414649 59.18104014 -0.14562744 70.89431775 -0.16397271 C73.94276302 -0.16876492 76.99120793 -0.17374858 80.03965282 -0.17877793 C98.95440156 -0.20974632 117.8691533 -0.23644281 136.78392029 -0.25319672 C141.16800822 -0.25714647 145.55209611 -0.26114943 149.93618393 -0.2652216 C151.57072994 -0.26673414 151.57072994 -0.26673414 153.23829708 -0.26827724 C170.89824213 -0.28529101 188.55804722 -0.32640584 206.21792391 -0.37724458 C224.33320811 -0.42896698 242.44842025 -0.4581319 260.56377769 -0.4653936 C270.74127969 -0.4700627 280.91855253 -0.48488524 291.0959816 -0.5251379 C299.76224283 -0.55937132 308.42823358 -0.57340449 317.09455857 -0.56071376 C321.51858641 -0.55487107 325.94204175 -0.55886303 330.36598396 -0.5888834 C334.41401794 -0.61612941 338.46106955 -0.61583661 342.50912425 -0.59337295 C343.97554067 -0.59013486 345.4420215 -0.59710643 346.90833023 -0.61517017 C348.89802305 -0.63820068 350.88806197 -0.6207896 352.87779236 -0.60127258 C353.98413505 -0.60300883 355.09047774 -0.60474508 356.23034596 -0.60653394 C359.62185153 0.24854141 361.19174556 1.57900932 363.25781046 4.39511346 C364.82732183 7.33080321 364.81492613 9.92659913 364.81419754 13.22039795 C364.82419956 14.25928771 364.82419956 14.25928771 364.83440363 15.31916514 C364.85064486 17.63968089 364.83126684 19.95851028 364.81203842 22.27898312 C364.81636749 23.95939855 364.82288354 25.63980953 364.83139849 27.32020897 C364.84840945 31.93763022 364.83419529 36.55451016 364.81488371 41.17190301 C364.799473 46.15151128 364.81285433 51.1310525 364.82262802 56.11066341 C364.83716527 65.86532039 364.82490996 75.61976947 364.80351478 85.37440676 C364.77952267 96.72911596 364.78121803 108.08377733 364.78382069 119.43850624 C364.78751212 139.69469618 364.76667398 159.95078806 364.73257065 180.20694637 C364.69947412 199.87233617 364.68531295 219.53762304 364.69155502 239.20304012 C364.69831572 260.60770142 364.69586826 282.01231957 364.67619562 303.41697448 C364.67463639 305.1140118 364.67463639 305.1140118 364.67304567 306.84533269 C364.67095474 309.1177384 364.66884376 311.39014409 364.66671249 313.66254975 C364.65981089 321.5816396 364.65914858 329.50071617 364.66059494 337.41980839 C364.66203314 347.06673791 364.65237125 356.7135834 364.62864858 366.36048502 C364.61677099 371.28460361 364.60967514 376.20860491 364.61548615 381.13273716 C364.62064516 385.63740242 364.61201524 390.14181954 364.59221154 394.64644229 C364.58745865 396.27890492 364.58778842 397.9113916 364.59362191 399.54385073 C364.60077111 401.75788417 364.58957563 403.97108811 364.57368851 406.18505859 C364.5721173 407.41627695 364.5705461 408.64749531 364.56892729 409.91602331 C364.04066784 414.4171462 362.35073962 416.97964654 359.19057846 420.1398077 C356.9199242 420.3985607 356.9199242 420.3985607 354.01891613 420.41104317 C352.91624793 420.42057555 351.81357972 420.43010794 350.67749733 420.43992919 C348.84529855 420.44039928 348.84529855 420.44039928 346.97608566 420.44087887 C345.04131838 420.45296728 345.04131838 420.45296728 343.06746489 420.4652999 C339.47505887 420.48732181 335.88271315 420.49665776 332.2902509 420.50387037 C328.42024293 420.51371758 324.55029383 420.53490812 320.68032455 420.55437374 C311.32696243 420.59869682 301.97358747 420.62336247 292.6201497 420.6451616 C289.09873018 420.65361235 285.57731419 420.66320897 282.05589766 420.67281657 C266.53648895 420.71499604 251.01707753 420.75093758 235.49762249 420.77038002 C231.69743912 420.77521972 227.89725581 420.7801017 224.0970726 420.78507137 C223.15253952 420.78630116 222.20800643 420.78753095 221.23485113 420.78879801 C205.93783677 420.80974681 190.6412078 420.86829584 175.34436827 420.94245388 C159.64273423 421.01795216 143.94129677 421.05952487 128.23948103 421.06794482 C119.42210889 421.07352382 110.60532028 421.09402279 101.78812599 421.15250874 C94.27764306 421.20223016 86.7678729 421.22126105 79.25724065 421.20034649 C75.42576847 421.19061683 71.59577873 421.19537675 67.76451683 421.23957348 C63.60663015 421.28713068 59.45201285 421.26464894 55.29395676 421.2355566 C54.08810596 421.26040794 52.88225516 421.28525927 51.63986343 421.31086367 C45.20577196 421.20092646 41.76345381 420.42884768 37.10599232 415.82913589 C35.77269451 414.28997605 34.46592568 412.72731693 33.19057846 411.1398077 C31.94682855 409.75915164 30.69794695 408.38307283 29.44057846 407.0148077 C27.32698807 404.61300044 25.43590488 402.11288325 23.58413315 399.50748348 C23.13543869 398.87690029 22.68674423 398.2463171 22.22445297 397.59662533 C21.88327438 397.11587551 21.54209579 396.63512569 21.19057846 396.1398077 C22.38217072 396.13172085 23.57376297 396.123634 24.80146408 396.11530209 C36.02842074 396.03783389 47.25525632 395.95009273 58.48205471 395.85228062 C64.25393073 395.80232438 70.02578851 395.75599412 75.7977562 395.7179327 C81.36750517 395.68107164 86.93710128 395.63470914 92.50671959 395.58174419 C94.63215899 395.56320467 96.75763115 395.54809508 98.88311958 395.53646374 C101.8590563 395.51959396 104.83464325 395.49055666 107.81045151 395.45865536 C108.69014603 395.45649517 109.56984055 395.45433498 110.47619247 395.45210934 C116.5987735 395.41684161 116.5987735 395.41684161 122.19057846 393.1398077 C123.48258571 390.22918318 123.33834397 387.14753971 123.38344955 383.99161434 C123.39951248 382.96697582 123.41557541 381.9423373 123.43212509 380.88664913 C123.47669787 376.22307798 123.5176053 371.55964541 123.54067612 366.89591122 C123.55726626 364.43520324 123.58459592 361.97454404 123.62270737 359.51407528 C123.67739711 355.96328435 123.69933521 352.41361895 123.71401596 348.86246395 C123.74802002 347.21384113 123.74802002 347.21384113 123.78271103 345.5319128 C123.80646999 339.2926646 123.80646999 339.2926646 120.80971909 333.95181942 C118.08880223 332.0693954 116.56844983 331.49849567 113.31557846 331.2023077 C107.89533927 330.34477732 104.74026539 328.28973323 101.19057846 324.1398077 C98.7922162 320.17729614 98.22654371 315.66910889 99.19057846 311.1398077 C101.6246207 306.64315174 104.34135353 303.03459744 109.19057846 301.1398077 C111.70511371 300.66833234 114.2162277 300.32398425 116.75307846 299.99527645 C120.16505744 298.79780306 121.22393196 297.14954757 123.19057846 294.1398077 C123.79936061 290.85186729 123.79936061 290.85186729 123.72402573 287.2257452 C123.7326413 286.55029659 123.74125687 285.87484798 123.75013351 285.17893124 C123.77274542 282.95716145 123.76606503 280.73665782 123.75698471 278.5148077 C123.76222217 276.96451094 123.76849909 275.41421736 123.77576828 273.86392879 C123.78616333 270.61914705 123.78162383 267.3748041 123.76699448 264.13004208 C123.74979973 259.97685035 123.77331326 255.82504123 123.80848408 251.67200375 C123.83046887 248.47199028 123.82901429 245.2723072 123.82071877 242.07224178 C123.81989997 240.54126118 123.82674975 239.01025614 123.84148979 237.47934628 C123.8589598 235.33666186 123.84437927 233.19645596 123.82168198 231.0538702 C123.82072021 229.8365118 123.81975845 228.6191534 123.81876755 227.36490536 C122.97312211 223.0233955 121.83973174 221.63992427 118.19057846 219.1398077 C114.89546466 218.42826685 111.68415988 218.45623817 108.32314682 218.49283504 C107.33397766 218.48407345 106.3448085 218.47531185 105.32566452 218.46628475 C102.06013593 218.44430052 98.79596425 218.45883969 95.53042221 218.4757452 C93.26028305 218.47237708 90.99014565 218.46752449 88.72001266 218.46124935 C83.96450236 218.45387953 79.20946187 218.46458863 74.4540062 218.48795223 C68.35478724 218.51645563 62.25666755 218.50002582 56.15748882 218.47008991 C51.47089457 218.45203415 46.78456158 218.45776692 42.09795952 218.47072887 C39.8488572 218.47406678 37.59973123 218.46996238 35.35065651 218.45833111 C32.20933561 218.44564953 29.06980304 218.4649625 25.92861557 218.49283504 C24.53130707 218.47765331 24.53130707 218.47765331 23.10577011 218.46216488 C17.82938444 218.50548846 17.82938444 218.50548846 13.62272263 221.52619076 C12.16439729 224.1875875 11.5984786 226.08226267 11.25307846 229.0773077 C10.39028914 234.20059652 8.94636995 236.56286343 5.19057846 240.1398077 C0.50744545 243.05799123 -4.47167162 242.63227868 -9.80942154 242.1398077 C-14.0508281 240.60568192 -15.86509726 238.1386692 -17.97739029 234.17496395 C-18.88982304 231.94314488 -19.36099241 229.81923365 -19.80942154 227.4523077 C-20.55055835 223.56795672 -21.55070208 221.5838473 -24.80942154 219.1398077 C-27.65477879 217.71712908 -30.17160706 217.92008901 -33.34848404 217.82340145 C-34.65043716 217.78150692 -35.95239029 217.73961239 -37.29379654 217.69644833 C-38.67400199 217.65663471 -40.05421037 217.61692248 -41.43442154 217.5773077 C-42.82245569 217.53411363 -44.21047682 217.49049905 -45.59848404 217.44644833 C-49.0020241 217.3400877 -52.40563932 217.23806056 -55.80942154 217.1398077 C-58.4116278 199.52844749 -58.00924151 181.89150638 -57.80942154 164.1398077 C-54.76116263 165.61432197 -51.99985956 167.31539363 -49.1919899 169.21158504 C-30.08274135 182.0218689 -9.57966267 187.09408938 13.12807846 182.8898077 C18.58227699 181.67386634 23.69098666 180.01813689 28.82339096 177.8116827 C34.53691474 176.19002249 40.82931973 179.55453044 46.30776596 181.32340145 C67.22751141 187.99403726 88.50329862 183.58233833 107.75307846 174.0148077 C126.95182909 163.35915288 138.48006044 145.56830871 145.16714096 125.15933895 C150.58582216 105.58625218 147.71546786 84.18092131 138.17495346 66.42496395 C125.95820605 46.19999431 109.58507701 34.11277172 87.19057846 27.1398077 C70.70605019 23.50153307 53.98260454 23.80926308 38.42885971 30.7804327 C32.75675922 33.16148333 28.37528851 31.25892918 22.87807846 29.2023077 C9.06206502 24.0749073 -5.31555168 24.06688581 -19.80942154 26.1398077 C-18.21855649 20.31933735 -15.29232244 15.47836351 -12.24692154 10.3273077 C-11.73967545 9.45654598 -11.23242935 8.58578426 -10.70981216 7.68863583 C-6.21875091 0.01615701 -6.21875091 0.01615701 0 0 Z " fill="#D26A5C" transform="translate(127.80942153930664,45.86019229888916)"/>
<path d="M0 0 C0.79301693 -0.00465992 1.58603385 -0.00931984 2.4030816 -0.01412097 C5.05281239 -0.02604473 7.70202795 -0.01668574 10.35176277 -0.00736332 C12.27370042 -0.01153738 14.19563561 -0.0170153 16.11756623 -0.02368313 C21.39336783 -0.03814694 26.66901333 -0.03389004 31.9448235 -0.02651632 C37.6368305 -0.02178928 43.32880351 -0.03429041 49.02079964 -0.04453373 C60.16980739 -0.06173623 71.31875882 -0.06255871 82.4677764 -0.05732083 C91.52929132 -0.05328055 100.59078958 -0.054721 109.6523037 -0.06006908 C110.94165089 -0.06081751 112.23099807 -0.06156593 113.55941639 -0.06233703 C116.17866881 -0.0638685 118.79792123 -0.06540684 121.41717364 -0.066952 C139.00523516 -0.07678184 156.5932879 -0.08094338 174.18135071 -0.07332611 C174.86898328 -0.07302894 175.55661585 -0.07273176 176.26508577 -0.07242559 C181.84899507 -0.0699767 187.4329043 -0.06736509 193.01681353 -0.06474145 C214.7959832 -0.05463975 236.57507577 -0.06299343 258.3542347 -0.086236 C282.82982812 -0.112314 307.30536746 -0.12510554 331.78097641 -0.11804825 C344.73793438 -0.11455367 357.69482903 -0.11680385 370.65177727 -0.13429928 C381.68191163 -0.14900816 392.71193809 -0.14967383 403.7420703 -0.13222837 C409.36962283 -0.1237052 414.99698251 -0.12160113 420.62452507 -0.13687992 C425.77766664 -0.1506975 430.93044959 -0.14600134 436.08357026 -0.12664068 C437.94621438 -0.12287139 439.80888702 -0.12582934 441.67150579 -0.13625234 C452.69525047 -0.19354584 461.55201387 0.31742009 471.01585579 6.50531673 C477.40806352 13.18807936 480.88583158 20.0145487 480.90287018 29.24958801 C480.905522 29.95579378 480.90817383 30.66199955 480.91090602 31.38960549 C480.91861173 33.77397875 480.91915868 36.15830062 480.91975594 38.54268551 C480.92376973 40.26231531 480.92820781 41.98194417 480.93303549 43.70157188 C480.94501625 48.44134487 480.95065293 53.18110767 480.95521665 57.92089283 C480.96116709 63.02742535 480.97277837 68.13394565 480.98350716 73.24046993 C481.00804458 85.58049097 481.0226606 97.92051605 481.03556722 110.26055399 C481.03927828 113.74513114 481.04325159 117.2297079 481.04731989 120.71428466 C481.07255632 142.3461478 481.09461271 163.97801155 481.10704803 185.60988617 C481.10997781 190.62198609 481.11293946 195.634086 481.11595345 200.64618587 C481.1166995 201.89194324 481.11744555 203.13770061 481.1182142 204.4212082 C481.13086844 224.6028005 481.16409158 244.78430472 481.20575528 264.96585584 C481.24816661 285.67912701 481.27174218 306.39235306 481.2769686 327.10566753 C481.2803837 338.73811054 481.29215056 350.3704159 481.32507133 362.0028162 C481.35306199 371.90952568 481.36407547 381.81606932 481.35287587 391.72281528 C481.34768668 396.77724761 481.35059313 401.83133258 481.37534142 406.88571453 C481.39782116 411.51545501 481.39710387 416.14459835 481.37813754 420.77434921 C481.37533575 422.44670914 481.38094607 424.11910946 481.39595048 425.79140443 C481.47364963 435.01746692 481.05434429 442.44398585 475.76585579 450.38031673 C475.20898079 451.28781673 474.65210579 452.19531673 474.07835579 453.13031673 C466.92247281 460.09279747 459.76274437 462.53421586 450.02390289 462.51453781 C449.23550134 462.51689004 448.44709979 462.51924227 447.63480729 462.52166578 C444.97684676 462.52835506 442.31893512 462.52789758 439.66096687 462.52748775 C437.74248385 462.53078642 435.82400152 462.53451199 433.90552008 462.53862923 C428.62072918 462.54865699 423.33594963 462.55236727 418.05115056 462.55501854 C412.35635663 462.55891927 406.66157171 462.56849775 400.96678352 462.57723141 C387.20780973 462.59700195 373.4488352 462.6070626 359.68985075 462.6159592 C353.21287229 462.62034097 346.73589466 462.62570805 340.25891685 462.63094807 C318.73224145 462.64796064 297.20556735 462.66248028 275.67888641 462.66969681 C274.28671395 462.67017156 272.89454149 462.67064745 271.50236902 462.67112447 C270.46678295 462.67147903 270.46678295 462.67147903 269.41027595 462.67184076 C265.91242886 462.67304196 262.41458178 462.67425741 258.9167347 462.67548275 C258.22257714 462.6757229 257.52841958 462.67596305 256.81322694 462.67621048 C234.3079885 462.68410305 211.80280276 462.70753408 189.29758733 462.74003869 C165.50286001 462.77434301 141.70816998 462.79404736 117.9134165 462.79734105 C104.94297596 462.79950752 91.97261288 462.80827633 79.00219536 462.83380222 C67.95733579 462.85548821 56.91257251 462.86356994 45.86769406 462.85383544 C40.23206058 462.84928474 34.59662586 462.85122193 28.96101952 462.87059689 C23.80032951 462.88818594 18.63998389 462.88726527 13.47929044 462.87169959 C11.61382976 462.86931707 9.74834549 462.87368038 7.88292091 462.88552824 C-3.15144568 462.95126131 -12.01075084 462.44945856 -21.48414421 456.25531673 C-27.87397411 449.57504002 -31.35294007 442.7482823 -31.37395191 433.51663208 C-31.37690334 432.8110255 -31.37985476 432.10541893 -31.38289562 431.37843034 C-31.39160989 428.99607771 -31.39316938 426.6137735 -31.39477348 424.23140621 C-31.3995029 422.51320163 -31.40465359 420.79499816 -31.41019112 419.076796 C-31.42411934 414.3408861 -31.43168709 409.60498391 -31.43816411 404.86905873 C-31.44452909 400.81034686 -31.4546001 396.75164767 -31.46472477 392.6929437 C-31.49807331 379.31804684 -31.51957594 365.94314226 -31.53792462 352.56821743 C-31.54271875 349.08567536 -31.54770219 345.60313361 -31.55272985 342.12059188 C-31.58370272 320.49852468 -31.6103909 298.87645482 -31.62714863 277.25437164 C-31.6310982 272.24435134 -31.63510118 267.23433108 -31.63917351 262.22431087 C-31.64018187 260.97907813 -31.64119023 259.73384539 -31.64222915 258.45087831 C-31.65923221 238.28355237 -31.70033602 218.11634922 -31.7511965 197.94908322 C-31.8029762 177.24710348 -31.83209148 156.54518688 -31.83934551 135.84314293 C-31.84400758 124.21843271 -31.8587569 112.59392349 -31.89908981 100.96927738 C-31.93340223 91.0677315 -31.94732419 81.16642287 -31.93466567 71.26482094 C-31.92884151 66.21413145 -31.93268594 61.16394364 -31.96283531 56.11332989 C-31.99024004 51.48463472 -31.98966732 46.85679664 -31.96732486 42.22808205 C-31.96410798 40.55837379 -31.97093486 38.8886077 -31.98912209 37.2189954 C-32.09167008 27.19277834 -31.25107199 18.85320812 -25.23414421 10.38031673 C-18.03896054 3.18592326 -10.15693391 -0.09455453 0 0 Z M-10.23414421 25.38031673 C-11.67605443 28.26413718 -11.36231217 30.74446772 -11.36557198 33.96871567 C-11.36762461 34.65669346 -11.36967724 35.34467126 -11.37179208 36.05349687 C-11.37749138 38.38184021 -11.37600124 40.71012495 -11.37458611 43.03847408 C-11.37716806 44.71543118 -11.38018075 46.39238765 -11.38358951 48.06934327 C-11.39168265 52.69561512 -11.39345036 57.32187147 -11.39418697 61.94814956 C-11.39603352 66.93053759 -11.40357881 71.9129175 -11.41032219 76.89530087 C-11.42392238 87.79806191 -11.42993283 98.70081928 -11.43433285 109.60358739 C-11.43709238 116.40687752 -11.4413292 123.21016622 -11.44583702 130.01345539 C-11.45803181 148.83701933 -11.46833076 167.66058213 -11.47171211 186.48414993 C-11.47193168 187.68963966 -11.47215124 188.89512939 -11.47237746 190.13714911 C-11.47259574 191.34557944 -11.47281402 192.55400978 -11.47303891 193.79905921 C-11.47348238 196.24793867 -11.47392895 198.69681813 -11.47437859 201.14569759 C-11.47460002 202.36043525 -11.47482145 203.57517291 -11.47504959 204.8267208 C-11.47899897 224.51703923 -11.49645633 244.20732068 -11.51973811 263.89762483 C-11.54342934 284.09668543 -11.55591294 304.29572745 -11.55708003 324.49480218 C-11.55799804 335.84257405 -11.56378192 347.19029774 -11.58189964 358.53805637 C-11.59727059 368.19970239 -11.60243891 377.86128535 -11.59416154 387.52294127 C-11.59024437 392.45514611 -11.59123646 397.38722384 -11.60521889 402.31941319 C-11.61789405 406.83161753 -11.61681685 411.34359844 -11.60462818 415.8558022 C-11.60266005 417.49108512 -11.6058007 419.12638353 -11.61447254 420.76164464 C-11.62549237 422.97950176 -11.6181294 425.19656016 -11.60608101 427.41439438 C-11.6066781 428.64778103 -11.60727519 429.88116768 -11.60789037 431.15192968 C-11.09529845 435.57965444 -9.56247747 437.99194019 -6.52260441 441.16922152 C-3.27078835 442.89014237 -0.20869646 442.79279865 3.38121891 442.75784016 C4.15592308 442.76220048 4.93062725 442.7665608 5.7288073 442.77105325 C8.34028552 442.7820537 10.95124063 442.77156535 13.56271553 442.76126766 C15.44764082 442.76472234 17.33256409 442.76948562 19.2174831 442.7754494 C24.40936649 442.78801527 29.60108523 442.78176366 34.79296935 442.77249074 C40.38746885 442.76572335 45.98193937 442.77617001 51.57643318 442.7844305 C62.54116582 442.79779504 73.50583697 442.79487792 84.47057205 442.78619258 C93.3796696 442.77942678 102.28874989 442.77849453 111.19784927 442.78176403 C112.46420379 442.78222373 113.7305583 442.78268343 115.03528719 442.78315706 C117.6076014 442.7841162 120.17991561 442.78508884 122.75222982 442.78607483 C146.20454971 442.79439254 169.65682826 442.78575568 193.10914076 442.77004704 C214.52508525 442.75581146 235.94097622 442.75708215 257.35692024 442.77143002 C281.40796797 442.78748937 305.45897916 442.79381103 329.51003414 442.78459322 C332.0733716 442.78363755 334.63670907 442.78269443 337.20004654 442.78176403 C338.46136142 442.7813012 339.7226763 442.78083838 341.02221284 442.78036153 C349.92312579 442.77776809 358.82401979 442.78215027 367.72492981 442.78920269 C378.56864285 442.79760529 389.41229073 442.79536375 400.25599628 442.77936046 C405.7917334 442.77146079 411.32736176 442.76841497 416.86309814 442.77830791 C421.92665043 442.78722033 426.98999269 442.78237911 432.05352581 442.76637526 C433.88928176 442.76301275 435.72505529 442.7647543 437.56080001 442.77200262 C440.04900562 442.78107659 442.53648436 442.77181826 445.02465153 442.75784016 C445.74355894 442.76486365 446.46246634 442.77188715 447.20315883 442.77912349 C451.56823916 442.72984496 454.35473758 442.14940311 457.76585579 439.38031673 C460.88530205 435.45112585 461.14265962 432.36721859 461.14896584 427.42556763 C461.15392535 426.73442789 461.15888487 426.04328816 461.16399467 425.3312048 C461.17697168 423.00999189 461.16855973 420.68935224 461.16026497 418.36812496 C461.16515288 416.68928793 461.17134222 415.01045427 461.17872286 413.33162636 C461.19515806 408.71401584 461.19279719 404.09657566 461.18734789 399.47894609 C461.18468212 394.50066449 461.19920091 389.52242876 461.21144295 384.54416561 C461.23251786 374.78976717 461.23703664 365.03542814 461.23525506 355.28100962 C461.23394855 347.35449402 461.23774592 339.42799698 461.24518013 331.50148487 C461.24727927 329.22015109 461.24937687 326.9388173 461.25147295 324.65748352 C461.25251648 323.52208135 461.25356001 322.38667919 461.25463516 321.2168709 C461.27354561 299.7340581 461.27248477 278.25127943 461.26566583 256.76846176 C461.26008894 237.10483925 461.28092061 217.44134698 461.3140263 197.77775491 C461.34773827 177.59779496 461.3629348 157.41789743 461.35830927 137.23790878 C461.35606216 125.90409484 461.36134307 114.57040129 461.38620186 103.23661137 C461.4071827 93.58856596 461.4108389 83.94070696 461.39190227 74.29265399 C461.38272483 69.3683281 461.38166275 64.44435009 461.40225792 59.520051 C461.42089601 55.01393703 461.41654543 50.50845759 461.3937121 46.00236832 C461.38950817 44.37052323 461.3937863 42.73863016 461.40730804 41.10683567 C461.42442373 38.89075564 461.41080959 36.67690234 461.38947487 34.46090698 C461.38988344 32.61383592 461.38988344 32.61383592 461.39030027 30.72945029 C460.55077364 26.22674925 459.00565437 24.58517853 455.76585579 21.38031673 C452.20512214 20.19340552 448.98149273 20.2371691 445.27633381 20.24330235 C444.50308308 20.24065052 443.72983235 20.23799869 442.93314978 20.23526651 C440.32074767 20.22755686 437.70839243 20.2270137 435.09597969 20.22641659 C433.21263199 20.22240308 431.32928515 20.21796505 429.44593936 20.21313703 C424.25378248 20.20115355 419.06163491 20.19551899 413.8694669 20.19095588 C408.27629937 20.18500664 402.683143 20.17339524 397.08998299 20.16266537 C383.57533392 20.13812793 370.06068116 20.12351335 356.54601666 20.1106053 C352.73097656 20.1068947 348.91593682 20.10292137 345.10089707 20.09885263 C321.42531232 20.07362026 297.749727 20.05154448 274.07413197 20.03912449 C268.58864209 20.03620311 263.10315225 20.0332356 257.61766243 20.03021908 C256.93615253 20.02984817 256.25464263 20.02947726 255.55248092 20.02909511 C233.44910286 20.01693567 211.34580435 19.98598471 189.24246366 19.94429755 C165.88044998 19.90031677 142.51849756 19.87459291 119.15643626 19.86920393 C106.41859506 19.86578531 93.6808794 19.85397683 80.94307709 19.82110119 C70.09825533 19.79315751 59.25358485 19.7820764 48.40872987 19.79329665 C42.87279138 19.79849761 37.33716998 19.79550326 31.80127716 19.77083111 C26.73629611 19.74844546 21.67186189 19.74899502 16.60687194 19.76803498 C14.77173169 19.77085002 12.93655519 19.76515365 11.10147353 19.75022204 C8.61127872 19.73119413 6.12304963 19.74285007 3.63290119 19.76228428 C2.91633495 19.74943506 2.19976871 19.73658584 1.46148834 19.72334725 C-4.14207374 19.81978524 -6.43389242 21.55705877 -10.23414421 25.38031673 Z " fill="#052A74" transform="translate(31.23414421081543,24.619683265686035)"/>
<path d="M0 0 C5.58774955 1.96606003 9.29493797 0.23849439 14.625 -1.75 C33.44203511 -8.69588545 53.91492815 -6.90159283 72.29296875 0.7578125 C92.35927065 10.06613505 108.36326503 26.27833642 116.125 47.1875 C123.7524169 68.74766512 121.72803959 91.22181271 112.0625 111.75 C108.78864326 117.82497985 105.01255117 123.08787398 100.375 128.1875 C99.6015625 129.04214844 98.828125 129.89679688 98.03125 130.77734375 C82.76735772 146.83824306 62.7624829 154.78332566 40.85253906 155.52539062 C30.0431376 155.70055363 19.59433399 154.16343939 9.73046875 149.48828125 C6.04830319 148.06085269 5.03237518 147.99415704 1.375 149.1875 C0.05508838 149.57428729 -1.26526885 149.95955548 -2.5859375 150.34375 C-4.79628353 151.01319172 -7.00449655 151.68889028 -9.2109375 152.37109375 C-28.93077516 158.32225904 -48.84634053 155.76158431 -66.96166992 146.39038086 C-87.2327415 135.40864539 -100.56806676 119.14722801 -107.5546875 97.27734375 C-113.72375197 75.9206301 -111.26658127 55.28699462 -100.765625 35.88671875 C-89.76051588 16.44802101 -71.98256889 2.2837078 -50.40625 -3.79223633 C-33.31619832 -8.03884315 -16.2694933 -6.64312014 0 0 Z " fill="#082B75" transform="translate(155.625,75.8125)"/>
<path d="M0 0 C12.48470471 6.46907217 19.73590203 23.00957986 24.3515625 35.72265625 C27.23132411 45.4081854 27.76975892 54.94997684 28 65 C28.89203125 64.08476562 29.7840625 63.16953125 30.703125 62.2265625 C31.88514805 61.02577718 33.06745461 59.82527091 34.25 58.625 C35.12978516 57.72007812 35.12978516 57.72007812 36.02734375 56.796875 C36.60097656 56.21679688 37.17460937 55.63671875 37.765625 55.0390625 C38.55114746 54.23782959 38.55114746 54.23782959 39.35253906 53.42041016 C42.43130246 50.76595766 44.33449507 49.97579982 48.4375 50.125 C56.76938527 52.17142796 61.58715444 60.11610845 66 67 C76.95249184 85.65719727 81.6707808 106.89293772 76.20776367 128.17407227 C72.30055947 141.87467449 66.52495118 153.27287051 57 164 C56.40832031 164.68578125 55.81664062 165.3715625 55.20703125 166.078125 C41.20570165 181.24374427 20.08709882 189.5710912 -0.24121094 190.40283203 C-21.51956156 190.74854436 -41.67630568 182.19497916 -57.5625 168.1875 C-60.22517493 165.38046318 -61.60256395 163.39195691 -61.9375 159.5 C-61.39690508 153.88167422 -57.92089102 150.73922811 -54 147 C-52.68721847 145.66694385 -51.37470245 144.33362617 -50.0625 143 C-49.04422713 141.99739287 -48.02438455 140.99636187 -47 140 C-47.95777344 139.97421875 -48.91554688 139.9484375 -49.90234375 139.921875 C-70.86230385 139.13108382 -90.37529531 133.67775289 -106 119 C-106.639375 118.401875 -107.27875 117.80375 -107.9375 117.1875 C-110.69758547 114.32518914 -111.88497586 112.48664059 -112.8125 108.5625 C-110.88134078 100.09510958 -101.37206222 93.19294066 -95.42797852 87.1875 C-94.48413118 86.23080728 -93.54043016 85.27397019 -92.59686279 84.31700134 C-84.05203318 75.65720857 -75.47816074 67.02592269 -66.89788914 58.40126038 C-60.56576876 52.03580885 -54.2472543 45.65745807 -47.94579178 39.26165199 C-43.49921327 34.75077422 -39.03744134 30.25528311 -34.56421226 25.77083397 C-31.89785719 23.09692555 -29.23872029 20.4166598 -26.59588814 17.71948242 C-24.11375867 15.18690083 -21.61335481 12.67391069 -19.0977478 10.17459297 C-17.74276979 8.8187247 -16.40769303 7.44305883 -15.073349 6.06687927 C-9.99603983 1.0668897 -7.21644343 -1.31083883 0 0 Z " fill="#072B75" transform="translate(389,252)"/>
<path d="M0 0 C8.25 0 16.5 0 25 0 C26.65 3.3 28.3 6.6 30 10 C35.6104834 17.78597697 43.36527167 23.23268297 53 25 C62.9349265 26.04735671 71.08004478 24.04481186 79.35546875 18.390625 C85.27618197 13.54741493 88.62219375 7.7556125 92 1 C116.75 1 141.5 1 167 1 C167 15.52 167 30.04 167 45 C161.555 47.97 161.555 47.97 156 51 C149.45112738 56.49260284 144.59452944 63.43141756 143 72 C142.05893798 83.24646252 143.89264849 93.19903082 151.0859375 102.14453125 C155.54330639 106.46545007 161.10802778 110.03600926 167 112 C167 120.91 167 129.82 167 139 C111.89 139 56.78 139 0 139 C0 93.13 0 47.26 0 0 Z " fill="#FBCA50" transform="translate(65,283)"/>
<path d="M0 0 C0.87180908 0.31163086 1.74361816 0.62326172 2.6418457 0.94433594 C17.79555511 6.48081797 31.36989139 13.65188308 44.5625 22.9375 C45.16126953 23.35837891 45.76003906 23.77925781 46.37695312 24.21289062 C76.34674596 45.66815382 98.21586824 76.89929399 110.0625 111.625 C110.31805664 112.36741943 110.57361328 113.10983887 110.83691406 113.87475586 C112.58034058 119.24051266 113.44239786 123.62197932 111.375 129.0625 C108.08939615 133.35820503 102.84168033 134.05928263 97.83935547 135.34082031 C95.24719144 136.02013072 92.67337899 136.75298642 90.09765625 137.4921875 C78.72538475 140.74772118 67.31087947 143.85096259 55.875 146.875 C54.73530762 147.18155518 53.59561523 147.48811035 52.42138672 147.80395508 C51.35033691 148.08392334 50.27928711 148.3638916 49.17578125 148.65234375 C48.23516846 148.90105225 47.29455566 149.14976074 46.32543945 149.40600586 C42.13944165 150.21124729 38.81244892 150.6082043 35 148.5625 C32.60744412 145.98590136 31.65190371 144.10580239 30.25 140.9375 C28.12553514 136.4221797 26.25895025 134.32754615 21.609375 132.4921875 C16.84261476 131.20043186 13.78186316 131.31586388 9.375 133.5625 C6.10121059 136.32703328 4.3551735 138.00740809 2.5625 141.9375 C2.41592026 145.2627661 2.49968789 148.49518211 2.71484375 151.81640625 C2.53589039 155.4826559 1.83558964 157.07780658 -0.4375 159.9375 C-4.66302166 163.22227472 -9.66869969 164.3558475 -14.75 165.75 C-16.10508667 166.13031372 -16.10508667 166.13031372 -17.48754883 166.51831055 C-25.88154548 168.84596131 -34.32891066 170.96118831 -42.79223633 173.02075195 C-44.24666138 173.37592896 -44.24666138 173.37592896 -45.73046875 173.73828125 C-47.02247192 174.05019409 -47.02247192 174.05019409 -48.34057617 174.3684082 C-50.47326943 174.87316238 -50.47326943 174.87316238 -52.4375 175.9375 C-57.06963493 176.49262815 -60.41922127 176.5739242 -64.4375 174.0625 C-67.25636782 171.06745294 -67.70262291 169.22426053 -67.63818359 165.13183594 C-67.21507889 160.50547938 -65.92244918 156.04556051 -64.75 151.5625 C-64.47671875 150.49322266 -64.2034375 149.42394531 -63.921875 148.32226562 C-62.19959079 141.65342096 -60.33802743 135.04028389 -58.33325195 128.45166016 C-56.49421603 122.33030817 -54.96017272 116.14413041 -53.4375 109.9375 C-51.58258483 102.37660214 -49.59966649 94.89584029 -47.33203125 87.44921875 C-45.49459254 81.32832418 -43.95996517 75.14328441 -42.4375 68.9375 C-40.58276772 61.37734762 -38.60175769 53.89666787 -36.33203125 46.45141602 C-34.48701238 40.31041174 -32.96190262 34.1022234 -31.4375 27.875 C-27.74394561 12.99297566 -27.74394561 12.99297566 -25.9375 6.6875 C-25.5971875 5.46546875 -25.256875 4.2434375 -24.90625 2.984375 C-19.63000095 -7.96103527 -8.90331202 -3.19816685 0 0 Z " fill="#072B74" transform="translate(354.4375,74.0625)"/>
<path d="M0 0 C1.02478958 -0.01606293 2.04957916 -0.03212585 3.10542297 -0.04867554 C7.79423407 -0.09307334 12.48290294 -0.13418799 17.171875 -0.15722656 C19.64625448 -0.17379281 22.12058599 -0.20109123 24.59472656 -0.23925781 C28.15870032 -0.29396741 31.72155179 -0.31589234 35.28588867 -0.33056641 C36.39124466 -0.35323578 37.49660065 -0.37590515 38.63545227 -0.39926147 C46.30763701 -0.3781195 46.30763701 -0.3781195 50.2487793 2.53979492 C52.28142926 5.48654081 53.07147348 7.75439532 53.76635742 11.25537109 C54.73243685 16.49953042 54.73243685 16.49953042 57.07885742 21.19287109 C62.15287564 23.91636121 67.46587711 23.8604943 73.07885742 23.19287109 C77.57576829 21.02471764 80.08996319 18.76732782 82.07885742 14.19287109 C82.58440265 11.66514494 83.01368609 9.1502986 83.35620117 6.59521484 C84.34350937 3.31308219 85.29124623 2.23965361 88.07885742 0.19287109 C91.3195396 -0.41391824 94.52795792 -0.35329442 97.81689453 -0.32470703 C99.29801979 -0.33522095 99.29801979 -0.33522095 100.80906677 -0.34594727 C104.07506383 -0.36356089 107.3401952 -0.35189124 110.60620117 -0.33837891 C112.87537299 -0.34107306 115.14454368 -0.34495483 117.41371155 -0.34997559 C122.17093897 -0.3558754 126.92786607 -0.34729263 131.68505859 -0.32861328 C137.78295044 -0.30583681 143.88013759 -0.31893604 149.9780035 -0.34290314 C154.66460985 -0.35735892 159.35104922 -0.35275582 164.0376606 -0.34239197 C166.28593593 -0.33972342 168.53422642 -0.34299891 170.78248405 -0.35231018 C173.92587284 -0.36247032 177.06812187 -0.34698056 180.21142578 -0.32470703 C181.14094055 -0.33280396 182.07045532 -0.34090088 183.02813721 -0.34924316 C187.24104854 -0.29394622 189.48825703 -0.17595725 193.1330719 2.10021973 C196.43268378 5.64888284 196.22143188 7.97518348 196.27172852 12.75048828 C196.28399475 13.76059464 196.28399475 13.76059464 196.29650879 14.79110718 C196.32135902 17.02397778 196.33787945 19.25678473 196.35229492 21.48974609 C196.3576186 22.25270241 196.36294228 23.01565872 196.36842728 23.80173492 C196.39515977 27.84160864 196.41453258 31.88145147 196.42895508 35.92138672 C196.44558574 40.0889912 196.49034878 44.25580223 196.54132652 48.42310715 C196.57503055 51.63166176 196.58653596 54.84002897 196.59218216 58.0487442 C196.59888811 59.58452657 196.61409337 61.12029689 196.63807297 62.65590668 C196.66979302 64.81048088 196.66975256 66.96292816 196.66235352 69.11767578 C196.6744838 70.95395538 196.6744838 70.95395538 196.68685913 72.82733154 C195.86964303 77.35095881 194.32539971 78.97413781 191.07885742 82.19287109 C188.14135742 83.25927734 188.14135742 83.25927734 185.07885742 83.75537109 C178.10421292 85.20342382 175.99969753 87.31161093 172.07885742 93.19287109 C171.61912256 98.80163638 171.89732891 102.36572438 175.07885742 107.19287109 C178.98755771 111.6059198 183.66504176 112.18382237 189.23901367 113.18896484 C193.07795541 114.54605979 194.00948053 115.64957826 196.07885742 119.19287109 C196.65717402 123.10109568 196.59136623 126.97140655 196.53979492 130.91552734 C196.53887848 132.05316025 196.53796204 133.19079315 196.53701782 134.36289978 C196.53098352 136.76435527 196.51524284 139.16580329 196.49047852 141.56713867 C196.45395644 145.24539881 196.44945937 148.92265163 196.44995117 152.60107422 C196.44012038 154.93506731 196.42846354 157.26905357 196.41479492 159.60302734 C196.41256927 160.70413345 196.41034363 161.80523956 196.40805054 162.93971252 C196.39529083 163.96435104 196.38253113 164.98898956 196.36938477 166.04467773 C196.36176117 166.94448868 196.35413757 167.84429962 196.34628296 168.77137756 C196.04861115 171.46674607 195.62541004 172.96358257 194.07885742 175.19287109 C189.91963725 178.36414389 186.24708538 178.62406704 181.19093323 178.58728027 C180.40276889 178.59337138 179.61460456 178.59946248 178.80255646 178.60573816 C176.16477347 178.622371 173.52747306 178.61759202 170.88964844 178.61279297 C168.99718728 178.6201331 167.10473061 178.62871917 165.21228027 178.63845825 C160.07386801 178.66068789 154.93561604 178.66360423 149.79716229 178.66171074 C145.50778589 178.66159111 141.21844355 178.67015192 136.92907661 178.67848825 C126.8102793 178.69772725 116.6915645 178.7006042 106.57275391 178.69384766 C96.13267109 178.68720493 85.69294141 178.71007951 75.25293022 178.74716139 C66.28973176 178.77784303 57.326647 178.78922012 48.36339706 178.78532457 C43.00989805 178.78325564 37.65667387 178.7887589 32.30322456 178.81321716 C27.26913064 178.83545651 22.23561159 178.83362979 17.2015152 178.81328964 C15.35442345 178.80987471 13.5072932 178.81498944 11.66025352 178.82927322 C9.13741887 178.84743641 6.61654061 178.83474015 4.09376526 178.81433105 C3.36369989 178.8268489 2.63363451 178.83936675 1.88144594 178.85226393 C-3.77976014 178.75414801 -6.12574553 177.11730745 -9.92114258 173.19287109 C-11.05140147 169.80209442 -11.0555798 167.21574379 -11.0683136 163.63967896 C-11.07199029 162.97094092 -11.07566697 162.30220289 -11.07945508 161.61320007 C-11.09048625 159.36777667 -11.09433474 157.12239956 -11.09814453 154.87695312 C-11.10440949 153.26887871 -11.11105632 151.66080575 -11.11805725 150.05273438 C-11.13546098 145.68081994 -11.1460168 141.30891644 -11.15426278 136.93697596 C-11.15941315 134.20634299 -11.1654888 131.47571342 -11.17177391 128.74508286 C-11.19082229 120.20371185 -11.20505547 111.66234947 -11.21338588 103.12096131 C-11.22316494 93.25693184 -11.24950331 83.39312638 -11.28988677 73.52917588 C-11.32002324 65.90701769 -11.33485231 58.28492383 -11.33816689 50.66270721 C-11.34051974 46.10902271 -11.34951081 41.55557761 -11.37462807 37.00195694 C-11.39787144 32.71897631 -11.40215723 28.43639339 -11.39186668 24.15336609 C-11.39137034 22.58159438 -11.39771988 21.00980333 -11.41142273 19.43809128 C-11.42908971 17.29159271 -11.42206307 15.1465296 -11.40888977 13.00003052 C-11.4124723 11.19870006 -11.4124723 11.19870006 -11.4161272 9.36097908 C-10.82246655 5.56130338 -9.58651778 3.9123764 -6.92114258 1.19287109 C-4.45078266 -0.04230887 -2.76347262 0.03930253 0 0 Z M9.07885742 19.19287109 C9.07885742 65.06287109 9.07885742 110.93287109 9.07885742 158.19287109 C64.18885742 158.19287109 119.29885742 158.19287109 176.07885742 158.19287109 C176.07885742 149.28287109 176.07885742 140.37287109 176.07885742 131.19287109 C172.77885742 129.54287109 169.47885742 127.89287109 166.07885742 126.19287109 C159.31919943 121.89127055 154.77142304 114.32140462 152.55151367 106.70458984 C150.50054936 95.80566378 152.60782293 87.51511249 157.82885742 78.00537109 C163.15163455 71.35189968 168.3488057 68.05789696 176.07885742 64.19287109 C176.07885742 49.67287109 176.07885742 35.15287109 176.07885742 20.19287109 C151.32885742 20.19287109 126.57885742 20.19287109 101.07885742 20.19287109 C99.09885742 23.82287109 97.11885742 27.45287109 95.07885742 31.19287109 C90.56392327 36.46029427 86.45811564 39.56456388 80.07885742 42.19287109 C79.17135742 42.60537109 78.26385742 43.01787109 77.32885742 43.44287109 C67.13065635 45.79630211 57.8081614 44.13482039 48.82495117 38.87255859 C41.35235203 33.68285976 37.63214674 27.4838795 34.07885742 19.19287109 C25.82885742 19.19287109 17.57885742 19.19287109 9.07885742 19.19287109 Z " fill="#072B74" transform="translate(55.921142578125,263.80712890625)"/>
<path d="M0 0 C0.89332031 0.44601563 1.78664063 0.89203125 2.70703125 1.3515625 C17.57861869 9.52979338 27.87299772 22.72603248 32.66113281 38.89672852 C36.59291015 54.08221548 33.95780962 71.05946095 26.40234375 84.76953125 C17.13939382 99.50252404 3.7477997 109.25294154 -13 114 C-29.7279917 116.94975963 -45.80202712 114.64350266 -60 105 C-63.54296197 102.19168162 -66.80170054 99.19282292 -70 96 C-70.6496875 95.36191406 -71.299375 94.72382813 -71.96875 94.06640625 C-83.9127101 81.46762377 -86.79484518 65.82369513 -86.3515625 49.11328125 C-86.02062756 42.63386078 -84.53637528 36.96300148 -82 31 C-81.67257813 30.14664063 -81.34515625 29.29328125 -81.0078125 28.4140625 C-74.56309712 13.50183785 -60.5070322 3.21462541 -46 -3 C-32.01055487 -8.13647547 -13.15188702 -6.7822828 0 0 Z " fill="#FBDFBD" transform="translate(222,96)"/>
<path d="M0 0 C22.6823362 6.37069202 41.77953483 19.15265442 59 35 C60.11568359 36.00933594 60.11568359 36.00933594 61.25390625 37.0390625 C76.60872281 51.61838328 87.74636978 70.67736132 96 90 C96.39058594 90.90105469 96.78117188 91.80210937 97.18359375 92.73046875 C98 95 98 95 98 98 C92.12011239 99.69588017 86.23112862 101.35276591 80.33032227 102.97436523 C78.32441529 103.53146245 76.32141127 104.09912373 74.3215332 104.67749023 C71.44659395 105.5069505 68.56336416 106.2978948 65.67578125 107.08203125 C64.78288895 107.34844925 63.88999664 107.61486725 62.970047 107.88935852 C60.56288706 108.52117004 58.48923738 109.01615947 56 109 C52.99951172 106.72363281 52.99951172 106.72363281 51 104 C43.9017956 96.93504246 35.00201129 92.96912845 24.9375 92.6875 C14.82428365 92.82216333 6.08312328 96.80641865 -1 104 C-5.08263385 109.15466024 -7.14175867 114.01310584 -8.4375 120.4375 C-9.63770286 125.74009119 -9.63770286 125.74009119 -12.875 128.0625 C-14.23638306 128.42981106 -15.61562731 128.7320569 -17 129 C-18.05832031 129.27070313 -19.11664063 129.54140625 -20.20703125 129.8203125 C-24.90772051 130.99152801 -29.14060081 132 -34 132 C-33.64213633 125.43916601 -32.06659151 119.52403688 -30.1496582 113.27758789 C-28.21400675 106.90160523 -26.58172937 100.47200693 -25 94 C-23.14582189 86.43893622 -21.16215566 78.95830473 -18.89453125 71.51171875 C-17.05709254 65.39082418 -15.52246517 59.20578441 -14 53 C-12.14820853 45.45183478 -10.17070669 37.98279965 -7.90551758 30.54907227 C-4.88021763 20.47410284 -2.49138621 10.21713484 0 0 Z " fill="#FBC950" transform="translate(346,93)"/>
<path d="M0 0 C1.08796875 -0.00773437 2.1759375 -0.01546875 3.296875 -0.0234375 C4.3384375 -0.02085938 5.38 -0.01828125 6.453125 -0.015625 C7.39833008 -0.01336914 8.34353516 -0.01111328 9.31738281 -0.00878906 C11.75 0.25 11.75 0.25 14.75 2.25 C14.09773438 3.00023438 13.44546875 3.75046875 12.7734375 4.5234375 C-0.96864856 20.5238476 -8.62141384 37.17318818 -8.5625 58.5 C-8.57861328 59.65113281 -8.59472656 60.80226562 -8.61132812 61.98828125 C-8.6233646 83.34099123 0.26501991 101.85970865 14.75 117.25 C11.00616263 120.99383737 6.30559031 120.4809223 1.25 120.5 C-15.24015369 120.44046876 -31.26649283 114.22880569 -43.140625 102.59375 C-54.98106409 89.43770657 -61.29868387 73.37634849 -60.66015625 55.6640625 C-59.65786592 41.39320774 -52.74207275 26.00851682 -42.25 16.25 C-29.2084262 5.22219863 -16.97240171 -0.12239713 0 0 Z " fill="#FADEBD" transform="translate(125.25,90.75)"/>
<path d="M0 0 C6.0015421 2.69194186 7.5977923 8.13242266 10 14 C15.79693261 31.41234775 13.34186717 47.73088997 5.3125 63.8125 C-3.38089359 78.56022128 -15.96287393 86.85280569 -32 92 C-48.15022526 95.69357166 -64.73282367 93.76594318 -78.875 85.1875 C-79.90625 84.465625 -80.9375 83.74375 -82 83 C-77.66991931 77.82343599 -73.12535501 72.98687411 -68.34228516 68.22875977 C-67.60013763 67.48646622 -66.85799011 66.74417267 -66.09335327 65.97938538 C-63.66095472 63.54767865 -61.22504267 61.11952461 -58.7890625 58.69140625 C-57.09348048 56.997691 -55.39812037 55.30375357 -53.70297241 53.60960388 C-49.256626 49.16706221 -44.80728385 44.7275328 -40.3572998 40.28863525 C-35.81059675 35.75219036 -31.26674898 31.21288748 -26.72265625 26.67382812 C-17.81788805 17.77976118 -8.91004742 8.88877808 0 0 Z " fill="#F9DDBD" transform="translate(434,328)"/>
<path d="M0 0 C1.30203187 2.49505641 2.59160266 4.99537682 3.875 7.5 C4.42220703 8.54414063 4.42220703 8.54414063 4.98046875 9.609375 C8.8185226 17.14591711 10.36290315 23.93428296 10.25 32.375 C10.23876099 33.49297974 10.23876099 33.49297974 10.22729492 34.63354492 C9.88166219 52.39211621 2.40742292 67.53092047 -10.34765625 79.828125 C-19.92515689 87.67067339 -31.54584566 93.29007264 -44 94 C-45.08023438 94.07605469 -46.16046875 94.15210938 -47.2734375 94.23046875 C-60.59062669 94.74696351 -72.76583817 91.3334112 -84 84 C-82.63554199 80.94858607 -81.09295263 78.84202098 -78.73583984 76.48187256 C-77.72635284 75.46392609 -77.72635284 75.46392609 -76.69647217 74.42541504 C-75.95874573 73.69173706 -75.22101929 72.95805908 -74.4609375 72.20214844 C-73.68357239 71.42127869 -72.90620728 70.64040894 -72.10528564 69.83587646 C-69.53353454 67.25531995 -66.95453325 64.68215078 -64.375 62.109375 C-62.58873678 60.32176507 -60.80277058 58.53385829 -59.01708984 56.7456665 C-55.27440402 53.00003126 -51.52821778 49.25794574 -47.77929688 45.51855469 C-43.4413683 41.19152584 -39.11071321 36.85731751 -34.78373528 32.51934028 C-30.62250355 28.34795363 -26.45568125 24.18218688 -22.28643799 20.01880646 C-20.51146411 18.24517078 -18.73798581 16.47003715 -16.96600342 14.69341278 C-14.49514974 12.21750732 -12.01802322 9.74805812 -9.5390625 7.28027344 C-8.80133606 6.53849854 -8.06360962 5.79672363 -7.30352783 5.0324707 C-6.29404083 4.03144318 -6.29404083 4.03144318 -5.26416016 3.01019287 C-4.38590073 2.13306452 -4.38590073 2.13306452 -3.48989868 1.2382164 C-2 0 -2 0 0 0 Z " fill="#FADEBD" transform="translate(386,277)"/>
<path d="M0 0 C3.9295493 0.92685276 5.41241975 2.29808529 8.00390625 5.47265625 C8.80081546 8.6430936 8.79113913 11.30073982 8.00390625 14.47265625 C5.8223148 17.22835072 4.13213131 18.90854372 1.00390625 20.47265625 C-2.76770026 20.89172364 -4.50579509 20.78466449 -7.74609375 18.72265625 C-11.19609375 15.27265625 -11.19609375 15.27265625 -11.99609375 12.47265625 C-11.91907688 8.23672858 -11.37907513 6.01811458 -8.93359375 2.53515625 C-5.83351955 0.35850841 -3.80346646 -0.28147095 0 0 Z " fill="#FEFDF9" transform="translate(160.99609375,375.52734375)"/>
<path d="M0 0 C3.49406769 1.66762322 4.82670681 2.74006022 7 6 C7.66923077 12.91538462 7.66923077 12.91538462 5.1875 16.9375 C2.35796607 19.60534627 0.4668291 19.9481301 -3.375 20.375 C-7 20 -7 20 -9.875 17.625 C-12.12186213 14.84946442 -12.89853235 13.74409608 -13.375 10.25 C-12.8528401 5.7246142 -11.15770622 4.2328897 -8 1 C-5.17998673 -0.41000664 -3.12992745 -0.24548451 0 0 Z " fill="#FEFDF9" transform="translate(104,340)"/>
<path d="M0 0 C2.8100346 1.79363911 4.50940468 3.01880935 6 6 C6.3751455 10.97067782 6.15878799 14.05151502 3 18 C-0.21553446 20.32849047 -3.11021377 20.54457007 -7 20 C-9.92483867 18.17452064 -12.43429205 16.13141589 -14 13 C-14.4136968 8.34591099 -13.81070393 5.74760524 -11 2 C-7.31502204 -0.45665197 -4.28028214 -0.70086491 0 0 Z " fill="#FEFDF9" transform="translate(369,133)"/>
<path d="M0 0 C3.66304688 2.51834473 4.75360451 4.20283811 6.0625 8.4375 C5.98454913 12.88069934 4.87270176 14.66145471 2 18 C-0.65863745 20.10857453 -1.98701207 20.00023614 -5.4375 19.9375 C-9.82440811 18.7830505 -11.4274428 17.74190139 -14 14 C-15.05631455 9.2594664 -14.66309569 6.04811899 -12.0625 1.9375 C-7.95188101 -0.66309569 -4.7405336 -1.05631455 0 0 Z " fill="#FEFEFC" transform="translate(213,116)"/>
<path d="M0 0 C2.5625 1.5 2.5625 1.5 4 4 C4.82985088 8.67337074 4.66281497 11.93949604 2.125 16 C-0.61737122 18.58105526 -1.51262207 18.95402095 -5.3125 19.3125 C-9.57536111 18.95124058 -11.01992054 17.98007946 -14 15 C-15.75451816 11.49096368 -15.6706258 7.81993716 -15 4 C-10.68955304 -1.52621405 -6.59254275 -2.01404057 0 0 Z " fill="#FEFEFD" transform="translate(185,162)"/>
<path d="M0 0 C3.0625 1.9375 3.0625 1.9375 5 5 C6.03945854 9.75058323 5.669717 12.94141507 3.0625 17.0625 C-1.05858493 19.669717 -4.24941677 20.03945854 -9 19 C-12.0625 17.0625 -12.0625 17.0625 -14 14 C-15.03945854 9.24941677 -14.669717 6.05858493 -12.0625 1.9375 C-7.94141507 -0.669717 -4.75058323 -1.03945854 0 0 Z " fill="#FEFDFB" transform="translate(177,321)"/>
</svg>
