<?xml version="1.0" encoding="UTF-8"?>
<svg version="1.1" xmlns="http://www.w3.org/2000/svg" width="512" height="512">
<path d="M0 0 C3.29413676 1.74904447 5.5135898 4.25138655 8 7 C8.92300029 7.98056084 9.84759127 8.95962585 10.7734375 9.9375 C13.3741659 12.70604467 15.93381871 15.50961298 18.48291016 18.32568359 C20.81039919 20.89438649 23.15597762 23.44639444 25.5 26 C26.40627057 26.9895645 27.31252043 27.97914796 28.21875 28.96875 C31.13784762 32.15322013 34.0684757 35.32697281 37 38.5 C38.49733789 40.12213636 39.99453392 41.74440356 41.49169922 43.36669922 C42.51096451 44.47043583 43.53083729 45.57361171 44.55126953 46.67626953 C46.0567376 48.30343 47.5598286 49.93275706 49.0625 51.5625 C49.94035156 52.51253906 50.81820312 53.46257813 51.72265625 54.44140625 C57.38711476 60.80542053 57.38711476 60.80542053 57.29296875 66.203125 C57.28330078 67.1828125 57.27363281 68.1625 57.26367188 69.171875 C57.23853516 70.18765625 57.21339844 71.2034375 57.1875 72.25 C57.17396484 73.28125 57.16042969 74.3125 57.14648438 75.375 C57.11117607 77.91719792 57.06186036 80.45833223 57 83 C57.83192871 82.9685791 57.83192871 82.9685791 58.68066406 82.93652344 C61.20359023 82.85316452 63.72622649 82.80128132 66.25 82.75 C67.12269531 82.71648437 67.99539063 82.68296875 68.89453125 82.6484375 C75.35736164 82.54976833 75.35736164 82.54976833 78.609375 84.828125 C80 87 80 87 80 90 C85.94 90 91.88 90 98 90 C98.66 88.35 99.32 86.7 100 85 C102.47611951 82.52388049 103.21753986 82.74015205 106.62988281 82.70947266 C108.07213226 82.6903331 108.07213226 82.6903331 109.54351807 82.67080688 C110.58618835 82.66858124 111.62885864 82.66635559 112.703125 82.6640625 C114.3089444 82.6540773 114.3089444 82.6540773 115.94720459 82.64389038 C118.21690143 82.63374914 120.48662818 82.62907381 122.75634766 82.62939453 C126.22218424 82.62503499 129.68673382 82.58876729 133.15234375 82.55078125 C135.35676648 82.54491064 137.56119526 82.54094288 139.765625 82.5390625 C140.80019836 82.52469147 141.83477173 82.51032043 142.9006958 82.49551392 C148.75573411 82.53249909 152.50286561 82.85880975 157 87 C160.57501499 91.52924699 161.50008077 94.4681993 161.50057125 100.21111584 C161.50608542 100.91781519 161.51159958 101.62451455 161.51728085 102.35262904 C161.53087729 104.72089055 161.51597901 107.08810271 161.50120544 109.4563446 C161.50509826 111.1711817 161.51073854 112.88601558 161.51797634 114.60084182 C161.53275141 119.31326169 161.52253763 124.02534811 161.50823963 128.73775733 C161.49714565 133.81957316 161.50906711 138.90134161 161.51808167 143.9831543 C161.53202596 153.93763741 161.52444958 163.89199382 161.50940608 173.84647091 C161.49256318 185.43157014 161.49575398 197.01663766 161.49950016 208.60174534 C161.50538072 229.26617945 161.49119841 249.93055264 161.46655273 270.5949707 C161.44262207 290.66205121 161.43555185 310.72905036 161.44604492 330.79614258 C161.45744401 352.63513447 161.45939742 374.47408871 161.44494683 396.31308013 C161.44342094 398.63987561 161.44190058 400.96667109 161.44038582 403.29346657 C161.439628 404.43838027 161.43887019 405.58329396 161.43808941 406.76290202 C161.4333395 414.84523816 161.43520295 422.92755753 161.43945122 431.00989342 C161.44436843 440.85230666 161.4384356 450.69464285 161.41855692 460.53703841 C161.40865894 465.56217503 161.40360677 470.58719414 161.41144943 475.61233711 C161.4184737 480.20694451 161.41177847 484.80131408 161.3938458 489.39588998 C161.38978014 491.06331237 161.39083633 492.73075622 161.39736467 494.39817079 C161.40544691 496.65453891 161.39528706 498.91009236 161.38031673 501.16640759 C161.3792876 502.42268748 161.37825848 503.67896738 161.37719816 504.97331637 C161 508 161 508 159.73011023 509.90332973 C157.62799091 511.23580654 156.41920232 511.3767562 153.93791962 511.38031673 C153.10823182 511.38875668 152.27854402 511.39719662 151.42371416 511.40589231 C150.5123443 511.39988227 149.60097444 511.39387222 148.6619873 511.38768005 C147.69373882 511.39306559 146.72549033 511.39845113 145.72790098 511.40399987 C142.46886368 511.41835882 139.21022801 511.41115615 135.95117188 511.40405273 C133.6206479 511.40975211 131.29012673 511.41671468 128.95960999 511.42485046 C122.61883931 511.44284376 116.27820655 511.44160201 109.93741798 511.43590808 C103.98328636 511.43243593 98.02917612 511.44036967 92.0750491 511.44726873 C79.56363568 511.46100318 67.05228476 511.45554927 54.54087275 511.44408352 C43.08757643 511.4341482 31.63444158 511.44709521 20.18117017 511.47101771 C8.42778488 511.4953826 -3.32552511 511.50502315 -15.07893515 511.49836498 C-21.68036474 511.49498579 -28.28166085 511.49747433 -34.8830719 511.51461601 C-41.08829364 511.53002473 -47.29320576 511.5261972 -53.49841499 511.50731087 C-55.78053793 511.50360827 -58.06268351 511.50678167 -60.34478569 511.51719666 C-63.45088228 511.53029387 -66.5559367 511.51895927 -69.6619873 511.50120544 C-70.57335717 511.51081045 -71.48472703 511.52041546 -72.42371416 511.53031152 C-73.25340196 511.52049723 -74.08308976 511.51068294 -74.93791962 511.50057125 C-75.65510398 511.50046391 -76.37228835 511.50035658 -77.11120558 511.50024599 C-79 511 -79 511 -80.73011023 509.26001972 C-82.16732372 506.70221438 -82.376611 505.2534559 -82.38031673 502.33911324 C-82.38875668 501.40129922 -82.39719662 500.46348521 -82.40589231 499.49725258 C-82.39988227 498.47022252 -82.39387222 497.44319247 -82.38768005 496.38504028 C-82.39306559 495.29146395 -82.39845113 494.19788761 -82.40399987 493.0711726 C-82.41834758 489.39385202 -82.41115875 485.71688797 -82.40405273 482.03955078 C-82.40975275 479.40833241 -82.41671557 476.77711651 -82.42485046 474.14590454 C-82.4420597 467.73283511 -82.44287401 461.31986357 -82.43763756 454.90677704 C-82.43359819 449.69428935 -82.43503664 444.48183063 -82.44038582 439.26934433 C-82.44113424 438.52782181 -82.44188266 437.7862993 -82.44265376 437.02230641 C-82.44418523 435.51595092 -82.44572357 434.00959544 -82.44726873 432.50323997 C-82.46100172 418.37172814 -82.45555072 404.24027164 -82.44408352 390.10876106 C-82.43415258 377.17996076 -82.44708794 364.25130361 -82.47101771 351.3225254 C-82.49540013 338.04922922 -82.50501856 324.77599974 -82.49836498 311.50268161 C-82.49487055 304.04995428 -82.49711942 296.59733703 -82.51461601 289.14462662 C-82.52932741 282.79950446 -82.52998762 276.45456986 -82.5125451 270.10945143 C-82.50402329 266.87216771 -82.50407577 263.63528875 -82.51719666 260.39801025 C-82.53033837 256.88799734 -82.51891826 253.37890005 -82.50120544 249.868927 C-82.51081045 248.84635839 -82.52041546 247.82378977 -82.53031152 246.77023423 C-82.46881781 240.86146424 -81.92199753 237.50790883 -78 233 C-74.48335392 230.29488763 -72.34986982 229.86928605 -68 230 C-68.00276538 229.13878194 -68.00553076 228.27756388 -68.00837994 227.3902483 C-68.07461166 206.44206071 -68.1242669 185.49389115 -68.15543652 164.54562092 C-68.17091027 154.41522272 -68.19200952 144.28489438 -68.22631836 134.15454102 C-68.25620513 125.32568652 -68.27557131 116.49688262 -68.28226548 107.66797894 C-68.28617896 102.99244404 -68.29538677 98.31705387 -68.31719017 93.64156532 C-68.3375439 89.24131657 -68.34383605 84.84127227 -68.33932304 80.44098091 C-68.34014874 78.82567484 -68.34612107 77.21036197 -68.35761642 75.59509659 C-68.37254345 73.38954717 -68.36895332 71.18476956 -68.36076355 68.97920227 C-68.36352893 67.74492146 -68.36629431 66.51064066 -68.36914349 65.23895741 C-67.77732116 60.0461601 -65.11777151 56.88990863 -61.59375 53.21484375 C-60.93793945 52.52551758 -60.28212891 51.83619141 -59.60644531 51.12597656 C-58.91131836 50.4037793 -58.21619141 49.68158203 -57.5 48.9375 C-56.04627364 47.41072862 -54.59315052 45.88338262 -53.140625 44.35546875 C-52.43099609 43.61087402 -51.72136719 42.8662793 -50.99023438 42.09912109 C-47.48812632 38.40541095 -44.06432164 34.64210759 -40.6328125 30.8828125 C-36.31092322 26.1505361 -31.95968558 21.44553674 -27.60742188 16.74121094 C-25.87514875 14.86475712 -24.14841761 12.98328951 -22.421875 11.1015625 C-21.23966 9.81763774 -20.05737009 8.53378195 -18.875 7.25 C-18.31828613 6.6410791 -17.76157227 6.0321582 -17.18798828 5.40478516 C-11.84759071 -0.3805072 -7.80359436 -1.22430198 0 0 Z " fill="#020101" transform="translate(351,1)"/>
<path d="M0 0 C2.91949223 3.83287683 3.36062811 6.63582301 3.29296875 11.39453125 C3.28330078 12.59658203 3.27363281 13.79863281 3.26367188 15.03710938 C3.23853516 16.28298828 3.21339844 17.52886719 3.1875 18.8125 C3.16719727 20.71032227 3.16719727 20.71032227 3.14648438 22.64648438 C3.11118318 25.76475643 3.06186819 28.88216042 3 32 C3.84183838 31.98428955 4.68367676 31.9685791 5.55102539 31.95239258 C8.70253182 31.90097749 11.85382299 31.8635112 15.00561523 31.83520508 C16.36441117 31.82020591 17.72315941 31.79979962 19.08178711 31.77368164 C33.70921954 31.49971945 33.70921954 31.49971945 39 35 C43.20102264 39.9989929 43.55134258 43.66878908 43.390625 49.8984375 C43.38496521 50.73339752 43.37930542 51.56835754 43.37347412 52.42861938 C43.35120223 55.07801266 43.30102523 57.72602016 43.25 60.375 C43.22992302 62.17836579 43.21167435 63.98175292 43.1953125 65.78515625 C43.15136786 70.19063269 43.08240601 74.59508194 43 79 C43.68779541 78.98622314 44.37559082 78.97244629 45.08422852 78.95825195 C45.98584717 78.94753662 46.88746582 78.93682129 47.81640625 78.92578125 C48.71045166 78.91200439 49.60449707 78.89822754 50.52563477 78.8840332 C53.81070024 79.03799532 55.53539376 79.83413391 58 82 C61.51054309 86.497135 61.3978428 90.34572746 61.29296875 95.80078125 C61.28872391 96.63715622 61.28447906 97.47353119 61.28010559 98.33525085 C61.26337364 100.99466765 61.22573226 103.653314 61.1875 106.3125 C61.17244604 108.12043173 61.15875888 109.92837539 61.14648438 111.73632812 C61.11348816 116.15784689 61.06174428 120.57879302 61 125 C61.61560791 125.05188477 62.23121582 125.10376953 62.86547852 125.15722656 C63.67428467 125.23424805 64.48309082 125.31126953 65.31640625 125.390625 C66.51825562 125.49938965 66.51825562 125.49938965 67.74438477 125.61035156 C71.06794088 126.18448248 72.74761742 127.54285537 75 130 C77.03955555 134.04619249 77.25292215 137.43024813 77.25878906 141.92993164 C77.2622937 142.60698654 77.26579834 143.28404144 77.26940918 143.98161316 C77.27817421 146.20790009 77.27239669 148.43386638 77.265625 150.66015625 C77.266973 152.21284547 77.26891466 153.76553427 77.27142334 155.31822205 C77.27436738 158.56708813 77.2700996 161.81584402 77.26074219 165.06469727 C77.2493385 169.22653233 77.25591738 173.38810969 77.26788712 177.54993534 C77.27511708 180.75412434 77.27281273 183.95825232 77.26763153 187.16244316 C77.26629867 188.69702625 77.26793001 190.2316149 77.27259064 191.76619148 C77.27767565 193.91076448 77.26991866 196.05492088 77.25878906 198.19946289 C77.25719788 199.4190419 77.25560669 200.63862091 77.25396729 201.89515686 C76.86350953 206.66864604 76.86350953 206.66864604 75 209 C72.03 209.99 72.03 209.99 69 211 C69 217.27 69 223.54 69 230 C70.65 230.33 72.3 230.66 74 231 C76.93554241 233.48456576 77.00628818 235.07278961 77.34057617 238.94238281 C77.34010331 240.52937615 77.32327908 242.11642107 77.29296875 243.703125 C77.28872391 244.54091492 77.28447906 245.37870483 77.28010559 246.24188232 C77.26334408 248.91158502 77.22569711 251.58052637 77.1875 254.25 C77.17244987 256.06248908 77.15876203 257.87499002 77.14648438 259.6875 C77.11344889 264.12529231 77.06168443 268.56251717 77 273 C78.3765979 273.22550537 78.3765979 273.22550537 79.78100586 273.45556641 C96.27576707 276.16425741 112.76914489 278.89206043 129.22854614 281.809021 C130.65039688 282.05973249 132.07282148 282.30721261 133.49581909 282.55133057 C135.48578275 282.89358562 137.4734238 283.24926209 139.4609375 283.60546875 C140.58290527 283.80293701 141.70487305 284.00040527 142.86083984 284.20385742 C149.53328063 285.896098 153.06200851 288.59932595 157 294 C158.20588228 297.61764683 158.14810588 300.92608505 158.14717102 304.69210815 C158.15084771 305.48335276 158.1545244 306.27459736 158.1583125 307.08981907 C158.16935445 309.74982731 158.17319401 312.40979649 158.17700195 315.06982422 C158.18326609 316.97346115 158.18991285 318.87709685 158.19691467 320.7807312 C158.21432601 325.95840584 158.22487628 331.13607125 158.2331202 336.31376791 C158.2382689 339.54692972 158.24434461 342.78008866 158.25063133 346.01324844 C158.26968172 356.12439166 158.28391454 366.23552757 158.2922433 376.34668529 C158.30202345 388.02751536 158.32836393 399.70815631 158.36874419 411.38891971 C158.39887054 420.41233988 158.41370877 429.43570573 158.41702431 438.45917523 C158.41937829 443.85121428 158.42838426 449.24305126 158.45348549 454.63503647 C158.47671105 459.70594374 158.48102169 464.77651509 158.47072411 469.8474617 C158.47022733 471.70949163 158.47658935 473.57153779 158.49028015 475.43351746 C158.50791664 477.97405868 158.50093424 480.51338347 158.48774719 483.05392456 C158.49871644 483.79215796 158.50968568 484.53039137 158.52098733 485.29099548 C158.47924482 488.61780939 158.02090013 490.95698019 156.56303024 493.95778847 C152.70494515 497.03189417 149.30824179 496.68737961 144.50376892 496.62145996 C143.53058246 496.62784878 142.55739599 496.6342376 141.55471903 496.64082003 C138.28468102 496.65611437 135.01584596 496.63557866 131.74584961 496.61523438 C129.40532529 496.6187342 127.06480335 496.6243912 124.72428894 496.63204956 C118.3607337 496.64632617 111.99760906 496.62920793 105.63409495 496.60576439 C99.65732944 496.58773032 93.68058759 496.59089921 87.70380384 496.59324223 C75.86195086 496.59693308 64.02026567 496.57610029 52.1784668 496.54199219 C40.68265543 496.50889284 29.18702016 496.49473505 17.69116211 496.50097656 C5.17722233 496.50773739 -7.33664365 496.50528969 -19.85057253 496.48561716 C-20.51200454 496.48457768 -21.17343656 496.48353819 -21.85491196 496.4824672 C-22.51388658 496.48143006 -23.17286119 496.48039291 -23.85180473 496.47932434 C-29.14402791 496.47113427 -34.43621225 496.46844374 -39.72844124 496.47001648 C-45.95581889 496.47089317 -52.18298505 496.45673725 -58.41030693 496.43078995 C-60.7004837 496.42360661 -62.99068295 496.42155487 -65.28086853 496.42490768 C-68.39772868 496.42860144 -71.51396433 496.41394825 -74.63075256 496.39440918 C-75.54533125 496.39973711 -76.45990995 496.40506503 -77.40220314 496.41055441 C-78.23475764 496.40149777 -79.06731214 496.39244113 -79.92509556 496.38311005 C-80.64477562 496.38153884 -81.36445567 496.37996764 -82.10594422 496.37834883 C-84.68360974 495.86344492 -85.51204897 495.16762291 -87 493 C-87.3794995 490.32712865 -87.3794995 490.32712865 -87.38590336 487.02815628 C-87.3955767 485.77247762 -87.40525004 484.51679896 -87.41521651 483.22306943 C-87.41080266 481.82182809 -87.40609947 480.42058765 -87.40113831 479.01934814 C-87.40673993 477.53681438 -87.41364095 476.05428505 -87.42173427 474.5717628 C-87.44014187 470.48743804 -87.43968129 466.40329698 -87.43615115 462.31894016 C-87.43554046 457.91797078 -87.45208273 453.51706113 -87.46632385 449.11611938 C-87.49127542 440.48942414 -87.49948985 431.86279038 -87.50116099 423.23606208 C-87.50258514 416.22483762 -87.5087427 409.2136335 -87.51826286 402.20241547 C-87.5446928 382.33407901 -87.55851961 362.46579122 -87.55627144 342.59743705 C-87.55615157 341.52565392 -87.5560317 340.45387079 -87.5559082 339.34960938 C-87.55578556 338.27652073 -87.55566292 337.20343209 -87.55553656 336.09782562 C-87.55431727 318.70770537 -87.58302065 301.31778003 -87.6253233 283.92771617 C-87.66839421 266.08128762 -87.68913493 248.23495417 -87.68654197 230.38847232 C-87.68554526 220.3652135 -87.69382105 210.34215892 -87.72607613 200.31894684 C-87.75336475 191.7841556 -87.75993922 183.24966114 -87.73954786 174.71484521 C-87.7297378 170.35942626 -87.72963182 166.00457699 -87.7556076 161.64921188 C-87.77914571 157.66157118 -87.77497043 153.67495359 -87.74875521 149.68733844 C-87.74413721 148.24518208 -87.74964839 146.80295011 -87.76633544 145.36088291 C-87.89715397 133.25338359 -87.89715397 133.25338359 -84.11331081 128.65085983 C-81.61226006 126.20776212 -79.71017701 125.11682086 -76.125 125.0625 C-74.95324219 125.01802734 -74.95324219 125.01802734 -73.7578125 124.97265625 C-73.17773438 124.98167969 -72.59765625 124.99070312 -72 125 C-72.02094727 123.91058105 -72.04189453 122.82116211 -72.06347656 121.69873047 C-72.13611865 117.63978322 -72.18188718 113.58089294 -72.21972656 109.52148438 C-72.2397871 107.76780521 -72.26704251 106.01419247 -72.30175781 104.26074219 C-72.35052302 101.73355682 -72.37302392 99.20725909 -72.390625 96.6796875 C-72.41127014 95.90132538 -72.43191528 95.12296326 -72.45318604 94.3210144 C-72.45532629 89.07659687 -71.43169121 86.18291903 -68 82 C-64.7643179 79.2265582 -62.45170303 78.86257393 -58.32421875 78.9296875 C-57.51428467 78.93983887 -56.70435059 78.94999023 -55.86987305 78.96044922 C-55.25281494 78.97350098 -54.63575684 78.98655273 -54 79 C-54.02094727 77.91581787 -54.04189453 76.83163574 -54.06347656 75.71459961 C-54.13621102 71.66867426 -54.18192043 67.62280601 -54.21972656 63.57641602 C-54.23976622 61.82957216 -54.26700587 60.08279475 -54.30175781 58.33618164 C-54.35061582 55.81640168 -54.37304486 53.29751315 -54.390625 50.77734375 C-54.41127014 50.00414291 -54.43191528 49.23094208 -54.45318604 48.43431091 C-54.45547408 42.82834346 -53.45068487 39.48861346 -50 35 C-45.19353785 32.2022511 -41.2573232 31.6361718 -35.75390625 31.70703125 C-35.09792953 31.71127609 -34.44195282 31.71552094 -33.76609802 31.71989441 C-31.69779089 31.73651221 -29.63050599 31.77412762 -27.5625 31.8125 C-26.14910275 31.82756889 -24.73569002 31.84125341 -23.32226562 31.85351562 C-19.88118565 31.88635896 -16.44069281 31.93801985 -13 32 C-13.01571045 31.14245117 -13.0314209 30.28490234 -13.04760742 29.40136719 C-13.09882423 26.21079753 -13.13639312 23.02043785 -13.16479492 19.82958984 C-13.17985422 18.45028782 -13.20030613 17.07103347 -13.22631836 15.69189453 C-13.26282415 13.70626597 -13.27814853 11.72028382 -13.29296875 9.734375 C-13.3086792 8.54038086 -13.32438965 7.34638672 -13.34057617 6.11621094 C-12.97117573 2.73626312 -12.34699828 1.40411947 -10 -1 C-6.36298263 -2.75580149 -3.52882084 -1.65178848 0 0 Z " fill="#020101" transform="translate(87,16)"/>
<path d="M0 0 C6.27 0 12.54 0 19 0 C19.66 1.65 20.32 3.3 21 5 C31.63014581 15.63014581 50.97076722 7.65048296 66 8 C66 139.34 66 270.68 66 406 C41.25 406 16.5 406 -9 406 C-9.01458252 398.27118408 -9.02916504 390.54236816 -9.04418945 382.5793457 C-9.09293305 357.85841299 -9.15633825 333.1375388 -9.22898628 308.41666545 C-9.24025463 304.57766336 -9.25139305 300.73866091 -9.26245117 296.8996582 C-9.26465486 296.13537237 -9.26685854 295.37108654 -9.269129 294.58364054 C-9.30451463 282.2036308 -9.32937161 269.82362112 -9.35034702 257.44357953 C-9.372099 244.74330549 -9.40514366 232.04309716 -9.44870156 219.342879 C-9.47522871 211.50428942 -9.49291623 203.66578173 -9.49934604 195.82714947 C-9.50521682 189.81946314 -9.52678867 183.81193859 -9.55427551 177.80430794 C-9.56308926 175.33759606 -9.56677146 172.87085984 -9.56500816 170.40413284 C-9.5633635 167.04254523 -9.57998632 163.68153167 -9.60127258 160.32002258 C-9.59642501 159.33850403 -9.59157743 158.35698547 -9.58658296 157.34572393 C-9.64985663 151.31242316 -10.34435922 147.65564078 -14.75 143.25 C-17.60553115 141.4883319 -17.60553115 141.4883319 -24 141 C-24 97.11 -24 53.22 -24 8 C-18.06 7.67 -12.12 7.34 -6 7 C-4.68 6.67 -3.36 6.34 -2 6 C-1.34 4.02 -0.68 2.04 0 0 Z " fill="#C7EEFD" transform="translate(431,91)"/>
<path d="M0 0 C40.59 0 81.18 0 123 0 C123 82.83 123 165.66 123 251 C114.42 251 105.84 251 97 251 C96.97421875 247.46023438 96.9484375 243.92046875 96.921875 240.2734375 C96.88344178 236.83797314 96.83828544 233.4026582 96.79248047 229.96728516 C96.76428805 227.58324337 96.74306497 225.19910842 96.72900391 222.81494141 C96.70755131 219.38395548 96.66088636 215.95408776 96.609375 212.5234375 C96.60814636 211.46071625 96.60691772 210.397995 96.60565186 209.30307007 C96.48961237 203.41486634 96.17088079 199.52457291 92 195 C87.48420381 191.03341518 82.36704793 191.54898323 76.66015625 191.56640625 C75.66044296 191.5611644 74.66072968 191.55592255 73.63072205 191.55052185 C71.52018155 191.54410934 69.40960528 191.54542865 67.29907227 191.55395508 C64.07698657 191.56246175 60.85667616 191.5336973 57.63476562 191.50195312 C55.5807297 191.50034084 53.52669064 191.50091916 51.47265625 191.50390625 C50.51311539 191.49267227 49.55357452 191.48143829 48.56495667 191.46986389 C42.89905492 191.52863625 39.38627099 192.04918531 35 196 C30.80138501 200.63799847 31.52367319 206.51108723 31.48828125 212.42578125 C31.47033005 213.52850876 31.45237885 214.63123627 31.43388367 215.76737976 C31.37978996 219.28238119 31.3458871 222.79724687 31.3125 226.3125 C31.2793262 228.69858659 31.24483648 231.08465527 31.20898438 233.47070312 C31.12159165 239.31382154 31.06151239 245.15632258 31 251 C20.77 251 10.54 251 0 251 C0 168.17 0 85.34 0 0 Z " fill="#E64242" transform="translate(284,246)"/>
<path d="M0 0 C43.89 0 87.78 0 133 0 C133.33 21.12 133.66 42.24 134 64 C137.47825081 68.0745356 137.47825081 68.0745356 141 69 C141.17455021 72.24931927 141.28091753 75.49743448 141.375 78.75 C141.42527344 79.67039062 141.47554687 80.59078125 141.52734375 81.5390625 C141.58420708 84.15477547 141.57122182 86.44483282 141 89 C138.0390625 91.515625 138.0390625 91.515625 135 93 C133.4725361 96.0549278 133.76008168 99.2763314 133.68359375 102.6328125 C133.6524221 103.76056595 133.6524221 103.76056595 133.62062073 104.91110229 C133.55517295 107.31564085 133.49626262 109.72028967 133.4375 112.125 C133.39431023 113.75391771 133.35069579 115.38282422 133.30664062 117.01171875 C133.19949649 121.00769915 133.09821567 125.00379059 133 129 C122.84043744 128.52262535 113.08988349 127.09684125 103.125 125.125 C101.78269882 124.86512633 100.44025072 124.60601039 99.09765625 124.34765625 C96.42279754 123.83193325 93.74851323 123.31338812 91.07470703 122.79223633 C86.82206414 121.96459916 82.56847453 121.1423745 78.3125 120.33203125 C77.03246094 120.08686768 75.75242187 119.8417041 74.43359375 119.58911133 C68.60656527 118.58935168 64.08642639 117.95678681 58.625 120.6875 C55.88796452 122.79049289 55.88796452 122.79049289 54.76928711 125.60913086 C53 128 53 128 49.87719727 128.59594727 C47.99085571 128.58132446 47.99085571 128.58132446 46.06640625 128.56640625 C45.05488747 128.57485817 45.05488747 128.57485817 44.02293396 128.58348083 C41.86874943 128.59994068 39.7166134 128.58438993 37.5625 128.5625 C35.41214674 128.54589031 33.26315223 128.53683339 31.11277771 128.55223083 C29.15928773 128.56576285 27.20566118 128.55032735 25.25219727 128.53344727 C21.93966866 128.74763004 21.93966866 128.74763004 19.55053711 130.80053711 C17.63622715 133.0458488 17.63622715 133.0458488 18.125 136.625 C18.70740714 140.04542055 18.70740714 140.04542055 21 142 C23.43176397 142.24501495 25.75864884 142.37324921 28.1953125 142.4140625 C28.90275604 142.43342865 29.61019958 142.4527948 30.33908081 142.4727478 C32.60093085 142.53257652 34.8628317 142.57894101 37.125 142.625 C38.6575744 142.66317686 40.19012728 142.70222842 41.72265625 142.7421875 C45.48165947 142.83992973 49.24043068 142.91946808 53 143 C53 150.59 53 158.18 53 166 C49.71289062 166.03867187 49.71289062 166.03867187 46.359375 166.078125 C44.23115328 166.11656579 42.1031722 166.16171895 39.97509766 166.20751953 C38.49897804 166.23570088 37.02270831 166.25692966 35.54638672 166.27099609 C33.42076943 166.29246698 31.29695121 166.33913043 29.171875 166.390625 C27.8940918 166.41157227 26.61630859 166.43251953 25.29980469 166.45410156 C21.94679342 166.75213092 21.94679342 166.75213092 19.54394531 168.81152344 C17.63612669 171.04785447 17.63612669 171.04785447 18.125 174.625 C18.70740714 178.04542055 18.70740714 178.04542055 21 180 C23.43176397 180.24501495 25.75864884 180.37324921 28.1953125 180.4140625 C28.90275604 180.43342865 29.61019958 180.4527948 30.33908081 180.4727478 C32.60093085 180.53257652 34.8628317 180.57894101 37.125 180.625 C38.6575744 180.66317686 40.19012728 180.70222842 41.72265625 180.7421875 C45.48165947 180.83992973 49.24043068 180.91946808 53 181 C53 188.59 53 196.18 53 204 C49.71289062 204.03867187 49.71289062 204.03867187 46.359375 204.078125 C44.23115328 204.11656579 42.1031722 204.16171895 39.97509766 204.20751953 C38.49897804 204.23570088 37.02270831 204.25692966 35.54638672 204.27099609 C33.42076943 204.29246698 31.29695121 204.33913043 29.171875 204.390625 C27.8940918 204.41157227 26.61630859 204.43251953 25.29980469 204.45410156 C21.94679342 204.75213092 21.94679342 204.75213092 19.54394531 206.81152344 C17.63612669 209.04785447 17.63612669 209.04785447 18.125 212.625 C18.70740714 216.04542055 18.70740714 216.04542055 21 218 C23.43176397 218.24501495 25.75864884 218.37324921 28.1953125 218.4140625 C28.90275604 218.43342865 29.61019958 218.4527948 30.33908081 218.4727478 C32.60093085 218.53257652 34.8628317 218.57894101 37.125 218.625 C38.6575744 218.66317686 40.19012728 218.70222842 41.72265625 218.7421875 C45.48165947 218.83992973 49.24043068 218.91946808 53 219 C53 226.59 53 234.18 53 242 C49.71289062 242.03867187 49.71289062 242.03867187 46.359375 242.078125 C44.23115328 242.11656579 42.1031722 242.16171895 39.97509766 242.20751953 C38.49897804 242.23570088 37.02270831 242.25692966 35.54638672 242.27099609 C33.42076943 242.29246698 31.29695121 242.33913043 29.171875 242.390625 C27.8940918 242.41157227 26.61630859 242.43251953 25.29980469 242.45410156 C21.9470584 242.75170434 21.9470584 242.75170434 19.54785156 244.81152344 C17.64337598 247.04664491 17.64337598 247.04664491 18.0625 250.625 C18.6750845 254.25516924 18.6750845 254.25516924 22 256 C31.9 256.33 41.8 256.66 52 257 C52 284.39 52 311.78 52 340 C34.84 340 17.68 340 0 340 C0 227.8 0 115.6 0 0 Z " fill="#FCA800" transform="translate(15,157)"/>
<path d="M0 0 C7.36174683 1.2269578 14.72098508 2.45889057 22.07421875 3.734375 C23.44540863 3.97194267 23.44540863 3.97194267 24.84429932 4.21430969 C27.79215799 4.72548888 30.7398571 5.23757809 33.6875 5.75 C34.70643341 5.92707489 35.72536682 6.10414978 36.775177 6.28659058 C52.76961326 9.06836076 68.74769684 11.92728371 84.71635437 14.85319519 C93.6403322 16.4862429 102.57038797 18.08560797 111.5 19.6875 C112.30589569 19.83220734 113.11179138 19.97691467 113.94210815 20.12600708 C116.28426732 20.54655031 118.62649539 20.96670747 120.96875 21.38671875 C121.62919815 21.50528229 122.2896463 21.62384583 122.97010803 21.7460022 C130.97723382 23.1802981 138.98912535 24.58631624 147 26 C147 85.73 147 145.46 147 207 C138.09 207 129.18 207 120 207 C119.9906543 204.76057617 119.98130859 202.52115234 119.97167969 200.21386719 C119.93775132 192.77382668 119.88211546 185.33405892 119.81609726 177.89423752 C119.7767665 173.38813679 119.744508 168.88222726 119.72900391 164.37597656 C119.71374165 160.01851687 119.67912925 155.66158337 119.63169098 151.30435944 C119.61697504 149.65083671 119.60896467 147.99723881 119.60811615 146.34365082 C119.59222409 130.88756834 116.9777509 118.73857725 106.15625 107 C96.12291145 97.46010433 83.34963515 94.46383569 69.8828125 94.69140625 C57.16393603 95.70226263 47.41483618 101.14816992 38.6875 110.25 C30.99726701 119.37242213 28.93483901 128.87416851 28.79467773 140.58764648 C28.78477814 141.31043289 28.77487854 142.0332193 28.76467896 142.77790833 C28.73335363 145.14227134 28.70842249 147.50665437 28.68359375 149.87109375 C28.66299913 151.52019238 28.64200203 153.16928602 28.62062073 154.81837463 C28.56565891 159.14028874 28.51613642 163.46224841 28.46777344 167.78424072 C28.41736831 172.20190444 28.36178189 176.61950269 28.30664062 181.03710938 C28.19937613 189.69135218 28.09834128 198.34565119 28 207 C18.76 207 9.52 207 0 207 C0 138.69 0 70.38 0 0 Z " fill="#0471CC" transform="translate(82,290)"/>
<path d="M0 0 C30.69 0 61.38 0 93 0 C93 52.47 93 104.94 93 159 C62.31 159 31.62 159 0 159 C0 106.53 0 54.06 0 0 Z " fill="#F9B1B1" transform="translate(299,72)"/>
<path d="M0 0 C7.22223615 5.26402051 14.67593802 12.26239808 16.75 21.25 C18.57446379 25.26382035 21.55723962 25.89705735 25.45703125 27.6640625 C31.23694875 30.70051686 34.56512052 35.85098975 36.52734375 41.97265625 C38.23982067 49.31790849 36.68854727 55.52334494 33 62 C28.92523692 66.81104452 23.34445621 70.38338888 17.02444458 71.28039169 C14.84914693 71.38730314 12.69153313 71.40561654 10.51367188 71.38818359 C9.69484024 71.39344055 8.87600861 71.39869751 8.03236389 71.40411377 C5.34429456 71.41724297 2.65682463 71.40860099 -0.03125 71.3984375 C-1.91019809 71.40046027 -3.78914541 71.40337341 -5.66809082 71.40713501 C-9.59862776 71.41154877 -13.52895963 71.40515786 -17.45947266 71.39111328 C-22.48644587 71.374022 -27.5129385 71.38386826 -32.5398941 71.40183067 C-36.41761873 71.41269413 -40.29523026 71.40921042 -44.17295837 71.4014473 C-46.02603717 71.39945237 -47.87912637 71.40187959 -49.73219299 71.40888596 C-52.32629426 71.41654271 -54.9196275 71.40483755 -57.51367188 71.38818359 C-58.2723204 71.39425629 -59.03096893 71.40032898 -59.81260681 71.40658569 C-67.20488577 71.31908893 -72.94330224 68.79874841 -78.421875 63.7890625 C-83.12359965 58.45888951 -84.64629689 52.41967323 -84.3203125 45.421875 C-83.43992729 38.7653039 -81.21234871 34.36382683 -76 30 C-70.89072174 26.32131965 -67.58657449 24.86368736 -61.3125 24.9375 C-60.31863281 24.94652344 -59.32476562 24.95554687 -58.30078125 24.96484375 C-57.16189453 24.98224609 -57.16189453 24.98224609 -56 25 C-55.86464844 24.38253906 -55.72929687 23.76507812 -55.58984375 23.12890625 C-52.97453134 12.83992269 -47.07413091 5.46774555 -38 0 C-27.0868638 -6.41596469 -10.94489954 -6.38166556 0 0 Z " fill="#000000" transform="translate(218,6)"/>
<path d="M0 0 C6.13409979 4.75160382 10.77144784 11.81678226 12.07888031 19.5405426 C12.57493885 24.74573599 12.44046132 29.95492395 12.3359375 35.17578125 C12.32472049 36.84013322 12.31619217 38.50450526 12.31021118 40.16888428 C12.28750918 44.50942519 12.22875278 48.84872489 12.1619873 53.18878174 C12.08925064 58.41754004 12.06216965 63.64671781 12.02726746 68.87583923 C11.96945657 76.7839698 11.85436132 84.68938732 11.75 92.59765625 C-8.71 92.59765625 -29.17 92.59765625 -50.25 92.59765625 C-50.45054405 74.03173406 -50.45054405 74.03173406 -50.49414062 66.0703125 C-50.52394048 60.65420806 -50.559055 55.23852938 -50.62719727 49.82275391 C-50.68183507 45.45254246 -50.71148689 41.08278806 -50.72438622 36.7122612 C-50.73356949 35.05138334 -50.75150164 33.3905283 -50.77865028 31.72984695 C-50.95961057 20.19354892 -49.92333598 11.61319689 -41.9375 2.72265625 C-30.29179021 -8.05852487 -13.18961817 -8.22061271 0 0 Z " fill="#C8EFFE" transform="translate(175.25,404.40234375)"/>
<path d="M0 0 C4.62 0 9.24 0 14 0 C14 131.34 14 262.68 14 398 C9.38 398 4.76 398 0 398 C0 266.66 0 135.32 0 0 Z " fill="#99E6FC" transform="translate(483,99)"/>
<path d="M0 0 C6.0438989 3.35161666 10.18429666 7.92211723 13.1484375 14.19140625 C13.1484375 15.18140625 13.1484375 16.17140625 13.1484375 17.19140625 C13.72851562 17.2171875 14.30859375 17.24296875 14.90625 17.26953125 C21.70159377 17.76292255 25.67764208 19.51471121 30.3984375 24.62890625 C33.83513066 29.66120694 34.89122597 34.09821956 34.1484375 40.19140625 C32.09273997 46.57488807 29.15945604 50.46881629 23.32421875 53.80712891 C17.68305449 56.11732872 11.57963317 55.61886134 5.5859375 55.58984375 C4.28068115 55.59271393 2.9754248 55.59558411 1.63061523 55.59854126 C-1.12299334 55.60294642 -3.87630854 55.59659256 -6.62988281 55.58251953 C-10.14357359 55.56542821 -13.65657671 55.57527921 -17.17024231 55.59323692 C-20.54323617 55.60673952 -23.91604916 55.5972608 -27.2890625 55.58984375 C-28.54340088 55.59591644 -29.79773926 55.60198914 -31.09008789 55.60824585 C-39.01646506 55.54462289 -44.37811954 55.11225601 -50.6015625 49.87890625 C-55.04130569 44.57587966 -56.37221071 40.41520432 -56.13671875 33.5859375 C-55.43734791 27.71313855 -52.27627793 23.89581917 -47.8515625 20.19140625 C-46.27375 19.75828125 -46.27375 19.75828125 -44.6640625 19.31640625 C-43.7359375 18.94515625 -42.8078125 18.57390625 -41.8515625 18.19140625 C-41.38549257 16.5601615 -40.93333717 14.92228916 -40.5859375 13.26171875 C-38.48244361 7.33165618 -33.03644808 2.48582591 -27.5390625 -0.30859375 C-18.3659454 -4.04003122 -9.08463633 -4.21891687 0 0 Z " fill="#010102" transform="translate(231.8515625,174.80859375)"/>
<path d="M0 0 C4.62 0 9.24 0 14 0 C14 82.5 14 165 14 250 C9.38 250 4.76 250 0 250 C0 167.5 0 85 0 0 Z " fill="#D93131" transform="translate(392,247)"/>
<path d="M0 0 C33.99 0 67.98 0 103 0 C103 10.56 103 21.12 103 32 C69.01 32 35.02 32 0 32 C0 21.44 0 10.88 0 0 Z " fill="#FFCC6A" transform="translate(30,110)"/>
<path d="M0 0 C4.95 0 9.9 0 15 0 C15.0093457 1.91780273 15.01869141 3.83560547 15.02832031 5.81152344 C15.06385019 12.15003328 15.11764937 18.48818233 15.18390274 24.82644272 C15.22340179 28.66914318 15.25557802 32.51161367 15.27099609 36.35449219 C15.28614722 40.06358015 15.3205638 43.77203599 15.36830902 47.48084259 C15.38313904 48.89535272 15.39104195 50.30995309 15.39188385 51.72454071 C15.39424998 53.70676704 15.42359306 55.68890549 15.45410156 57.67089844 C15.46298401 58.79896912 15.47186646 59.92703979 15.48101807 61.08929443 C16.11606362 64.65094177 17.17169753 65.81061283 20 68 C20.99 68.33 21.98 68.66 23 69 C23.17455021 72.24931927 23.28091753 75.49743448 23.375 78.75 C23.42527344 79.67039062 23.47554687 80.59078125 23.52734375 81.5390625 C23.58420708 84.15477547 23.57122182 86.44483282 23 89 C20.0390625 91.515625 20.0390625 91.515625 17 93 C15.4725361 96.0549278 15.76008168 99.2763314 15.68359375 102.6328125 C15.66281265 103.38464813 15.64203156 104.13648376 15.62062073 104.91110229 C15.55517295 107.31564085 15.49626262 109.72028967 15.4375 112.125 C15.39431023 113.75391771 15.35069579 115.38282422 15.30664062 117.01171875 C15.19949649 121.00769915 15.09821567 125.00379059 15 129 C12.74943278 128.88566637 10.49953326 128.75813564 8.25 128.625 C6.99703125 128.55539062 5.7440625 128.48578125 4.453125 128.4140625 C1.39001879 128.04676696 -0.41974266 127.60288714 -3 126 C-2.01 126 -1.02 126 0 126 C-0.495 113.625 -0.495 113.625 -1 101 C-1.66 101 -2.32 101 -3 101 C-3.33 101.99 -3.66 102.98 -4 104 C-7.39866852 105.69933426 -11.12796249 105.31049701 -14.875 105.375 C-16.09896484 105.43107422 -16.09896484 105.43107422 -17.34765625 105.48828125 C-23.35489272 105.57647885 -23.35489272 105.57647885 -26.5703125 102.703125 C-28.52741936 99.00280273 -28.17517138 96.96620342 -27 93 C-24.49596412 90.31487424 -22.97728449 89.99713369 -19.28515625 89.53125 C-17.87781376 89.50482103 -16.47008127 89.49486752 -15.0625 89.5 C-14.35931641 89.47164063 -13.65613281 89.44328125 -12.93164062 89.4140625 C-8.91609129 89.39900889 -7.19850368 89.83761187 -4.05859375 92.40625 C-2 95 -2 95 -1 97 C-1 85.78 -1 74.56 -1 63 C-1.66 63 -2.32 63 -3 63 C-3.33 63.99 -3.66 64.98 -4 66 C-7.39866852 67.69933426 -11.12796249 67.31049701 -14.875 67.375 C-16.09896484 67.43107422 -16.09896484 67.43107422 -17.34765625 67.48828125 C-23.35489272 67.57647885 -23.35489272 67.57647885 -26.5703125 64.703125 C-28.52741936 61.00280273 -28.17517138 58.96620342 -27 55 C-24.49596412 52.31487424 -22.97728449 51.99713369 -19.28515625 51.53125 C-17.87781376 51.50482103 -16.47008127 51.49486752 -15.0625 51.5 C-14.00772461 51.45746094 -14.00772461 51.45746094 -12.93164062 51.4140625 C-8.91609129 51.39900889 -7.19850368 51.83761187 -4.05859375 54.40625 C-2 57 -2 57 -1 59 C-1 47.78 -1 36.56 -1 25 C-1.66 25 -2.32 25 -3 25 C-3.33 25.99 -3.66 26.98 -4 28 C-7.38158441 29.6907922 -11.15947812 29.26889059 -14.875 29.3125 C-15.69097656 29.34150391 -16.50695312 29.37050781 -17.34765625 29.40039062 C-23.35677872 29.46410889 -23.35677872 29.46410889 -26.5390625 27.16796875 C-28.5357807 24.20492437 -28.58376926 22.50261553 -28 19 C-26.32749724 16.54462361 -25.02150006 15.20041443 -22.04882812 14.6171875 C-19.68650851 14.46038725 -17.36689572 14.4546282 -15 14.5 C-14.19304687 14.48453125 -13.38609375 14.4690625 -12.5546875 14.453125 C-8.67025346 14.47876483 -6.656315 14.49955981 -3.5 16.90625 C-2 19 -2 19 -1 21 C-0.67 14.07 -0.34 7.14 0 0 Z " fill="#FE9500" transform="translate(133,157)"/>
<path d="M0 0 C30.69 0 61.38 0 93 0 C93 52.47 93 104.94 93 159 C88.38 159 83.76 159 79 159 C79 150.75 79 142.5 79 134 C77.02 133.67 75.04 133.34 73 133 C69.85253181 130.26764031 68.77812582 128.0242774 68.43359375 123.96875 C68.41382225 122.47929732 68.41563454 120.98942341 68.4375 119.5 C68.40172852 118.38044922 68.40172852 118.38044922 68.36523438 117.23828125 C68.37619418 113.11008675 68.70790381 111.39835965 71.22265625 107.96875 C74 106 74 106 79 106 C79 101.05 79 96.1 79 91 C76.69 90.67 74.38 90.34 72 90 C69.74277363 88.21919641 69.13830782 86.88889721 68.69921875 84.06689453 C68.52180575 81.72287685 68.49244828 79.41297393 68.5 77.0625 C68.47164063 76.26392578 68.44328125 75.46535156 68.4140625 74.64257812 C68.39989132 70.36642389 68.64265606 68.49386442 71.21875 64.93359375 C74 63 74 63 79 63 C79 58.05 79 53.1 79 48 C77.02 48 75.04 48 73 48 C70.46819322 45.90003986 69.24737062 44.23864997 68.59667969 40.98046875 C68.38858184 38.63911168 68.35592414 36.35014568 68.375 34 C68.34277344 33.2059375 68.31054688 32.411875 68.27734375 31.59375 C68.2719677 28.36811761 68.28012402 25.97344932 70.23925781 23.32421875 C73.31352707 20.57345483 74.8277807 20 79 20 C79 13.73 79 7.46 79 1 C52.93 1 26.86 1 0 1 C0 0.67 0 0.34 0 0 Z " fill="#F39494" transform="translate(299,72)"/>
<path d="M0 0 C5.58989315 3.22051457 10.25755304 8.54956358 12.75 14.5 C13.32772386 17.07568555 13.75486276 19.65426338 14.1875 22.2578125 C14.59227447 24.68480295 14.59227447 24.68480295 16.75 26.5 C18.78822492 26.81166114 18.78822492 26.81166114 21.0625 26.875 C24.29004326 27.1873429 25.87077362 27.56408396 28.8125 29.125 C30.75 31.5 30.75 31.5 31.375 34.9375 C30.58180449 39.45871442 29.33029978 40.68314649 25.75 43.5 C22.9631216 43.99083215 20.78857694 44.17668 18.00976562 44.13110352 C17.24653488 44.13825882 16.48330414 44.14541412 15.69694519 44.15278625 C13.18276476 44.16964734 10.67037412 44.15028774 8.15625 44.12890625 C6.40417331 44.1297352 4.65209669 44.13219555 2.90002441 44.13621521 C-0.76854922 44.13907142 -4.43651172 44.12438973 -8.10498047 44.09692383 C-12.80281411 44.06284101 -17.49955516 44.06886074 -22.1974411 44.0875864 C-25.81436233 44.09816488 -29.43103018 44.08921094 -33.04792786 44.07420158 C-34.77984362 44.06902551 -36.51178591 44.0694946 -38.24369812 44.07574654 C-40.66629754 44.08120916 -43.08734335 44.06079227 -45.50976562 44.03344727 C-46.22264236 44.03997314 -46.9355191 44.04649902 -47.66999817 44.05322266 C-52.44227188 43.9618203 -54.90906532 42.89963763 -58.25 39.5 C-59.11509306 36.74889662 -58.86449207 34.30254328 -58.25 31.5 C-56.625 29 -56.625 29 -54.25 27.5 C-51.375 26.9375 -51.375 26.9375 -48.25 27.5 C-46.7959375 28.7375 -46.7959375 28.7375 -45.3125 30 C-42.41975435 32.79378449 -42.41975435 32.79378449 -38.5625 33.0625 C-35.27754282 32.81888432 -35.27754282 32.81888432 -33.5625 30.9140625 C-31.77764998 27.63121335 -31.94887643 25.03259303 -31.9375 21.3125 C-31.67220325 14.28849316 -30.36330198 9.4885873 -25.25 4.5 C-17.70205264 -1.83394184 -9.29457921 -3.98339109 0 0 Z " fill="#80ABDF" transform="translate(208.25,18.5)"/>
<path d="M0 0 C21.78 0 43.56 0 66 0 C66 10.23 66 20.46 66 31 C44.22 31 22.44 31 0 31 C0 20.77 0 10.54 0 0 Z " fill="#FFA900" transform="translate(49,64)"/>
<path d="M0 0 C2.97 0.33 5.94 0.66 9 1 C9 60.73 9 120.46 9 182 C6.03 182 3.06 182 0 182 C0 121.94 0 61.88 0 0 Z " fill="#005AB0" transform="translate(220,315)"/>
<path d="M0 0 C11.88 0 23.76 0 36 0 C36 14.85 36 29.7 36 45 C24.12 45 12.24 45 0 45 C0 30.15 0 15.3 0 0 Z " fill="#ECECF1" transform="translate(330,452)"/>
<path d="M0 0 C3.8020499 2.7651272 6.69459969 5.85746353 9.72265625 9.40234375 C12.69915696 12.79749465 15.7853875 16.08293776 18.875 19.375 C34.05109545 35.57664317 34.05109545 35.57664317 37 40 C12.91 40 -11.18 40 -36 40 C-28.0293686 30.70093004 -19.82268184 21.68921799 -11.40454102 12.79711914 C-7.47456674 8.63112903 -3.69499742 4.37610293 0 0 Z " fill="#E84343" transform="translate(345,17)"/>
<path d="M0 0 C0.94455551 -0.00945648 1.88911102 -0.01891296 2.86228943 -0.02865601 C4.38270592 -0.01954697 4.38270592 -0.01954697 5.93383789 -0.01025391 C7.50567589 -0.01455917 7.50567589 -0.01455917 9.10926819 -0.01895142 C11.32415304 -0.02099179 13.53905592 -0.01546385 15.75390625 -0.00292969 C19.14046661 0.01310769 22.52583056 -0.00277161 25.91235352 -0.02197266 C28.06535094 -0.01998991 30.21834762 -0.01614557 32.37133789 -0.01025391 C33.38292465 -0.0163266 34.39451141 -0.02239929 35.43675232 -0.02865601 C44.49321083 0.06171177 44.49321083 0.06171177 48.21899414 3.38818359 C49.44818908 7.29268517 49.71619773 9.35409792 47.92797852 13.07324219 C43.64379716 16.73425585 39.27450229 16.10331858 33.81274414 16.05224609 C32.69589233 16.05702972 31.57904053 16.06181335 30.42834473 16.06674194 C28.06801952 16.07014305 25.70764735 16.0609261 23.34741211 16.04003906 C19.73192434 16.0132793 16.11954145 16.03978273 12.50415039 16.07177734 C10.21117478 16.06847329 7.9182011 16.06206714 5.62524414 16.05224609 C4.54287476 16.06236725 3.46050537 16.0724884 2.34533691 16.08291626 C-5.10335293 15.96643279 -5.10335293 15.96643279 -8.49389648 13.07324219 C-10.26402639 9.38054707 -9.9328777 7.27575104 -8.78100586 3.38818359 C-5.91525366 0.64756399 -3.9189771 0.01128654 0 0 Z " fill="#060400" transform="translate(41.781005859375,246.61181640625)"/>
<path d="M0 0 C0.9477832 -0.00622879 1.89556641 -0.01245758 2.87207031 -0.01887512 C4.39719238 -0.0050605 4.39719238 -0.0050605 5.953125 0.0090332 C7.00338867 0.0085347 8.05365234 0.00803619 9.13574219 0.00752258 C11.35483697 0.00986162 13.57393447 0.01958005 15.79296875 0.03613281 C19.19034541 0.05972571 22.58693723 0.05669214 25.984375 0.05004883 C28.14062968 0.05562569 30.29688105 0.06273563 32.453125 0.0715332 C33.46987305 0.0706218 34.48662109 0.06971039 35.53417969 0.06877136 C36.95585449 0.08306938 36.95585449 0.08306938 38.40625 0.09765625 C39.23801758 0.10226364 40.06978516 0.10687103 40.92675781 0.11161804 C43.47733005 0.40371724 45.04592044 0.98909287 47.203125 2.37231445 C49.203125 5.37231445 49.203125 5.37231445 49.015625 8.87231445 C48.19782142 12.39516065 47.98572997 13.30412069 45.203125 15.37231445 C42.93312073 15.76672363 42.93312073 15.76672363 40.24438477 15.79223633 C38.73250328 15.81610413 38.73250328 15.81610413 37.19007874 15.8404541 C35.55878273 15.84075623 35.55878273 15.84075623 33.89453125 15.84106445 C32.7762645 15.84867798 31.65799774 15.8562915 30.50584412 15.86413574 C28.13957961 15.87494706 25.77326735 15.87778569 23.40698242 15.87329102 C19.78288312 15.87231908 16.16090261 15.91392421 12.53710938 15.95825195 C10.23958776 15.96345901 7.94205877 15.96614715 5.64453125 15.96606445 C4.01627159 15.99065735 4.01627159 15.99065735 2.3551178 16.01574707 C-5.12164776 15.9469346 -5.12164776 15.9469346 -8.51196289 13.06176758 C-10.27750121 9.3663144 -9.9490336 7.26084974 -8.796875 3.37231445 C-5.92439413 0.62209802 -3.92962986 -0.00297368 0 0 Z " fill="#070500" transform="translate(41.796875,208.627685546875)"/>
<path d="M0 0 C3.40829537 2.42513325 4.76952466 3.4468144 6.25 7.3125 C6.55810107 10.11039078 6.75010184 12.87805948 6.84375 15.69140625 C7.31515879 18.73289947 8.1081605 20.12508945 10.25 22.3125 C13.20746492 22.89595476 13.20746492 22.89595476 16.25 22.3125 C16.930625 21.796875 17.61125 21.28125 18.3125 20.75 C20.25 19.3125 20.25 19.3125 23 19.625 C23.7425 19.851875 24.485 20.07875 25.25 20.3125 C24.755 22.7875 24.755 22.7875 24.25 25.3125 C5.44 25.3125 -13.37 25.3125 -32.75 25.3125 C-33.08 23.9925 -33.41 22.6725 -33.75 21.3125 C-31.18048029 18.74298029 -29.10726995 18.6319831 -25.625 17.97265625 C-23.36695499 17.38859358 -23.36695499 17.38859358 -21.75 14.3125 C-21.481875 13.054375 -21.21375 11.79625 -20.9375 10.5 C-19.72840298 5.33039619 -17.19478755 2.10534421 -12.875 -1.0625 C-8.21730178 -2.43241124 -4.28521138 -2.23773195 0 0 Z " fill="#81ADE1" transform="translate(224.75,188.6875)"/>
<path d="M0 0 C1.51176819 -0.01891296 1.51176819 -0.01891296 3.05407715 -0.03820801 C4.13644653 -0.03011108 5.21881592 -0.02201416 6.33398438 -0.01367188 C7.45083618 -0.01749878 8.56768799 -0.02132568 9.71838379 -0.02526855 C12.07870383 -0.02798943 14.43905394 -0.02061607 16.79931641 -0.00390625 C20.41442012 0.01749929 24.0275363 -0.00370366 27.64257812 -0.02929688 C29.93555127 -0.02665363 32.22852317 -0.02152873 34.52148438 -0.01367188 C35.60385376 -0.0217688 36.68622314 -0.02986572 37.8013916 -0.03820801 C38.80923706 -0.02559937 39.81708252 -0.01299072 40.85546875 0 C42.18306213 0.00477356 42.18306213 0.00477356 43.53747559 0.00964355 C46.71919533 0.68576509 47.92745118 2.0028021 49.92773438 4.51757812 C50.42773438 7.51757812 50.42773438 7.51757812 49.92773438 10.51757812 C47.92745118 13.03235415 46.71919533 14.34939116 43.53747559 15.0255127 C42.2098822 15.03028625 42.2098822 15.03028625 40.85546875 15.03515625 C39.84762329 15.04776489 38.83977783 15.06037354 37.8013916 15.07336426 C36.71902222 15.06526733 35.63665283 15.05717041 34.52148438 15.04882812 C33.40463257 15.05265503 32.28778076 15.05648193 31.13708496 15.0604248 C28.77676492 15.06314568 26.41641481 15.05577232 24.05615234 15.0390625 C20.44104863 15.01765696 16.82793245 15.03885991 13.21289062 15.06445312 C10.91991748 15.06180988 8.62694558 15.05668498 6.33398438 15.04882812 C4.7104303 15.06097351 4.7104303 15.06097351 3.05407715 15.07336426 C2.04623169 15.06075562 1.03838623 15.04814697 0 15.03515625 C-0.88506226 15.03197388 -1.77012451 15.0287915 -2.68200684 15.0255127 C-5.86372658 14.34939116 -7.07198243 13.03235415 -9.07226562 10.51757812 C-9.57226562 7.51757812 -9.57226562 7.51757812 -9.07226562 4.51757812 C-6.25969756 0.98158943 -4.4892556 0.01614179 0 0 Z " fill="#010100" transform="translate(41.072265625,171.482421875)"/>
<path d="M0 0 C7.73556286 3.86778143 12.75451574 9.06244242 16.1817627 17.06344604 C18.00215142 23.5965993 17.47955219 30.55572825 17.390625 37.28515625 C17.38315287 38.95380471 17.37746454 40.62246202 17.37347412 42.29112244 C17.35829414 46.6560442 17.31907967 51.0204228 17.2746582 55.38513184 C17.2335394 59.8497788 17.21542785 64.31451462 17.1953125 68.77929688 C17.15257673 77.51977887 17.08441981 86.25982163 17 95 C14.36 95 11.72 95 9 95 C8.99413376 94.06785172 8.98826752 93.13570343 8.98222351 92.17530823 C8.92485017 83.36297524 8.85201297 74.55088557 8.76428509 65.738801 C8.71968037 61.20910506 8.68040278 56.67949701 8.65356445 52.1496582 C8.62743226 47.77283083 8.58696073 43.39634348 8.53681374 39.01972771 C8.52021177 37.35534859 8.50865616 35.69091075 8.50238609 34.02646065 C8.45168942 21.79855522 7.45713242 13.07720598 0 3 C0 2.01 0 1.02 0 0 Z " fill="#99E3F8" transform="translate(170,402)"/>
<path d="M0 0 C11.88 0 23.76 0 36 0 C36 14.85 36 29.7 36 45 C32.37 45 28.74 45 25 45 C25 30.48 25 15.96 25 1 C17.08 1 9.16 1 1 1 C1 15.52 1 30.04 1 45 C0.67 45 0.34 45 0 45 C0 30.15 0 15.3 0 0 Z " fill="#C4C4C9" transform="translate(330,452)"/>
<path d="M0 0 C33.99 0 67.98 0 103 0 C103 10.56 103 21.12 103 32 C69.01 32 35.02 32 0 32 C0 21.44 0 10.88 0 0 Z M1 1 C1 10.9 1 20.8 1 31 C31.36 31 61.72 31 93 31 C93 21.1 93 11.2 93 1 C62.64 1 32.28 1 1 1 Z " fill="#D2A241" transform="translate(30,110)"/>
<path d="M0 0 C1.77020508 -0.04253906 1.77020508 -0.04253906 3.57617188 -0.0859375 C13.23377464 -0.10779965 13.23377464 -0.10779965 16.37890625 2.8046875 C18.0625 5.5 18.0625 5.5 18.0625 9.125 C16.7466014 13.56615776 16.7466014 13.56615776 14.0625 15.5 C9.44776851 16.18055716 4.78426634 16.00929529 0.125 16 C-1.16341797 16.02835937 -2.45183594 16.05671875 -3.77929688 16.0859375 C-5.01615234 16.08851563 -6.25300781 16.09109375 -7.52734375 16.09375 C-9.22685181 16.10438477 -9.22685181 16.10438477 -10.96069336 16.11523438 C-13.9375 15.5 -13.9375 15.5 -16.33813477 13.18945312 C-17.9375 10.5 -17.9375 10.5 -17.9375 6.875 C-15.4122485 -1.6477238 -7.43957869 -0.01619941 0 0 Z " fill="#050606" transform="translate(456.9375,256.5)"/>
<path d="M0 0 C1.93262695 -0.0299707 1.93262695 -0.0299707 3.90429688 -0.06054688 C5.14115234 -0.05990234 6.37800781 -0.05925781 7.65234375 -0.05859375 C8.78534912 -0.06044678 9.91835449 -0.0622998 11.08569336 -0.06420898 C14.69954217 0.54486666 15.87055161 1.5508071 18.0625 4.4375 C18.79180783 8.24610758 18.45440215 9.83409511 16.33984375 13.08984375 C12.01325656 17.18535098 5.61604224 16.15384116 0.0625 16.0625 C-1.7009375 16.09150391 -1.7009375 16.09150391 -3.5 16.12109375 C-13.06976205 16.0667201 -13.06976205 16.0667201 -16.25 13.125 C-17.9375 10.4375 -17.9375 10.4375 -17.9375 6.8125 C-15.30696099 -2.06556914 -7.94342717 -0.0435799 0 0 Z " fill="#050606" transform="translate(456.9375,113.5625)"/>
<path d="M0 0 C1.93262695 -0.0299707 1.93262695 -0.0299707 3.90429688 -0.06054688 C5.14115234 -0.05990234 6.37800781 -0.05925781 7.65234375 -0.05859375 C8.78534912 -0.06044678 9.91835449 -0.0622998 11.08569336 -0.06420898 C14.69954217 0.54486666 15.87055161 1.5508071 18.0625 4.4375 C18.79180783 8.24610758 18.45440215 9.83409511 16.33984375 13.08984375 C12.01325656 17.18535098 5.61604224 16.15384116 0.0625 16.0625 C-1.7009375 16.09150391 -1.7009375 16.09150391 -3.5 16.12109375 C-13.06976205 16.0667201 -13.06976205 16.0667201 -16.25 13.125 C-17.9375 10.4375 -17.9375 10.4375 -17.9375 6.8125 C-15.30696099 -2.06556914 -7.94342717 -0.0435799 0 0 Z " fill="#050606" transform="translate(456.9375,352.5625)"/>
<path d="M0 0 C1.18013672 -0.01998047 2.36027344 -0.03996094 3.57617188 -0.06054688 C5.28450195 -0.05958008 5.28450195 -0.05958008 7.02734375 -0.05859375 C8.0649585 -0.06044678 9.10257324 -0.0622998 10.17163086 -0.06420898 C13.79653993 0.56489229 15.47644647 1.86254416 18.0625 4.4375 C18.6875 7.375 18.6875 7.375 18.0625 10.4375 C16.40175818 12.98873009 15.65551477 14.00798339 13.0625 15.4375 C8.72051685 16.19257754 4.45918402 16.13481388 0.0625 16.0625 C-1.7009375 16.09150391 -1.7009375 16.09150391 -3.5 16.12109375 C-13.06977519 16.06672003 -13.06977519 16.06672003 -16.24609375 13.125 C-17.9375 10.4375 -17.9375 10.4375 -18 6.8125 C-15.32140844 -1.69596731 -7.50992429 -0.04496961 0 0 Z " fill="#030404" transform="translate(456.9375,304.5625)"/>
<path d="M0 0 C1.23234375 -0.00515625 2.4646875 -0.0103125 3.734375 -0.015625 C5.66023438 0.00757813 5.66023438 0.00757813 7.625 0.03125 C8.90890625 0.01578125 10.1928125 0.0003125 11.515625 -0.015625 C12.74796875 -0.01046875 13.9803125 -0.0053125 15.25 0 C16.93996094 0.00676758 16.93996094 0.00676758 18.6640625 0.01367188 C22.25896296 0.64206806 23.44373926 1.65334259 25.625 4.53125 C26.125 7.53125 26.125 7.53125 25.625 10.53125 C23.7579009 12.83400556 22.26852259 14.20948871 19.625 15.53125 C15.69375325 15.82724687 11.7535823 15.80927989 7.8125 15.84375 C6.71873047 15.87275391 5.62496094 15.90175781 4.49804688 15.93164062 C-3.5513959 15.9954083 -3.5513959 15.9954083 -7.5703125 13.73046875 C-10.09923445 10.64868724 -10.44564402 8.48731522 -10.375 4.53125 C-7.3509787 0.41460787 -4.97638435 0.01992831 0 0 Z " fill="#060808" transform="translate(449.375,400.46875)"/>
<path d="M0 0 C1.93262695 -0.0299707 1.93262695 -0.0299707 3.90429688 -0.06054688 C5.14115234 -0.05990234 6.37800781 -0.05925781 7.65234375 -0.05859375 C8.78534912 -0.06044678 9.91835449 -0.0622998 11.08569336 -0.06420898 C14.69954217 0.54486666 15.87055161 1.5508071 18.0625 4.4375 C18.79554203 8.26560837 18.46122714 9.83586505 16.3046875 13.08984375 C12.07930939 17.08812377 6.06249639 16.15608858 0.625 16.0625 C-0.49455078 16.08183594 -1.61410156 16.10117188 -2.76757812 16.12109375 C-11.90733284 16.06685188 -11.90733284 16.06685188 -15.71875 13.125 C-17.9375 10.4375 -17.9375 10.4375 -18 6.8125 C-15.21635605 -2.02966313 -8.0148413 -0.0439717 0 0 Z " fill="#060708" transform="translate(456.9375,161.5625)"/>
<path d="M0 0 C1.61358398 -0.00386719 1.61358398 -0.00386719 3.25976562 -0.0078125 C8.78292175 0.06067053 12.33074141 0.18431075 16.9375 3.5 C18.35791821 6.34083641 18.25202272 8.35477278 17.9375 11.5 C15.77046795 14.38730912 14.56385176 15.38715546 10.9765625 16.03344727 C7.29558551 16.06898301 3.61862278 16.0939152 -0.0625 16.0625 C-1.98835938 16.09827148 -1.98835938 16.09827148 -3.953125 16.13476562 C-5.18546875 16.13283203 -6.4178125 16.13089844 -7.6875 16.12890625 C-8.81414062 16.12963135 -9.94078125 16.13035645 -11.1015625 16.13110352 C-14.0625 15.5 -14.0625 15.5 -16.421875 13.11694336 C-18.0625 10.5 -18.0625 10.5 -18.6875 8 C-17.92756455 4.96025821 -16.55705015 3.49747023 -14.13085938 1.56054688 C-9.75328014 -0.68404758 -4.80155013 -0.12704041 0 0 Z " fill="#060707" transform="translate(457.0625,208.5)"/>
<path d="M0 0 C6.59683319 2.93623752 11.95660545 8.73645529 14.7421875 15.38671875 C15.31991136 17.9624043 15.74705026 20.54098213 16.1796875 23.14453125 C16.58446197 25.5715217 16.58446197 25.5715217 18.7421875 27.38671875 C20.78041242 27.69837989 20.78041242 27.69837989 23.0546875 27.76171875 C26.28223076 28.07406165 27.86296112 28.45080271 30.8046875 30.01171875 C32.7421875 32.38671875 32.7421875 32.38671875 33.3046875 35.88671875 C32.67367762 39.81300243 31.82077301 40.98157382 28.7421875 43.38671875 C28.1646875 42.45859375 27.5871875 41.53046875 26.9921875 40.57421875 C24.51095924 37.05914538 22.88117835 34.87674211 18.59375 33.89453125 C16.04598316 33.29263164 14.0080719 32.71065504 11.7421875 31.38671875 C10.55044868 28.98084 10.04076054 26.69927499 9.45703125 24.08203125 C7.44466981 16.49443892 2.46766542 11.50711675 -4.09375 7.53515625 C-9.02216488 4.91971586 -13.74952839 4.04771284 -19.2578125 3.38671875 C-13.26701094 -1.20622911 -7.43609391 -2.01983866 0 0 Z " fill="#508CD3" transform="translate(206.2578125,17.61328125)"/>
<path d="M0 0 C3.75412044 1.18185273 4.44300285 1.76844486 6.375 5.0625 C7.01040598 8.68542235 6.8845338 12.32710216 6.875 16 C6.90335937 16.98935547 6.93171875 17.97871094 6.9609375 18.99804688 C6.97384707 23.79717889 6.94337293 26.27641134 4.0703125 30.25 C1.375 32.0625 1.375 32.0625 -2.25 32.125 C-6.00412044 30.94314727 -6.69300285 30.35655514 -8.625 27.0625 C-9.26040598 23.43957765 -9.1345338 19.79789784 -9.125 16.125 C-9.15335937 15.13564453 -9.18171875 14.14628906 -9.2109375 13.12695312 C-9.22384707 8.32782111 -9.19337293 5.84858866 -6.3203125 1.875 C-3.625 0.0625 -3.625 0.0625 0 0 Z " fill="#040101" transform="translate(376.625,348.9375)"/>
<path d="M0 0 C3.82814433 0.95703608 5.1158347 2.47477503 7.5 5.625 C8.24359298 9.3046586 8.1984772 12.88256147 8.125 16.625 C8.14433594 17.60984375 8.16367187 18.5946875 8.18359375 19.609375 C8.15124195 24.397442 8.07637855 26.85201979 5.15234375 30.7734375 C2.5 32.625 2.5 32.625 -0.5625 33.25 C-3.5 32.625 -3.5 32.625 -5.6484375 30.7734375 C-8.38186792 26.12545245 -8.12142927 21.92170149 -8.0625 16.625 C-8.08634766 15.64015625 -8.11019531 14.6553125 -8.13476562 13.640625 C-8.12500128 8.82354813 -8.09176744 6.40819304 -5.12109375 2.4765625 C-2.5 0.625 -2.5 0.625 0 0 Z " fill="#050101" transform="translate(345.5,348.375)"/>
<path d="M0 0 C3.75412044 1.18185273 4.44300285 1.76844486 6.375 5.0625 C7.01040598 8.68542235 6.8845338 12.32710216 6.875 16 C6.90335937 16.98935547 6.93171875 17.97871094 6.9609375 18.99804688 C6.97384707 23.79717889 6.94337293 26.27641134 4.0703125 30.25 C1.375 32.0625 1.375 32.0625 -2.25 32.125 C-6.00412044 30.94314727 -6.69300285 30.35655514 -8.625 27.0625 C-9.26040598 23.43957765 -9.1345338 19.79789784 -9.125 16.125 C-9.15335937 15.13564453 -9.18171875 14.14628906 -9.2109375 13.12695312 C-9.22384707 8.32782111 -9.19337293 5.84858866 -6.3203125 1.875 C-3.625 0.0625 -3.625 0.0625 0 0 Z " fill="#060101" transform="translate(316.625,348.9375)"/>
<path d="M0 0 C2.1875 1.34765625 2.1875 1.34765625 4 4 C4.60225016 7.65287887 4.55753506 11.24326998 4.5 14.9375 C4.51546875 15.92685547 4.5309375 16.91621094 4.546875 17.93554688 C4.52288579 22.39454202 4.44022785 25.2343451 2.1875 29.15234375 C0 31 0 31 -3.5 31.625 C-7 31 -7 31 -9.1875 29.15234375 C-11.87357123 24.48066383 -11.58278016 20.23198121 -11.5 14.9375 C-11.51546875 13.94427734 -11.5309375 12.95105469 -11.546875 11.92773438 C-11.50817281 4.74364082 -11.50817281 4.74364082 -9.1875 1.34765625 C-5.94824419 -0.6479567 -3.72203994 -0.53171999 0 0 Z " fill="#030000" transform="translate(379,304)"/>
<path d="M0 0 C2.60957852 2.03122689 3.84063581 3.2296395 4.51757812 6.50195312 C4.52208984 7.41912109 4.52660156 8.33628906 4.53125 9.28125 C4.53640625 10.28800781 4.5415625 11.29476563 4.546875 12.33203125 C4.53140625 13.37746094 4.5159375 14.42289062 4.5 15.5 C4.51546875 16.54542969 4.5309375 17.59085937 4.546875 18.66796875 C4.54171875 19.67472656 4.5365625 20.68148438 4.53125 21.71875 C4.52673828 22.63591797 4.52222656 23.55308594 4.51757812 24.49804688 C3.84065882 27.77024927 2.60707811 28.9660597 0 31 C-3.5 31.5625 -3.5 31.5625 -7 31 C-9.6187354 28.79278016 -10.84177837 27.00054894 -11.38085938 23.59155273 C-11.53909916 20.69622702 -11.54532841 17.8366293 -11.5 14.9375 C-11.51546875 13.94427734 -11.5309375 12.95105469 -11.546875 11.92773438 C-11.50817281 4.74364082 -11.50817281 4.74364082 -9.1875 1.34765625 C-5.94824419 -0.6479567 -3.72203994 -0.53171999 0 0 Z " fill="#040101" transform="translate(319,304)"/>
<path d="M0 0 C4.06651524 0.65354709 4.99338624 1.39213276 7.5 4.5625 C8.01757812 7.06445312 8.01757812 7.06445312 8.03125 9.84375 C8.03640625 10.85050781 8.0415625 11.85726563 8.046875 12.89453125 C8.03140625 13.93996094 8.0159375 14.98539062 8 16.0625 C8.01546875 17.10792969 8.0309375 18.15335937 8.046875 19.23046875 C8.04171875 20.23722656 8.0365625 21.24398438 8.03125 22.28125 C8.02673828 23.19841797 8.02222656 24.11558594 8.01757812 25.06054688 C7.34065882 28.33274927 6.10707811 29.5285597 3.5 31.5625 C0 32.125 0 32.125 -3.5 31.5625 C-6.04434883 29.3770861 -7.32687466 27.60735585 -7.88085938 24.26391602 C-8.03917055 21.51891327 -8.04537575 18.81151436 -8 16.0625 C-8.01546875 15.12535156 -8.0309375 14.18820312 -8.046875 13.22265625 C-8.02229372 8.89020626 -7.89514688 6.24293611 -5.6875 2.44140625 C-3.5 0.5625 -3.5 0.5625 0 0 Z " fill="#040101" transform="translate(315.5,395.4375)"/>
<path d="M0 0 C3.5 0.5 3.5 0.5 5.6875 1.84765625 C8.59104408 6.09659253 8.07820229 10.41626151 8 15.4375 C8.01546875 16.42685547 8.0309375 17.41621094 8.046875 18.43554688 C8.02287875 22.89584927 7.93877542 25.73592556 5.6875 29.65625 C3.5 31.5 3.5 31.5 0 32.0625 C-4.06651524 31.40895291 -4.99338624 30.67036724 -7.5 27.5 C-8.01757812 24.99804688 -8.01757812 24.99804688 -8.03125 22.21875 C-8.03640625 21.21199219 -8.0415625 20.20523437 -8.046875 19.16796875 C-8.03140625 18.12253906 -8.0159375 17.07710938 -8 16 C-8.01546875 14.95457031 -8.0309375 13.90914063 -8.046875 12.83203125 C-8.04171875 11.82527344 -8.0365625 10.81851562 -8.03125 9.78125 C-8.02673828 8.86408203 -8.02222656 7.94691406 -8.01757812 7.00195312 C-7.04660739 2.30831725 -4.58472964 0.65496138 0 0 Z " fill="#030101" transform="translate(345.5,256.5)"/>
<path d="M0 0 C4.06651524 0.65354709 4.99338624 1.39213276 7.5 4.5625 C8.01757812 7.06445312 8.01757812 7.06445312 8.03125 9.84375 C8.03640625 10.85050781 8.0415625 11.85726563 8.046875 12.89453125 C8.03140625 13.93996094 8.0159375 14.98539062 8 16.0625 C8.01546875 17.10792969 8.0309375 18.15335937 8.046875 19.23046875 C8.04171875 20.23722656 8.0365625 21.24398438 8.03125 22.28125 C8.02673828 23.19841797 8.02222656 24.11558594 8.01757812 25.06054688 C7.34065882 28.33274927 6.10707811 29.5285597 3.5 31.5625 C0 32.125 0 32.125 -3.5 31.5625 C-6.04434883 29.3770861 -7.32687466 27.60735585 -7.88085938 24.26391602 C-8.03917055 21.51891327 -8.04537575 18.81151436 -8 16.0625 C-8.01546875 15.12535156 -8.0309375 14.18820312 -8.046875 13.22265625 C-8.02229372 8.89020626 -7.89514688 6.24293611 -5.6875 2.44140625 C-3.5 0.5625 -3.5 0.5625 0 0 Z " fill="#040101" transform="translate(315.5,256.4375)"/>
<path d="M0 0 C2.6640625 1.34375 2.6640625 1.34375 5 4 C5.68435935 7.67770776 5.56031049 11.27234055 5.4375 15 C5.43169922 15.99773437 5.42589844 16.99546875 5.41992188 18.0234375 C5.27977996 26.38710696 5.27977996 26.38710696 3 30 C-0.04983996 31.52491998 -2.6423369 31.23562548 -6 31 C-8.10358381 29.45737187 -8.84054159 28.31891683 -10 26 C-10.29338566 22.38144197 -10.27791549 18.75406781 -10.3125 15.125 C-10.34150391 14.11824219 -10.37050781 13.11148437 -10.40039062 12.07421875 C-10.46427301 4.67368978 -10.46427301 4.67368978 -8.1640625 1.3359375 C-5.17147059 -0.51147483 -3.46014407 -0.56492148 0 0 Z " fill="#020000" transform="translate(378,396)"/>
<path d="M0 0 C4.26108029 0.7826474 5.46196777 2.09945791 8.0625 5.5625 C8.77399894 9.07891079 8.71599076 12.48680922 8.625 16.0625 C8.63595703 16.99964844 8.64691406 17.93679688 8.65820312 18.90234375 C8.61217171 23.22929648 8.45348368 25.89068073 6.24609375 29.68359375 C4.0625 31.5625 4.0625 31.5625 0.5625 32.125 C-3.50401524 31.47145291 -4.43088624 30.73286724 -6.9375 27.5625 C-7.45507812 25.06054688 -7.45507812 25.06054688 -7.46875 22.28125 C-7.47390625 21.27449219 -7.4790625 20.26773437 -7.484375 19.23046875 C-7.46890625 18.18503906 -7.4534375 17.13960938 -7.4375 16.0625 C-7.45296875 15.01707031 -7.4684375 13.97164063 -7.484375 12.89453125 C-7.47921875 11.88777344 -7.4740625 10.88101562 -7.46875 9.84375 C-7.46423828 8.92658203 -7.45972656 8.00941406 -7.45507812 7.06445312 C-6.56285592 2.75148466 -4.23806829 0.81154499 0 0 Z " fill="#030101" transform="translate(344.9375,395.4375)"/>
<path d="M0 0 C2.18359375 1.34765625 2.18359375 1.34765625 4 4 C4.62760479 7.65215041 4.60329301 11.23973395 4.5625 14.9375 C4.58634766 15.92685547 4.61019531 16.91621094 4.63476562 17.93554688 C4.62506753 22.7425696 4.58750391 25.20980724 1.65625 29.15234375 C-1 31 -1 31 -4.0625 31.625 C-7 31 -7 31 -9.15234375 29.15234375 C-11.88766463 24.48552779 -11.58304785 20.24910177 -11.5 14.9375 C-11.51546875 13.94427734 -11.5309375 12.95105469 -11.546875 11.92773438 C-11.50817281 4.74364082 -11.50817281 4.74364082 -9.1875 1.34765625 C-5.94824419 -0.6479567 -3.72203994 -0.53171999 0 0 Z " fill="#030101" transform="translate(349,304)"/>
<path d="M0 0 C2.1875 1.34765625 2.1875 1.34765625 4 4 C4.60225016 7.65287887 4.55753506 11.24326998 4.5 14.9375 C4.51546875 15.92685547 4.5309375 16.91621094 4.546875 17.93554688 C4.52288579 22.39454202 4.44022785 25.2343451 2.1875 29.15234375 C0 31 0 31 -3.5 31.625 C-7 31 -7 31 -9.1875 29.15234375 C-11.87357123 24.48066383 -11.58278016 20.23198121 -11.5 14.9375 C-11.51546875 13.94427734 -11.5309375 12.95105469 -11.546875 11.92773438 C-11.50817281 4.74364082 -11.50817281 4.74364082 -9.1875 1.34765625 C-5.94824419 -0.6479567 -3.72203994 -0.53171999 0 0 Z " fill="#020000" transform="translate(379,257)"/>
<path d="M0 0 C3.8363704 1.20774624 4.53277774 1.58516923 6.375 5.0625 C6.86152809 8.04842473 6.88470403 10.97961972 6.875 14 C6.90335937 14.79857422 6.93171875 15.59714844 6.9609375 16.41992188 C6.97529858 20.75337836 6.75488438 22.55770449 4.0703125 26.125 C1.375 28.0625 1.375 28.0625 -2.25 28.125 C-6.0863704 26.91725376 -6.78277774 26.53983077 -8.625 23.0625 C-9.11152809 20.07657527 -9.13470403 17.14538028 -9.125 14.125 C-9.15335937 13.32642578 -9.18171875 12.52785156 -9.2109375 11.70507812 C-9.22529858 7.37162164 -9.00488438 5.56729551 -6.3203125 2 C-3.625 0.0625 -3.625 0.0625 0 0 Z " fill="#070505" transform="translate(346.625,134.9375)"/>
<path d="M0 0 C3.8363704 1.20774624 4.53277774 1.58516923 6.375 5.0625 C6.86152809 8.04842473 6.88470403 10.97961972 6.875 14 C6.90335937 14.79857422 6.93171875 15.59714844 6.9609375 16.41992188 C6.97529858 20.75337836 6.75488438 22.55770449 4.0703125 26.125 C1.375 28.0625 1.375 28.0625 -2.25 28.125 C-6.0863704 26.91725376 -6.78277774 26.53983077 -8.625 23.0625 C-9.11152809 20.07657527 -9.13470403 17.14538028 -9.125 14.125 C-9.15335937 13.32642578 -9.18171875 12.52785156 -9.2109375 11.70507812 C-9.22529858 7.37162164 -9.00488438 5.56729551 -6.3203125 2 C-3.625 0.0625 -3.625 0.0625 0 0 Z " fill="#070505" transform="translate(376.625,134.9375)"/>
<path d="M0 0 C3.8206336 1.20279206 4.53197288 1.60682416 6.375 5.0625 C6.66911699 7.96618441 6.79451271 10.60420114 6.75 13.5 C6.76160156 14.25087891 6.77320313 15.00175781 6.78515625 15.77539062 C6.76121226 20.31277635 6.38456555 23.43290821 3.375 27.0625 C0 28.1875 0 28.1875 -3.625 28.0625 C-6.39183128 26.05976457 -8.29280424 24.46273393 -9.10400391 21.04345703 C-9.29867486 18.69661907 -9.30731785 16.41635289 -9.25 14.0625 C-9.26933594 13.2684375 -9.28867187 12.474375 -9.30859375 11.65625 C-9.27273544 7.3532528 -8.98278569 5.53571992 -6.3125 2.00390625 C-3.625 0.0625 -3.625 0.0625 0 0 Z " fill="#060404" transform="translate(316.625,134.9375)"/>
<path d="M0 0 C3.91841702 0.71970925 5.36159752 1.61401479 8.0625 4.5625 C8.78591931 7.74288675 8.71562402 10.81473118 8.625 14.0625 C8.63595703 14.91714844 8.64691406 15.77179688 8.65820312 16.65234375 C8.61215054 20.58830439 8.55991423 22.85818717 6.25 26.12890625 C3.06478927 28.21635686 0.78074068 28.03573063 -2.9375 27.5625 C-5.04108381 26.01987187 -5.77804159 24.88141683 -6.9375 22.5625 C-7.11509374 19.77631629 -7.2150623 17.03802812 -7.25 14.25 C-7.27900391 13.49009766 -7.30800781 12.73019531 -7.33789062 11.94726562 C-7.38256954 7.99146282 -7.21273327 6.01341408 -5.1015625 2.5546875 C-2.9375 0.5625 -2.9375 0.5625 0 0 Z " fill="#040303" transform="translate(344.9375,177.4375)"/>
<path d="M0 0 C2.18359375 1.4375 2.18359375 1.4375 4 4 C4.6166049 7.17631156 4.60387299 10.27290662 4.5625 13.5 C4.58634766 14.35464844 4.61019531 15.20929688 4.63476562 16.08984375 C4.62017952 22.32297069 4.62017952 22.32297069 1.65625 25.55859375 C-1.6103986 27.331231 -3.3415572 27.70055288 -7 27 C-10.13891349 24.12883412 -11.2579312 21.86775849 -11.53125 17.71484375 C-11.54180474 16.12239674 -11.53084132 14.52968331 -11.5 12.9375 C-11.51546875 12.13505859 -11.5309375 11.33261719 -11.546875 10.50585938 C-11.52153819 6.68950183 -11.45470679 4.63404157 -9.1875 1.47265625 C-5.97042119 -0.69312716 -3.78562459 -0.54080351 0 0 Z " fill="#050303" transform="translate(379,93)"/>
<path d="M0 0 C2.6640625 1.46875 2.6640625 1.46875 5 4 C5.66953193 7.01799163 5.56281337 9.92367963 5.4375 13 C5.43169922 13.80695313 5.42589844 14.61390625 5.41992188 15.4453125 C5.33602857 19.51245994 5.16996023 22.4534397 3 26 C-0.04983996 27.52491998 -2.6423369 27.23562548 -6 27 C-8.10358381 25.45737187 -8.84054159 24.31891683 -10 22 C-10.17743353 19.02726117 -10.27758855 16.09945569 -10.3125 13.125 C-10.34150391 12.30902344 -10.37050781 11.49304688 -10.40039062 10.65234375 C-10.46412319 4.6418725 -10.46412319 4.6418725 -8.1640625 1.4609375 C-5.18690717 -0.54891104 -3.52700374 -0.57583734 0 0 Z " fill="#040202" transform="translate(318,178)"/>
<path d="M0 0 C2.46788657 1.66438862 3.78774669 2.96536301 4.39697266 5.93505859 C4.57633797 8.28231476 4.59463824 10.5838468 4.5625 12.9375 C4.58634766 13.73607422 4.61019531 14.53464844 4.63476562 15.35742188 C4.62397635 19.69830756 4.39421431 21.49080652 1.65625 25.02734375 C-1 27 -1 27 -4.0625 27.625 C-7 27 -7 27 -9.15234375 25.02734375 C-11.66570938 20.90924997 -11.59163052 17.66792538 -11.5 12.9375 C-11.51546875 12.13505859 -11.5309375 11.33261719 -11.546875 10.50585938 C-11.52153819 6.68950183 -11.45470679 4.63404157 -9.1875 1.47265625 C-5.97042119 -0.69312716 -3.78562459 -0.54080351 0 0 Z " fill="#040303" transform="translate(349,93)"/>
<path d="M0 0 C2.46788657 1.66438862 3.78774669 2.96536301 4.39697266 5.93505859 C4.57633797 8.28231476 4.59463824 10.5838468 4.5625 12.9375 C4.58634766 13.73607422 4.61019531 14.53464844 4.63476562 15.35742188 C4.62397635 19.69830756 4.39421431 21.49080652 1.65625 25.02734375 C-1 27 -1 27 -4.0625 27.625 C-7 27 -7 27 -9.15234375 25.02734375 C-11.66570938 20.90924997 -11.59163052 17.66792538 -11.5 12.9375 C-11.51546875 12.13505859 -11.5309375 11.33261719 -11.546875 10.50585938 C-11.52153819 6.68950183 -11.45470679 4.63404157 -9.1875 1.47265625 C-5.97042119 -0.69312716 -3.78562459 -0.54080351 0 0 Z " fill="#030202" transform="translate(319,93)"/>
<path d="M0 0 C3.3271102 0.98581043 4.3365204 1.35651811 6.375 4 C6.9978433 7.11572188 6.83855069 10.2664207 6.8125 13.4375 C6.83248047 14.29666016 6.85246094 15.15582031 6.87304688 16.04101562 C6.86819023 22.30122507 6.86819023 22.30122507 4.56640625 25.5625 C1.31169531 27.69749755 -0.82673899 27.61043481 -4.625 27 C-7.65561212 24.21877636 -8.8677397 21.99499404 -9.19140625 17.96875 C-9.21117775 16.47929732 -9.20936546 14.98942341 -9.1875 13.5 C-9.21134766 12.75363281 -9.23519531 12.00726563 -9.25976562 11.23828125 C-9.24865214 7.05220056 -8.93644028 5.40893004 -6.31640625 1.96875 C-3.625 0 -3.625 0 0 0 Z " fill="#040303" transform="translate(376.625,178)"/>
<path d="M0 0 C3.8020499 2.7651272 6.69459969 5.85746353 9.72265625 9.40234375 C12.69915696 12.79749465 15.7853875 16.08293776 18.875 19.375 C34.05109545 35.57664317 34.05109545 35.57664317 37 40 C32.6896308 40.58157948 28.69603585 41.08835252 24.91357422 38.66113281 C22.94545888 36.74119719 21.18549047 34.74720549 19.4375 32.625 C18.7969165 31.89418213 18.15633301 31.16336426 17.49633789 30.41040039 C16.22311314 28.95457454 14.96094281 27.48899419 13.7109375 26.01318359 C11.5141582 23.4283317 9.23120423 20.93655275 6.9375 18.4375 C3.57055539 14.67033368 0.281412 10.84165307 -3 7 C-3.66 6.34 -4.32 5.68 -5 5 C-3.35 3.35 -1.7 1.7 0 0 Z " fill="#D33030" transform="translate(345,17)"/>
<path d="M0 0 C1.05477539 -0.04253906 1.05477539 -0.04253906 2.13085938 -0.0859375 C6.10552556 -0.10083784 7.8814089 0.35727162 11.03125 2.83984375 C13.0625 5.5 13.0625 5.5 13.625 8.5625 C12.90905317 12.30133345 12.13131608 13.25174835 9.0625 15.5 C6.05229232 16.11590409 3.12619233 16.10409966 0.0625 16.0625 C-0.74445313 16.08634766 -1.55140625 16.11019531 -2.3828125 16.13476562 C-6.55506319 16.12443827 -8.30995603 16.06536355 -11.5 13.19140625 C-13.47209437 9.49908826 -13.11222242 7.46468818 -11.9375 3.5 C-8.5445932 -0.13827911 -4.68739562 -0.01709169 0 0 Z " fill="#070500" transform="translate(117.9375,246.5)"/>
<path d="M0 0 C1.05477539 -0.04253906 1.05477539 -0.04253906 2.13085938 -0.0859375 C6.10552556 -0.10083784 7.8814089 0.35727162 11.03125 2.83984375 C13.0625 5.5 13.0625 5.5 13.625 8.5625 C12.90905317 12.30133345 12.13131608 13.25174835 9.0625 15.5 C6.05229232 16.11590409 3.12619233 16.10409966 0.0625 16.0625 C-0.74445313 16.08634766 -1.55140625 16.11019531 -2.3828125 16.13476562 C-6.55506319 16.12443827 -8.30995603 16.06536355 -11.5 13.19140625 C-13.47209437 9.49908826 -13.11222242 7.46468818 -11.9375 3.5 C-8.5445932 -0.13827911 -4.68739562 -0.01709169 0 0 Z " fill="#080500" transform="translate(117.9375,208.5)"/>
<path d="M0 0 C3.72187826 0.71270009 4.68731849 1.52261419 6.9375 4.5625 C7.52451344 7.40852372 7.49651543 10.16582608 7.4375 13.0625 C7.45296875 13.82175781 7.4684375 14.58101563 7.484375 15.36328125 C7.45834094 19.07964327 7.3541277 20.98873901 5.125 24.05859375 C1.88670101 26.2849243 -0.23277837 26.17799098 -4.0625 25.5625 C-7.0372149 22.7474299 -7.98683587 21.04257588 -8.62890625 16.96875 C-8.62761719 15.6796875 -8.62632812 14.390625 -8.625 13.0625 C-8.64691406 11.7734375 -8.66882813 10.484375 -8.69140625 9.15625 C-7.77140134 3.89907908 -5.31805662 0.97678591 0 0 Z " fill="#000306" transform="translate(191.0625,354.4375)"/>
<path d="M0 0 C3.72187826 0.71270009 4.68731849 1.52261419 6.9375 4.5625 C7.52451344 7.40852372 7.49651543 10.16582608 7.4375 13.0625 C7.45296875 13.82175781 7.4684375 14.58101563 7.484375 15.36328125 C7.45834094 19.07964327 7.3541277 20.98873901 5.125 24.05859375 C1.88670101 26.2849243 -0.23277837 26.17799098 -4.0625 25.5625 C-7.0372149 22.7474299 -7.98683587 21.04257588 -8.62890625 16.96875 C-8.62761719 15.6796875 -8.62632812 14.390625 -8.625 13.0625 C-8.64691406 11.7734375 -8.66882813 10.484375 -8.69140625 9.15625 C-7.77140134 3.89907908 -5.31805662 0.97678591 0 0 Z " fill="#000306" transform="translate(156.0625,354.4375)"/>
<path d="M0 0 C3.72187826 0.71270009 4.68731849 1.52261419 6.9375 4.5625 C7.52451344 7.40852372 7.49651543 10.16582608 7.4375 13.0625 C7.45296875 13.82175781 7.4684375 14.58101563 7.484375 15.36328125 C7.45834094 19.07964327 7.3541277 20.98873901 5.125 24.05859375 C1.88670101 26.2849243 -0.23277837 26.17799098 -4.0625 25.5625 C-7.0372149 22.7474299 -7.98683587 21.04257588 -8.62890625 16.96875 C-8.62761719 15.6796875 -8.62632813 14.390625 -8.625 13.0625 C-8.64691406 11.7734375 -8.66882813 10.484375 -8.69140625 9.15625 C-7.77140134 3.89907908 -5.31805662 0.97678591 0 0 Z " fill="#000306" transform="translate(121.0625,354.4375)"/>
<path d="M0 0 C5.50858075 0.25473206 5.50858075 0.25473206 7.68164062 1.86938477 C10.04314816 5.04277285 9.47692207 8.71148258 9.46484375 12.53125 C9.49320313 13.34271484 9.5215625 14.15417969 9.55078125 14.99023438 C9.57032559 20.9463732 9.57032559 20.9463732 6.59375 24.12890625 C3.6391934 25.7752045 2.27729487 26.27322715 -1.03515625 25.59375 C-3.27948607 23.72347515 -4.72958827 22.20488596 -6.03515625 19.59375 C-6.21038301 17.32729234 -6.30243881 15.05402146 -6.34765625 12.78125 C-6.38503906 11.55792969 -6.42242187 10.33460938 -6.4609375 9.07421875 C-5.92390244 4.68432664 -4.51796325 1.3181006 0 0 Z " fill="#000306" transform="translate(189.03515625,314.40625)"/>
<path d="M0 0 C5.50858075 0.25473206 5.50858075 0.25473206 7.68164062 1.86938477 C10.04314816 5.04277285 9.47692207 8.71148258 9.46484375 12.53125 C9.49320313 13.34271484 9.5215625 14.15417969 9.55078125 14.99023438 C9.57032559 20.9463732 9.57032559 20.9463732 6.59375 24.12890625 C3.6391934 25.7752045 2.27729487 26.27322715 -1.03515625 25.59375 C-3.27948607 23.72347515 -4.72958827 22.20488596 -6.03515625 19.59375 C-6.21038301 17.32729234 -6.30243881 15.05402146 -6.34765625 12.78125 C-6.38503906 11.55792969 -6.42242187 10.33460938 -6.4609375 9.07421875 C-5.92390244 4.68432664 -4.51796325 1.3181006 0 0 Z " fill="#000306" transform="translate(154.03515625,314.40625)"/>
<path d="M0 0 C5.50858075 0.25473206 5.50858075 0.25473206 7.68164062 1.86938477 C10.04314816 5.04277285 9.47692207 8.71148258 9.46484375 12.53125 C9.49320313 13.34271484 9.5215625 14.15417969 9.55078125 14.99023438 C9.57032559 20.9463732 9.57032559 20.9463732 6.59375 24.12890625 C3.6391934 25.7752045 2.27729487 26.27322715 -1.03515625 25.59375 C-3.27948607 23.72347515 -4.72958827 22.20488596 -6.03515625 19.59375 C-6.21038301 17.32729234 -6.30243881 15.05402146 -6.34765625 12.78125 C-6.38503906 11.55792969 -6.42242187 10.33460938 -6.4609375 9.07421875 C-5.92390244 4.68432664 -4.51796325 1.3181006 0 0 Z " fill="#000306" transform="translate(119.03515625,314.40625)"/>
<path d="M0 0 C0.80695313 -0.01546875 1.61390625 -0.0309375 2.4453125 -0.046875 C6.29706854 -0.02145087 8.35546541 0.03052419 11.53125 2.34375 C13.54335236 5.29768751 13.58371733 6.99769605 13 10.5 C11.32749724 12.95537639 10.02150006 14.29958557 7.04882812 14.8828125 C4.68650851 15.03961275 2.36689572 15.0453718 0 15 C-0.80695313 15.01546875 -1.61390625 15.0309375 -2.4453125 15.046875 C-6.29706854 15.02145087 -8.35546541 14.96947581 -11.53125 12.65625 C-13.54335236 9.70231249 -13.58371733 8.00230395 -13 4.5 C-9.58273028 -0.51684278 -5.55295553 -0.10644643 0 0 Z " fill="#030200" transform="translate(118,171.5)"/>
<path d="M0 0 C3.3 0 6.6 0 10 0 C10 10.23 10 20.46 10 31 C6.7 31 3.4 31 0 31 C0 20.77 0 10.54 0 0 Z " fill="#F89100" transform="translate(105,64)"/>
<path d="M0 0 C3.54436375 1.36658973 6.30076491 3.2308414 8.875 6.0625 C10.32076822 9.83756147 10.45988773 13.35746042 10.59375 17.37890625 C11.06470967 20.4175018 11.88580927 21.79498485 14 24 C16.59855733 24.8042208 16.59855733 24.8042208 19 25 C19 25.33 19 25.66 19 26 C15.48449579 26.32702365 13.38503917 26.18824137 10.1875 24.625 C7.33632518 21.20359021 7.47124088 18.74054613 7.22265625 14.40625 C6.92593153 11.19954079 6.12492557 9.41801875 4 7 C-0.77639828 3.77870814 -4.41742223 3.37971358 -10 4 C-12.96731398 5.83656989 -12.96731398 5.83656989 -15 8 C-12.58698177 1.24354896 -6.7119204 -0.94202392 0 0 Z " fill="#528ACB" transform="translate(221,187)"/>
<path d="M0 0 C2.75 0.25 2.75 0.25 5 1 C5 2.32 5 3.64 5 5 C2.03 4.67 -0.94 4.34 -4 4 C-2.3125 1.9375 -2.3125 1.9375 0 0 Z " fill="#4F89CE" transform="translate(245,208)"/>
</svg>
