<svg version="1.1" id="Layer_1" xmlns="http://www.w3.org/2000/svg" xmlns:xlink="http://www.w3.org/1999/xlink" x="0px" y="0px"
	 width="100%" viewBox="0 0 512 512" enable-background="new 0 0 512 512" xml:space="preserve">
<path fill="#010101" opacity="1.000000" stroke="none" 
	d="
M513.000000,184.000000 
	C513.000000,293.973267 513.000000,403.446533 513.000000,512.959900 
	C342.401733,512.959900 171.803436,512.959900 1.102575,512.959900 
	C1.102575,342.443420 1.102575,171.886780 1.102575,1.165060 
	C171.666534,1.165060 342.333252,1.165060 513.000000,1.165060 
	C513.000000,61.863194 513.000000,122.681595 513.000000,184.000000 
M250.847809,213.793396 
	C250.399643,212.249374 249.951492,210.705338 249.503342,209.161316 
	C248.033997,209.600052 246.481812,209.869446 245.122986,210.534149 
	C244.135284,211.017319 243.403183,212.023041 241.770477,212.895676 
	C234.293045,213.347672 231.942474,210.912415 232.066864,202.842392 
	C232.188507,194.950653 227.343384,189.217972 219.878708,188.421509 
	C212.938812,187.681015 206.756668,192.578720 205.303757,199.968262 
	C203.813507,207.547668 203.494263,207.693954 195.922501,209.025696 
	C194.592224,209.259674 193.553452,211.151077 192.380066,212.277039 
	C193.511795,213.278259 194.578598,214.372375 195.809021,215.232391 
	C196.265396,215.551407 197.105667,215.338760 197.770859,215.338898 
	C213.753036,215.342239 229.735413,215.375015 245.717117,215.287796 
	C247.250717,215.279434 248.780197,214.519363 250.847809,213.793396 
M373.876251,58.135830 
	C376.557343,58.135830 379.238434,58.135830 383.244720,58.135830 
	C370.394684,44.129513 358.611053,31.285591 346.489258,18.073063 
	C344.624847,20.302317 343.159241,22.054678 341.126251,24.137993 
	C330.884277,35.184471 320.642303,46.230949 309.759613,57.968487 
	C331.536774,57.968487 352.263794,57.968487 373.876251,58.135830 
M356.753876,498.197205 
	C360.007843,498.197205 363.261841,498.197205 366.445312,498.197205 
	C366.445312,482.962708 366.445312,468.403717 366.445312,453.590973 
	C362.755066,453.590973 359.329224,453.590973 355.006378,453.357300 
	C347.126892,453.357300 339.247375,453.357300 331.457947,453.357300 
	C331.457947,468.706268 331.457947,483.248413 331.457947,497.987549 
	C339.816833,497.987549 347.909637,497.987549 356.753876,498.197205 
M106.892113,96.057945 
	C109.786766,96.057945 112.681419,96.057945 115.561920,96.057945 
	C115.561920,85.313759 115.561920,75.307983 115.561920,65.076767 
	C112.187401,65.076767 109.089172,65.076767 105.067398,64.911888 
	C86.687729,64.911888 68.308052,64.911888 49.960110,64.911888 
	C49.960110,75.599617 49.960110,85.646202 49.960110,95.890755 
	C68.842812,95.890755 87.415733,95.890755 106.892113,96.057945 
M236.948288,61.158535 
	C240.285126,58.789528 240.992584,55.457352 239.627701,51.923153 
	C238.218246,48.273590 235.121490,46.989571 231.217987,47.067753 
	C224.812866,47.196033 222.661591,45.126110 222.012665,38.723461 
	C220.264847,21.478752 201.883759,12.444443 187.172562,22.091099 
	C179.867157,27.283422 176.763504,34.388683 177.816299,43.227779 
	C178.296021,47.255299 177.517227,50.692696 173.676926,52.477654 
	C170.119568,54.131100 166.871857,53.122280 164.327499,50.059196 
	C163.906906,49.552864 163.403122,48.811852 162.872635,48.751431 
	C160.079819,48.433334 156.674286,47.245121 154.625412,48.395840 
	C152.560226,49.555714 150.520996,53.308792 150.873825,55.546757 
	C151.266281,58.035961 154.143082,60.378323 156.398743,62.221020 
	C157.455627,63.084415 159.593536,62.744129 161.241745,62.746048 
	C184.016327,62.772545 206.791092,62.800026 229.565323,62.706203 
	C231.801605,62.696991 234.034622,61.889618 236.948288,61.158535 
M122.996315,111.205299 
	C92.598656,111.205299 62.200993,111.205299 31.739136,111.205299 
	C31.739136,121.946991 31.739136,132.011642 31.739136,142.569290 
	C36.859795,142.569290 41.654293,142.581818 46.448711,142.567215 
	C72.256317,142.488632 98.063896,142.403275 124.751228,142.622375 
	C127.697006,142.622375 130.642792,142.622375 133.655121,142.622375 
	C133.655121,131.859467 133.655121,121.643272 133.655121,111.343094 
	C130.173325,111.343094 127.043129,111.343094 122.996315,111.205299 
M169.236542,402.285919 
	C168.837128,402.229248 168.437714,402.172546 167.338577,401.738220 
	C142.867645,394.895386 124.292717,411.524414 125.718712,432.995483 
	C126.510803,444.921967 125.860710,456.944275 125.860664,468.923370 
	C125.860634,478.529297 125.860664,488.135223 125.860664,497.970978 
	C144.196716,497.970978 162.109146,497.970978 180.910645,498.169983 
	C183.169632,498.169983 185.428635,498.169983 187.854935,498.169983 
	C187.854935,474.114716 188.365616,450.652008 187.634674,427.228027 
	C187.281067,415.896301 181.096420,407.221313 169.823608,402.752319 
	C169.823608,402.752319 169.586853,402.798615 169.236542,402.285919 
M378.054291,73.149956 
	C352.137207,73.149956 326.220093,73.149956 300.277649,73.149956 
	C300.277649,126.505081 300.277649,179.337219 300.277649,232.072311 
	C326.763855,232.072311 352.891144,232.072311 379.925568,232.298340 
	C384.168854,232.298340 388.412140,232.298340 392.794159,232.298340 
	C392.794159,178.848129 392.794159,126.100052 392.794159,73.319046 
	C387.909271,73.319046 383.441833,73.319046 378.054291,73.149956 
M220.215149,315.860382 
	C219.571045,315.689758 218.935272,315.472809 218.281647,315.355133 
	C184.384476,309.252411 150.486832,303.152252 116.586647,297.066284 
	C105.682007,295.108643 94.770233,293.190674 83.604080,291.208832 
	C83.604080,360.382477 83.604080,428.971558 83.604080,497.818359 
	C92.742950,497.818359 101.610001,497.818359 110.902664,497.818359 
	C110.902664,495.669098 110.902588,493.869080 110.902672,492.069061 
	C110.903618,471.571594 110.523376,451.063049 111.116982,430.582764 
	C111.318588,423.627136 112.821342,416.208282 115.727982,409.925690 
	C124.545715,390.866577 146.277206,381.492371 167.988480,386.352509 
	C188.359268,390.912567 202.639389,408.348572 202.861755,429.503296 
	C203.082428,450.498444 202.916962,471.497589 202.920761,492.494995 
	C202.921082,494.262482 202.920807,496.029968 202.920807,497.978607 
	C209.395462,497.978607 215.195557,497.978607 221.905670,498.119354 
	C224.503922,498.119354 227.102158,498.119354 230.129745,498.119354 
	C230.129745,495.475281 230.129745,493.512238 230.129745,491.549164 
	C230.129745,436.470703 230.129745,381.392242 230.129745,326.313782 
	C230.129745,317.169983 230.129730,317.169983 220.215149,315.860382 
M393.901978,498.124146 
	C398.355347,498.124146 402.808746,498.124146 407.549866,498.124146 
	C407.549866,414.348938 407.549866,331.053864 407.549866,247.516281 
	C402.470428,247.516281 397.697479,247.516281 392.020294,247.308334 
	C358.532745,247.282242 325.044403,247.359879 291.558441,247.117996 
	C286.547272,247.081818 285.172546,248.353455 285.183838,253.477142 
	C285.359222,333.115631 285.306488,412.754608 285.306488,492.393494 
	C285.306488,494.174866 285.306519,495.956238 285.306519,497.893311 
	C295.863129,497.893311 305.777832,497.893311 316.219757,497.893311 
	C316.219757,495.835236 316.219696,494.049896 316.219788,492.264526 
	C316.220306,479.102448 316.152313,465.939880 316.244873,452.778442 
	C316.309479,443.594330 320.839417,438.734222 329.923492,438.559814 
	C342.246674,438.323181 354.579895,438.352264 366.904724,438.536957 
	C377.325348,438.693115 381.592804,443.211121 381.642761,453.722321 
	C381.704468,466.717529 381.648743,479.713196 381.669434,492.708649 
	C381.672211,494.454742 381.824829,496.200592 381.907806,497.941437 
	C386.018036,497.941437 389.498383,497.941437 393.901978,498.124146 
M133.277298,157.602737 
	C94.313515,157.602737 55.349728,157.602737 16.231201,157.602737 
	C16.231201,271.266449 16.231201,384.510315 16.231201,497.838745 
	C33.695320,497.838745 50.905064,497.838745 68.171997,497.838745 
	C68.171997,470.083405 68.171997,442.671234 68.171997,414.995880 
	C59.025494,414.995880 50.185677,415.297668 41.390144,414.806427 
	C38.852047,414.664673 35.629528,412.785187 34.229500,410.692841 
	C33.112724,409.023865 33.400688,405.131836 34.681641,403.480774 
	C36.136894,401.605042 39.353558,400.298096 41.868427,400.186676 
	C50.610600,399.799438 59.380455,400.037079 68.083015,400.037079 
	C68.083015,392.004639 68.083015,384.624420 68.083015,377.032837 
	C59.344765,377.032837 51.020107,377.052826 42.695599,377.026215 
	C36.539463,377.006500 32.960163,374.138184 33.087177,369.405792 
	C33.209751,364.838806 36.674789,362.114990 42.552101,362.088379 
	C51.026703,362.049988 59.501610,362.078583 68.195862,362.078583 
	C68.195862,354.269440 68.195862,346.850098 68.195862,339.070221 
	C58.922123,339.070221 49.943874,339.190521 40.970718,339.028625 
	C34.821953,338.917694 31.367121,333.501801 33.940422,328.396881 
	C35.678143,324.949615 38.727184,324.096069 42.289421,324.113403 
	C50.892429,324.155273 59.495777,324.126984 68.082146,324.126984 
	C68.082146,316.123047 68.082146,308.737976 68.082146,301.122253 
	C59.343811,301.122253 51.019772,301.140839 42.695866,301.116028 
	C36.683578,301.098114 33.294590,298.570068 33.101151,294.037964 
	C32.898857,289.298309 36.518318,286.243744 42.583370,286.196991 
	C50.249229,286.137878 57.919048,286.295197 65.579430,286.081757 
	C67.068108,286.040314 69.086212,285.115723 69.898102,283.936249 
	C74.705658,276.952087 78.805199,275.170074 87.313065,276.679657 
	C102.867195,279.439514 118.434822,282.123260 134.777679,285.072845 
	C139.431351,285.915558 144.085007,286.758270 149.274689,287.698029 
	C149.274689,277.855560 149.434296,268.735046 149.218765,259.623413 
	C149.074188,253.510895 149.620956,248.114059 156.840851,247.000397 
	C156.840851,240.122574 156.840851,233.823486 156.840851,227.581924 
	C150.526489,225.346558 149.293762,223.648270 149.284073,216.931961 
	C149.258194,198.976074 149.274857,181.020111 149.274597,163.064178 
	C149.274582,161.315948 149.274597,159.567734 149.274597,157.869400 
	C143.658417,157.869400 138.854004,157.869400 133.277298,157.602737 
M483.031036,100.021049 
	C475.868896,100.013786 468.706787,100.009087 461.544647,99.998566 
	C454.085938,99.987602 452.633850,99.009331 450.113647,92.279640 
	C444.052734,92.279640 437.975616,92.279640 431.774475,92.279640 
	C430.671844,98.322914 426.917542,100.341942 421.297058,100.044044 
	C417.039246,99.818359 412.759918,99.999306 408.355072,99.999306 
	C408.355072,144.339935 408.355072,188.084641 408.355072,231.790268 
	C420.641541,234.549820 422.797394,237.288925 422.797455,249.966141 
	C422.797760,330.750031 422.797577,411.533936 422.797577,492.317810 
	C422.797577,494.229248 422.797607,496.140686 422.797607,497.943420 
	C443.682831,497.943420 463.821716,497.943420 484.882050,498.150360 
	C489.152008,498.150360 493.421967,498.150360 497.695404,498.150360 
	C497.695404,365.173798 497.695404,232.700119 497.695404,100.174736 
	C492.899475,100.174736 488.425201,100.174736 483.031036,100.021049 
z"/>
<path fill="#C8EFFE" opacity="1.000000" stroke="none" 
	d="
M483.960632,497.943420 
	C463.821716,497.943420 443.682831,497.943420 422.797607,497.943420 
	C422.797607,496.140686 422.797577,494.229248 422.797577,492.317810 
	C422.797577,411.533936 422.797760,330.750031 422.797455,249.966141 
	C422.797394,237.288925 420.641541,234.549820 408.355072,231.790268 
	C408.355072,188.084641 408.355072,144.339935 408.355072,99.999306 
	C412.759918,99.999306 417.039246,99.818359 421.297058,100.044044 
	C426.917542,100.341942 430.671844,98.322914 431.774475,92.279640 
	C437.975616,92.279640 444.052734,92.279640 450.113647,92.279640 
	C452.633850,99.009331 454.085938,99.987602 461.544647,99.998566 
	C468.706787,100.009087 475.868896,100.013786 483.498657,100.555420 
	C483.964417,233.374344 483.962524,365.658875 483.960632,497.943420 
M460.436859,416.587860 
	C462.928986,416.583221 465.427795,416.693878 467.911835,416.549927 
	C473.078339,416.250549 476.062714,413.408630 476.037048,408.996948 
	C476.011322,404.574463 472.978394,401.760162 467.805756,401.673035 
	C461.327972,401.563904 454.845490,401.562958 448.367798,401.675568 
	C443.421844,401.761536 440.106689,404.888977 440.156525,409.115112 
	C440.203888,413.137054 443.336884,416.243591 448.003632,416.506897 
	C451.813263,416.721863 455.643341,416.574493 460.436859,416.587860 
M443.527313,211.768890 
	C442.541687,214.531693 440.358978,217.578705 440.927277,219.972626 
	C441.434937,222.110916 444.864380,224.814163 447.206055,225.024429 
	C454.472076,225.676880 461.838806,225.418411 469.156921,225.197830 
	C473.174774,225.076736 475.629822,222.549728 475.964386,218.558914 
	C476.319916,214.317642 474.156372,210.927017 469.971954,210.789322 
	C461.381989,210.506638 452.764038,211.076447 443.527313,211.768890 
M475.881073,171.979034 
	C476.020477,165.327957 473.710419,162.816711 467.201019,162.746658 
	C461.041504,162.680389 454.879944,162.676239 448.720612,162.752151 
	C443.618408,162.815033 440.324127,165.627792 440.160614,169.861053 
	C439.992798,174.205856 443.451355,177.516861 448.693024,177.642639 
	C455.016113,177.794357 461.345856,177.713608 467.672241,177.667770 
	C471.288605,177.641586 474.126190,176.234512 475.881073,171.979034 
M475.780457,120.091934 
	C474.169647,116.186829 471.201691,114.754463 467.063080,114.870369 
	C461.070831,115.038193 455.070068,114.875900 449.073578,114.926208 
	C443.628662,114.971878 440.245514,117.784988 440.162079,122.212502 
	C440.079041,126.619186 443.538544,129.774246 448.821167,129.860062 
	C454.983063,129.960159 461.149078,129.962616 467.310974,129.862930 
	C473.390778,129.764557 475.803986,127.165443 475.780457,120.091934 
M461.449554,273.134338 
	C463.610352,273.130737 465.773560,273.191986 467.931427,273.110474 
	C472.954163,272.920654 476.082947,269.992035 476.038696,265.609924 
	C475.996429,261.420380 473.014771,258.321411 468.293579,258.184814 
	C461.484711,257.987885 454.660706,257.980072 447.852936,258.197540 
	C443.260468,258.344238 440.114868,261.701324 440.161743,265.753204 
	C440.209045,269.838348 443.384674,272.922882 448.000732,273.085052 
	C452.151184,273.230835 456.310364,273.127686 461.449554,273.134338 
M475.928284,311.910522 
	C474.623474,307.619385 471.636108,305.899841 467.263245,305.970337 
	C461.101257,306.069733 454.935791,305.937256 448.773163,306.013641 
	C443.475952,306.079254 440.044159,309.195221 440.161102,313.642487 
	C440.273224,317.905365 443.594666,320.872559 448.615265,320.945740 
	C454.944061,321.038055 461.276337,321.041931 467.605042,320.946960 
	C473.166351,320.863525 475.401978,318.579926 475.928284,311.910522 
M475.900665,363.009430 
	C475.954742,356.397644 473.614166,353.931946 467.083282,353.875610 
	C461.087585,353.823883 455.090790,353.828186 449.095032,353.877197 
	C443.644623,353.921753 440.258362,356.715637 440.164703,361.124908 
	C440.071442,365.517334 443.524506,368.699493 448.806671,368.799072 
	C454.967163,368.915222 461.131622,368.810638 467.294220,368.834747 
	C471.135162,368.849762 474.093536,367.465424 475.900665,363.009430 
z"/>
<path fill="#FDA900" opacity="1.000000" stroke="none" 
	d="
M133.996826,284.838715 
	C118.434822,282.123260 102.867195,279.439514 87.313065,276.679657 
	C78.805199,275.170074 74.705658,276.952087 69.898102,283.936249 
	C69.086212,285.115723 67.068108,286.040314 65.579430,286.081757 
	C57.919048,286.295197 50.249229,286.137878 42.583370,286.196991 
	C36.518318,286.243744 32.898857,289.298309 33.101151,294.037964 
	C33.294590,298.570068 36.683578,301.098114 42.695866,301.116028 
	C51.019772,301.140839 59.343811,301.122253 68.082146,301.122253 
	C68.082146,308.737976 68.082146,316.123047 68.082146,324.126984 
	C59.495777,324.126984 50.892429,324.155273 42.289421,324.113403 
	C38.727184,324.096069 35.678143,324.949615 33.940422,328.396881 
	C31.367121,333.501801 34.821953,338.917694 40.970718,339.028625 
	C49.943874,339.190521 58.922123,339.070221 68.195862,339.070221 
	C68.195862,346.850098 68.195862,354.269440 68.195862,362.078583 
	C59.501610,362.078583 51.026703,362.049988 42.552101,362.088379 
	C36.674789,362.114990 33.209751,364.838806 33.087177,369.405792 
	C32.960163,374.138184 36.539463,377.006500 42.695599,377.026215 
	C51.020107,377.052826 59.344765,377.032837 68.083015,377.032837 
	C68.083015,384.624420 68.083015,392.004639 68.083015,400.037079 
	C59.380455,400.037079 50.610600,399.799438 41.868427,400.186676 
	C39.353558,400.298096 36.136894,401.605042 34.681641,403.480774 
	C33.400688,405.131836 33.112724,409.023865 34.229500,410.692841 
	C35.629528,412.785187 38.852047,414.664673 41.390144,414.806427 
	C50.185677,415.297668 59.025494,414.995880 68.171997,414.995880 
	C68.171997,442.671234 68.171997,470.083405 68.171997,497.838745 
	C50.905064,497.838745 33.695320,497.838745 16.231201,497.838745 
	C16.231201,384.510315 16.231201,271.266449 16.231201,157.602737 
	C55.349728,157.602737 94.313515,157.602737 133.650726,158.213226 
	C134.015030,200.828720 134.005936,242.833725 133.996826,284.838715 
M72.468323,225.376953 
	C75.791107,225.374252 79.114632,225.415558 82.436508,225.359238 
	C88.404457,225.258072 91.780190,222.671249 91.939743,218.156479 
	C92.106117,213.448547 88.527512,210.369034 82.464020,210.334076 
	C69.173332,210.257462 55.881592,210.257172 42.590904,210.333817 
	C36.520241,210.368805 32.928703,213.440796 33.083405,218.133545 
	C33.232403,222.653336 36.613361,225.309494 42.569939,225.351364 
	C52.205544,225.419113 61.841942,225.374039 72.468323,225.376953 
M89.829903,250.660980 
	C87.710480,249.854935 85.601036,248.382767 83.470016,248.350815 
	C69.493904,248.141373 55.512310,248.156586 41.534275,248.287476 
	C36.261841,248.336853 32.888634,251.715408 33.087784,256.123749 
	C33.279400,260.365326 36.510983,263.192078 41.670033,263.222748 
	C55.482403,263.304810 69.296242,263.334961 83.108154,263.222015 
	C90.844673,263.158783 93.704742,258.261444 89.829903,250.660980 
M44.635727,187.413818 
	C57.463055,187.411743 70.290749,187.465363 83.117538,187.381409 
	C88.590332,187.345596 91.925644,184.404572 91.926346,179.986862 
	C91.927063,175.546494 88.609436,172.660202 83.120628,172.609894 
	C74.125587,172.527451 65.129250,172.582779 56.133453,172.587357 
	C50.969460,172.589996 45.800022,172.464294 40.643139,172.661087 
	C36.211563,172.830215 33.229393,175.823563 33.096531,179.755310 
	C32.964355,183.666855 35.865292,186.794678 40.187675,187.313293 
	C41.339603,187.451508 42.516045,187.385468 44.635727,187.413818 
M106.893715,221.350998 
	C109.202881,222.681107 111.381584,224.714722 113.852448,225.172958 
	C117.373100,225.825912 121.118011,225.488708 124.749069,225.272018 
	C129.285110,225.001312 132.061630,222.215988 132.089600,218.137955 
	C132.120987,213.564484 129.573532,210.982239 125.221718,210.527222 
	C121.615356,210.150146 117.937103,210.182480 114.307587,210.366455 
	C107.929527,210.689743 105.418228,214.142944 106.893715,221.350998 
M122.949524,172.530029 
	C119.787689,172.545853 116.615814,172.408188 113.466408,172.614105 
	C108.941994,172.909912 106.120239,175.746613 106.007355,179.773468 
	C105.889648,183.972229 108.815186,187.052734 113.545746,187.377075 
	C116.693916,187.592926 119.868332,187.525116 123.027977,187.452499 
	C128.855835,187.318588 131.887207,184.906204 132.098465,180.373566 
	C132.312912,175.772263 129.718002,173.321060 122.949524,172.530029 
M111.591896,248.666092 
	C107.304367,250.044983 105.300148,253.094635 106.215797,257.402008 
	C107.080200,261.468292 110.096581,263.329712 114.286781,263.259125 
	C117.596321,263.203369 120.911591,263.348694 124.216972,263.218475 
	C129.086456,263.026611 131.965546,260.347656 132.104523,256.104736 
	C132.250595,251.645081 129.341324,248.551514 124.303368,248.306641 
	C120.347633,248.114365 116.369873,248.374863 111.591896,248.666092 
z"/>
<path fill="#E84343" opacity="1.000000" stroke="none" 
	d="
M392.978760,497.941437 
	C389.498383,497.941437 386.018036,497.941437 381.907806,497.941437 
	C381.824829,496.200592 381.672211,494.454742 381.669434,492.708649 
	C381.648743,479.713196 381.704468,466.717529 381.642761,453.722321 
	C381.592804,443.211121 377.325348,438.693115 366.904724,438.536957 
	C354.579895,438.352264 342.246674,438.323181 329.923492,438.559814 
	C320.839417,438.734222 316.309479,443.594330 316.244873,452.778442 
	C316.152313,465.939880 316.220306,479.102448 316.219788,492.264526 
	C316.219696,494.049896 316.219757,495.835236 316.219757,497.893311 
	C305.777832,497.893311 295.863129,497.893311 285.306519,497.893311 
	C285.306519,495.956238 285.306488,494.174866 285.306488,492.393494 
	C285.306488,412.754608 285.359222,333.115631 285.183838,253.477142 
	C285.172546,248.353455 286.547272,247.081818 291.558441,247.117996 
	C325.044403,247.359879 358.532745,247.282242 392.487274,247.844574 
	C392.962433,331.567688 392.970612,414.754547 392.978760,497.941437 
M370.539429,353.311554 
	C370.027649,360.157928 369.285309,366.997498 369.081940,373.853027 
	C368.936584,378.752258 372.282349,382.016754 376.556580,381.982056 
	C380.823853,381.947418 383.853119,378.691315 383.970612,373.729889 
	C384.088196,368.763855 384.482910,363.725555 383.807404,358.850372 
	C383.428741,356.117493 381.703308,352.451050 379.527588,351.406036 
	C377.402100,350.385223 373.932648,352.162567 370.539429,353.311554 
M340.885193,379.451416 
	C346.612427,383.635101 353.102173,381.831085 353.696442,375.472656 
	C354.282410,369.202759 354.106506,362.811584 353.668335,356.515137 
	C353.410614,352.812073 350.406647,350.071198 346.870911,350.536774 
	C344.232208,350.884247 339.892090,353.430847 339.778076,355.219238 
	C339.279144,363.047882 340.044464,370.957123 340.885193,379.451416 
M316.535187,350.248230 
	C311.098969,351.025085 309.014099,354.420227 309.089844,359.619080 
	C309.159821,364.421997 308.971527,369.231842 309.151398,374.029114 
	C309.335724,378.945679 312.579498,382.117188 316.885681,381.972961 
	C321.022766,381.834412 323.934143,378.740692 324.052338,374.045898 
	C324.177399,369.079468 323.999420,364.105621 324.109467,359.138458 
	C324.217102,354.280090 322.150574,351.248352 316.535187,350.248230 
M315.724457,289.201385 
	C321.931305,288.726501 323.987366,286.641479 324.070984,280.543121 
	C324.137085,275.721893 324.155579,270.897583 324.062225,266.077240 
	C323.960968,260.849823 321.249634,257.883606 316.743958,257.841614 
	C312.276031,257.799957 309.303650,260.807861 309.145721,265.893311 
	C308.990936,270.876984 309.075836,275.869385 309.118591,280.857452 
	C309.153351,284.907013 310.732391,287.931061 315.724457,289.201385 
M338.963806,328.053192 
	C339.723450,333.679138 342.481903,336.412292 347.042999,336.058105 
	C351.303497,335.727295 353.835785,332.574585 353.921539,327.290039 
	C353.997009,322.641083 354.002014,317.988800 353.920166,313.340057 
	C353.824432,307.902771 350.977722,304.635620 346.473816,304.601562 
	C341.883606,304.566833 339.060944,307.740082 338.976776,313.194733 
	C338.905060,317.843811 338.960815,322.494873 338.963806,328.053192 
M381.731476,306.694946 
	C375.182831,302.613586 369.312622,305.221436 369.052795,312.477631 
	C368.856567,317.957367 368.847656,323.458160 369.090881,328.934662 
	C369.283020,333.260712 372.502777,336.102142 376.534821,336.083435 
	C380.575836,336.064667 383.686707,333.228577 383.917480,328.862305 
	C384.154083,324.384888 384.192413,319.873871 383.922241,315.401428 
	C383.758087,312.683990 382.845276,310.011780 381.731476,306.694946 
M369.001740,409.626343 
	C369.019867,413.610443 368.790070,417.615448 369.123993,421.572876 
	C369.477386,425.760681 372.079895,428.257874 376.334290,428.351257 
	C380.591278,428.444763 383.519928,426.048218 383.806854,421.895233 
	C384.229126,415.783478 384.233215,409.598022 383.799896,403.487610 
	C383.509491,399.392273 380.713501,396.898102 376.388855,396.964172 
	C372.068115,397.030090 369.743683,399.607452 369.103027,403.705139 
	C368.849243,405.328339 369.022766,407.018372 369.001740,409.626343 
M338.959778,272.531860 
	C338.968475,275.683868 338.842072,278.843475 339.018433,281.986084 
	C339.265411,286.386688 342.171448,289.226624 346.272552,289.237976 
	C350.619080,289.250000 353.417694,286.800293 353.725220,282.742218 
	C354.187561,276.640930 354.113190,270.462921 353.752777,264.347839 
	C353.505005,260.144348 349.878174,257.483215 345.789307,257.886139 
	C341.511261,258.307709 339.312622,260.913025 339.010345,265.095795 
	C338.855225,267.241791 338.968018,269.407166 338.959778,272.531860 
M309.104126,412.503082 
	C309.125366,415.489929 308.931152,418.497711 309.219055,421.458618 
	C309.637360,425.760712 312.860291,428.507019 316.881287,428.389587 
	C320.994232,428.269501 323.890228,425.471741 324.023560,421.015381 
	C324.192230,415.377869 324.205444,409.726074 324.006195,404.090332 
	C323.856720,399.862610 321.404327,397.360168 317.157196,396.969910 
	C313.115173,396.598572 309.774750,399.337555 309.255524,403.583618 
	C308.935242,406.202637 309.136871,408.885498 309.104126,412.503082 
M309.652740,309.612305 
	C309.486542,316.070404 309.074982,322.534790 309.239716,328.984436 
	C309.350952,333.339417 312.685089,336.108948 316.735535,336.078094 
	C320.986389,336.045715 323.911835,333.072632 324.042786,328.325104 
	C324.180206,323.341797 324.006287,318.350403 324.108490,313.365417 
	C324.187531,309.511383 323.071106,306.332092 319.180450,305.076447 
	C315.230743,303.801788 311.980774,304.991486 309.652740,309.612305 
M353.301178,401.664856 
	C351.577362,397.705566 348.423096,396.129547 344.413208,397.208679 
	C340.339752,398.304962 338.837036,401.495056 338.934357,405.634125 
	C339.051544,410.617554 338.866211,415.608521 339.004333,420.590912 
	C339.137390,425.391693 341.987518,428.326080 346.267975,428.403809 
	C350.463806,428.479950 353.747620,425.488953 353.859497,420.858643 
	C354.007721,414.723755 353.727478,408.578522 353.301178,401.664856 
M383.995850,271.573669 
	C383.987000,269.417816 384.109955,267.251587 383.941681,265.108246 
	C383.595490,260.698456 380.709717,257.909546 376.635864,257.844818 
	C372.364380,257.776978 369.229492,260.682434 369.067627,265.326447 
	C368.877136,270.792480 368.878052,276.275330 369.067719,281.741425 
	C369.228638,286.378967 372.380432,289.319641 376.622284,289.254730 
	C380.839142,289.190247 383.731903,286.215546 383.955536,281.490967 
	C384.096558,278.512268 383.990875,275.521912 383.995850,271.573669 
z"/>
<path fill="#0572CC" opacity="1.000000" stroke="none" 
	d="
M220.995651,497.978607 
	C215.195557,497.978607 209.395462,497.978607 202.920807,497.978607 
	C202.920807,496.029968 202.921082,494.262482 202.920761,492.494995 
	C202.916962,471.497589 203.082428,450.498444 202.861755,429.503296 
	C202.639389,408.348572 188.359268,390.912567 167.988480,386.352509 
	C146.277206,381.492371 124.545715,390.866577 115.727982,409.925690 
	C112.821342,416.208282 111.318588,423.627136 111.116982,430.582764 
	C110.523376,451.063049 110.903618,471.571594 110.902672,492.069061 
	C110.902588,493.869080 110.902664,495.669098 110.902664,497.818359 
	C101.610001,497.818359 92.742950,497.818359 83.604080,497.818359 
	C83.604080,428.971558 83.604080,360.382477 83.604080,291.208832 
	C94.770233,293.190674 105.682007,295.108643 116.586647,297.066284 
	C150.486832,303.152252 184.384476,309.252411 218.281647,315.355133 
	C218.935272,315.472809 219.571045,315.689758 220.608383,316.443634 
	C220.999634,377.344116 220.997635,437.661377 220.995651,497.978607 
M197.639450,318.192078 
	C192.300201,313.990051 186.109238,314.903259 185.004990,320.651215 
	C184.058640,325.577301 184.165207,330.996979 185.239975,335.882965 
	C185.698349,337.966766 189.795212,340.502380 192.256195,340.521027 
	C194.464325,340.537842 198.364075,337.582458 198.598511,335.594086 
	C199.244324,330.116943 198.359772,324.459351 197.639450,318.192078 
M123.080605,340.803650 
	C127.611626,339.557037 129.450745,336.494202 129.247406,331.913879 
	C129.122772,329.106537 129.296539,326.286621 129.197220,323.477264 
	C129.028366,318.701050 126.321617,315.637451 122.199669,315.394928 
	C118.058014,315.151245 114.629837,318.443390 114.310623,323.242737 
	C114.113380,326.208160 114.168015,329.200287 114.278542,332.174103 
	C114.486443,337.767456 116.522781,339.915955 123.080605,340.803650 
M155.127533,315.671295 
	C153.662949,316.677551 151.858841,317.413971 150.801727,318.744110 
	C148.303741,321.887146 148.238907,335.121826 151.079941,337.763947 
	C152.879501,339.437500 156.270905,340.980713 158.314835,340.390076 
	C160.613754,339.725769 163.130280,336.879700 163.866699,334.468048 
	C164.840698,331.278290 164.260254,327.587524 164.201218,324.114594 
	C164.098694,318.085602 162.155670,316.128815 155.127533,315.671295 
M163.730850,360.416168 
	C162.055038,357.057861 159.166367,354.918304 155.694489,356.184723 
	C153.290741,357.061493 150.348190,359.601685 149.848831,361.881134 
	C148.914658,366.145203 149.155228,370.812653 149.702896,375.213257 
	C150.224289,379.402863 153.321884,381.481262 157.596375,381.070923 
	C161.634537,380.683289 163.967911,378.231781 164.113235,374.199402 
	C164.268555,369.889435 164.036316,365.565491 163.730850,360.416168 
M199.221069,369.435181 
	C199.189499,367.110931 199.320526,364.770355 199.089600,362.466095 
	C198.710327,358.681458 196.480377,356.383301 192.705948,355.983704 
	C188.736450,355.563416 185.400314,357.290924 184.894547,361.250153 
	C184.273651,366.110657 184.315353,371.180389 184.969162,376.038727 
	C185.468216,379.747131 188.673294,381.397308 192.449799,381.095093 
	C196.249207,380.791046 198.506882,378.607117 199.072205,374.846283 
	C199.292633,373.379913 199.181290,371.863739 199.221069,369.435181 
M129.219604,363.867859 
	C128.474030,358.288330 126.096237,355.793213 121.637718,355.911835 
	C117.228874,356.029144 114.472649,359.001251 114.303291,364.259003 
	C114.186119,367.896790 114.111382,371.604980 114.676262,375.177612 
	C115.338036,379.363037 118.286575,381.460266 122.558189,381.075806 
	C126.593170,380.712646 128.873383,378.280212 129.126740,374.250763 
	C129.324432,371.106049 129.205765,367.941437 129.219604,363.867859 
z"/>
<path fill="#F9B1B1" opacity="1.000000" stroke="none" 
	d="
M379.018433,232.072311 
	C352.891144,232.072311 326.763855,232.072311 300.277649,232.072311 
	C300.277649,179.337219 300.277649,126.505081 300.277649,73.149956 
	C326.220093,73.149956 352.137207,73.149956 378.517914,73.682373 
	C378.984436,80.734467 378.987335,87.254128 378.572083,93.777710 
	C371.849823,93.865608 369.282806,96.247955 369.122284,102.286942 
	C369.042816,105.276901 369.088043,108.270851 369.111206,111.262733 
	C369.168457,118.649979 371.567352,121.009888 379.010376,121.498383 
	C378.981018,126.776680 378.946198,131.588852 378.521606,136.368103 
	C371.798096,136.570511 369.280304,138.943512 369.121185,144.967972 
	C369.037842,148.123550 369.071472,151.283585 369.113037,154.440796 
	C369.203979,161.352814 371.918579,163.904282 378.971252,164.230545 
	C378.998016,169.483124 379.004028,174.254089 378.605042,179.039688 
	C371.698456,179.240753 369.233154,181.669678 369.117859,188.088181 
	C369.064240,191.072952 369.077789,194.059845 369.113800,197.045135 
	C369.198029,204.034470 371.849060,206.545990 378.891418,206.830978 
	C378.960968,215.584641 378.989685,223.828476 379.018433,232.072311 
M322.543427,160.750473 
	C323.026184,155.189346 323.781982,149.634354 323.906952,144.065186 
	C324.010498,139.450562 320.678162,136.249527 316.586548,136.191299 
	C312.305878,136.130386 309.181915,139.432175 309.021790,144.380859 
	C308.908752,147.873978 309.054413,151.374863 308.978241,154.869965 
	C308.899689,158.474884 309.904510,161.429947 313.386139,163.092529 
	C316.698792,164.674423 319.510437,163.768448 322.543427,160.750473 
M340.502686,160.705505 
	C342.903931,163.478058 345.738312,164.753174 349.356354,163.225769 
	C352.904358,161.727966 354.127655,158.886612 354.057343,155.221008 
	C353.980713,151.226395 354.212952,147.216858 353.953033,143.237198 
	C353.673920,138.964340 350.963165,136.493134 346.831482,136.286972 
	C342.881592,136.089890 339.625580,138.386246 339.393860,142.236115 
	C339.039215,148.128479 339.794922,154.087662 340.502686,160.705505 
M353.948975,185.207016 
	C352.718109,180.695038 349.764160,178.277695 345.134277,179.175400 
	C340.478577,180.078125 338.914612,183.623611 339.031952,188.124161 
	C339.127167,191.775742 338.902008,195.440948 339.114563,199.082855 
	C339.380585,203.639954 342.692566,206.668213 346.850189,206.506454 
	C350.859497,206.350464 353.808899,203.417923 353.981506,199.031265 
	C354.151123,194.719849 354.015594,190.396423 353.948975,185.207016 
M309.630432,183.649551 
	C309.446594,189.099380 308.883179,194.571518 309.201721,199.991821 
	C309.446655,204.159821 312.494934,206.558105 316.691803,206.442444 
	C320.884949,206.326843 323.544464,203.798523 323.883026,199.591965 
	C324.202087,195.628006 323.919159,191.619034 324.013275,187.632523 
	C324.105621,183.720886 322.630676,180.687439 318.887360,179.401794 
	C315.130981,178.111664 312.059662,179.474869 309.630432,183.649551 
M353.477509,116.441574 
	C353.658539,111.321419 354.028809,106.198837 353.963165,101.081848 
	C353.906403,96.659729 350.934967,93.804070 346.868500,93.653542 
	C342.628937,93.496613 339.375275,96.419655 339.114075,100.994919 
	C338.896729,104.802017 339.108490,108.631653 339.037109,112.449570 
	C338.964294,116.344055 340.431427,119.423302 344.171417,120.676674 
	C347.882568,121.920380 351.023682,120.658241 353.477509,116.441574 
M323.038696,117.126152 
	C323.348572,111.703506 323.916656,106.279411 323.886383,100.858665 
	C323.862305,96.545944 320.582764,93.663750 316.560822,93.628632 
	C312.342987,93.591812 309.253937,96.593597 309.044861,101.223930 
	C308.880219,104.869797 309.088104,108.531273 308.976288,112.181084 
	C308.857758,116.049324 310.136139,119.143173 313.853851,120.580017 
	C317.347992,121.930466 320.356445,120.801888 323.038696,117.126152 
z"/>
<path fill="#9AE7FD" opacity="1.000000" stroke="none" 
	d="
M484.421326,498.046875 
	C483.962524,365.658875 483.964417,233.374344 483.958618,100.632263 
	C488.425201,100.174736 492.899475,100.174736 497.695404,100.174736 
	C497.695404,232.700119 497.695404,365.173798 497.695404,498.150360 
	C493.421967,498.150360 489.152008,498.150360 484.421326,498.046875 
z"/>
<path fill="#C9F0FF" opacity="1.000000" stroke="none" 
	d="
M180.021576,497.970978 
	C162.109146,497.970978 144.196716,497.970978 125.860664,497.970978 
	C125.860664,488.135223 125.860634,478.529297 125.860664,468.923370 
	C125.860710,456.944275 126.510803,444.921967 125.718712,432.995483 
	C124.292717,411.524414 142.867645,394.895386 167.894684,402.140167 
	C168.829483,402.627625 169.208160,402.713135 169.586853,402.798615 
	C169.586853,402.798615 169.823608,402.752319 169.940536,403.205566 
	C179.096909,413.360992 180.492706,425.109283 180.167862,437.780823 
	C179.653809,457.832275 180.024994,477.906433 180.021576,497.970978 
z"/>
<path fill="#D43131" opacity="1.000000" stroke="none" 
	d="
M393.440369,498.032776 
	C392.970612,414.754547 392.962433,331.567688 392.939392,247.948547 
	C397.697479,247.516281 402.470428,247.516281 407.549866,247.516281 
	C407.549866,331.053864 407.549866,414.348938 407.549866,498.124146 
	C402.808746,498.124146 398.355347,498.124146 393.440369,498.032776 
z"/>
<path fill="#FECC6A" opacity="1.000000" stroke="none" 
	d="
M123.871490,142.320282 
	C98.063896,142.403275 72.256317,142.488632 46.448711,142.567215 
	C41.654293,142.581818 36.859795,142.569290 31.739136,142.569290 
	C31.739136,132.011642 31.739136,121.946991 31.739136,111.205299 
	C62.200993,111.205299 92.598656,111.205299 123.485245,111.719910 
	C123.939949,122.263100 123.905724,132.291687 123.871490,142.320282 
z"/>
<path fill="#FE9500" opacity="1.000000" stroke="none" 
	d="
M134.387253,284.955780 
	C134.005936,242.833725 134.015030,200.828720 134.036865,158.346558 
	C138.854004,157.869400 143.658417,157.869400 149.274597,157.869400 
	C149.274597,159.567734 149.274582,161.315948 149.274597,163.064178 
	C149.274857,181.020111 149.258194,198.976074 149.284073,216.931961 
	C149.293762,223.648270 150.526489,225.346558 156.840851,227.581924 
	C156.840851,233.823486 156.840851,240.122574 156.840851,247.000397 
	C149.620956,248.114059 149.074188,253.510895 149.218765,259.623413 
	C149.434296,268.735046 149.274689,277.855560 149.274689,287.698029 
	C144.085007,286.758270 139.431351,285.915558 134.387253,284.955780 
z"/>
<path fill="#80ACE0" opacity="1.000000" stroke="none" 
	d="
M236.269150,61.452721 
	C234.034622,61.889618 231.801605,62.696991 229.565323,62.706203 
	C206.791092,62.800026 184.016327,62.772545 161.241745,62.746048 
	C159.593536,62.744129 157.455627,63.084415 156.398743,62.221020 
	C154.143082,60.378323 151.266281,58.035961 150.873825,55.546757 
	C150.520996,53.308792 152.560226,49.555714 154.625412,48.395840 
	C156.674286,47.245121 160.079819,48.433334 162.872635,48.751431 
	C163.403122,48.811852 163.906906,49.552864 164.327499,50.059196 
	C166.871857,53.122280 170.119568,54.131100 173.676926,52.477654 
	C177.517227,50.692696 178.296021,47.255299 177.816299,43.227779 
	C176.763504,34.388683 179.867157,27.283422 187.929810,22.043041 
	C203.042480,22.368383 216.281677,32.284279 218.196136,46.116783 
	C218.446457,47.925396 220.912247,50.439003 222.739807,50.834820 
	C229.138443,52.220646 233.578476,55.591625 236.269150,61.452721 
z"/>
<path fill="#F39595" opacity="1.000000" stroke="none" 
	d="
M379.471985,232.185333 
	C378.989685,223.828476 378.960968,215.584641 379.173889,206.668777 
	C382.808746,204.455917 384.189209,201.753769 384.102905,198.110748 
	C384.029083,194.994370 383.892151,191.859299 384.136627,188.760376 
	C384.485382,184.339569 382.897247,181.123764 379.010071,179.025070 
	C379.004028,174.254089 378.998016,169.483124 379.202393,163.982422 
	C382.867950,161.754105 384.180206,159.013702 384.103821,155.378082 
	C384.034790,152.092453 383.939362,148.795364 384.130066,145.519302 
	C384.377930,141.261429 382.783600,138.220535 378.911407,136.401031 
	C378.946198,131.588852 378.981018,126.776680 379.278748,121.273438 
	C383.054352,118.771057 384.315430,115.828796 384.121490,111.979568 
	C383.963348,108.840912 383.963226,105.681587 384.120880,102.542877 
	C384.327454,98.430893 382.731628,95.508842 378.990234,93.773796 
	C378.987335,87.254128 378.984436,80.734467 378.977966,73.766922 
	C383.441833,73.319046 387.909271,73.319046 392.794159,73.319046 
	C392.794159,126.100052 392.794159,178.848129 392.794159,232.298340 
	C388.412140,232.298340 384.168854,232.298340 379.471985,232.185333 
z"/>
<path fill="#FFAA00" opacity="1.000000" stroke="none" 
	d="
M105.988663,95.890755 
	C87.415733,95.890755 68.842812,95.890755 49.960110,95.890755 
	C49.960110,85.646202 49.960110,75.599617 49.960110,64.911888 
	C68.308052,64.911888 86.687729,64.911888 105.532684,65.457916 
	C105.994873,75.966209 105.991768,85.928482 105.988663,95.890755 
z"/>
<path fill="#005BB0" opacity="1.000000" stroke="none" 
	d="
M221.450653,498.048981 
	C220.997635,437.661377 220.999634,377.344116 220.990082,316.565613 
	C230.129730,317.169983 230.129745,317.169983 230.129745,326.313782 
	C230.129745,381.392242 230.129745,436.470703 230.129745,491.549164 
	C230.129745,493.512238 230.129745,495.475281 230.129745,498.119354 
	C227.102158,498.119354 224.503922,498.119354 221.450653,498.048981 
z"/>
<path fill="#E9E9EE" opacity="1.000000" stroke="none" 
	d="
M356.002441,497.987549 
	C347.909637,497.987549 339.816833,497.987549 331.457947,497.987549 
	C331.457947,483.248413 331.457947,468.706268 331.457947,453.357300 
	C339.247375,453.357300 347.126892,453.357300 355.490173,453.903381 
	C355.983429,468.962158 355.992950,483.474854 356.002441,497.987549 
z"/>
<path fill="#E94444" opacity="1.000000" stroke="none" 
	d="
M372.990814,57.968491 
	C352.263794,57.968487 331.536774,57.968487 309.759613,57.968487 
	C320.642303,46.230949 330.884277,35.184471 341.730316,24.139841 
	C352.553192,35.417290 362.772003,46.692890 372.990814,57.968491 
z"/>
<path fill="#7BA9E0" opacity="1.000000" stroke="none" 
	d="
M250.311584,214.108246 
	C248.780197,214.519363 247.250717,215.279434 245.717117,215.287796 
	C229.735413,215.375015 213.753036,215.342239 197.770859,215.338898 
	C197.105667,215.338760 196.265396,215.551407 195.809021,215.232391 
	C194.578598,214.372375 193.511795,213.278259 192.380066,212.277039 
	C193.553452,211.151077 194.592224,209.259674 195.922501,209.025696 
	C203.494263,207.693954 203.813507,207.547668 205.303757,199.968262 
	C206.756668,192.578720 212.938812,187.681015 219.878708,188.421509 
	C227.343384,189.217972 232.188507,194.950653 232.066864,202.842392 
	C231.942474,210.912415 234.293045,213.347672 242.610748,212.899506 
	C245.737885,213.304962 248.024734,213.706589 250.311584,214.108246 
z"/>
<path fill="#9AE4F9" opacity="1.000000" stroke="none" 
	d="
M180.466110,498.070496 
	C180.024994,477.906433 179.653809,457.832275 180.167862,437.780823 
	C180.492706,425.109283 179.096909,413.360992 169.999878,403.310577 
	C181.096420,407.221313 187.281067,415.896301 187.634674,427.228027 
	C188.365616,450.652008 187.854935,474.114716 187.854935,498.169983 
	C185.428635,498.169983 183.169632,498.169983 180.466110,498.070496 
z"/>
<path fill="#C7C7CC" opacity="1.000000" stroke="none" 
	d="
M356.378174,498.092377 
	C355.992950,483.474854 355.983429,468.962158 355.938660,454.020203 
	C359.329224,453.590973 362.755066,453.590973 366.445312,453.590973 
	C366.445312,468.403717 366.445312,482.962708 366.445312,498.197205 
	C363.261841,498.197205 360.007843,498.197205 356.378174,498.092377 
z"/>
<path fill="#518DD4" opacity="1.000000" stroke="none" 
	d="
M236.608719,61.305630 
	C233.578476,55.591625 229.138443,52.220646 222.739807,50.834820 
	C220.912247,50.439003 218.446457,47.925396 218.196136,46.116783 
	C216.281677,32.284279 203.042480,22.368383 188.252716,21.955975 
	C201.883759,12.444443 220.264847,21.478752 222.012665,38.723461 
	C222.661591,45.126110 224.812866,47.196033 231.217987,47.067753 
	C235.121490,46.989571 238.218246,48.273590 239.627701,51.923153 
	C240.992584,55.457352 240.285126,58.789528 236.608719,61.305630 
z"/>
<path fill="#D53030" opacity="1.000000" stroke="none" 
	d="
M373.433533,58.052162 
	C362.772003,46.692890 352.553192,35.417290 342.014038,23.974365 
	C343.159241,22.054678 344.624847,20.302317 346.489258,18.073063 
	C358.611053,31.285591 370.394684,44.129513 383.244720,58.135830 
	C379.238434,58.135830 376.557343,58.135830 373.433533,58.052162 
z"/>
<path fill="#D7A642" opacity="1.000000" stroke="none" 
	d="
M124.311356,142.471329 
	C123.905724,132.291687 123.939949,122.263100 123.943558,111.788803 
	C127.043129,111.343094 130.173325,111.343094 133.655121,111.343094 
	C133.655121,121.643272 133.655121,131.859467 133.655121,142.622375 
	C130.642792,142.622375 127.697006,142.622375 124.311356,142.471329 
z"/>
<path fill="#F89100" opacity="1.000000" stroke="none" 
	d="
M106.440384,95.974350 
	C105.991768,85.928482 105.994873,75.966209 105.994461,65.540352 
	C109.089172,65.076767 112.187401,65.076767 115.561920,65.076767 
	C115.561920,75.307983 115.561920,85.313759 115.561920,96.057945 
	C112.681419,96.057945 109.786766,96.057945 106.440384,95.974350 
z"/>
<path fill="#4E89CE" opacity="1.000000" stroke="none" 
	d="
M250.579697,213.950806 
	C248.024734,213.706589 245.737885,213.304962 243.004089,212.849548 
	C243.403183,212.023041 244.135284,211.017319 245.122986,210.534149 
	C246.481812,209.869446 248.033997,209.600052 249.503342,209.161316 
	C249.951492,210.705338 250.399643,212.249374 250.579697,213.950806 
z"/>
<path fill="#9AE4F9" opacity="1.000000" stroke="none" 
	d="
M169.411697,402.542267 
	C169.208160,402.713135 168.829483,402.627625 168.244537,402.328979 
	C168.437714,402.172546 168.837128,402.229248 169.411697,402.542267 
z"/>
<path fill="#060708" opacity="1.000000" stroke="none" 
	d="
M459.950623,416.587830 
	C455.643341,416.574493 451.813263,416.721863 448.003632,416.506897 
	C443.336884,416.243591 440.203888,413.137054 440.156525,409.115112 
	C440.106689,404.888977 443.421844,401.761536 448.367798,401.675568 
	C454.845490,401.562958 461.327972,401.563904 467.805756,401.673035 
	C472.978394,401.760162 476.011322,404.574463 476.037048,408.996948 
	C476.062714,413.408630 473.078339,416.250549 467.911835,416.549927 
	C465.427795,416.693878 462.928986,416.583221 459.950623,416.587830 
z"/>
<path fill="#050707" opacity="1.000000" stroke="none" 
	d="
M443.842468,211.532104 
	C452.764038,211.076447 461.381989,210.506638 469.971954,210.789322 
	C474.156372,210.927017 476.319916,214.317642 475.964386,218.558914 
	C475.629822,222.549728 473.174774,225.076736 469.156921,225.197830 
	C461.838806,225.418411 454.472076,225.676880 447.206055,225.024429 
	C444.864380,224.814163 441.434937,222.110916 440.927277,219.972626 
	C440.358978,217.578705 442.541687,214.531693 443.842468,211.532104 
z"/>
<path fill="#060707" opacity="1.000000" stroke="none" 
	d="
M475.752747,172.356018 
	C474.126190,176.234512 471.288605,177.641586 467.672241,177.667770 
	C461.345856,177.713608 455.016113,177.794357 448.693024,177.642639 
	C443.451355,177.516861 439.992798,174.205856 440.160614,169.861053 
	C440.324127,165.627792 443.618408,162.815033 448.720612,162.752151 
	C454.879944,162.676239 461.041504,162.680389 467.201019,162.746658 
	C473.710419,162.816711 476.020477,165.327957 475.752747,172.356018 
z"/>
<path fill="#050506" opacity="1.000000" stroke="none" 
	d="
M475.864014,120.481812 
	C475.803986,127.165443 473.390778,129.764557 467.310974,129.862930 
	C461.149078,129.962616 454.983063,129.960159 448.821167,129.860062 
	C443.538544,129.774246 440.079041,126.619186 440.162079,122.212502 
	C440.245514,117.784988 443.628662,114.971878 449.073578,114.926208 
	C455.070068,114.875900 461.070831,115.038193 467.063080,114.870369 
	C471.201691,114.754463 474.169647,116.186829 475.864014,120.481812 
z"/>
<path fill="#040505" opacity="1.000000" stroke="none" 
	d="
M460.957642,273.134338 
	C456.310364,273.127686 452.151184,273.230835 448.000732,273.085052 
	C443.384674,272.922882 440.209045,269.838348 440.161743,265.753204 
	C440.114868,261.701324 443.260468,258.344238 447.852936,258.197540 
	C454.660706,257.980072 461.484711,257.987885 468.293579,258.184814 
	C473.014771,258.321411 475.996429,261.420380 476.038696,265.609924 
	C476.082947,269.992035 472.954163,272.920654 467.931427,273.110474 
	C465.773560,273.191986 463.610352,273.130737 460.957642,273.134338 
z"/>
<path fill="#030404" opacity="1.000000" stroke="none" 
	d="
M475.968201,312.307343 
	C475.401978,318.579926 473.166351,320.863525 467.605042,320.946960 
	C461.276337,321.041931 454.944061,321.038055 448.615265,320.945740 
	C443.594666,320.872559 440.273224,317.905365 440.161102,313.642487 
	C440.044159,309.195221 443.475952,306.079254 448.773163,306.013641 
	C454.935791,305.937256 461.101257,306.069733 467.263245,305.970337 
	C471.636108,305.899841 474.623474,307.619385 475.968201,312.307343 
z"/>
<path fill="#050606" opacity="1.000000" stroke="none" 
	d="
M475.785583,363.388397 
	C474.093536,367.465424 471.135162,368.849762 467.294220,368.834747 
	C461.131622,368.810638 454.967163,368.915222 448.806671,368.799072 
	C443.524506,368.699493 440.071442,365.517334 440.164703,361.124908 
	C440.258362,356.715637 443.644623,353.921753 449.095032,353.877197 
	C455.090790,353.828186 461.087585,353.823883 467.083282,353.875610 
	C473.614166,353.931946 475.954742,356.397644 475.785583,363.388397 
z"/>
<path fill="#070500" opacity="1.000000" stroke="none" 
	d="
M71.973160,225.376785 
	C61.841942,225.374039 52.205544,225.419113 42.569939,225.351364 
	C36.613361,225.309494 33.232403,222.653336 33.083405,218.133545 
	C32.928703,213.440796 36.520241,210.368805 42.590904,210.333817 
	C55.881592,210.257172 69.173332,210.257462 82.464020,210.334076 
	C88.527512,210.369034 92.106117,213.448547 91.939743,218.156479 
	C91.780190,222.671249 88.404457,225.258072 82.436508,225.359238 
	C79.114632,225.415558 75.791107,225.374252 71.973160,225.376785 
z"/>
<path fill="#070400" opacity="1.000000" stroke="none" 
	d="
M90.080017,250.962219 
	C93.704742,258.261444 90.844673,263.158783 83.108154,263.222015 
	C69.296242,263.334961 55.482403,263.304810 41.670033,263.222748 
	C36.510983,263.192078 33.279400,260.365326 33.087784,256.123749 
	C32.888634,251.715408 36.261841,248.336853 41.534275,248.287476 
	C55.512310,248.156586 69.493904,248.141373 83.470016,248.350815 
	C85.601036,248.382767 87.710480,249.854935 90.080017,250.962219 
z"/>
<path fill="#010100" opacity="1.000000" stroke="none" 
	d="
M44.158478,187.413513 
	C42.516045,187.385468 41.339603,187.451508 40.187675,187.313293 
	C35.865292,186.794678 32.964355,183.666855 33.096531,179.755310 
	C33.229393,175.823563 36.211563,172.830215 40.643139,172.661087 
	C45.800022,172.464294 50.969460,172.589996 56.133453,172.587357 
	C65.129250,172.582779 74.125587,172.527451 83.120628,172.609894 
	C88.609436,172.660202 91.927063,175.546494 91.926346,179.986862 
	C91.925644,184.404572 88.590332,187.345596 83.117538,187.381409 
	C70.290749,187.465363 57.463055,187.411743 44.158478,187.413513 
z"/>
<path fill="#070500" opacity="1.000000" stroke="none" 
	d="
M106.714859,221.003769 
	C105.418228,214.142944 107.929527,210.689743 114.307587,210.366455 
	C117.937103,210.182480 121.615356,210.150146 125.221718,210.527222 
	C129.573532,210.982239 132.120987,213.564484 132.089600,218.137955 
	C132.061630,222.215988 129.285110,225.001312 124.749069,225.272018 
	C121.118011,225.488708 117.373100,225.825912 113.852448,225.172958 
	C111.381584,224.714722 109.202881,222.681107 106.714859,221.003769 
z"/>
<path fill="#040200" opacity="1.000000" stroke="none" 
	d="
M123.377594,172.535034 
	C129.718002,173.321060 132.312912,175.772263 132.098465,180.373566 
	C131.887207,184.906204 128.855835,187.318588 123.027977,187.452499 
	C119.868332,187.525116 116.693916,187.592926 113.545746,187.377075 
	C108.815186,187.052734 105.889648,183.972229 106.007355,179.773468 
	C106.120239,175.746613 108.941994,172.909912 113.466408,172.614105 
	C116.615814,172.408188 119.787689,172.545853 123.377594,172.535034 
z"/>
<path fill="#070500" opacity="1.000000" stroke="none" 
	d="
M111.996902,248.550156 
	C116.369873,248.374863 120.347633,248.114365 124.303368,248.306641 
	C129.341324,248.551514 132.250595,251.645081 132.104523,256.104736 
	C131.965546,260.347656 129.086456,263.026611 124.216972,263.218475 
	C120.911591,263.348694 117.596321,263.203369 114.286781,263.259125 
	C110.096581,263.329712 107.080200,261.468292 106.215797,257.402008 
	C105.300148,253.094635 107.304367,250.044983 111.996902,248.550156 
z"/>
<path fill="#040101" opacity="1.000000" stroke="none" 
	d="
M370.796295,353.011536 
	C373.932648,352.162567 377.402100,350.385223 379.527588,351.406036 
	C381.703308,352.451050 383.428741,356.117493 383.807404,358.850372 
	C384.482910,363.725555 384.088196,368.763855 383.970612,373.729889 
	C383.853119,378.691315 380.823853,381.947418 376.556580,381.982056 
	C372.282349,382.016754 368.936584,378.752258 369.081940,373.853027 
	C369.285309,366.997498 370.027649,360.157928 370.796295,353.011536 
z"/>
<path fill="#050101" opacity="1.000000" stroke="none" 
	d="
M340.618103,379.144257 
	C340.044464,370.957123 339.279144,363.047882 339.778076,355.219238 
	C339.892090,353.430847 344.232208,350.884247 346.870911,350.536774 
	C350.406647,350.071198 353.410614,352.812073 353.668335,356.515137 
	C354.106506,362.811584 354.282410,369.202759 353.696442,375.472656 
	C353.102173,381.831085 346.612427,383.635101 340.618103,379.144257 
z"/>
<path fill="#050202" opacity="1.000000" stroke="none" 
	d="
M316.912140,350.272644 
	C322.150574,351.248352 324.217102,354.280090 324.109467,359.138458 
	C323.999420,364.105621 324.177399,369.079468 324.052338,374.045898 
	C323.934143,378.740692 321.022766,381.834412 316.885681,381.972961 
	C312.579498,382.117188 309.335724,378.945679 309.151398,374.029114 
	C308.971527,369.231842 309.159821,364.421997 309.089844,359.619080 
	C309.014099,354.420227 311.098969,351.025085 316.912140,350.272644 
z"/>
<path fill="#040101" opacity="1.000000" stroke="none" 
	d="
M315.321533,289.143127 
	C310.732391,287.931061 309.153351,284.907013 309.118591,280.857452 
	C309.075836,275.869385 308.990936,270.876984 309.145721,265.893311 
	C309.303650,260.807861 312.276031,257.799957 316.743958,257.841614 
	C321.249634,257.883606 323.960968,260.849823 324.062225,266.077240 
	C324.155579,270.897583 324.137085,275.721893 324.070984,280.543121 
	C323.987366,286.641479 321.931305,288.726501 315.321533,289.143127 
z"/>
<path fill="#040101" opacity="1.000000" stroke="none" 
	d="
M338.961975,327.599121 
	C338.960815,322.494873 338.905060,317.843811 338.976776,313.194733 
	C339.060944,307.740082 341.883606,304.566833 346.473816,304.601562 
	C350.977722,304.635620 353.824432,307.902771 353.920166,313.340057 
	C354.002014,317.988800 353.997009,322.641083 353.921539,327.290039 
	C353.835785,332.574585 351.303497,335.727295 347.042999,336.058105 
	C342.481903,336.412292 339.723450,333.679138 338.961975,327.599121 
z"/>
<path fill="#030101" opacity="1.000000" stroke="none" 
	d="
M382.000122,307.007111 
	C382.845276,310.011780 383.758087,312.683990 383.922241,315.401428 
	C384.192413,319.873871 384.154083,324.384888 383.917480,328.862305 
	C383.686707,333.228577 380.575836,336.064667 376.534821,336.083435 
	C372.502777,336.102142 369.283020,333.260712 369.090881,328.934662 
	C368.847656,323.458160 368.856567,317.957367 369.052795,312.477631 
	C369.312622,305.221436 375.182831,302.613586 382.000122,307.007111 
z"/>
<path fill="#030101" opacity="1.000000" stroke="none" 
	d="
M369.001740,409.152161 
	C369.022766,407.018372 368.849243,405.328339 369.103027,403.705139 
	C369.743683,399.607452 372.068115,397.030090 376.388855,396.964172 
	C380.713501,396.898102 383.509491,399.392273 383.799896,403.487610 
	C384.233215,409.598022 384.229126,415.783478 383.806854,421.895233 
	C383.519928,426.048218 380.591278,428.444763 376.334290,428.351257 
	C372.079895,428.257874 369.477386,425.760681 369.123993,421.572876 
	C368.790070,417.615448 369.019867,413.610443 369.001740,409.152161 
z"/>
<path fill="#030101" opacity="1.000000" stroke="none" 
	d="
M338.959778,272.047821 
	C338.968018,269.407166 338.855225,267.241791 339.010345,265.095795 
	C339.312622,260.913025 341.511261,258.307709 345.789307,257.886139 
	C349.878174,257.483215 353.505005,260.144348 353.752777,264.347839 
	C354.113190,270.462921 354.187561,276.640930 353.725220,282.742218 
	C353.417694,286.800293 350.619080,289.250000 346.272552,289.237976 
	C342.171448,289.226624 339.265411,286.386688 339.018433,281.986084 
	C338.842072,278.843475 338.968475,275.683868 338.959778,272.047821 
z"/>
<path fill="#040101" opacity="1.000000" stroke="none" 
	d="
M309.104156,412.021362 
	C309.136871,408.885498 308.935242,406.202637 309.255524,403.583618 
	C309.774750,399.337555 313.115173,396.598572 317.157196,396.969910 
	C321.404327,397.360168 323.856720,399.862610 324.006195,404.090332 
	C324.205444,409.726074 324.192230,415.377869 324.023560,421.015381 
	C323.890228,425.471741 320.994232,428.269501 316.881287,428.389587 
	C312.860291,428.507019 309.637360,425.760712 309.219055,421.458618 
	C308.931152,418.497711 309.125366,415.489929 309.104156,412.021362 
z"/>
<path fill="#040101" opacity="1.000000" stroke="none" 
	d="
M309.811768,309.226105 
	C311.980774,304.991486 315.230743,303.801788 319.180450,305.076447 
	C323.071106,306.332092 324.187531,309.511383 324.108490,313.365417 
	C324.006287,318.350403 324.180206,323.341797 324.042786,328.325104 
	C323.911835,333.072632 320.986389,336.045715 316.735535,336.078094 
	C312.685089,336.108948 309.350952,333.339417 309.239716,328.984436 
	C309.074982,322.534790 309.486542,316.070404 309.811768,309.226105 
z"/>
<path fill="#040101" opacity="1.000000" stroke="none" 
	d="
M353.466278,402.051270 
	C353.727478,408.578522 354.007721,414.723755 353.859497,420.858643 
	C353.747620,425.488953 350.463806,428.479950 346.267975,428.403809 
	C341.987518,428.326080 339.137390,425.391693 339.004333,420.590912 
	C338.866211,415.608521 339.051544,410.617554 338.934357,405.634125 
	C338.837036,401.495056 340.339752,398.304962 344.413208,397.208679 
	C348.423096,396.129547 351.577362,397.705566 353.466278,402.051270 
z"/>
<path fill="#020101" opacity="1.000000" stroke="none" 
	d="
M383.995850,272.055237 
	C383.990875,275.521912 384.096558,278.512268 383.955536,281.490967 
	C383.731903,286.215546 380.839142,289.190247 376.622284,289.254730 
	C372.380432,289.319641 369.228638,286.378967 369.067719,281.741425 
	C368.878052,276.275330 368.877136,270.792480 369.067627,265.326447 
	C369.229492,260.682434 372.364380,257.776978 376.635864,257.844818 
	C380.709717,257.909546 383.595490,260.698456 383.941681,265.108246 
	C384.109955,267.251587 383.987000,269.417816 383.995850,272.055237 
z"/>
<path fill="#000306" opacity="1.000000" stroke="none" 
	d="
M197.860016,318.532593 
	C198.359772,324.459351 199.244324,330.116943 198.598511,335.594086 
	C198.364075,337.582458 194.464325,340.537842 192.256195,340.521027 
	C189.795212,340.502380 185.698349,337.966766 185.239975,335.882965 
	C184.165207,330.996979 184.058640,325.577301 185.004990,320.651215 
	C186.109238,314.903259 192.300201,313.990051 197.860016,318.532593 
z"/>
<path fill="#000306" opacity="1.000000" stroke="none" 
	d="
M122.694153,340.848450 
	C116.522781,339.915955 114.486443,337.767456 114.278542,332.174103 
	C114.168015,329.200287 114.113380,326.208160 114.310623,323.242737 
	C114.629837,318.443390 118.058014,315.151245 122.199669,315.394928 
	C126.321617,315.637451 129.028366,318.701050 129.197220,323.477264 
	C129.296539,326.286621 129.122772,329.106537 129.247406,331.913879 
	C129.450745,336.494202 127.611626,339.557037 122.694153,340.848450 
z"/>
<path fill="#000306" opacity="1.000000" stroke="none" 
	d="
M155.487274,315.570282 
	C162.155670,316.128815 164.098694,318.085602 164.201218,324.114594 
	C164.260254,327.587524 164.840698,331.278290 163.866699,334.468048 
	C163.130280,336.879700 160.613754,339.725769 158.314835,340.390076 
	C156.270905,340.980713 152.879501,339.437500 151.079941,337.763947 
	C148.238907,335.121826 148.303741,321.887146 150.801727,318.744110 
	C151.858841,317.413971 153.662949,316.677551 155.487274,315.570282 
z"/>
<path fill="#000306" opacity="1.000000" stroke="none" 
	d="
M163.852051,360.831909 
	C164.036316,365.565491 164.268555,369.889435 164.113235,374.199402 
	C163.967911,378.231781 161.634537,380.683289 157.596375,381.070923 
	C153.321884,381.481262 150.224289,379.402863 149.702896,375.213257 
	C149.155228,370.812653 148.914658,366.145203 149.848831,361.881134 
	C150.348190,359.601685 153.290741,357.061493 155.694489,356.184723 
	C159.166367,354.918304 162.055038,357.057861 163.852051,360.831909 
z"/>
<path fill="#000306" opacity="1.000000" stroke="none" 
	d="
M199.221069,369.902710 
	C199.181290,371.863739 199.292633,373.379913 199.072205,374.846283 
	C198.506882,378.607117 196.249207,380.791046 192.449799,381.095093 
	C188.673294,381.397308 185.468216,379.747131 184.969162,376.038727 
	C184.315353,371.180389 184.273651,366.110657 184.894547,361.250153 
	C185.400314,357.290924 188.736450,355.563416 192.705948,355.983704 
	C196.480377,356.383301 198.710327,358.681458 199.089600,362.466095 
	C199.320526,364.770355 199.189499,367.110931 199.221069,369.902710 
z"/>
<path fill="#000306" opacity="1.000000" stroke="none" 
	d="
M129.223633,364.326782 
	C129.205765,367.941437 129.324432,371.106049 129.126740,374.250763 
	C128.873383,378.280212 126.593170,380.712646 122.558189,381.075806 
	C118.286575,381.460266 115.338036,379.363037 114.676262,375.177612 
	C114.111382,371.604980 114.186119,367.896790 114.303291,364.259003 
	C114.472649,359.001251 117.228874,356.029144 121.637718,355.911835 
	C126.096237,355.793213 128.474030,358.288330 129.223633,364.326782 
z"/>
<path fill="#060404" opacity="1.000000" stroke="none" 
	d="
M378.521606,136.368103 
	C382.783600,138.220535 384.377930,141.261429 384.130066,145.519302 
	C383.939362,148.795364 384.034790,152.092453 384.103821,155.378082 
	C384.180206,159.013702 382.867950,161.754105 379.181702,163.500824 
	C371.918579,163.904282 369.203979,161.352814 369.113037,154.440796 
	C369.071472,151.283585 369.037842,148.123550 369.121185,144.967972 
	C369.280304,138.943512 371.798096,136.570511 378.521606,136.368103 
z"/>
<path fill="#060404" opacity="1.000000" stroke="none" 
	d="
M322.280212,161.051147 
	C319.510437,163.768448 316.698792,164.674423 313.386139,163.092529 
	C309.904510,161.429947 308.899689,158.474884 308.978241,154.869965 
	C309.054413,151.374863 308.908752,147.873978 309.021790,144.380859 
	C309.181915,139.432175 312.305878,136.130386 316.586548,136.191299 
	C320.678162,136.249527 324.010498,139.450562 323.906952,144.065186 
	C323.781982,149.634354 323.026184,155.189346 322.280212,161.051147 
z"/>
<path fill="#070505" opacity="1.000000" stroke="none" 
	d="
M340.291016,160.362000 
	C339.794922,154.087662 339.039215,148.128479 339.393860,142.236115 
	C339.625580,138.386246 342.881592,136.089890 346.831482,136.286972 
	C350.963165,136.493134 353.673920,138.964340 353.953033,143.237198 
	C354.212952,147.216858 353.980713,151.226395 354.057343,155.221008 
	C354.127655,158.886612 352.904358,161.727966 349.356354,163.225769 
	C345.738312,164.753174 342.903931,163.478058 340.291016,160.362000 
z"/>
<path fill="#040303" opacity="1.000000" stroke="none" 
	d="
M353.981476,185.642639 
	C354.015594,190.396423 354.151123,194.719849 353.981506,199.031265 
	C353.808899,203.417923 350.859497,206.350464 346.850189,206.506454 
	C342.692566,206.668213 339.380585,203.639954 339.114563,199.082855 
	C338.902008,195.440948 339.127167,191.775742 339.031952,188.124161 
	C338.914612,183.623611 340.478577,180.078125 345.134277,179.175400 
	C349.764160,178.277695 352.718109,180.695038 353.981476,185.642639 
z"/>
<path fill="#040303" opacity="1.000000" stroke="none" 
	d="
M309.799835,183.272766 
	C312.059662,179.474869 315.130981,178.111664 318.887360,179.401794 
	C322.630676,180.687439 324.105621,183.720886 324.013275,187.632523 
	C323.919159,191.619034 324.202087,195.628006 323.883026,199.591965 
	C323.544464,203.798523 320.884949,206.326843 316.691803,206.442444 
	C312.494934,206.558105 309.446655,204.159821 309.201721,199.991821 
	C308.883179,194.571518 309.446594,189.099380 309.799835,183.272766 
z"/>
<path fill="#050303" opacity="1.000000" stroke="none" 
	d="
M378.605042,179.039688 
	C382.897247,181.123764 384.485382,184.339569 384.136627,188.760376 
	C383.892151,191.859299 384.029083,194.994370 384.102905,198.110748 
	C384.189209,201.753769 382.808746,204.455917 379.133057,206.158951 
	C371.849060,206.545990 369.198029,204.034470 369.113800,197.045135 
	C369.077789,194.059845 369.064240,191.072952 369.117859,188.088181 
	C369.233154,181.669678 371.698456,179.240753 378.605042,179.039688 
z"/>
<path fill="#040303" opacity="1.000000" stroke="none" 
	d="
M353.285034,116.810974 
	C351.023682,120.658241 347.882568,121.920380 344.171417,120.676674 
	C340.431427,119.423302 338.964294,116.344055 339.037109,112.449570 
	C339.108490,108.631653 338.896729,104.802017 339.114075,100.994919 
	C339.375275,96.419655 342.628937,93.496613 346.868500,93.653542 
	C350.934967,93.804070 353.906403,96.659729 353.963165,101.081848 
	C354.028809,106.198837 353.658539,111.321419 353.285034,116.810974 
z"/>
<path fill="#030202" opacity="1.000000" stroke="none" 
	d="
M322.851379,117.490433 
	C320.356445,120.801888 317.347992,121.930466 313.853851,120.580017 
	C310.136139,119.143173 308.857758,116.049324 308.976288,112.181084 
	C309.088104,108.531273 308.880219,104.869797 309.044861,101.223930 
	C309.253937,96.593597 312.342987,93.591812 316.560822,93.628632 
	C320.582764,93.663750 323.862305,96.545944 323.886383,100.858665 
	C323.916656,106.279411 323.348572,111.703506 322.851379,117.490433 
z"/>
<path fill="#050303" opacity="1.000000" stroke="none" 
	d="
M378.572083,93.777710 
	C382.731628,95.508842 384.327454,98.430893 384.120880,102.542877 
	C383.963226,105.681587 383.963348,108.840912 384.121490,111.979568 
	C384.315430,115.828796 383.054352,118.771057 379.273315,120.807312 
	C371.567352,121.009888 369.168457,118.649979 369.111206,111.262733 
	C369.088043,108.270851 369.042816,105.276901 369.122284,102.286942 
	C369.282806,96.247955 371.849823,93.865608 378.572083,93.777710 
z"/>
</svg>