<?xml version="1.0" encoding="UTF-8"?>
<svg version="1.1" xmlns="http://www.w3.org/2000/svg" width="512" height="512">
<path d="M0 0 C14.07030985 10.47789032 20.95800845 25.23724789 23.5078125 42.2890625 C23.93162176 46.79203586 23.8690006 50.86962683 22.74893188 55.27139282 C21.14250165 61.72211053 21.14250165 61.72211053 22.82806396 67.9364624 C24.99517148 70.52839689 27.28696455 72.78361325 29.78125 75.0625 C30.6529483 75.91534576 31.52464661 76.76819153 32.42276001 77.6468811 C35.20945615 80.3565306 38.04389015 83.00929168 40.8828125 85.6640625 C42.75465756 87.4691832 44.62318733 89.27774846 46.48828125 91.08984375 C55.89194558 100.18623587 55.89194558 100.18623587 65.70898438 108.82763672 C68.42444533 111.16285317 70.51673071 113.51708181 72.59814453 116.42871094 C77.07737706 122.40778679 81.54266439 127.32556857 89.0213623 129.14282227 C98.35074169 130.26481512 107.70989323 129.96788917 117.08221436 129.61810303 C123.14785113 129.40970891 129.21740827 129.35408334 135.28586197 129.28038788 C137.38216033 129.24317001 139.47491955 129.17210222 141.57003784 129.09381104 C152.52990383 128.82236826 160.71761723 130.74751543 168.81640625 138.35546875 C173.66711414 143.90073527 175.62063137 150.17529078 175.65498352 157.44395447 C175.66571648 159.00639641 175.66571648 159.00639641 175.67666626 160.60040283 C175.67935516 161.73765808 175.68204407 162.87491333 175.68481445 164.04663086 C175.69138565 165.24862625 175.69795685 166.45062164 175.70472717 167.68904114 C175.72444861 171.66899872 175.73612107 175.64891608 175.74609375 179.62890625 C175.75014278 181.0007536 175.75425974 182.37260076 175.75844383 183.74444771 C175.77747945 190.18744598 175.79171647 196.63043288 175.8000558 203.07345384 C175.80983642 210.5065944 175.83618388 217.93943783 175.87655669 225.37247366 C175.90671314 231.12205665 175.92152402 236.87155438 175.92483681 242.62121493 C175.92718695 246.05373722 175.93614266 249.48594147 175.96129799 252.91837883 C175.98890163 256.7463828 175.98474901 260.57399477 175.9777832 264.40209961 C175.99699829 266.10494614 175.99699829 266.10494614 176.01660156 267.8421936 C175.96599577 275.45401638 175.96599577 275.45401638 173.72843933 279.53199768 C171.5078125 281.2890625 171.5078125 281.2890625 167.5078125 281.2890625 C167.5078125 288.2190625 167.5078125 295.1490625 167.5078125 302.2890625 C169.7559375 302.3509375 172.0040625 302.4128125 174.3203125 302.4765625 C192.40855048 303.43105707 209.83127352 309.64053714 224.5078125 320.2890625 C226.81222804 323.74568581 226.76641385 325.23764131 226.5078125 329.2890625 C226.1778125 329.9490625 225.8478125 330.6090625 225.5078125 331.2890625 C226.09046875 331.53398437 226.673125 331.77890625 227.2734375 332.03125 C229.862716 333.48885083 231.31617669 335.17556502 233.2578125 337.4140625 C235.97640494 340.37566884 235.97640494 340.37566884 239.62890625 341.63671875 C240.31082031 341.58386719 240.99273437 341.53101563 241.6953125 341.4765625 C245.5078125 341.2890625 245.5078125 341.2890625 248 343.38671875 C254.44041796 350.84034888 258.59335016 359.76399584 261.8828125 368.9765625 C262.1212085 369.64010742 262.35960449 370.30365234 262.60522461 370.98730469 C269.12497164 390.28519081 269.24160218 414.03739164 262.5078125 433.2890625 C262.26111816 434.00094727 262.01442383 434.71283203 261.76025391 435.44628906 C256.28946825 450.7537421 247.85679635 462.78023381 236.5078125 474.2890625 C235.71632813 475.0934375 234.92484375 475.8978125 234.109375 476.7265625 C223.11403892 487.24701696 209.90660965 493.77415354 195.5078125 498.2890625 C194.47269531 498.629375 193.43757813 498.9696875 192.37109375 499.3203125 C168.45016594 505.80327412 141.19308269 501.85100237 119.5078125 490.2890625 C95.54413526 476.40167846 77.94698025 454.99844026 70.72265625 428.06713867 C69.15843129 421.86600055 67.76924338 415.69411918 67.5078125 409.2890625 C67.43046875 407.81179688 67.43046875 407.81179688 67.3515625 406.3046875 C67.06709155 396.01632144 68.74636203 386.4174027 70.5078125 376.2890625 C63.5778125 375.9590625 56.6478125 375.6290625 49.5078125 375.2890625 C49.1778125 376.9390625 48.8478125 378.5890625 48.5078125 380.2890625 C45.33258715 382.4058794 44.56677643 382.54044721 40.9342947 382.54912472 C39.51858516 382.5597231 39.51858516 382.5597231 38.07427543 382.5705356 C37.03538817 382.56812052 35.9965009 382.56570543 34.9261322 382.56321716 C33.8239819 382.56845384 32.72183159 382.57369052 31.58628279 382.57908589 C27.87381056 382.59415011 24.16147537 382.59479246 20.44897461 382.59545898 C17.79483456 382.60307634 15.14070623 382.61145389 12.48657227 382.62068176 C5.26110293 382.64354934 -1.96433708 382.65145482 -9.18983769 382.65650821 C-13.70281554 382.65976434 -18.21578484 382.66628647 -22.72875786 382.6735096 C-35.22666811 382.6930808 -47.72457042 382.70948097 -60.22249699 382.71238613 C-61.02259865 382.7125737 -61.82270032 382.71276127 -62.64704749 382.71295452 C-64.26904007 382.71332077 -65.89103265 382.71368447 -67.51302523 382.71404564 C-68.31817759 382.71422845 -69.12332995 382.71441126 -69.95288086 382.71459961 C-70.75901785 382.71478016 -71.56515485 382.71496071 -72.39572024 382.71514673 C-85.44799822 382.71868574 -98.50011093 382.74568862 -111.55233163 382.7830975 C-124.95669084 382.82120758 -138.36096813 382.84054382 -151.76538271 382.84084564 C-159.28983358 382.84142974 -166.81408752 382.84989047 -174.33848763 382.87884331 C-180.74831211 382.90339385 -187.15786791 382.91061578 -193.56772674 382.89559578 C-196.83596709 382.88844059 -200.10356866 382.89196056 -203.37177086 382.91200638 C-206.92218189 382.9324523 -210.47122765 382.92192139 -214.0216217 382.90379333 C-215.04489392 382.9169933 -216.06816613 382.93019327 -217.1224466 382.94379324 C-225.08307929 382.85121211 -231.70870899 380.78660383 -237.64464623 375.29927629 C-245.47470878 367.02980816 -245.93448589 359.53642854 -245.89624023 348.52270508 C-245.9019489 347.1291601 -245.90891508 345.73561979 -245.91703796 344.34208679 C-245.93492315 340.57368996 -245.93381064 336.80552654 -245.92809558 333.03710008 C-245.92499909 329.888198 -245.93110079 326.73934047 -245.93713433 323.59044474 C-245.95116067 316.16418108 -245.94963211 308.73803254 -245.93823242 301.31176758 C-245.92673354 293.65158724 -245.94086063 285.99175629 -245.9676289 278.33162194 C-245.98977052 271.74885748 -245.99642735 265.16620283 -245.99055248 258.58340377 C-245.98718034 254.65413293 -245.98961572 250.72508643 -246.00680351 246.79584694 C-246.02224789 243.10453271 -246.01834575 239.41373805 -245.99949837 235.72244453 C-245.99404517 233.7217847 -246.00834273 231.72110165 -246.02319336 229.7204895 C-246.00844215 227.93520088 -246.00844215 227.93520088 -245.99339294 226.11384583 C-245.99318366 225.0794679 -245.99297438 224.04508997 -245.99275875 222.97936726 C-245.3589575 219.57302198 -244.22445537 218.36211184 -241.4921875 216.2890625 C-240.5021875 216.2890625 -239.5121875 216.2890625 -238.4921875 216.2890625 C-238.4921875 209.6890625 -238.4921875 203.0890625 -238.4921875 196.2890625 C-240.1421875 195.9590625 -241.7921875 195.6290625 -243.4921875 195.2890625 C-245.87476793 192.90648207 -245.7498822 192.39322133 -245.78271484 189.14990234 C-245.79547455 188.29496185 -245.80823425 187.44002136 -245.82138062 186.55917358 C-245.82360626 185.6321463 -245.82583191 184.70511902 -245.828125 183.75 C-245.8347818 182.79517731 -245.8414386 181.84035461 -245.84829712 180.8565979 C-245.85843855 178.83068775 -245.86311368 176.8047441 -245.86279297 174.77880859 C-245.867141 171.69701872 -245.90337482 168.61669012 -245.94140625 165.53515625 C-245.94727933 163.56510905 -245.95124543 161.59505506 -245.953125 159.625 C-245.96749603 158.7101181 -245.98186707 157.79523621 -245.99667358 156.85263062 C-245.93448768 148.02131637 -242.75868094 141.55555594 -236.4921875 135.2890625 C-229.71605161 130.72226782 -224.16431626 129.15480861 -215.99291992 129.19482422 C-214.69774948 129.19747284 -213.40257904 129.20012146 -212.06816101 129.20285034 C-211.38076025 129.20590054 -210.69335949 129.20895073 -209.9851284 129.21209335 C-206.31750938 129.22351528 -202.65000885 129.20291748 -198.98242188 129.1875 C-194.32781278 129.16923422 -189.67386711 129.16050476 -185.01928711 129.18945312 C-181.24585492 129.21207682 -177.47385529 129.20045922 -173.70052528 129.16644669 C-172.26973187 129.1597091 -170.83882179 129.16527035 -169.40813255 129.18380356 C-160.21981378 129.47237552 -160.21981378 129.47237552 -152.30297852 125.48193359 C-151.00760273 124.1075525 -149.74008257 122.70669422 -148.4921875 121.2890625 C-147.12807678 119.93893875 -145.76330588 118.5894285 -144.38854885 117.25014687 C-142.28388626 115.19124999 -140.21229489 113.1002959 -138.1384201 111.0104599 C-136.44206858 109.3011807 -134.74246896 107.59518917 -133.04205322 105.88995361 C-129.43925347 102.27581642 -125.84043696 98.65772926 -122.2421875 95.0390625 C-118.05518244 90.82840047 -113.86653049 86.61940369 -109.67365265 82.41458893 C-108.00316557 80.73764342 -106.33572835 79.05770583 -104.668396 77.37762451 C-103.64333679 76.34893259 -102.61813682 75.32038092 -101.59277344 74.29199219 C-100.70201111 73.39599304 -99.81124878 72.4999939 -98.89349365 71.57684326 C-96.4921875 69.2890625 -96.4921875 69.2890625 -94.18482971 67.59645081 C-93.62625778 67.16501266 -93.06768585 66.73357452 -92.4921875 66.2890625 C-92.21415488 64.31880281 -92.21415488 64.31880281 -92.72265625 62.20703125 C-95.28238327 46.11034889 -94.3738219 29.63108697 -85.25390625 15.6640625 C-64.57865366 -12.20856184 -29.13656882 -20.00284819 0 0 Z M-65.98782349 104.53245544 C-66.58996674 105.14178421 -67.19210999 105.75111298 -67.8125 106.37890625 C-68.43115936 106.99802383 -69.04981873 107.61714142 -69.68722534 108.25502014 C-70.99583972 109.56665984 -72.30201853 110.88073326 -73.60595703 112.19702148 C-75.61049553 114.21980961 -77.62291387 116.23448812 -79.63671875 118.24804688 C-80.90411892 119.52036225 -82.17106175 120.7931334 -83.4375 122.06640625 C-84.04369171 122.67371078 -84.64988342 123.28101532 -85.27444458 123.90672302 C-88.14618587 126.23002013 -88.14618587 126.23002013 -89.4921875 129.2890625 C-53.5221875 129.2890625 -17.5521875 129.2890625 19.5078125 129.2890625 C15.52674972 124.64448926 11.76194042 120.50487816 7.2578125 116.4765625 C1.49560819 111.24621556 -4.04391652 105.84802071 -9.4921875 100.2890625 C-10.06324219 100.48242188 -10.63429688 100.67578125 -11.22265625 100.875 C-26.91726674 105.91524057 -41.24699986 106.50844997 -56.9453125 101.12890625 C-61.65035854 99.57739567 -62.59436035 101.15762162 -65.98782349 104.53245544 Z " fill="#7FB3FA" transform="translate(245.4921875,10.7109375)"/>
<path d="M0 0 C14.07030985 10.47789032 20.95800845 25.23724789 23.5078125 42.2890625 C23.93162176 46.79203586 23.8690006 50.86962683 22.74893188 55.27139282 C21.14250165 61.72211053 21.14250165 61.72211053 22.82806396 67.9364624 C24.99517148 70.52839689 27.28696455 72.78361325 29.78125 75.0625 C30.6529483 75.91534576 31.52464661 76.76819153 32.42276001 77.6468811 C35.20945615 80.3565306 38.04389015 83.00929168 40.8828125 85.6640625 C42.75465756 87.4691832 44.62318733 89.27774846 46.48828125 91.08984375 C55.89194558 100.18623587 55.89194558 100.18623587 65.70898438 108.82763672 C68.42444533 111.16285317 70.51673071 113.51708181 72.59814453 116.42871094 C77.07737706 122.40778679 81.54266439 127.32556857 89.0213623 129.14282227 C98.35074169 130.26481512 107.70989323 129.96788917 117.08221436 129.61810303 C123.14785113 129.40970891 129.21740827 129.35408334 135.28586197 129.28038788 C137.38216033 129.24317001 139.47491955 129.17210222 141.57003784 129.09381104 C152.52990383 128.82236826 160.71761723 130.74751543 168.81640625 138.35546875 C173.66711414 143.90073527 175.62063137 150.17529078 175.65498352 157.44395447 C175.66571648 159.00639641 175.66571648 159.00639641 175.67666626 160.60040283 C175.67935516 161.73765808 175.68204407 162.87491333 175.68481445 164.04663086 C175.69138565 165.24862625 175.69795685 166.45062164 175.70472717 167.68904114 C175.72444861 171.66899872 175.73612107 175.64891608 175.74609375 179.62890625 C175.75014278 181.0007536 175.75425974 182.37260076 175.75844383 183.74444771 C175.77747945 190.18744598 175.79171647 196.63043288 175.8000558 203.07345384 C175.80983642 210.5065944 175.83618388 217.93943783 175.87655669 225.37247366 C175.90671314 231.12205665 175.92152402 236.87155438 175.92483681 242.62121493 C175.92718695 246.05373722 175.93614266 249.48594147 175.96129799 252.91837883 C175.98890163 256.7463828 175.98474901 260.57399477 175.9777832 264.40209961 C175.99699829 266.10494614 175.99699829 266.10494614 176.01660156 267.8421936 C175.96583896 275.47760285 175.96583896 275.47760285 173.69718933 279.49684143 C171.5078125 281.2890625 171.5078125 281.2890625 168.0078125 281.8515625 C164.04235577 281.21425695 162.90717853 280.426695 160.5078125 277.2890625 C159.27005574 274.81354899 159.38311173 273.1821227 159.38323975 270.41264343 C159.38067673 269.38217896 159.37811371 268.35171448 159.37547302 267.2900238 C159.37757278 266.15492874 159.37967255 265.01983368 159.38183594 263.8503418 C159.37903374 262.06241714 159.37903374 262.06241714 159.37617493 260.2383728 C159.37216312 257.64269414 159.37009538 255.04701192 159.36971283 252.45133018 C159.36857338 248.34575257 159.35574138 244.24026506 159.34014893 240.13471985 C159.33757607 239.44204205 159.33500322 238.74936425 159.3323524 238.03569621 C159.3270857 236.6191094 159.32180022 235.20252267 159.31649637 233.785936 C159.28137846 224.22649883 159.25483417 214.66717304 159.25732422 205.10766602 C159.25891309 198.66138163 159.24287033 192.21540388 159.20661759 185.76921779 C159.1881584 182.35788121 159.17881355 178.94705653 159.19109344 175.53568077 C159.20068002 171.72862973 159.17959598 167.92289853 159.15136719 164.1159668 C159.16156387 162.98694443 159.17176056 161.85792206 159.18226624 160.69468689 C159.14408803 154.43931402 159.14408803 154.43931402 156.09259033 149.11238098 C152.17918503 146.35184035 150.21285277 146.16339964 145.4347868 146.16042805 C144.13109825 146.1572036 142.8274097 146.15397915 141.48421544 146.150657 C140.02363112 146.15212838 138.56304689 146.15369611 137.10246277 146.15534973 C135.56162422 146.15348312 134.02078614 146.15118302 132.47994882 146.14848441 C128.2299266 146.1423414 123.97992398 146.14250293 119.72989833 146.14367878 C115.1524232 146.14388216 110.57495448 146.13837002 105.9974823 146.13362122 C97.02307774 146.12530021 88.04867974 146.12256571 79.07427164 146.12200884 C71.78174016 146.12153432 64.48921086 146.11948282 57.19668007 146.11630821 C36.53758796 146.10749738 15.87850105 146.10288946 -4.78059296 146.10363869 C-6.45263084 146.10369862 -6.45263084 146.10369862 -8.15844727 146.10375977 C-9.27449464 146.10380065 -10.390542 146.10384153 -11.54040899 146.10388365 C-29.63025398 146.10429015 -47.72007816 146.09472061 -65.80991713 146.0806214 C-84.36819973 146.06627081 -102.92647217 146.0593505 -121.48476046 146.06021518 C-131.91031344 146.06054762 -142.3358446 146.05777983 -152.76139259 146.04703712 C-161.63800773 146.03794939 -170.51459116 146.03574258 -179.39120892 146.04254655 C-183.92238566 146.04582063 -188.45350153 146.0458366 -192.98467255 146.0371933 C-197.13045593 146.02936631 -201.27612978 146.03072056 -205.42191037 146.03947743 C-206.92394893 146.04102086 -208.42599551 146.03916477 -209.92802463 146.03361735 C-211.96588492 146.02658782 -214.00377848 146.03302781 -216.04163837 146.04017353 C-217.17477886 146.03995616 -218.30791934 146.03973879 -219.47539741 146.03951484 C-222.56713991 146.29526253 -224.73821356 146.87939496 -227.4921875 148.2890625 C-230.10336277 152.4865943 -229.75554901 157.12309208 -229.73046875 161.9140625 C-229.74588208 163.60677891 -229.76218524 165.29948741 -229.77929688 166.9921875 C-229.79576858 169.6453606 -229.80466386 172.29795166 -229.79760742 174.95117188 C-229.79498623 177.52279805 -229.82310336 180.09267083 -229.85546875 182.6640625 C-229.84526199 183.45377441 -229.83505524 184.24348633 -229.82453918 185.05712891 C-229.89878319 189.24722374 -230.16191223 190.85961751 -232.80541992 194.296875 C-236.28709035 196.87846798 -238.25085383 196.91740823 -242.4921875 196.2890625 C-244.55218109 194.74260818 -245.38032525 193.85960974 -245.87986755 191.3117218 C-245.88527054 190.560858 -245.89067352 189.8099942 -245.89624023 189.03637695 C-245.90892441 188.18151199 -245.92160858 187.32664703 -245.93467712 186.44587708 C-245.93174149 185.52401108 -245.92880585 184.60214508 -245.92578125 183.65234375 C-245.9310231 182.698936 -245.93626495 181.74552826 -245.94166565 180.76322937 C-245.94809238 178.74328586 -245.94674046 176.72330496 -245.93823242 174.70336914 C-245.92976675 171.63033135 -245.95840286 168.55918008 -245.99023438 165.48632812 C-245.99184773 163.52083389 -245.9912663 161.55533638 -245.98828125 159.58984375 C-245.99951523 158.67809891 -246.01074921 157.76635406 -246.02232361 156.82698059 C-245.92739709 148.01705535 -242.74394761 141.54082261 -236.4921875 135.2890625 C-229.71605161 130.72226782 -224.16431626 129.15480861 -215.99291992 129.19482422 C-214.69774948 129.19747284 -213.40257904 129.20012146 -212.06816101 129.20285034 C-211.38076025 129.20590054 -210.69335949 129.20895073 -209.9851284 129.21209335 C-206.31750938 129.22351528 -202.65000885 129.20291748 -198.98242188 129.1875 C-194.32781278 129.16923422 -189.67386711 129.16050476 -185.01928711 129.18945312 C-181.24585492 129.21207682 -177.47385529 129.20045922 -173.70052528 129.16644669 C-172.26973187 129.1597091 -170.83882179 129.16527035 -169.40813255 129.18380356 C-160.21981378 129.47237552 -160.21981378 129.47237552 -152.30297852 125.48193359 C-151.00760273 124.1075525 -149.74008257 122.70669422 -148.4921875 121.2890625 C-147.12807678 119.93893875 -145.76330588 118.5894285 -144.38854885 117.25014687 C-142.28388626 115.19124999 -140.21229489 113.1002959 -138.1384201 111.0104599 C-136.44206858 109.3011807 -134.74246896 107.59518917 -133.04205322 105.88995361 C-129.43925347 102.27581642 -125.84043696 98.65772926 -122.2421875 95.0390625 C-118.05518244 90.82840047 -113.86653049 86.61940369 -109.67365265 82.41458893 C-108.00316557 80.73764342 -106.33572835 79.05770583 -104.668396 77.37762451 C-103.64333679 76.34893259 -102.61813682 75.32038092 -101.59277344 74.29199219 C-100.70201111 73.39599304 -99.81124878 72.4999939 -98.89349365 71.57684326 C-96.4921875 69.2890625 -96.4921875 69.2890625 -94.18482971 67.59645081 C-93.62625778 67.16501266 -93.06768585 66.73357452 -92.4921875 66.2890625 C-92.21415488 64.31880281 -92.21415488 64.31880281 -92.72265625 62.20703125 C-95.28238327 46.11034889 -94.3738219 29.63108697 -85.25390625 15.6640625 C-64.57865366 -12.20856184 -29.13656882 -20.00284819 0 0 Z M-65.98782349 104.53245544 C-66.58996674 105.14178421 -67.19210999 105.75111298 -67.8125 106.37890625 C-68.43115936 106.99802383 -69.04981873 107.61714142 -69.68722534 108.25502014 C-70.99583972 109.56665984 -72.30201853 110.88073326 -73.60595703 112.19702148 C-75.61049553 114.21980961 -77.62291387 116.23448812 -79.63671875 118.24804688 C-80.90411892 119.52036225 -82.17106175 120.7931334 -83.4375 122.06640625 C-84.04369171 122.67371078 -84.64988342 123.28101532 -85.27444458 123.90672302 C-88.14618587 126.23002013 -88.14618587 126.23002013 -89.4921875 129.2890625 C-53.5221875 129.2890625 -17.5521875 129.2890625 19.5078125 129.2890625 C15.52674972 124.64448926 11.76194042 120.50487816 7.2578125 116.4765625 C1.49560819 111.24621556 -4.04391652 105.84802071 -9.4921875 100.2890625 C-10.06324219 100.48242188 -10.63429688 100.67578125 -11.22265625 100.875 C-26.91726674 105.91524057 -41.24699986 106.50844997 -56.9453125 101.12890625 C-61.65035854 99.57739567 -62.59436035 101.15762162 -65.98782349 104.53245544 Z " fill="#020203" transform="translate(245.4921875,10.7109375)"/>
<path d="M0 0 C1.0621875 0.36351562 2.124375 0.72703125 3.21875 1.1015625 C8.73213772 3.09823329 13.80192562 5.36997806 18.875 8.3125 C23.28750971 10.81463743 25.97237233 11.83793794 31 11 C31.99 10.34 32.98 9.68 34 9 C42.44646925 16.29840547 42.44646925 16.29840547 46 20 C45.649375 20.680625 45.29875 21.36125 44.9375 22.0625 C43.38119844 26.93891156 44.36211008 30.7584993 46.671875 35.25390625 C47.35765625 36.34574219 48.0434375 37.43757813 48.75 38.5625 C59.49506752 56.46051999 62.91737954 78.24608444 58.87890625 98.77734375 C52.3278757 122.79778909 38.10191741 142.26008115 16.62890625 155.07421875 C-2.11691283 165.39240386 -25.49155925 168.60115843 -46.24194336 162.97705078 C-68.94641013 156.021799 -87.53260381 140.64593708 -99 120 C-102.44690085 112.925236 -104.9641135 105.59330641 -107 98 C-107.25801392 97.10607544 -107.25801392 97.10607544 -107.52124023 96.1940918 C-111.95388052 75.87989585 -106.85316103 53.37299253 -96 36 C-82.77206732 16.31759377 -64.12586237 3.42885607 -41 -2 C-27.86557737 -4.39380364 -12.62454151 -4.53467727 0 0 Z " fill="#EAE8EA" transform="translate(437,332)"/>
<path d="M0 0 C2.32749345 3.49124017 2.50299316 4.89222251 2 9 C0.4375 11.375 0.4375 11.375 -2 13 C-7.75771276 13.60459499 -11.41352653 12.13068206 -16.25 9.25 C-28.96461414 2.09360984 -41.24057682 -1.40145255 -55.875 -1.25 C-57.3283374 -1.23767334 -57.3283374 -1.23767334 -58.81103516 -1.22509766 C-76.20623275 -0.95343462 -91.87746358 3.62775777 -106 14 C-107.35158203 14.96679688 -107.35158203 14.96679688 -108.73046875 15.953125 C-124.93274114 28.29336067 -136.68526544 47.21401316 -139.72314453 67.45361328 C-140.28118987 72.58625252 -140.39488168 77.71551906 -140.4375 82.875 C-140.4478125 83.90874756 -140.458125 84.94249512 -140.46875 86.00756836 C-140.38709877 93.0845751 -139.19208945 99.28237198 -137 106 C-136.62359375 107.15371094 -136.2471875 108.30742187 -135.859375 109.49609375 C-130.82260916 122.85061728 -123.97994678 132.99087209 -114 143 C-113.36578125 143.65742188 -112.7315625 144.31484375 -112.078125 144.9921875 C-101.65134313 155.00374354 -87.77388682 160.48192629 -74 164 C-73.23171875 164.20238281 -72.4634375 164.40476562 -71.671875 164.61328125 C-50.25666458 167.71285118 -27.50245704 163.33969051 -9.578125 150.99609375 C8.70205637 136.84280181 22.30212325 117.66797302 25.6875 94.36328125 C27.7378455 72.29643778 23.5562664 52.15206503 11.3125 33.41796875 C9.43035516 29.95056501 10.02954689 27.74317626 11 24 C12.125 22.0625 12.125 22.0625 14 21 C17.375 20.5 17.375 20.5 21 21 C29.22046357 28.09419533 33.78601923 38.63609307 37.375 48.6875 C37.73259399 49.68281738 37.73259399 49.68281738 38.09741211 50.69824219 C44.61715914 69.99612831 44.73378968 93.74832914 38 113 C37.75330566 113.71188477 37.50661133 114.42376953 37.25244141 115.15722656 C31.78165575 130.4646796 23.34898385 142.49117131 12 154 C11.20851563 154.804375 10.41703125 155.60875 9.6015625 156.4375 C-1.39377358 166.95795446 -14.60120285 173.48509104 -29 178 C-30.03511719 178.3403125 -31.07023437 178.680625 -32.13671875 179.03125 C-56.05764656 185.51421162 -83.31472981 181.56193987 -105 170 C-128.96367724 156.11261596 -146.56083225 134.70937776 -153.78515625 107.77807617 C-155.34938121 101.57693805 -156.73856912 95.40505668 -157 89 C-157.0515625 88.01515625 -157.103125 87.0303125 -157.15625 86.015625 C-157.52852227 72.55177805 -156.05537772 58.16630936 -150 46 C-149.43747219 44.78056052 -148.8764041 43.56044713 -148.31640625 42.33984375 C-135.98920089 16.0409558 -116.20550199 -2.09244032 -89.1328125 -12.53515625 C-59.56560545 -23.13859418 -25.42086902 -18.44404658 0 0 Z " fill="#010102" transform="translate(470,331)"/>
<path d="M0 0 C3.14916776 0.57841857 4.82213574 1.32774981 7.01719475 3.66966438 C9.47035004 8.11183064 8.71705026 13.68362288 8.65844727 18.61108398 C8.66035214 19.95182783 8.66450967 21.29257008 8.67074585 22.63330078 C8.67952674 25.51561766 8.67280144 28.39733191 8.65408516 31.27960014 C8.62496132 35.83947564 8.63279449 40.39883347 8.64598083 44.95875549 C8.66663575 53.81634213 8.65105163 62.67367765 8.63050842 71.53125 C8.60536012 82.80214722 8.59252757 94.07290405 8.62046474 105.34380585 C8.63040693 109.87422026 8.62031737 114.40401225 8.59455693 118.93435848 C8.5823646 121.7557424 8.58659868 124.57693307 8.59513474 127.39832306 C8.59592279 129.32469817 8.57673119 131.2510492 8.55690002 133.17732239 C8.56441586 141.69917236 8.56441586 141.69917236 13.0625 148.5625 C16.03321798 150.37483029 18.23642231 150.81256636 21.69494534 150.81303978 C22.62640926 150.81803848 23.55787318 150.82303717 24.51756328 150.82818735 C25.53749357 150.82352413 26.55742385 150.81886092 27.60826111 150.8140564 C28.69437591 150.81702654 29.7804907 150.81999667 30.89951807 150.82305682 C34.55147336 150.83071648 38.20326874 150.8241947 41.85522461 150.81787109 C44.46835947 150.82062003 47.0814935 150.82429933 49.69462585 150.82884216 C55.32799566 150.83747762 60.96133405 150.83928272 66.5947094 150.83689499 C74.74509003 150.83379911 82.89540113 150.84542985 91.04576427 150.86144479 C104.27619015 150.88741187 117.50661608 150.9074283 130.73706055 150.92089844 C131.9249555 150.92211399 131.9249555 150.92211399 133.13684834 150.9233541 C144.37746537 150.93457761 155.61807745 150.93985717 166.85869933 150.94274123 C167.65032611 150.94294522 168.44195289 150.94314921 169.25756836 150.94335938 C170.04823127 150.94355931 170.83889419 150.94375925 171.65351658 150.94396524 C184.8330397 150.94769674 198.01248743 150.9667717 211.19197279 150.99845374 C219.3226139 151.01738092 227.45306181 151.02332217 235.5837189 151.01263656 C241.81167543 151.00557741 248.03943017 151.01907618 254.26735115 151.04025459 C256.82437776 151.04559258 259.38142912 151.04405257 261.93844604 151.03521919 C265.42254269 151.02415164 268.90571551 151.03746845 272.38975525 151.05697632 C273.91630459 151.04328933 273.91630459 151.04328933 275.47369331 151.02932584 C279.87086562 151.07740948 282.3701811 151.14096536 286.19023991 153.46689796 C288.22505533 155.74444656 288.72354299 156.61654038 288.625 159.625 C288.0625 163.5625 288.0625 163.5625 286.3208791 165.28464937 C283.75344734 166.73737017 282.2966264 166.93996905 279.36593437 166.94561005 C278.42013697 166.95466669 277.47433956 166.96372333 276.49988163 166.97305441 C275.4639072 166.96772648 274.42793278 166.96239856 273.36056519 166.95690918 C272.25756045 166.96300028 271.15455572 166.96909139 270.01812661 166.97536707 C266.30869306 166.99206408 262.59960028 166.98721152 258.89013672 166.98242188 C256.23584302 166.9897585 253.58157518 166.99825041 250.92729187 167.00808716 C244.45673921 167.0291568 237.98627613 167.03368102 231.51569323 167.03189927 C226.25413522 167.0305919 220.99260515 167.03439454 215.7310524 167.04182434 C214.21567444 167.04392355 212.70029648 167.04602115 211.18491852 167.04811716 C210.43065548 167.04916069 209.67639243 167.05020422 208.89927293 167.05127937 C194.62791443 167.07018944 180.3566073 167.06912979 166.08524145 167.06231004 C153.03948687 167.05673953 139.99392898 167.07753754 126.94822036 167.11067051 C113.54834146 167.1444382 100.14855668 167.15957164 86.74863446 167.15495348 C79.22756185 167.15271118 71.70667082 167.15791612 64.18563461 167.18284607 C57.77948249 167.20389958 51.37361139 167.2074118 44.96744756 167.18854648 C41.70123408 167.17941143 38.43565054 167.18090576 35.16945839 167.19890213 C31.62127551 167.21710031 28.07447814 167.20433857 24.52633667 167.18395996 C23.50374658 167.19647781 22.48115648 167.20899566 21.42757881 167.22189283 C13.47053446 167.1241902 6.84338579 165.0575557 0.91001499 159.57274008 C-6.91994758 151.30314047 -7.37979866 143.80994375 -7.34155273 132.79614258 C-7.3472614 131.4025976 -7.35422758 130.00905729 -7.36235046 128.61552429 C-7.38023565 124.84712746 -7.37912314 121.07896404 -7.37340808 117.31053758 C-7.37031159 114.1616355 -7.37641329 111.01277797 -7.38244683 107.86388224 C-7.39647317 100.43761858 -7.39494461 93.01147004 -7.38354492 85.58520508 C-7.37204604 77.92502474 -7.38617313 70.26519379 -7.4129414 62.60505944 C-7.43508302 56.02229498 -7.44173985 49.43964033 -7.43586498 42.85684127 C-7.43249284 38.92757043 -7.43492822 34.99852393 -7.45211601 31.06928444 C-7.46756039 27.37797021 -7.46365825 23.68717555 -7.44481087 19.99588203 C-7.43935767 17.9952222 -7.45365523 15.99453915 -7.46850586 13.993927 C-7.45867172 12.80373459 -7.44883759 11.61354218 -7.43870544 10.38728333 C-7.43849616 9.3529054 -7.43828688 8.31852747 -7.43807125 7.25280476 C-6.6100138 2.80243554 -4.3749672 0.83775968 0 0 Z " fill="#000000" transform="translate(6.9375,226.4375)"/>
<path d="M0 0 C8.52637141 5.37339031 14.37732837 12.53205663 18 21.890625 C18.36351562 22.798125 18.72703125 23.705625 19.1015625 24.640625 C21.61784155 33.74299096 21.35815764 45.2628791 17.20703125 53.78515625 C16.80871094 54.47996094 16.41039062 55.17476562 16 55.890625 C15.38705078 56.97923828 15.38705078 56.97923828 14.76171875 58.08984375 C13.57424211 60.07877521 12.31797181 61.98641248 11 63.890625 C10.4225 64.756875 9.845 65.623125 9.25 66.515625 C1.77978862 74.40084813 -9.1675702 79.97198853 -20.0402832 80.3828125 C-33.0976967 80.43174531 -44.08812146 76.64422171 -53.75 67.640625 C-62.57642148 58.16887553 -66.70729308 47.13329645 -66.34375 34.2578125 C-64.95576235 20.66184255 -58.65441775 10.30027782 -48.33203125 1.578125 C-44.78901353 -0.98566672 -41.10919915 -2.6607568 -37 -4.109375 C-35.576875 -4.64691406 -35.576875 -4.64691406 -34.125 -5.1953125 C-22.4805473 -8.60131492 -10.41043803 -5.47079141 0 0 Z " fill="#E2626C" transform="translate(233,21.109375)"/>
<path d="M0 0 C1.11084961 0.02030273 1.11084961 0.02030273 2.24414062 0.04101562 C4.05891075 0.07614021 5.87330288 0.12994028 7.6875 0.1875 C7.20021832 1.32733054 6.71293665 2.46716108 6.21088886 3.64153194 C4.52506553 8.16274421 4.26763616 12.13578672 4.3132782 16.92298889 C4.30930379 17.76609712 4.30532939 18.60920534 4.30123454 19.4778623 C4.29166265 22.28367513 4.30339854 25.08897726 4.31518555 27.89477539 C4.31275592 29.91413053 4.30903494 31.93348446 4.30412292 33.95283508 C4.29473441 39.42379578 4.30412198 44.89457693 4.31745505 50.36552358 C4.32878891 56.09576897 4.32466058 61.82600577 4.32270813 67.55625916 C4.32182584 77.17726568 4.33289259 86.79820166 4.35131836 96.41918945 C4.37249096 107.53800694 4.37599417 118.65672115 4.3697564 129.77555472 C4.3640595 140.47884169 4.36971188 151.18209234 4.38092995 161.88537407 C4.38557098 166.43744008 4.38645193 170.98948385 4.3843441 175.54155159 C4.38245885 180.90220933 4.39058343 186.26276211 4.4064045 191.62339592 C4.41064252 193.58939047 4.41150114 195.55539568 4.40871429 197.52139282 C4.40548479 200.20737485 4.41459368 202.8930448 4.42680359 205.57899475 C4.42302427 206.35468325 4.41924494 207.13037175 4.41535109 207.92956597 C4.42118329 208.6561492 4.42701548 209.38273244 4.43302441 210.13133335 C4.43389118 210.75011783 4.43475796 211.36890231 4.435651 212.00643784 C4.79710492 215.13670027 5.82183669 218.15767841 6.6875 221.1875 C89.1875 221.1875 171.6875 221.1875 256.6875 221.1875 C256.6875 221.5175 256.6875 221.8475 256.6875 222.1875 C223.15761291 222.27904138 189.6277569 222.34953151 156.09777262 222.39176132 C152.13988857 222.39676419 148.18200477 222.40194147 144.22412109 222.40722656 C143.43617266 222.4082758 142.64822422 222.40932505 141.83639856 222.41040608 C129.07549047 222.42781467 116.31465441 222.45935485 103.55378906 222.49611118 C90.46144091 222.533508 77.3691305 222.55573318 64.27673113 222.56385398 C56.19699948 222.56934438 48.11747141 222.58668962 40.03780241 222.61916587 C33.84387182 222.64279524 27.65009667 222.64532302 21.45612717 222.63993073 C18.91401922 222.64103307 16.37190371 222.64901481 13.82984161 222.6643219 C10.36343813 222.68417477 6.89791111 222.67945544 3.43148804 222.66851807 C2.42175474 222.68016943 1.41202143 222.6918208 0.37169015 222.70382524 C-5.33797321 222.6550117 -8.90047303 222.18995144 -13.3125 218.1875 C-16.11793177 214.56809247 -16.68696691 211.9443002 -16.68431091 207.41209412 C-16.69106842 206.25826233 -16.69782593 205.10443054 -16.70478821 203.91563416 C-16.69706894 202.65884354 -16.68934967 201.40205292 -16.68139648 200.10717773 C-16.6838658 198.76319065 -16.68770555 197.41920549 -16.69281006 196.07522583 C-16.70113519 193.18650831 -16.70035166 190.29798801 -16.69262505 187.40926933 C-16.68102984 182.84160636 -16.69321395 178.27419652 -16.70924377 173.70655823 C-16.74541372 162.36395786 -16.75166568 151.02136374 -16.74914551 139.67871094 C-16.74743505 130.85839133 -16.75452639 122.03827872 -16.78912407 113.21801716 C-16.80593048 108.67707244 -16.80411369 104.13663245 -16.78830135 99.59568965 C-16.78250997 96.7721859 -16.79323382 93.94892226 -16.80854797 91.12546158 C-16.81405756 89.1915783 -16.79965152 87.25767048 -16.78468323 85.32383728 C-16.79904922 83.59731934 -16.79904922 83.59731934 -16.81370544 81.83592224 C-16.81349616 80.8358184 -16.81328688 79.83571455 -16.81307125 78.80530453 C-17.45338538 75.44903555 -18.66659945 74.28509496 -21.3125 72.1875 C-22.3025 71.8575 -23.2925 71.5275 -24.3125 71.1875 C-24.3125 64.5875 -24.3125 57.9875 -24.3125 51.1875 C-22.3325 50.1975 -20.3525 49.2075 -18.3125 48.1875 C-16.69659555 44.95569111 -17.13377763 41.40817559 -17.1015625 37.85546875 C-17.07348896 36.15298526 -17.04482446 34.45051143 -17.015625 32.74804688 C-16.97439707 30.06209636 -16.93751301 27.37632524 -16.91113281 24.69018555 C-16.88347386 22.09906659 -16.83759776 19.50876963 -16.7890625 16.91796875 C-16.78580963 16.11884567 -16.78255676 15.3197226 -16.77920532 14.49638367 C-16.67836997 9.90727193 -16.22858821 6.9411267 -13.3125 3.1875 C-9.16711612 -0.25578282 -5.16307925 -0.17994646 0 0 Z " fill="#61A1F6" transform="translate(31.3125,155.8125)"/>
<path d="M0 0 C7.65292765 4.94251577 13.99418147 11.19695774 16.0625 20.33203125 C16.97391837 29.07336201 15.60024117 36.37234084 10.44921875 43.59375 C4.89201543 50.25992959 -1.19162984 54.55596567 -9.9453125 55.73828125 C-19.28638751 56.01921584 -26.70799741 53.84602845 -33.87890625 47.65625 C-35.43181372 45.96323057 -36.68733194 44.25695889 -37.9375 42.33203125 C-38.34742188 41.78417969 -38.75734375 41.23632812 -39.1796875 40.671875 C-43.40502119 34.04247214 -42.78415325 25.84701543 -41.9375 18.33203125 C-39.56237153 9.89321073 -34.09436093 4.62968235 -26.87890625 0.015625 C-18.5598737 -4.36522334 -8.3307457 -4.33382543 0 0 Z " fill="#020204" transform="translate(194.9375,234.66796875)"/>
<path d="M0 0 C0 5.94 0 11.88 0 18 C-1.258125 18.08636719 -2.51625 18.17273438 -3.8125 18.26171875 C-26.01487324 19.99341662 -45.55864996 26.78652034 -63 41 C-63.83917969 41.67546875 -64.67835938 42.3509375 -65.54296875 43.046875 C-80.15191443 55.45881645 -89.59750946 71.76659442 -95 90 C-100.94 90 -106.88 90 -113 90 C-111.87285117 80.98280935 -111.87285117 80.98280935 -110.43359375 77.51953125 C-110.11712891 76.75439209 -109.80066406 75.98925293 -109.47460938 75.20092773 C-109.13236328 74.41274658 -108.79011719 73.62456543 -108.4375 72.8125 C-108.08107422 71.98242432 -107.72464844 71.15234863 -107.35742188 70.29711914 C-102.41855255 59.08158921 -95.92593027 49.34357634 -88 40 C-87.44828125 39.31421875 -86.8965625 38.6284375 -86.328125 37.921875 C-67.99906277 15.75243782 -39.40832199 3.87748101 -11.53515625 0.296875 C-7.70232233 -0.02499835 -3.8463253 0 0 0 Z " fill="#60A1F7" transform="translate(413,296)"/>
<path d="M0 0 C0.89396484 -0.00515625 1.78792969 -0.0103125 2.70898438 -0.015625 C3.63646484 -0.00015625 4.56394531 0.0153125 5.51953125 0.03125 C6.42767578 0.01578125 7.33582031 0.0003125 8.27148438 -0.015625 C15.72460286 0.02705571 21.7390863 1.68734273 27.63671875 6.35546875 C35.25737475 15.39788893 36.56411128 24.85866921 35.62939453 36.46582031 C34.59132698 43.67604323 30.92912138 49.6779785 25.26953125 54.15625 C23.359375 55.4453125 23.359375 55.4453125 21.33203125 56.53125 C20.64367187 56.90121094 19.9553125 57.27117187 19.24609375 57.65234375 C14.78171838 58.99883766 10.40782815 58.94017733 5.76953125 58.96875 C4.82400391 59.00162109 3.87847656 59.03449219 2.90429688 59.06835938 C1.99228516 59.07544922 1.08027344 59.08253906 0.140625 59.08984375 C-0.68638916 59.10329834 -1.51340332 59.11675293 -2.36547852 59.13061523 C-4.66796875 58.53125 -4.66796875 58.53125 -6.93530273 56.68798828 C-9.50607662 52.00430414 -9.24044971 47.72740619 -9.19921875 42.46484375 C-9.20304565 41.39379898 -9.20687256 40.32275421 -9.21081543 39.21925354 C-9.21353318 36.95906634 -9.2061817 34.69884762 -9.18945312 32.4387207 C-9.16802178 28.97731575 -9.18927158 25.51798156 -9.21484375 22.05664062 C-9.21220086 19.85937042 -9.2070767 17.6621015 -9.19921875 15.46484375 C-9.20731567 14.42935898 -9.2154126 13.39387421 -9.22375488 12.32701111 C-9.13106321 5.23598719 -9.13106321 5.23598719 -6.92651367 1.88110352 C-4.38323892 0.36107691 -2.94766244 0.01659153 0 0 Z " fill="#010203" transform="translate(336.66796875,231.46875)"/>
<path d="M0 0 C2.66500965 1.45318451 4.43695959 2.53039025 6.0703125 5.12890625 C6.63815195 9.10378242 6.69371769 11.19379846 4.4453125 14.56640625 C1.33706807 16.6113039 -0.26014562 16.64264211 -3.9296875 16.12890625 C-4.8990625 15.63390625 -5.8684375 15.13890625 -6.8671875 14.62890625 C-10.45596552 12.87113742 -12.98428045 12.89218183 -16.9296875 13.12890625 C-17.2596875 13.78890625 -17.5896875 14.44890625 -17.9296875 15.12890625 C-17.12917969 15.36673828 -17.12917969 15.36673828 -16.3125 15.609375 C-6.89393504 18.55878721 1.34153854 21.73656948 7.0703125 30.12890625 C8.98605146 33.96038418 8.66893891 38.26461256 7.38671875 42.2578125 C4.70517879 48.12159489 1.26084362 51.53364069 -4.5546875 54.44140625 C-13.00624189 56.16301918 -20.20636992 55.95413208 -27.79296875 51.6171875 C-31.93836862 48.7298066 -34.56137056 46.17511145 -35.4921875 41.00390625 C-34.78756688 37.40251194 -33.95321161 36.19763327 -30.9296875 34.12890625 C-27.75554027 33.47964886 -25.8276865 33.6003488 -23.01171875 35.2578125 C-21.65998418 36.17552785 -20.30842299 37.09349864 -18.95703125 38.01171875 C-15.90315274 39.69458822 -13.32430933 39.53626087 -9.9296875 39.12890625 C-8.9396875 38.63390625 -8.9396875 38.63390625 -7.9296875 38.12890625 C-8.2596875 37.13890625 -8.5896875 36.14890625 -8.9296875 35.12890625 C-12.41245654 33.58557619 -15.90719439 32.26596326 -19.49609375 30.99804688 C-25.82748046 28.59780615 -28.98343192 25.7433809 -32.2421875 19.69140625 C-33.62489468 14.5376795 -33.54098748 10.6725941 -30.9296875 6.00390625 C-23.31329381 -4.90090255 -11.51766631 -5.31442159 0 0 Z " fill="#020304" transform="translate(257.9296875,234.87109375)"/>
<path d="M0 0 C2.10888177 1.2172889 3.53109005 2.24190782 5.0234375 4.16796875 C5.73483968 7.62733622 5.60839165 10.99806044 4.0234375 14.16796875 C0.83718179 15.76109661 -2.48723206 15.70965916 -5.9765625 15.16796875 C-6.9665625 14.50796875 -7.9565625 13.84796875 -8.9765625 13.16796875 C-13.25810771 12.38950598 -17.3239154 12.2007103 -21.15234375 14.44140625 C-25.4245317 18.02302333 -25.4245317 18.02302333 -27.21484375 23.12109375 C-27.42974237 29.7716406 -25.77338885 33.06038391 -21.2890625 38.04296875 C-17.56405244 39.8551358 -14.02463858 39.94459455 -9.9765625 39.16796875 C-8.05530696 37.99144732 -6.41101314 36.65427358 -4.671875 35.2265625 C-2.9765625 34.16796875 -2.9765625 34.16796875 0.7734375 34.16796875 C5.53800061 35.63398817 5.53800061 35.63398817 7.0234375 38.16796875 C7.66685304 41.31355583 7.59481217 43.24316645 5.88671875 46.0078125 C1.19792686 51.82880611 -4.18760682 54.59819842 -11.5703125 55.4765625 C-20.707995 55.88186293 -27.82719805 53.41774543 -34.921875 47.5625 C-40.64375301 41.5099607 -43.16936501 34.00472104 -43.6015625 25.79296875 C-43.33009266 17.86417717 -40.44738793 11.27511217 -35.3359375 5.2265625 C-33.63302158 3.63903107 -31.95166913 2.39782896 -29.9765625 1.16796875 C-29.32042969 0.75804687 -28.66429687 0.348125 -27.98828125 -0.07421875 C-18.99249772 -4.84346413 -9.11633537 -3.95243112 0 0 Z " fill="#020304" transform="translate(90.9765625,234.83203125)"/>
<path d="M0 0 C1.54880859 -0.03577148 1.54880859 -0.03577148 3.12890625 -0.07226562 C8.02054534 -0.06279794 10.66191094 -0.03933552 14.71484375 2.87109375 C16.5 5.5625 16.5 5.5625 16.5625 9.1875 C15.37334825 12.96480554 14.87982167 13.69603132 11.5 15.5625 C8.265625 15.85546875 8.265625 15.85546875 4.75 15.75 C3.57953125 15.72292969 2.4090625 15.69585937 1.203125 15.66796875 C0.31109375 15.63316406 -0.5809375 15.59835938 -1.5 15.5625 C-1.5 17.8725 -1.5 20.1825 -1.5 22.5625 C-0.60796875 22.50449219 0.2840625 22.44648438 1.203125 22.38671875 C2.37359375 22.34160156 3.5440625 22.29648438 4.75 22.25 C5.91015625 22.19199219 7.0703125 22.13398438 8.265625 22.07421875 C11.5 22.5625 11.5 22.5625 13.91796875 24.890625 C15.5 27.5625 15.5 27.5625 15.5625 30.625 C14.1551927 34.51579078 13.19737592 35.63986452 9.5 37.5625 C5.80786299 37.8844585 2.19554059 37.7954938 -1.5 37.5625 C-1.5 39.5425 -1.5 41.5225 -1.5 43.5625 C-0.61957031 43.51609375 0.26085937 43.4696875 1.16796875 43.421875 C2.91013672 43.36773437 2.91013672 43.36773437 4.6875 43.3125 C5.83605469 43.26609375 6.98460937 43.2196875 8.16796875 43.171875 C12.15243023 43.63898654 13.72595198 44.71666516 16.5 47.5625 C17.125 50.5 17.125 50.5 16.5 53.5625 C14.71484375 56.21484375 14.71484375 56.21484375 11.5 58.5625 C7.46814007 59.3099413 3.52716353 59.26039953 -0.5625 59.1875 C-1.65111328 59.20683594 -2.73972656 59.22617187 -3.86132812 59.24609375 C-5.43237305 59.23642578 -5.43237305 59.23642578 -7.03515625 59.2265625 C-7.987854 59.22092285 -8.94055176 59.2152832 -9.92211914 59.20947266 C-12.5 58.5625 -12.5 58.5625 -14.80615234 56.71264648 C-17.32328751 52.03138459 -17.0915509 47.73534486 -17.06640625 42.49609375 C-17.07260483 41.42504898 -17.07880341 40.35400421 -17.08518982 39.25050354 C-17.09228267 36.99033516 -17.08912339 34.73011449 -17.07641602 32.4699707 C-17.0625333 29.0083035 -17.09665217 25.54933031 -17.13476562 22.08789062 C-17.13571666 19.89062434 -17.13385883 17.69335466 -17.12890625 15.49609375 C-17.14216446 14.46060898 -17.15542267 13.42512421 -17.16908264 12.35826111 C-17.07678793 5.25505418 -17.07678793 5.25505418 -14.29467773 1.91455078 C-9.57335509 -0.36960095 -5.15968221 -0.05475318 0 0 Z " fill="#010203" transform="translate(298.5,231.4375)"/>
<path d="M0 0 C2.4375 2.0625 2.4375 2.0625 5 5 C6.26288257 6.27873466 7.53398813 7.54939188 8.8125 8.8125 C9.875 9.875 10.9375 10.9375 12 12 C15.45762865 10.52038413 17.61005944 8.52443675 20.25 5.875 C23.25379444 3.14878393 25.24887182 1.41748122 29.375 1.25 C33 2 33 2 35 3.625 C36.30335189 6.72046073 36.47632194 8.66574641 36 12 C33.01307204 16.85375793 28.3237224 20.35841827 24 24 C24.89364515 25.20995254 25.79005779 26.41786111 26.6875 27.625 C27.49960938 28.72521484 27.49960938 28.72521484 28.328125 29.84765625 C29.77863981 31.71502461 31.2993362 33.36451561 32.9375 35.0625 C35 38 35 38 35.0625 41.6875 C34 45 34 45 32.3125 46.9375 C29.22201102 48.35745439 27.38862359 48.42306452 24 48 C21.75648641 46.24853639 20.0221765 44.68714837 18.125 42.625 C17.37863281 41.86316406 17.37863281 41.86316406 16.6171875 41.0859375 C13 37.30975275 13 37.30975275 13 35 C12.33613281 35.53109375 11.67226562 36.0621875 10.98828125 36.609375 C8.32552083 38.73958333 5.66276042 40.86979167 3 43 C1.67548828 44.10408203 1.67548828 44.10408203 0.32421875 45.23046875 C-2 47 -2 47 -4.5 47.5625 C-8.29082295 46.70956484 -9.74689043 45.11459264 -12 42 C-12.375 38.75 -12.375 38.75 -11 35 C-7.86028774 31.24692036 -4.42649174 27.21324587 0 25 C-0.55171366 21.1552454 -2.21462331 19.49126453 -5 16.875 C-9.88401595 12.25262776 -9.88401595 12.25262776 -10.3125 7.625 C-10 4 -10 4 -8.375 1.5625 C-5.24316508 -0.49791771 -3.68455227 -0.6767545 0 0 Z " fill="#040102" transform="translate(198,34)"/>
<path d="M0 0 C0.66 0.33 1.32 0.66 2 1 C1.3709375 1.49628906 0.741875 1.99257813 0.09375 2.50390625 C-1.70564696 3.93204209 -3.49816482 5.36887158 -5.28515625 6.8125 C-6.86075184 8.08204465 -8.44685417 9.33916825 -10.05859375 10.5625 C-26.33091698 23.55329443 -36.40512097 45.70174064 -39 66 C-40.643897 93.30980966 -34.88316852 117.87311089 -16.50830078 138.68994141 C-10.90459504 144.79610979 -5.21253698 149.83892097 2 154 C2 154.66 2 155.32 2 156 C-9.33188116 152.6241851 -18.73888957 145.24729586 -27 137 C-27.77085937 136.24074219 -28.54171875 135.48148438 -29.3359375 134.69921875 C-45.99213985 117.33242756 -51.70193741 95.78325974 -51.3046875 72.31640625 C-50.49174589 49.79926739 -39.87952813 29.82857183 -23.5 14.5625 C-16.43637949 8.66140738 -8.4359101 3.68112441 0 0 Z " fill="#D6D4D7" transform="translate(380,335)"/>
<path d="M0 0 C2.66153965 1.98559307 4.67608965 3.57034475 5.43496704 6.91983032 C5.57840876 9.22951587 5.5623927 11.48782451 5.48828125 13.80078125 C5.47766914 15.0553437 5.47766914 15.0553437 5.46684265 16.33525085 C5.43894985 18.99526052 5.37622481 21.65313139 5.3125 24.3125 C5.28741034 26.12041221 5.26459833 27.92835757 5.24414062 29.73632812 C5.18914042 34.15837073 5.10290643 38.57882331 5 43 C5.68489502 42.97607178 6.36979004 42.95214355 7.07543945 42.92749023 C7.97480225 42.90887939 8.87416504 42.89026855 9.80078125 42.87109375 C10.69192627 42.84716553 11.58307129 42.8232373 12.5012207 42.79858398 C15 43 15 43 18.1875 45.0625 C20 48 20 48 20.0625 51.625 C18.88177401 55.37554138 18.28701841 56.06546766 15 58 C11.52105179 58.60632469 8.02626317 58.4638154 4.5 58.4375 C3.07494141 58.4674707 3.07494141 58.4674707 1.62109375 58.49804688 C0.70457031 58.49740234 -0.21195313 58.49675781 -1.15625 58.49609375 C-1.98962891 58.49794678 -2.82300781 58.4997998 -3.68164062 58.50170898 C-7.11115523 57.75953833 -8.06884651 56.97764906 -10 54 C-10.60134906 50.27277375 -10.56002299 46.58104557 -10.53125 42.8125 C-10.5350769 41.71784424 -10.53890381 40.62318848 -10.54284668 39.49536133 C-10.54556736 37.18211955 -10.53819534 34.86884708 -10.52148438 32.55566406 C-10.5000784 29.01297478 -10.52128226 25.47231364 -10.546875 21.9296875 C-10.54423175 19.68228719 -10.53910684 17.43488813 -10.53125 15.1875 C-10.53934692 14.12700439 -10.54744385 13.06650879 -10.55578613 11.97387695 C-10.46251022 4.666171 -10.46251022 4.666171 -8.15039062 1.3359375 C-5.13882878 -0.53500555 -3.48338324 -0.63980508 0 0 Z " fill="#020304" transform="translate(123,232)"/>
<path d="M0 0 C3.38746512 1.12915504 4.37451366 2.22743073 6.6875 4.875 C7.31011719 5.57367188 7.93273437 6.27234375 8.57421875 6.9921875 C10 9 10 9 10 12 C7.95358633 14.32241958 5.88924832 16.48181339 3.68359375 18.64453125 C3.03431412 19.29193771 2.38503448 19.93934418 1.71607971 20.60636902 C0.3365863 21.97912942 -1.04650521 23.34828194 -2.43286133 24.71411133 C-4.53647634 26.78685821 -6.62950586 28.86981123 -8.72070312 30.95507812 C-10.06448942 32.28968176 -11.40887237 33.62368496 -12.75390625 34.95703125 C-13.68403282 35.880783 -13.68403282 35.880783 -14.63294983 36.82319641 C-18.16880934 40.30244657 -21.79086008 43.591727 -25.62583923 46.73979187 C-27.13569202 47.97394207 -27.13569202 47.97394207 -28 50 C-35.26 50 -42.52 50 -50 50 C-43.24826663 42.12297774 -43.24826663 42.12297774 -40.23291016 39.10351562 C-39.55845856 38.42591187 -38.88400696 37.74830811 -38.18911743 37.0501709 C-37.4795993 36.342677 -36.77008118 35.63518311 -36.0390625 34.90625 C-35.289664 34.15589478 -34.5402655 33.40553955 -33.76815796 32.63244629 C-32.19106802 31.05467943 -30.61272888 29.47816035 -29.03320312 27.90283203 C-26.63557506 25.51055147 -24.24332045 23.11299152 -21.8515625 20.71484375 C-20.31021627 19.17415853 -18.76855974 17.63378365 -17.2265625 16.09375 C-16.52109283 15.3862561 -15.81562317 14.67876221 -15.08877563 13.9498291 C-11.04032991 9.92012923 -6.88857104 6.07037717 -2.55844116 2.34436035 C-1.68258683 1.58882086 -0.8179122 0.8179122 0 0 Z " fill="#E4E2E4" transform="translate(161,91)"/>
<path d="M0 0 C3.36552541 1.45940825 5.55052961 3.31200089 8.12255859 5.91137695 C8.92374115 6.71593826 9.72492371 7.52049957 10.55038452 8.34944153 C11.407742 9.22025864 12.26509949 10.09107574 13.1484375 10.98828125 C14.03858551 11.88363083 14.92873352 12.77898041 15.84585571 13.70146179 C18.21109523 16.081503 20.57219334 18.46549179 22.93096924 20.85192871 C26.24385183 24.20275844 29.56181252 27.54852835 32.88272095 30.8914032 C34.64852387 32.66939624 36.41164678 34.45005606 38.17172241 36.23371887 C41.5391514 39.62838346 44.85464257 42.96877594 48.58837891 45.96166992 C49.38421387 46.63431885 50.18004883 47.30696777 51 48 C51 48.66 51 49.32 51 50 C32.86705615 52.59714701 32.86705615 52.59714701 25.48974609 47.20654297 C21.18058118 43.46382664 17.4353602 39.22967302 13.6875 34.9375 C12.36266656 33.49840921 11.0326005 32.06411748 9.69726562 30.63476562 C7.8101307 28.61214634 5.93251525 26.58661558 4.09416199 24.51951599 C0.03235825 19.95862981 -4.32504982 15.92801629 -9 12 C-7.4674096 8.79389135 -5.75883811 6.39870901 -3.375 3.75 C-2.74335938 3.04359375 -2.11171875 2.3371875 -1.4609375 1.609375 C-0.97882813 1.07828125 -0.49671875 0.5471875 0 0 Z " fill="#E6E4E6" transform="translate(258,91)"/>
<path d="M0 0 C4.59718172 1.36212792 4.59718172 1.36212792 6.375 4 C6.68552791 6.82327095 6.81920674 9.42152734 6.80859375 12.24609375 C6.8138356 13.05361588 6.81907745 13.861138 6.82447815 14.69313049 C6.83089886 16.40030773 6.82956068 18.1075292 6.82104492 19.81469727 C6.81254139 22.42479425 6.84128213 25.0326978 6.87304688 27.64257812 C6.87465918 29.30208268 6.87408079 30.9615911 6.87109375 32.62109375 C6.88794472 33.79000404 6.88794472 33.79000404 6.90513611 34.98252869 C6.86146767 38.38433035 6.62841564 40.61015036 4.75610352 43.49047852 C1.61587022 45.48125699 -0.51074504 45.51693338 -4.21875 45.53125 C-5.49621094 45.53640625 -6.77367187 45.5415625 -8.08984375 45.546875 C-8.75226074 45.53849609 -9.41467773 45.53011719 -10.09716797 45.52148438 C-12.11938448 45.5000595 -14.13804961 45.52129739 -16.16015625 45.546875 C-17.43761719 45.54171875 -18.71507812 45.5365625 -20.03125 45.53125 C-21.19978516 45.52673828 -22.36832031 45.52222656 -23.57226562 45.51757812 C-27.23173513 44.89713064 -28.41319019 43.93044838 -30.625 41 C-31.1875 38.0625 -31.1875 38.0625 -30.625 35 C-28.61197636 32.28955085 -27.04731246 30.28432388 -23.62084961 29.59936523 C-21.33203617 29.50829973 -19.09953898 29.56289184 -16.8125 29.6875 C-16.02423828 29.71005859 -15.23597656 29.73261719 -14.42382812 29.75585938 C-12.49006071 29.81445839 -10.55727833 29.90413173 -8.625 30 C-8.65118408 29.26885986 -8.67736816 28.53771973 -8.7043457 27.78442383 C-8.80850144 24.46066918 -8.87338621 21.13725806 -8.9375 17.8125 C-8.97939453 16.66201172 -9.02128906 15.51152344 -9.06445312 14.32617188 C-9.20264067 4.79123155 -9.20264067 4.79123155 -6.33203125 1.69921875 C-3.625 0 -3.625 0 0 0 Z " fill="#050505" transform="translate(413.625,375)"/>
<path d="M0 0 C3.5677811 2.35149209 5.84221079 4.99692157 7.75 8.8125 C8.15331428 14.05558569 7.61051133 17.37377553 4.75 21.8125 C0.32936731 25.90158524 -3.11140064 27.19036745 -9.1875 27.08984375 C-12.67504073 26.6208752 -14.6541149 25.10653799 -17.25 22.8125 C-20.54799116 18.08537934 -21.15379228 13.41601216 -20.25 7.8125 C-15.91326445 -0.86097109 -8.95063053 -3.27042269 0 0 Z " fill="#7DB1F6" transform="translate(188.25,248.1875)"/>
<path d="M0 0 C0.66 0.33 1.32 0.66 2 1 C-5 8 -5 8 -7.0390625 9.875 C-15.42512716 18.9626876 -17.56442715 31.04325416 -17.375 42.91796875 C-16.61377693 54.19222608 -12.1898534 64.35252256 -5 73 C-4.22849609 73.9590625 -4.22849609 73.9590625 -3.44140625 74.9375 C-2.31844289 76.31177811 -1.16367056 77.66001572 0 79 C-9.94635691 76.21386519 -16.48940438 68.42588901 -21.59375 59.74609375 C-26.93514724 49.31553192 -27.51872315 38.60146412 -24.4375 27.3125 C-20.62839418 16.258102 -12.95862256 6.56662002 -2.5625 0.9375 C-1.716875 0.628125 -0.87125 0.31875 0 0 Z " fill="#D54453" transform="translate(193,18)"/>
<path d="M0 0 C8 0 8 0 10.9375 2.375 C15.17160995 7.76386721 14.45234837 13.35209452 14 20 C12.82460715 23.4674089 12.0874111 25.14560556 9.25 27.375 C7 28 7 28 0 28 C0 18.76 0 9.52 0 0 Z " fill="#7FB2F9" transform="translate(343,247)"/>
<path d="M0 0 C4.83790288 1.66824237 7.67213533 4.09289443 10.625 8.25 C11.875 11.875 11.875 11.875 11.625 15.25 C9.625 18.25 9.625 18.25 6.625 20.25 C2.88470569 20.52705884 0.72852835 20.03385545 -2.34375 17.8515625 C-5.55258221 14.94520218 -7.19908901 12.76014186 -8.625 8.625 C-8.375 5.25 -8.375 5.25 -6.375 2.25 C-3.375 0.25 -3.375 0.25 0 0 Z " fill="#070707" transform="translate(453.375,444.75)"/>
<path d="M0 0 C3.3125 2.0625 3.3125 2.0625 5 5 C5 8.44536734 4.81650542 10.78513035 2.87109375 13.6796875 C0.00963335 15.6988391 -2.4805163 15.4709802 -5.9375 15.5 C-7.77634766 15.54640625 -7.77634766 15.54640625 -9.65234375 15.59375 C-13 15 -13 15 -15.40625 12.625 C-17.22374854 9.63147299 -17.76907944 8.41813084 -17 5 C-12.99259493 -1.44047244 -6.86052733 -1.16392395 0 0 Z " fill="#090909" transform="translate(359,405)"/>
<path d="M0 0 C4.49153143 1.33082413 4.49153143 1.33082413 6.375 4 C6.84375 7.21484375 6.84375 7.21484375 6.875 10.9375 C6.9059375 12.16339844 6.936875 13.38929688 6.96875 14.65234375 C6.375 18 6.375 18 4.0703125 20.4375 C1.375 22 1.375 22 -2.25 22.0625 C-5.625 21 -5.625 21 -7.5625 19.125 C-9.17492013 14.38258786 -9.40273509 9.94787655 -8.625 5 C-6.00288058 0.86817545 -4.91269387 0 0 0 Z " fill="#080808" transform="translate(413.625,342)"/>
<path d="M0 0 C2.94814126 2.23117042 3.89849022 3.40885484 4.53125 7.09375 C4.5209375 8.2178125 4.510625 9.341875 4.5 10.5 C4.5103125 11.6240625 4.520625 12.748125 4.53125 13.90625 C3.89671432 17.60148722 2.97734739 18.78293953 0 21 C-3.5 21.5625 -3.5 21.5625 -7 21 C-9.98128659 18.78314587 -10.83397965 17.04467522 -11.4140625 13.39453125 C-11.65913461 8.61562517 -11.57216914 5.85825371 -8.875 1.8125 C-5.48733474 -0.32320201 -3.92646445 -0.75187617 0 0 Z " fill="#070607" transform="translate(416,462)"/>
<path d="M0 0 C4.80603448 1.92241379 4.80603448 1.92241379 6.125 4.25 C6.75 7.4375 6.75 7.4375 6.125 11.25 C3.71726063 14.78009705 0.99576793 18.31461603 -2.875 20.25 C-6.41731061 20.63503376 -8.23757342 20.66935959 -11.25 18.6875 C-12.875 16.25 -12.875 16.25 -13.6875 13.0625 C-12.23883914 6.26493749 -7.10136462 0.45815256 0 0 Z " fill="#060606" transform="translate(373.875,444.75)"/>
<path d="M0 0 C3.1875 1.5625 3.1875 1.5625 5 4 C5.5625 7.5 5.5625 7.5 5 11 C2.78293953 13.97734739 1.60148722 14.89671432 -2.09375 15.53125 C-3.2178125 15.5209375 -4.341875 15.510625 -5.5 15.5 C-6.6240625 15.5103125 -7.748125 15.520625 -8.90625 15.53125 C-12.59114516 14.89849022 -13.76882958 13.94814126 -16 11 C-16.75187617 7.07353555 -16.32320201 5.51266526 -14.1875 2.125 C-9.5375296 -0.97498027 -5.43312861 -0.86343573 0 0 Z " fill="#070707" transform="translate(478,405)"/>
<path d="M0 0 C3.69252204 0.94123111 5.0923961 1.62794207 7.1875 4.8125 C7.875 7.5625 7.875 7.5625 7.1875 10.8125 C4.73138015 14.28934498 2.04503936 17.88373032 -1.8125 19.8125 C-5.1875 20.1875 -5.1875 20.1875 -8.8125 19.8125 C-11.43536242 17.45864911 -12.64496149 15.94431568 -13.1640625 12.4375 C-12.55845947 7.91566401 -9.46750423 5.67689078 -6.265625 2.65625 C-3.8125 0.8125 -3.8125 0.8125 0 0 Z " fill="#060606" transform="translate(457.8125,360.1875)"/>
<path d="M0 0 C5.31111103 1.12350426 8.50474224 4.94224224 12.25 8.6875 C12.70714286 15.77321429 12.70714286 15.77321429 11.25 18.6875 C7.889372 20.367814 4.82410173 20.62839698 1.25 19.6875 C-2.07317755 17.2475379 -4.89757964 14.39234073 -6.75 10.6875 C-7.13932198 7.1057378 -7.18596718 5.32468279 -5.125 2.3125 C-2.75 0.6875 -2.75 0.6875 0 0 Z " fill="#040404" transform="translate(367.75,360.3125)"/>
</svg>
