<svg version="1.1" id="Layer_1" xmlns="http://www.w3.org/2000/svg" xmlns:xlink="http://www.w3.org/1999/xlink" x="0px" y="0px"
	 width="100%" viewBox="0 0 512 512" enable-background="new 0 0 512 512" xml:space="preserve">
<path fill="#E64C3C" opacity="1.000000" stroke="none" 
	d="
M78.000000,513.000000 
	C72.645073,513.000000 67.290138,513.000000 61.323830,512.655151 
	C48.600594,508.679901 40.641151,500.932312 38.058819,488.439301 
	C36.311031,479.983734 35.296570,471.377533 33.916393,462.844788 
	C31.624966,448.678436 29.268913,434.522430 27.005089,420.351715 
	C25.202578,409.068726 23.548027,397.762085 21.736176,386.480652 
	C19.201889,370.700989 16.575815,354.936127 14.001599,339.162872 
	C12.057771,327.252258 9.876345,315.372650 8.286091,303.414673 
	C7.115040,294.608917 6.016114,285.687622 6.155407,276.837799 
	C6.375317,262.866028 18.646828,249.627838 32.197773,246.995422 
	C49.443951,243.645187 66.693253,240.311081 83.847610,237.298584 
	C81.301262,241.386520 78.878525,245.165863 76.389633,248.901154 
	C70.855034,257.207397 65.266022,265.477386 59.743336,273.791504 
	C57.472519,277.210083 57.460316,280.728790 59.959145,284.010956 
	C62.370731,287.178528 66.008324,288.122192 69.347023,286.662170 
	C71.880173,285.554413 74.138550,283.118378 75.766380,280.754883 
	C85.673645,266.370361 95.331612,251.814392 105.167458,237.380157 
	C106.539894,235.366074 108.433067,233.706848 110.483749,231.915344 
	C125.706535,228.965210 140.520782,225.932434 155.357590,223.014420 
	C171.970078,219.747223 188.607742,216.608231 205.225739,213.368851 
	C222.802231,209.942642 240.355682,206.397186 257.942566,203.025711 
	C278.254425,199.131866 298.600067,195.414566 318.915314,191.538055 
	C333.464386,188.761856 347.991791,185.871048 362.520996,182.991760 
	C374.325531,180.652451 386.118469,178.254318 398.250793,175.979736 
	C400.043915,177.391830 401.651459,178.576019 402.938049,180.041870 
	C412.792603,191.269531 422.514404,202.614365 432.429260,213.788101 
	C436.658356,218.554169 441.651733,219.120621 445.579407,215.763168 
	C449.551300,212.367935 449.633911,207.509216 445.524323,202.507019 
	C442.048828,198.276611 438.252289,194.311310 434.731934,190.116119 
	C429.742401,184.170151 424.876068,178.120773 420.361755,172.054871 
	C428.959198,170.655197 437.138306,169.224518 445.347961,167.998215 
	C458.453278,166.040634 473.489716,175.881912 476.887939,190.000885 
	C478.866760,198.222534 479.688995,206.720566 481.079468,215.086258 
	C483.700378,230.854568 486.470612,246.598999 488.962616,262.387451 
	C491.153381,276.267273 492.918396,290.214294 495.109039,304.094147 
	C497.600891,319.882629 500.470093,335.611572 502.963043,351.399872 
	C505.154663,365.279877 506.281006,379.375305 509.280518,393.068329 
	C512.883545,409.516449 502.339844,429.981171 482.912109,433.958588 
	C468.551727,436.898621 454.090271,439.341125 439.703735,442.158112 
	C425.166870,445.004578 410.688385,448.150543 396.145020,450.961853 
	C379.666595,454.147156 363.122284,456.992218 346.646698,460.191467 
	C323.471283,464.691772 300.348816,469.464569 277.173035,473.962860 
	C260.696899,477.160767 244.155518,480.021362 227.670364,483.174225 
	C212.799057,486.018433 197.964874,489.056732 183.113785,492.006653 
	C166.506714,495.305328 149.910126,498.658295 133.287323,501.875702 
	C123.845070,503.703278 114.330643,505.162994 104.901680,507.052612 
	C95.898735,508.856842 86.964462,511.003754 78.000000,513.000000 
M246.714508,378.160614 
	C251.973755,369.761871 254.312027,360.454681 254.620544,350.696777 
	C255.240112,331.099670 249.620316,313.906769 234.117584,300.938965 
	C218.208328,287.631073 195.590958,290.985840 184.009918,308.236481 
	C169.287704,330.166107 171.326691,362.192841 188.711899,382.091278 
	C206.355606,402.285583 231.929840,400.800385 246.714508,378.160614 
M470.649384,296.894287 
	C470.482513,296.079529 470.258942,295.271759 470.156952,294.448975 
	C466.181763,262.383545 439.318176,244.768082 408.361206,253.936218 
	C401.285034,256.031891 399.251312,259.324524 400.423035,266.515564 
	C402.001099,276.199982 403.502838,285.896851 405.030884,295.589386 
	C407.776398,313.003662 410.462738,330.427460 413.287720,347.828796 
	C414.351532,354.381622 417.727844,357.428467 423.663849,356.877930 
	C443.378845,355.049408 465.609222,343.889069 470.393616,317.591919 
	C471.562408,311.167816 470.733093,304.380219 470.649384,296.894287 
M368.339081,349.930389 
	C365.601044,350.376862 362.863037,350.823364 359.707672,351.337891 
	C358.993988,346.796753 358.355133,342.726044 357.714325,338.655609 
	C357.074829,334.593506 356.433350,330.531769 355.740143,326.136414 
	C360.719543,325.106537 365.269806,324.280182 369.761261,323.207764 
	C375.550018,321.825592 378.599762,317.716949 377.612915,312.952667 
	C376.558350,307.861450 372.031006,305.181854 366.065460,306.226135 
	C361.854858,306.963226 357.667419,307.832611 352.985748,308.736359 
	C351.608215,300.080109 350.291931,291.808685 348.935120,283.282776 
	C358.954620,281.355255 368.424164,279.633606 377.846710,277.684967 
	C383.941437,276.424500 386.957733,272.341125 386.030945,267.161011 
	C385.131226,262.132355 380.540131,259.470123 374.502350,260.606903 
	C363.229858,262.729187 351.973175,264.934998 340.704712,267.078735 
	C332.064301,268.722473 329.654266,271.749634 331.015472,280.602142 
	C335.159424,307.551819 339.454834,334.478577 343.808929,361.395264 
	C344.989349,368.692657 348.481201,371.289307 355.599823,370.025055 
	C367.710510,367.874268 379.762512,365.392761 391.836700,363.037598 
	C392.483490,362.911469 393.124878,362.713196 393.739532,362.473450 
	C398.017395,360.804932 400.014008,357.612915 399.498718,353.101807 
	C399.004700,348.777161 395.344116,345.448761 390.763947,345.998322 
	C383.522125,346.867218 376.370941,348.491394 368.339081,349.930389 
M277.525818,354.934509 
	C273.778320,358.015137 272.801544,361.960693 275.158936,366.058105 
	C279.507233,373.615936 285.868073,378.887939 294.775330,379.958282 
	C317.277740,382.662323 333.838531,359.692657 325.072357,338.125702 
	C319.724457,324.968536 310.696564,319.797882 293.543549,320.067810 
	C287.621643,320.161011 283.754211,317.098633 282.120483,311.022675 
	C280.493683,304.972565 283.208282,297.935364 288.150818,295.389954 
	C292.316559,293.244598 296.828888,294.740509 301.110077,299.692841 
	C301.545654,300.196686 301.916687,300.760864 302.381866,301.233856 
	C305.746063,304.654633 310.569580,305.144623 314.136688,302.448334 
	C317.560669,299.860229 318.410248,295.368683 316.258331,291.231415 
	C309.654510,278.534729 293.359924,273.330109 280.548462,279.825348 
	C267.676117,286.351471 261.334381,301.381042 265.317474,315.921875 
	C269.235413,330.224762 280.847870,338.241089 296.057678,337.142517 
	C303.454926,336.608215 307.004761,338.953125 309.152344,345.792358 
	C311.065277,351.884369 308.465912,359.024902 303.314880,361.827698 
	C298.916656,364.220917 295.028442,362.918457 289.686798,356.938202 
	C286.362274,353.216187 282.658905,352.131226 277.525818,354.934509 
M44.074097,355.761230 
	C40.929077,376.015015 45.181427,394.124298 59.654240,409.233704 
	C72.662827,422.814514 93.675667,425.153687 108.383286,414.704590 
	C113.647751,410.964386 115.051208,405.862091 112.019783,401.483582 
	C109.099098,397.265015 104.263428,396.756500 98.760551,400.089203 
	C88.874100,406.076721 79.709183,405.042297 71.733498,396.668121 
	C61.368324,385.785034 58.569252,372.530457 61.452885,358.255798 
	C64.952377,340.932434 73.722221,334.736053 91.232513,335.979004 
	C96.125801,336.326355 99.982544,333.619537 100.874741,329.211761 
	C101.754402,324.865814 99.327248,320.513245 94.598152,319.210999 
	C81.647461,315.644745 69.885002,318.040771 59.714359,327.056335 
	C51.294006,334.520416 46.633873,344.101898 44.074097,355.761230 
M133.999756,333.429993 
	C133.085800,327.847168 132.522079,322.172882 131.099289,316.722900 
	C130.458603,314.268799 128.528900,311.145538 126.416779,310.341492 
	C123.900070,309.383453 120.167061,309.799805 117.669487,311.043518 
	C114.025711,312.858002 113.609024,316.797028 114.235359,320.691132 
	C116.190918,332.849457 118.118774,345.012268 120.037071,357.176544 
	C122.447975,372.464661 124.780983,387.765381 127.264557,403.041626 
	C128.377213,409.885406 132.001877,412.996063 138.073868,411.921417 
	C150.686691,409.689117 163.264191,407.235077 175.802811,404.616486 
	C180.867294,403.558838 183.693573,399.120636 182.816315,394.662994 
	C181.903931,390.026825 177.989746,387.172546 172.789871,387.740173 
	C169.327118,388.118195 165.917542,388.982239 162.483597,389.625732 
	C156.207062,390.801880 149.930115,391.975800 143.459274,393.186951 
	C140.254349,373.055878 137.169312,353.677979 133.999756,333.429993 
z"/>
<path fill="#FFFFFF" opacity="1.000000" stroke="none" 
	d="
M78.468658,513.000000 
	C86.964462,511.003754 95.898735,508.856842 104.901680,507.052612 
	C114.330643,505.162994 123.845070,503.703278 133.287323,501.875702 
	C149.910126,498.658295 166.506714,495.305328 183.113785,492.006653 
	C197.964874,489.056732 212.799057,486.018433 227.670364,483.174225 
	C244.155518,480.021362 260.696899,477.160767 277.173035,473.962860 
	C300.348816,469.464569 323.471283,464.691772 346.646698,460.191467 
	C363.122284,456.992218 379.666595,454.147156 396.145020,450.961853 
	C410.688385,448.150543 425.166870,445.004578 439.703735,442.158112 
	C454.090271,439.341125 468.551727,436.898621 482.912109,433.958588 
	C502.339844,429.981171 512.883545,409.516449 509.280518,393.068329 
	C506.281006,379.375305 505.154663,365.279877 502.963043,351.399872 
	C500.470093,335.611572 497.600891,319.882629 495.109039,304.094147 
	C492.918396,290.214294 491.153381,276.267273 488.962616,262.387451 
	C486.470612,246.598999 483.700378,230.854568 481.079468,215.086258 
	C479.688995,206.720566 478.866760,198.222534 476.887939,190.000885 
	C473.489716,175.881912 458.453278,166.040634 445.347961,167.998215 
	C437.138306,169.224518 428.959198,170.655197 420.069275,171.883331 
	C417.087311,169.167557 414.786987,166.576019 412.520294,163.955368 
	C402.049072,151.848663 391.627045,139.699112 381.108795,127.633430 
	C373.290649,118.665085 365.290405,109.855347 357.482513,100.878242 
	C347.304871,89.176537 337.236633,77.379654 327.122406,65.622803 
	C321.313660,58.870667 315.583954,52.048550 309.678192,45.382362 
	C303.547241,38.461987 297.246857,31.691708 290.985443,24.501087 
	C288.657013,18.019247 285.339417,12.436619 279.990540,8.668499 
	C275.670319,5.625041 270.688385,3.520861 266.000000,1.000001 
	C348.303162,1.000000 430.606323,1.000000 512.954712,1.000000 
	C512.954712,171.573944 512.954712,342.147888 512.954712,513.000000 
	C368.312561,513.000000 223.624939,513.000000 78.468658,513.000000 
z"/>
<path fill="#FFFFFF" opacity="1.000000" stroke="none" 
	d="
M83.941208,236.970016 
	C66.693253,240.311081 49.443951,243.645187 32.197773,246.995422 
	C18.646828,249.627838 6.375317,262.866028 6.155407,276.837799 
	C6.016114,285.687622 7.115040,294.608917 8.286091,303.414673 
	C9.876345,315.372650 12.057771,327.252258 14.001599,339.162872 
	C16.575815,354.936127 19.201889,370.700989 21.736176,386.480652 
	C23.548027,397.762085 25.202578,409.068726 27.005089,420.351715 
	C29.268913,434.522430 31.624966,448.678436 33.916393,462.844788 
	C35.296570,471.377533 36.311031,479.983734 38.058819,488.439301 
	C40.641151,500.932312 48.600594,508.679901 60.856224,512.655151 
	C41.010674,513.000000 21.021347,513.000000 1.016011,513.000000 
	C1.016011,342.435089 1.016011,171.870178 1.016011,1.000000 
	C83.353973,1.000000 165.708328,1.000000 248.337219,1.307387 
	C234.240723,6.271208 225.245117,15.638502 222.671082,31.076839 
	C209.431992,50.474060 196.489899,69.686440 183.528244,88.885597 
	C162.654327,119.804642 141.732788,150.691589 120.899223,181.637787 
	C108.512749,200.036667 96.256180,218.522995 83.941208,236.970016 
z"/>
<path fill="#A5A5A4" opacity="1.000000" stroke="none" 
	d="
M222.959335,30.886070 
	C225.245117,15.638502 234.240723,6.271208 248.805878,1.307387 
	C254.354935,1.000000 259.709869,1.000000 265.532410,1.000001 
	C270.688385,3.520861 275.670319,5.625041 279.990540,8.668499 
	C285.339417,12.436619 288.657013,18.019247 291.008850,24.931122 
	C293.106873,34.361492 292.065247,42.768925 289.045654,51.377449 
	C288.370056,52.691422 287.734467,53.641697 287.152191,54.623577 
	C277.844513,70.319511 256.656281,75.449272 241.510040,66.637962 
	C236.647781,63.809338 232.587845,59.601566 228.104279,55.648037 
	C224.928604,47.439831 222.242432,39.518005 222.959335,30.886070 
z"/>
<path fill="#FFFFFF" opacity="1.000000" stroke="none" 
	d="
M228.160843,56.024757 
	C232.587845,59.601566 236.647781,63.809338 241.510040,66.637962 
	C256.656281,75.449272 277.844513,70.319511 287.152191,54.623577 
	C287.734467,53.641697 288.370056,52.691422 289.347198,51.506729 
	C290.895569,52.459427 292.163666,53.557747 293.246124,54.815819 
	C303.152832,66.330093 312.963379,77.927711 322.931305,89.388535 
	C330.964233,98.624550 339.231659,107.656227 347.294617,116.866493 
	C358.175934,129.296173 369.000397,141.776184 379.771912,154.301117 
	C385.899719,161.426392 391.873444,168.684174 397.916534,175.882263 
	C386.118469,178.254318 374.325531,180.652451 362.520996,182.991760 
	C347.991791,185.871048 333.464386,188.761856 318.915314,191.538055 
	C298.600067,195.414566 278.254425,199.131866 257.942566,203.025711 
	C240.355682,206.397186 222.802231,209.942642 205.225739,213.368851 
	C188.607742,216.608231 171.970078,219.747223 155.357590,223.014420 
	C140.520782,225.932434 125.706535,228.965210 110.598488,231.598206 
	C119.629524,217.306503 128.908615,203.339859 138.267685,189.427032 
	C152.224442,168.679474 166.249756,147.978027 180.223618,127.241951 
	C196.215424,103.511459 212.182831,79.764542 228.160843,56.024757 
z"/>
<path fill="#CB9080" opacity="1.000000" stroke="none" 
	d="
M228.104279,55.648033 
	C212.182831,79.764542 196.215424,103.511459 180.223618,127.241951 
	C166.249756,147.978027 152.224442,168.679474 138.267685,189.427032 
	C128.908615,203.339859 119.629524,217.306503 110.199921,231.566208 
	C108.433067,233.706848 106.539894,235.366074 105.167458,237.380157 
	C95.331612,251.814392 85.673645,266.370361 75.766380,280.754883 
	C74.138550,283.118378 71.880173,285.554413 69.347023,286.662170 
	C66.008324,288.122192 62.370731,287.178528 59.959145,284.010956 
	C57.460316,280.728790 57.472519,277.210083 59.743336,273.791504 
	C65.266022,265.477386 70.855034,257.207397 76.389633,248.901154 
	C78.878525,245.165863 81.301262,241.386520 83.847610,237.298584 
	C96.256180,218.522995 108.512749,200.036667 120.899223,181.637787 
	C141.732788,150.691589 162.654327,119.804642 183.528244,88.885597 
	C196.489899,69.686440 209.431992,50.474060 222.671082,31.076839 
	C222.242432,39.518005 224.928604,47.439831 228.104279,55.648033 
z"/>
<path fill="#CB9080" opacity="1.000000" stroke="none" 
	d="
M398.250793,175.979736 
	C391.873444,168.684174 385.899719,161.426392 379.771912,154.301117 
	C369.000397,141.776184 358.175934,129.296173 347.294617,116.866493 
	C339.231659,107.656227 330.964233,98.624550 322.931305,89.388535 
	C312.963379,77.927711 303.152832,66.330093 293.246124,54.815819 
	C292.163666,53.557747 290.895569,52.459427 289.412018,51.157730 
	C292.065247,42.768925 293.106873,34.361492 291.043945,25.285831 
	C297.246857,31.691708 303.547241,38.461987 309.678192,45.382362 
	C315.583954,52.048550 321.313660,58.870667 327.122406,65.622803 
	C337.236633,77.379654 347.304871,89.176537 357.482513,100.878242 
	C365.290405,109.855347 373.290649,118.665085 381.108795,127.633430 
	C391.627045,139.699112 402.049072,151.848663 412.520294,163.955368 
	C414.786987,166.576019 417.087311,169.167557 419.664612,171.944046 
	C424.876068,178.120773 429.742401,184.170151 434.731934,190.116119 
	C438.252289,194.311310 442.048828,198.276611 445.524323,202.507019 
	C449.633911,207.509216 449.551300,212.367935 445.579407,215.763168 
	C441.651733,219.120621 436.658356,218.554169 432.429260,213.788101 
	C422.514404,202.614365 412.792603,191.269531 402.938049,180.041870 
	C401.651459,178.576019 400.043915,177.391830 398.250793,175.979736 
z"/>
<path fill="#FFFCFC" opacity="1.000000" stroke="none" 
	d="
M246.496643,378.454346 
	C231.929840,400.800385 206.355606,402.285583 188.711899,382.091278 
	C171.326691,362.192841 169.287704,330.166107 184.009918,308.236481 
	C195.590958,290.985840 218.208328,287.631073 234.117584,300.938965 
	C249.620316,313.906769 255.240112,331.099670 254.620544,350.696777 
	C254.312027,360.454681 251.973755,369.761871 246.496643,378.454346 
M212.393936,309.996277 
	C205.128357,310.196686 200.382889,314.306061 196.900208,320.185455 
	C187.616653,335.857849 190.759109,359.551819 203.759583,372.438049 
	C213.469238,382.062439 225.326355,380.777802 231.868347,368.721649 
	C240.156113,353.448273 239.169693,337.963318 230.515121,323.105225 
	C226.670837,316.505402 221.437027,311.145416 212.393936,309.996277 
z"/>
<path fill="#FFFDFC" opacity="1.000000" stroke="none" 
	d="
M470.735901,297.327026 
	C470.733093,304.380219 471.562408,311.167816 470.393616,317.591919 
	C465.609222,343.889069 443.378845,355.049408 423.663849,356.877930 
	C417.727844,357.428467 414.351532,354.381622 413.287720,347.828796 
	C410.462738,330.427460 407.776398,313.003662 405.030884,295.589386 
	C403.502838,285.896851 402.001099,276.199982 400.423035,266.515564 
	C399.251312,259.324524 401.285034,256.031891 408.361206,253.936218 
	C439.318176,244.768082 466.181763,262.383545 470.156952,294.448975 
	C470.258942,295.271759 470.482513,296.079529 470.735901,297.327026 
M429.045227,336.188019 
	C429.832123,336.727020 430.807953,337.884735 431.377228,337.710938 
	C438.358429,335.579681 444.547913,332.167755 448.656525,325.843994 
	C456.131165,314.339386 455.029572,301.918976 451.503937,289.728577 
	C447.010162,274.190704 432.977661,265.965240 418.608002,269.995911 
	C422.050568,291.738251 425.504150,313.550110 429.045227,336.188019 
z"/>
<path fill="#FFFCFC" opacity="1.000000" stroke="none" 
	d="
M368.760254,349.863159 
	C376.370941,348.491394 383.522125,346.867218 390.763947,345.998322 
	C395.344116,345.448761 399.004700,348.777161 399.498718,353.101807 
	C400.014008,357.612915 398.017395,360.804932 393.739532,362.473450 
	C393.124878,362.713196 392.483490,362.911469 391.836700,363.037598 
	C379.762512,365.392761 367.710510,367.874268 355.599823,370.025055 
	C348.481201,371.289307 344.989349,368.692657 343.808929,361.395264 
	C339.454834,334.478577 335.159424,307.551819 331.015472,280.602142 
	C329.654266,271.749634 332.064301,268.722473 340.704712,267.078735 
	C351.973175,264.934998 363.229858,262.729187 374.502350,260.606903 
	C380.540131,259.470123 385.131226,262.132355 386.030945,267.161011 
	C386.957733,272.341125 383.941437,276.424500 377.846710,277.684967 
	C368.424164,279.633606 358.954620,281.355255 348.935120,283.282776 
	C350.291931,291.808685 351.608215,300.080109 352.985748,308.736359 
	C357.667419,307.832611 361.854858,306.963226 366.065460,306.226135 
	C372.031006,305.181854 376.558350,307.861450 377.612915,312.952667 
	C378.599762,317.716949 375.550018,321.825592 369.761261,323.207764 
	C365.269806,324.280182 360.719543,325.106537 355.740143,326.136414 
	C356.433350,330.531769 357.074829,334.593506 357.714325,338.655609 
	C358.355133,342.726044 358.993988,346.796753 359.707672,351.337891 
	C362.863037,350.823364 365.601044,350.376862 368.760254,349.863159 
z"/>
<path fill="#FFFCFC" opacity="1.000000" stroke="none" 
	d="
M277.827118,354.695618 
	C282.658905,352.131226 286.362274,353.216187 289.686798,356.938202 
	C295.028442,362.918457 298.916656,364.220917 303.314880,361.827698 
	C308.465912,359.024902 311.065277,351.884369 309.152344,345.792358 
	C307.004761,338.953125 303.454926,336.608215 296.057678,337.142517 
	C280.847870,338.241089 269.235413,330.224762 265.317474,315.921875 
	C261.334381,301.381042 267.676117,286.351471 280.548462,279.825348 
	C293.359924,273.330109 309.654510,278.534729 316.258331,291.231415 
	C318.410248,295.368683 317.560669,299.860229 314.136688,302.448334 
	C310.569580,305.144623 305.746063,304.654633 302.381866,301.233856 
	C301.916687,300.760864 301.545654,300.196686 301.110077,299.692841 
	C296.828888,294.740509 292.316559,293.244598 288.150818,295.389954 
	C283.208282,297.935364 280.493683,304.972565 282.120483,311.022675 
	C283.754211,317.098633 287.621643,320.161011 293.543549,320.067810 
	C310.696564,319.797882 319.724457,324.968536 325.072357,338.125702 
	C333.838531,359.692657 317.277740,382.662323 294.775330,379.958282 
	C285.868073,378.887939 279.507233,373.615936 275.158936,366.058105 
	C272.801544,361.960693 273.778320,358.015137 277.827118,354.695618 
z"/>
<path fill="#FFFCFC" opacity="1.000000" stroke="none" 
	d="
M44.163891,355.346741 
	C46.633873,344.101898 51.294006,334.520416 59.714359,327.056335 
	C69.885002,318.040771 81.647461,315.644745 94.598152,319.210999 
	C99.327248,320.513245 101.754402,324.865814 100.874741,329.211761 
	C99.982544,333.619537 96.125801,336.326355 91.232513,335.979004 
	C73.722221,334.736053 64.952377,340.932434 61.452885,358.255798 
	C58.569252,372.530457 61.368324,385.785034 71.733498,396.668121 
	C79.709183,405.042297 88.874100,406.076721 98.760551,400.089203 
	C104.263428,396.756500 109.099098,397.265015 112.019783,401.483582 
	C115.051208,405.862091 113.647751,410.964386 108.383286,414.704590 
	C93.675667,425.153687 72.662827,422.814514 59.654240,409.233704 
	C45.181427,394.124298 40.929077,376.015015 44.163891,355.346741 
z"/>
<path fill="#FFFCFC" opacity="1.000000" stroke="none" 
	d="
M134.042023,333.865021 
	C137.169312,353.677979 140.254349,373.055878 143.459274,393.186951 
	C149.930115,391.975800 156.207062,390.801880 162.483597,389.625732 
	C165.917542,388.982239 169.327118,388.118195 172.789871,387.740173 
	C177.989746,387.172546 181.903931,390.026825 182.816315,394.662994 
	C183.693573,399.120636 180.867294,403.558838 175.802811,404.616486 
	C163.264191,407.235077 150.686691,409.689117 138.073868,411.921417 
	C132.001877,412.996063 128.377213,409.885406 127.264557,403.041626 
	C124.780983,387.765381 122.447975,372.464661 120.037071,357.176544 
	C118.118774,345.012268 116.190918,332.849457 114.235359,320.691132 
	C113.609024,316.797028 114.025711,312.858002 117.669487,311.043518 
	C120.167061,309.799805 123.900070,309.383453 126.416779,310.341492 
	C128.528900,311.145538 130.458603,314.268799 131.099289,316.722900 
	C132.522079,322.172882 133.085800,327.847168 134.042023,333.865021 
z"/>
<path fill="#E64D3D" opacity="1.000000" stroke="none" 
	d="
M212.801331,310.035645 
	C221.437027,311.145416 226.670837,316.505402 230.515121,323.105225 
	C239.169693,337.963318 240.156113,353.448273 231.868347,368.721649 
	C225.326355,380.777802 213.469238,382.062439 203.759583,372.438049 
	C190.759109,359.551819 187.616653,335.857849 196.900208,320.185455 
	C200.382889,314.306061 205.128357,310.196686 212.801331,310.035645 
z"/>
<path fill="#E64E3E" opacity="1.000000" stroke="none" 
	d="
M429.001465,335.774994 
	C425.504150,313.550110 422.050568,291.738251 418.608002,269.995911 
	C432.977661,265.965240 447.010162,274.190704 451.503937,289.728577 
	C455.029572,301.918976 456.131165,314.339386 448.656525,325.843994 
	C444.547913,332.167755 438.358429,335.579681 431.377228,337.710938 
	C430.807953,337.884735 429.832123,336.727020 429.001465,335.774994 
z"/>
</svg>