<svg version="1.1" id="Layer_1" xmlns="http://www.w3.org/2000/svg" xmlns:xlink="http://www.w3.org/1999/xlink" x="0px" y="0px"
	 width="100%" viewBox="0 0 512 512" enable-background="new 0 0 512 512" xml:space="preserve">
<path fill="#000000" opacity="1.000000" stroke="none" 
	d="
M280.000000,513.000000 
	C186.689316,513.000000 93.878632,513.000000 1.033972,513.000000 
	C1.033972,342.397614 1.033972,171.795242 1.033972,1.096426 
	C171.560699,1.096426 342.121490,1.096426 512.841125,1.096426 
	C512.841125,171.666550 512.841125,342.333252 512.841125,513.000000 
	C435.461884,513.000000 357.980927,513.000000 280.000000,513.000000 
M458.995819,380.527466 
	C454.667908,366.205811 450.280121,351.901611 446.101349,337.536560 
	C445.666016,336.039978 446.068359,333.991882 446.766418,332.525452 
	C450.189758,325.334106 454.146088,318.386169 457.362030,311.108276 
	C467.532471,288.092072 474.435547,264.397491 472.061279,238.761383 
	C470.226501,218.950150 462.564667,201.700974 448.849213,187.561661 
	C433.198395,171.427231 413.923279,163.256577 391.089020,163.962311 
	C367.458710,164.692688 348.558441,174.847092 333.483307,192.495438 
	C330.809021,195.626175 328.355682,197.088501 324.306671,197.071930 
	C295.142395,196.952545 265.977417,197.012161 236.812637,196.997147 
	C235.238449,196.996338 233.664368,196.834900 231.530746,196.717438 
	C232.337112,193.971146 233.088043,191.964157 233.508881,189.890152 
	C236.044006,177.396271 240.016418,164.965149 240.666916,152.366318 
	C241.941360,127.683914 233.852188,105.959724 215.281937,88.773369 
	C197.867798,72.656967 177.260376,66.982468 154.139526,70.553345 
	C136.744278,73.239929 122.584976,81.910385 111.073555,95.315277 
	C98.847832,109.551979 92.875977,126.090958 92.074715,144.539810 
	C91.166885,165.442383 97.056496,184.930267 105.316513,203.872192 
	C106.208511,205.917740 106.416565,208.758224 105.791771,210.893417 
	C97.483917,239.284836 88.991493,267.622375 80.503448,295.960876 
	C67.294846,340.059631 54.071510,384.153992 40.817337,428.239014 
	C36.666031,442.046814 38.770084,444.987122 53.070877,444.987244 
	C189.062027,444.988312 325.053162,444.987915 461.044312,444.987061 
	C462.544189,444.987061 464.046539,445.029541 465.543488,444.960175 
	C473.901520,444.572845 476.722137,440.992584 474.419861,432.950378 
	C469.480774,415.697449 464.290863,398.516388 458.995819,380.527466 
z"/>
<path fill="#1F3040" opacity="1.000000" stroke="none" 
	d="
M459.099731,380.916687 
	C464.290863,398.516388 469.480774,415.697449 474.419861,432.950378 
	C476.722137,440.992584 473.901520,444.572845 465.543488,444.960175 
	C464.046539,445.029541 462.544189,444.987061 461.044312,444.987061 
	C325.053162,444.987915 189.062027,444.988312 53.070877,444.987244 
	C38.770084,444.987122 36.666031,442.046814 40.817337,428.239014 
	C54.071510,384.153992 67.294846,340.059631 80.503448,295.960876 
	C88.991493,267.622375 97.483917,239.284836 105.791771,210.893417 
	C106.416565,208.758224 106.208511,205.917740 105.316513,203.872192 
	C97.056496,184.930267 91.166885,165.442383 92.074715,144.539810 
	C92.875977,126.090958 98.847832,109.551979 111.073555,95.315277 
	C122.584976,81.910385 136.744278,73.239929 154.139526,70.553345 
	C177.260376,66.982468 197.867798,72.656967 215.281937,88.773369 
	C233.852188,105.959724 241.941360,127.683914 240.666916,152.366318 
	C240.016418,164.965149 236.044006,177.396271 233.508881,189.890152 
	C233.088043,191.964157 232.337112,193.971146 231.530746,196.717438 
	C233.664368,196.834900 235.238449,196.996338 236.812637,196.997147 
	C265.977417,197.012161 295.142395,196.952545 324.306671,197.071930 
	C328.355682,197.088501 330.809021,195.626175 333.483307,192.495438 
	C348.558441,174.847092 367.458710,164.692688 391.089020,163.962311 
	C413.923279,163.256577 433.198395,171.427231 448.849213,187.561661 
	C462.564667,201.700974 470.226501,218.950150 472.061279,238.761383 
	C474.435547,264.397491 467.532471,288.092072 457.362030,311.108276 
	C454.146088,318.386169 450.189758,325.334106 446.766418,332.525452 
	C446.068359,333.991882 445.666016,336.039978 446.101349,337.536560 
	C450.280121,351.901611 454.667908,366.205811 459.099731,380.916687 
M339.467316,328.018585 
	C333.838104,315.599243 327.562073,303.425446 322.731781,290.702789 
	C315.543030,271.768341 312.467651,252.049194 316.109650,231.831635 
	C317.364258,224.866974 319.760712,218.108002 321.750854,210.833649 
	C314.747223,210.557877 307.984924,209.425323 301.873199,214.626694 
	C295.032928,220.448135 287.630066,225.604507 280.542847,231.140930 
	C273.201141,236.876129 268.234436,243.784256 269.754913,253.801331 
	C269.949707,255.084686 269.655273,256.459412 269.484802,257.778503 
	C266.795166,278.593109 257.704071,295.691010 239.216034,306.400940 
	C225.198227,314.521210 214.677948,324.486359 209.721649,340.755920 
	C206.126465,352.557495 196.008591,359.553040 183.758698,361.805481 
	C176.954575,363.056610 169.850006,363.027679 162.884872,362.980621 
	C144.399216,362.855682 128.928787,368.453583 116.814110,383.373047 
	C105.265335,397.595612 96.052986,413.092041 87.859367,429.324615 
	C87.685471,429.669128 87.917938,430.218811 87.949181,430.549500 
	C211.644302,430.549500 335.199371,430.549500 459.474518,430.549500 
	C451.453247,403.676880 443.592072,377.340515 435.490601,350.199249 
	C427.134460,361.278503 419.394745,371.540527 411.239227,382.353760 
	C413.416748,382.483154 415.008850,382.639832 416.602783,382.660645 
	C421.101288,382.719391 425.606018,382.593170 430.097717,382.786346 
	C434.023987,382.955170 436.305359,385.251465 436.357208,389.166992 
	C436.409454,393.115814 434.000946,395.212433 430.222351,395.786316 
	C429.242065,395.935181 428.226898,395.875671 427.227753,395.875824 
	C404.730164,395.879852 382.232544,395.882111 359.734955,395.870392 
	C358.406158,395.869690 357.030640,395.946014 355.757629,395.644958 
	C352.247192,394.814758 350.129974,392.482269 350.349701,388.869995 
	C350.566284,385.309174 352.726746,382.954407 356.450073,382.807190 
	C361.442078,382.609741 366.445953,382.729279 371.443878,382.654724 
	C372.807007,382.634369 374.166992,382.406097 374.797211,382.344574 
	C363.066559,364.323975 351.455719,346.487396 339.467316,328.018585 
M140.723206,261.762146 
	C132.543335,249.737808 124.363449,237.713486 115.962845,225.364685 
	C95.468697,293.810394 75.027733,362.078461 54.415043,430.920074 
	C59.656658,430.920074 64.008606,431.236969 68.276009,430.774261 
	C70.154625,430.570557 72.522118,429.201172 73.519547,427.631500 
	C76.276497,423.292694 78.384850,418.546051 80.827835,414.002686 
	C90.893173,395.283600 102.209763,377.521851 118.483238,363.381256 
	C125.475121,357.305725 133.232178,352.959686 142.455841,352.028625 
	C152.372192,351.027649 162.342712,350.330780 172.304520,350.068970 
	C186.321747,349.700592 194.393448,344.498688 199.579605,331.632202 
	C201.072189,327.929199 202.635986,324.251190 204.000748,320.501190 
	C206.196671,314.467316 210.057358,309.911835 215.465836,306.477203 
	C221.368668,302.728699 227.068222,298.660858 232.956238,294.888092 
	C248.572250,284.882080 256.324402,270.229034 256.281525,252.118286 
	C256.251862,239.586166 261.103699,230.336151 270.257629,222.644348 
	C274.654236,218.950027 279.052887,215.258163 283.726074,211.333862 
	C282.809326,210.965179 282.388184,210.648331 281.966339,210.647385 
	C263.804199,210.606491 245.641159,210.519302 227.481277,210.717178 
	C226.013992,210.733170 223.927094,212.409622 223.209091,213.852402 
	C213.137558,234.090790 200.486603,252.609787 186.265045,270.111542 
	C185.512314,271.037872 184.974594,272.138885 183.967712,273.748688 
	C188.898834,273.748688 193.035919,273.740936 197.172989,273.750458 
	C203.992096,273.766113 206.948212,275.703064 207.006516,280.176300 
	C207.066422,284.771759 203.854568,286.915375 196.859695,286.921051 
	C187.195038,286.928925 177.530365,286.923279 167.865707,286.923340 
	C157.201248,286.923401 146.536804,286.925903 135.872345,286.920044 
	C134.540100,286.919312 133.181503,287.034149 131.880661,286.819489 
	C128.135452,286.201447 125.763237,284.122314 125.874695,280.116547 
	C125.985153,276.146698 128.275848,273.940308 132.188812,273.831726 
	C137.710846,273.678406 143.240326,273.792877 149.904251,273.792877 
	C146.367294,269.186981 143.743423,265.770111 140.723206,261.762146 
M453.110870,218.462021 
	C441.903351,194.063782 423.564728,179.121735 396.238983,177.805038 
	C369.930969,176.537384 350.501038,189.005005 337.386627,211.245255 
	C325.560455,231.300873 325.821106,252.833771 331.590515,274.631592 
	C339.024353,302.718079 353.270752,327.480988 369.713226,351.064850 
	C377.093781,361.651001 385.149994,371.766144 393.169556,382.454803 
	C397.358307,377.512543 401.010071,373.407135 404.439728,369.123901 
	C425.380829,342.971069 443.547302,315.195648 453.354004,282.774567 
	C459.743652,261.650360 462.066559,240.377121 453.110870,218.462021 
M113.969116,188.471832 
	C126.183479,219.699280 144.880112,246.873199 166.091858,272.561829 
	C166.817917,272.079834 167.299271,271.887299 167.603958,271.539856 
	C187.822433,248.484085 205.245789,223.586121 216.916855,195.058167 
	C224.702255,176.028122 229.310684,156.412521 226.015030,135.600266 
	C221.356827,106.183327 196.025009,83.465858 167.283569,83.083908 
	C138.313675,82.698921 112.325905,104.868401 107.000259,134.403214 
	C103.664406,152.903091 107.313805,170.481857 113.969116,188.471832 
z"/>
<path fill="#19CEB9" opacity="1.000000" stroke="none" 
	d="
M339.656067,328.334717 
	C351.455719,346.487396 363.066559,364.323975 374.797211,382.344574 
	C374.166992,382.406097 372.807007,382.634369 371.443878,382.654724 
	C366.445953,382.729279 361.442078,382.609741 356.450073,382.807190 
	C352.726746,382.954407 350.566284,385.309174 350.349701,388.869995 
	C350.129974,392.482269 352.247192,394.814758 355.757629,395.644958 
	C357.030640,395.946014 358.406158,395.869690 359.734955,395.870392 
	C382.232544,395.882111 404.730164,395.879852 427.227753,395.875824 
	C428.226898,395.875671 429.242065,395.935181 430.222351,395.786316 
	C434.000946,395.212433 436.409454,393.115814 436.357208,389.166992 
	C436.305359,385.251465 434.023987,382.955170 430.097717,382.786346 
	C425.606018,382.593170 421.101288,382.719391 416.602783,382.660645 
	C415.008850,382.639832 413.416748,382.483154 411.239227,382.353760 
	C419.394745,371.540527 427.134460,361.278503 435.490601,350.199249 
	C443.592072,377.340515 451.453247,403.676880 459.474518,430.549500 
	C335.199371,430.549500 211.644302,430.549500 87.949181,430.549500 
	C87.917938,430.218811 87.685471,429.669128 87.859367,429.324615 
	C96.052986,413.092041 105.265335,397.595612 116.814110,383.373047 
	C128.928787,368.453583 144.399216,362.855682 162.884872,362.980621 
	C169.850006,363.027679 176.954575,363.056610 183.758698,361.805481 
	C196.008591,359.553040 206.126465,352.557495 209.721649,340.755920 
	C214.677948,324.486359 225.198227,314.521210 239.216034,306.400940 
	C257.704071,295.691010 266.795166,278.593109 269.484802,257.778503 
	C269.655273,256.459412 269.949707,255.084686 269.754913,253.801331 
	C268.234436,243.784256 273.201141,236.876129 280.542847,231.140930 
	C287.630066,225.604507 295.032928,220.448135 301.873199,214.626694 
	C307.984924,209.425323 314.747223,210.557877 321.750854,210.833649 
	C319.760712,218.108002 317.364258,224.866974 316.109650,231.831635 
	C312.467651,252.049194 315.543030,271.768341 322.731781,290.702789 
	C327.562073,303.425446 333.838104,315.599243 339.656067,328.334717 
z"/>
<path fill="#60B6FD" opacity="1.000000" stroke="none" 
	d="
M140.921387,262.057678 
	C143.743423,265.770111 146.367294,269.186981 149.904251,273.792877 
	C143.240326,273.792877 137.710846,273.678406 132.188812,273.831726 
	C128.275848,273.940308 125.985153,276.146698 125.874695,280.116547 
	C125.763237,284.122314 128.135452,286.201447 131.880661,286.819489 
	C133.181503,287.034149 134.540100,286.919312 135.872345,286.920044 
	C146.536804,286.925903 157.201248,286.923401 167.865707,286.923340 
	C177.530365,286.923279 187.195038,286.928925 196.859695,286.921051 
	C203.854568,286.915375 207.066422,284.771759 207.006516,280.176300 
	C206.948212,275.703064 203.992096,273.766113 197.172989,273.750458 
	C193.035919,273.740936 188.898834,273.748688 183.967712,273.748688 
	C184.974594,272.138885 185.512314,271.037872 186.265045,270.111542 
	C200.486603,252.609787 213.137558,234.090790 223.209091,213.852402 
	C223.927094,212.409622 226.013992,210.733170 227.481277,210.717178 
	C245.641159,210.519302 263.804199,210.606491 281.966339,210.647385 
	C282.388184,210.648331 282.809326,210.965179 283.726074,211.333862 
	C279.052887,215.258163 274.654236,218.950027 270.257629,222.644348 
	C261.103699,230.336151 256.251862,239.586166 256.281525,252.118286 
	C256.324402,270.229034 248.572250,284.882080 232.956238,294.888092 
	C227.068222,298.660858 221.368668,302.728699 215.465836,306.477203 
	C210.057358,309.911835 206.196671,314.467316 204.000748,320.501190 
	C202.635986,324.251190 201.072189,327.929199 199.579605,331.632202 
	C194.393448,344.498688 186.321747,349.700592 172.304520,350.068970 
	C162.342712,350.330780 152.372192,351.027649 142.455841,352.028625 
	C133.232178,352.959686 125.475121,357.305725 118.483238,363.381256 
	C102.209763,377.521851 90.893173,395.283600 80.827835,414.002686 
	C78.384850,418.546051 76.276497,423.292694 73.519547,427.631500 
	C72.522118,429.201172 70.154625,430.570557 68.276009,430.774261 
	C64.008606,431.236969 59.656658,430.920074 54.415043,430.920074 
	C75.027733,362.078461 95.468697,293.810394 115.962845,225.364685 
	C124.363449,237.713486 132.543335,249.737808 140.921387,262.057678 
z"/>
<path fill="#FEBE31" opacity="1.000000" stroke="none" 
	d="
M453.261047,218.815735 
	C462.066559,240.377121 459.743652,261.650360 453.354004,282.774567 
	C443.547302,315.195648 425.380829,342.971069 404.439728,369.123901 
	C401.010071,373.407135 397.358307,377.512543 393.169556,382.454803 
	C385.149994,371.766144 377.093781,361.651001 369.713226,351.064850 
	C353.270752,327.480988 339.024353,302.718079 331.590515,274.631592 
	C325.821106,252.833771 325.560455,231.300873 337.386627,211.245255 
	C350.501038,189.005005 369.930969,176.537384 396.238983,177.805038 
	C423.564728,179.121735 441.903351,194.063782 453.261047,218.815735 
M364.033295,270.466675 
	C374.470642,280.485901 386.769104,284.514648 401.113190,282.032196 
	C422.787598,278.281128 437.361481,257.283569 434.006042,234.610992 
	C430.920410,213.761414 410.163055,197.953125 389.224457,200.604523 
	C372.756073,202.689865 361.001801,211.376099 355.041351,226.840073 
	C348.907379,242.754089 352.285767,257.237946 364.033295,270.466675 
z"/>
<path fill="#F86D84" opacity="1.000000" stroke="none" 
	d="
M113.847382,188.101822 
	C107.313805,170.481857 103.664406,152.903091 107.000259,134.403214 
	C112.325905,104.868401 138.313675,82.698921 167.283569,83.083908 
	C196.025009,83.465858 221.356827,106.183327 226.015030,135.600266 
	C229.310684,156.412521 224.702255,176.028122 216.916855,195.058167 
	C205.245789,223.586121 187.822433,248.484085 167.603958,271.539856 
	C167.299271,271.887299 166.817917,272.079834 166.091858,272.561829 
	C144.880112,246.873199 126.183479,219.699280 113.847382,188.101822 
M138.174896,115.683708 
	C137.417877,116.569115 136.627869,117.428612 135.908737,118.343796 
	C124.629982,132.697510 124.720589,152.776382 136.117630,166.849319 
	C147.592651,181.018539 167.258621,185.375549 183.486984,177.344025 
	C200.061157,169.141357 208.529144,150.897141 204.075150,132.986984 
	C196.762268,103.580788 161.489410,93.973572 138.174896,115.683708 
z"/>
<path fill="#213240" opacity="1.000000" stroke="none" 
	d="
M363.787292,270.207367 
	C352.285767,257.237946 348.907379,242.754089 355.041351,226.840073 
	C361.001801,211.376099 372.756073,202.689865 389.224457,200.604523 
	C410.163055,197.953125 430.920410,213.761414 434.006042,234.610992 
	C437.361481,257.283569 422.787598,278.281128 401.113190,282.032196 
	C386.769104,284.514648 374.470642,280.485901 363.787292,270.207367 
M420.206207,249.349625 
	C420.350281,248.871140 420.536438,248.400925 420.632355,247.912979 
	C422.994995,235.895050 418.518646,224.653595 408.821594,218.227936 
	C399.470306,212.031387 387.037750,212.098312 377.710419,218.395432 
	C368.359039,224.708786 363.817566,235.882004 366.005585,247.192413 
	C368.320770,259.160187 378.502075,268.161865 391.119812,269.396973 
	C403.779572,270.636139 414.936493,263.197510 420.206207,249.349625 
z"/>
<path fill="#203040" opacity="1.000000" stroke="none" 
	d="
M138.421234,115.427864 
	C161.489410,93.973572 196.762268,103.580788 204.075150,132.986984 
	C208.529144,150.897141 200.061157,169.141357 183.486984,177.344025 
	C167.258621,185.375549 147.592651,181.018539 136.117630,166.849319 
	C124.720589,152.776382 124.629982,132.697510 135.908737,118.343796 
	C136.627869,117.428612 137.417877,116.569115 138.421234,115.427864 
M146.163742,158.262344 
	C155.210342,168.370239 167.504044,170.959885 178.488998,165.071625 
	C188.675369,159.611435 194.132599,147.828690 191.385178,136.818756 
	C188.713181,126.110939 181.861359,119.268776 171.062683,117.307350 
	C160.314484,115.355080 151.195816,118.990013 145.132492,128.255707 
	C138.749619,138.009735 139.206696,147.994995 146.163742,158.262344 
z"/>
<path fill="#4186B4" opacity="1.000000" stroke="none" 
	d="
M420.099487,249.748093 
	C414.936493,263.197510 403.779572,270.636139 391.119812,269.396973 
	C378.502075,268.161865 368.320770,259.160187 366.005585,247.192413 
	C363.817566,235.882004 368.359039,224.708786 377.710419,218.395432 
	C387.037750,212.098312 399.470306,212.031387 408.821594,218.227936 
	C418.518646,224.653595 422.994995,235.895050 420.632355,247.912979 
	C420.536438,248.400925 420.350281,248.871140 420.099487,249.748093 
z"/>
<path fill="#4186B4" opacity="1.000000" stroke="none" 
	d="
M145.951508,157.966309 
	C139.206696,147.994995 138.749619,138.009735 145.132492,128.255707 
	C151.195816,118.990013 160.314484,115.355080 171.062683,117.307350 
	C181.861359,119.268776 188.713181,126.110939 191.385178,136.818756 
	C194.132599,147.828690 188.675369,159.611435 178.488998,165.071625 
	C167.504044,170.959885 155.210342,168.370239 145.951508,157.966309 
z"/>
</svg>