<?xml version="1.0" encoding="UTF-8"?>
<svg version="1.1" xmlns="http://www.w3.org/2000/svg" width="512" height="512">
<path d="M0 0 C15.03107781 14.30668851 23.54690616 33.77100547 24.671875 54.453125 C24.96398104 69.28212848 22.73809096 83.16959571 18.3515625 97.32421875 C17.9349939 98.68951721 17.9349939 98.68951721 17.51000977 100.08239746 C16.83396516 102.29589834 16.1535033 104.50793093 15.46875 106.71875 C28.05581084 106.99748746 40.6421311 107.21035673 53.23165607 107.34049606 C59.07848357 107.40297687 64.92319134 107.48763378 70.76879883 107.62402344 C76.41649691 107.75496221 82.06216427 107.8262717 87.71126366 107.85727692 C89.86000722 107.87935381 92.00864652 107.92246962 94.15651894 107.98751068 C106.36725754 108.79406622 106.36725754 108.79406622 117.14193726 104.11682129 C119.97891128 101.26075326 122.18266674 98.02650104 124.46875 94.71875 C139.30851781 80.29162438 159.34142097 74.01551652 179.67919922 74.25 C201.61423388 75.01838655 220.11456723 84.65963443 235.15625 100.46875 C247.85431679 115.14308121 255.36199954 133.33384807 256.46875 152.71875 C256.54802734 153.92917969 256.54802734 153.92917969 256.62890625 155.1640625 C257.54036624 182.98340656 247.80791393 209.77470601 235.30078125 234.16015625 C234.99479004 234.76746582 234.68879883 235.37477539 234.37353516 236.00048828 C233.54194947 237.57973816 232.60895988 239.10448548 231.66796875 240.62109375 C228.21218546 249.54759586 233.75287927 261.07716553 236.421875 269.84375 C236.92482763 271.51631155 237.42707292 273.18908595 237.9286499 274.86206055 C239.24823063 279.25682333 240.5770128 283.64874952 241.90789795 288.0401001 C243.24467105 292.45613029 244.57332796 296.874599 245.90234375 301.29296875 C247.6376517 307.06098099 249.37487105 312.82838955 251.1205864 318.59326172 C251.57284535 320.09183145 252.02256719 321.5911695 252.46959305 323.09130859 C253.59717921 326.87244024 254.76136072 330.6353231 255.99206543 334.38427734 C256.3556547 335.52578499 256.3556547 335.52578499 256.7265892 336.69035339 C257.18441037 338.12689414 257.65653795 339.55899134 258.14599991 340.98506165 C259.6655442 345.83764686 259.5949082 349.08474382 257.46875 353.71875 C253.43707881 355.94402911 249.7875355 355.96928319 245.24571228 355.97043228 C244.5255706 355.97333916 243.80542892 355.97624604 243.06346476 355.97924101 C240.64370626 355.98655588 238.22420014 355.97959077 235.80444336 355.97271729 C234.05477487 355.97502113 232.30510735 355.97819714 230.55544186 355.98217177 C225.74209815 355.9905389 220.92883351 355.9863858 216.11548948 355.98019934 C210.92660702 355.97568369 205.73773838 355.98265419 200.54885864 355.98815918 C190.38170991 355.99706432 180.21459067 355.99512618 170.04744077 355.9893339 C161.78625321 355.98482182 153.52507393 355.98420254 145.2638855 355.98638153 C144.0892534 355.986688 142.91462129 355.98699446 141.70439428 355.98731022 C139.3183426 355.98794965 136.93229093 355.98859808 134.54623926 355.9892554 C112.15879413 355.99496198 89.77136537 355.98839566 67.38392293 355.97765467 C48.16381803 355.96871886 28.94373728 355.97027081 9.72363281 355.97949219 C-12.58231091 355.99018903 -34.88824028 355.99441262 -57.19418621 355.98826766 C-59.57158597 355.98763054 -61.94898573 355.9870018 -64.3263855 355.98638153 C-65.49618975 355.98607298 -66.66599401 355.98576443 -67.87124687 355.98544653 C-76.12495299 355.98371783 -84.37865003 355.98663845 -92.63235474 355.99134064 C-102.68734829 355.99694296 -112.74231061 355.99544669 -122.79730058 355.98477915 C-127.92999761 355.9795137 -133.06264252 355.97748054 -138.1953392 355.98407745 C-142.89057764 355.99002096 -147.58571544 355.98678829 -152.28094471 355.97612235 C-153.98275619 355.97388152 -155.68457612 355.97503983 -157.38638222 355.97987393 C-159.69378097 355.98592731 -162.00083189 355.97974612 -164.30821228 355.97043228 C-165.59161468 355.97010758 -166.87501707 355.96978287 -168.19731045 355.96944833 C-171.46450637 355.72376884 -173.6681843 355.29297477 -176.53125 353.71875 C-179.30434348 347.84305507 -178.20506651 343.71312311 -176.34448242 337.84741211 C-176.08500226 336.97722663 -175.8255221 336.10704115 -175.5581789 335.21048641 C-174.68541399 332.30001117 -173.78606831 329.39845428 -172.88671875 326.49609375 C-172.25455763 324.40708971 -171.62410737 322.3175673 -170.99523926 320.22756958 C-169.63690202 315.7261297 -168.26684277 311.22848945 -166.88754272 306.73342896 C-164.70268839 299.6128716 -162.54330751 292.48475383 -160.38793945 285.35522461 C-157.54722681 275.96577472 -154.69794444 266.57897236 -151.84125459 257.19437277 C-145.00373444 234.72980092 -138.25343618 212.23911852 -131.50882435 189.74650288 C-129.33194958 182.48761142 -127.1506628 175.23006752 -124.96505547 167.97380066 C-123.60107299 163.44417802 -122.23929173 158.91389546 -120.87794495 154.38348007 C-120.2481172 152.28920246 -119.61737022 150.19520104 -118.98561096 148.10150528 C-117.13945014 141.98195467 -115.31302378 135.85737767 -113.53125 129.71875 C-113.16628922 128.4628154 -112.80132843 127.2068808 -112.42530823 125.91288757 C-112.13639206 124.85398819 -111.84747589 123.79508881 -111.54980469 122.70410156 C-111.31372498 121.84488098 -111.07764526 120.9856604 -110.83441162 120.10040283 C-110.24078878 115.43687212 -112.16722017 111.55921277 -114.09375 107.40625 C-114.86359227 105.58044239 -115.62790364 103.75229303 -116.38671875 101.921875 C-116.94625244 100.59639648 -116.94625244 100.59639648 -117.51708984 99.24414062 C-119.79600103 93.56935553 -121.19742461 87.67884346 -122.53125 81.71875 C-122.75554687 80.77902344 -122.97984375 79.83929688 -123.2109375 78.87109375 C-127.71238583 56.94965701 -124.32904773 33.15352405 -112.24609375 14.18359375 C-100.70605954 -2.40356248 -85.23525459 -14.66194516 -65.17578125 -18.82421875 C-64.30308594 -18.97503906 -63.43039063 -19.12585938 -62.53125 -19.28125 C-61.81324219 -19.42175781 -61.09523438 -19.56226562 -60.35546875 -19.70703125 C-38.07677671 -23.18938801 -16.39105954 -14.77218946 0 0 Z " fill="#1F3040" transform="translate(215.53125,88.28125)"/>
<path d="M0 0 C1.03930664 0.02030273 1.03930664 0.02030273 2.09960938 0.04101562 C3.79591265 0.07611155 5.49181136 0.12991057 7.1875 0.1875 C6.99414062 0.82816406 6.80078125 1.46882812 6.6015625 2.12890625 C6.05970235 3.92884766 5.52079737 5.72968054 4.984375 7.53125 C4.36093048 9.60939841 3.71584987 11.68105876 3.0625 13.75 C-6.89852987 52.88261734 10.84384194 93.40541972 30.33984375 126.47265625 C33.76403158 132.18566115 37.3462685 137.74323488 41.1875 143.1875 C41.56583984 143.72890625 41.94417969 144.2703125 42.33398438 144.828125 C47.40381518 152.07773813 52.62156967 159.18535028 58.14013672 166.10131836 C61.1875 169.97347182 61.1875 169.97347182 61.1875 172.1875 C60.21139771 172.20937378 60.21139771 172.20937378 59.21557617 172.23168945 C56.26811694 172.30614549 53.32179358 172.40281266 50.375 172.5 C49.35083984 172.52255859 48.32667969 172.54511719 47.27148438 172.56835938 C46.28857422 172.60380859 45.30566406 172.63925781 44.29296875 172.67578125 C42.93401489 172.71505737 42.93401489 172.71505737 41.54760742 172.75512695 C38.76798026 173.26435626 37.80569359 173.8908072 36.1875 176.1875 C36.41080713 179.83484979 36.57122835 181.57122835 39.1875 184.1875 C41.6708575 184.38573697 44.04268327 184.46030817 46.52709961 184.44628906 C47.66147713 184.45154602 47.66147713 184.45154602 48.81877136 184.45690918 C51.32588809 184.46573236 53.83272401 184.45987478 56.33984375 184.453125 C58.07857823 184.45447162 59.81731234 184.45641213 61.55604553 184.45892334 C65.20365985 184.46187551 68.85117633 184.45757452 72.4987793 184.44824219 C77.17757183 184.43685604 81.85613471 184.44340119 86.53491879 184.45538712 C90.12681308 184.46261044 93.71865285 184.46031547 97.31054878 184.45513153 C99.03575225 184.4537959 100.76096065 184.45543972 102.48615837 184.46009064 C104.89707442 184.4651627 107.30761761 184.45743583 109.71850586 184.44628906 C110.43393555 184.45033752 111.14936523 184.45438599 111.88647461 184.45855713 C115.5478223 184.42715404 117.05235776 184.27759483 120.1875 182.1875 C120.1875 179.2175 120.1875 176.2475 120.1875 173.1875 C112.2675 172.8575 104.3475 172.5275 96.1875 172.1875 C97.63912322 169.28425357 98.67374366 167.40545269 100.65625 165.0078125 C101.14061523 164.41492432 101.62498047 163.82203613 102.12402344 163.21118164 C102.6399707 162.5846167 103.15591797 161.95805176 103.6875 161.3125 C109.5090838 154.15259049 114.91512288 146.75779369 120.1875 139.1875 C122.27798455 142.32322683 123.11148084 144.84334082 124.17578125 148.4453125 C124.54985107 149.70230957 124.9239209 150.95930664 125.30932617 152.25439453 C125.70632966 153.60706342 126.10321868 154.95976592 126.5 156.3125 C126.90881964 157.6926764 127.31808221 159.07272169 127.7277832 160.45263672 C128.88713085 164.3624744 130.0379993 168.27475614 131.1875 172.1875 C131.68478368 173.87503305 132.18215788 175.56253944 132.6796875 177.25 C133.26719673 179.24503529 133.85387059 181.24029717 134.43798828 183.23632812 C136.30379762 189.61023108 138.21656365 195.96993642 140.13354492 202.32861328 C140.60459636 203.89326232 141.07368271 205.4585047 141.54052734 207.02441406 C141.95608502 208.41378803 142.37777293 209.80135137 142.80712891 211.18652344 C143.779439 214.39796381 144.1875 216.778101 144.1875 220.1875 C21.4275 220.1875 -101.3325 220.1875 -227.8125 220.1875 C-218.58559741 197.12024352 -200.71670877 165.48996856 -176.921875 155.1953125 C-168.92516359 152.60341358 -160.86796737 152.20989394 -152.53125 152.03125 C-135.52494023 151.98620761 -135.52494023 151.98620761 -119.8125 146.1875 C-118.65814453 145.52041016 -118.65814453 145.52041016 -117.48046875 144.83984375 C-108.02971379 138.54518506 -104.53198492 128.69239988 -100.96679688 118.37060547 C-96.88698762 107.25376673 -87.31673371 102.72353603 -77.7265625 96.57421875 C-61.98714045 86.3024157 -52.14347423 73.75735236 -47.03125 55.37890625 C-45.71472139 48.86402571 -45.50519814 42.2952514 -45.3515625 35.66796875 C-43.62565374 24.52460132 -31.10614525 16.60462571 -22.625 10.375 C-21.31112305 9.39370117 -21.31112305 9.39370117 -19.97070312 8.39257812 C-8.24868186 -0.30784554 -8.24868186 -0.30784554 0 0 Z " fill="#19CEB9" transform="translate(313.8125,209.8125)"/>
<path d="M0 0 C0.99837891 -0.00773438 1.99675781 -0.01546875 3.02539062 -0.0234375 C20.15142275 0.02160137 34.48634733 7.32825816 46.75 19 C60.90928202 33.66972635 67.04209797 51.69463613 66.85009766 71.79443359 C66.58571861 82.93853912 64.94777429 93.61242655 61.5625 104.25 C61.35560547 104.9217627 61.14871094 105.59352539 60.93554688 106.28564453 C50.22256812 140.655208 30.06950548 171.27721807 6.5625 198.25 C4.88597164 200.24202889 3.2234874 202.24495092 1.5625 204.25 C-31.38793629 171.9388138 -64.23370752 118.63634081 -64.75 71.4375 C-64.62631855 51.60416455 -58.64778167 34.3453039 -45.0625 19.6875 C-44.19625 18.883125 -43.33 18.07875 -42.4375 17.25 C-41.93347656 16.72921875 -41.42945313 16.2084375 -40.91015625 15.671875 C-36.53739076 11.4234989 -31.78216299 8.64758868 -26.375 5.9375 C-25.70235107 5.60000732 -25.02970215 5.26251465 -24.33666992 4.91479492 C-16.1693014 0.96541939 -9.01079613 -0.06953669 0 0 Z " fill="#FDBD31" transform="translate(391.4375,176.75)"/>
<path d="M0 0 C1.35753019 1.03140477 2.69067886 2.09554663 4 3.1875 C4.804375 3.81011719 5.60875 4.43273437 6.4375 5.07421875 C18.48423838 15.00910513 26.69637094 29.7469593 29 45.1875 C33.08553279 97.43279808 1.42810266 143.19611111 -31 181.1875 C-58.59720204 154.38589298 -80.6206349 115.42909672 -90 78.1875 C-90.24492188 77.28902344 -90.48984375 76.39054687 -90.7421875 75.46484375 C-95.23688624 56.03912523 -92.09259528 36.19534533 -82.21386719 19.10205078 C-73.15521785 4.81445462 -58.69556331 -4.56225559 -42.34765625 -8.26171875 C-27.50737846 -10.70335139 -12.83471506 -8.08111689 0 0 Z " fill="#F86D84" transform="translate(197,90.8125)"/>
<path d="M0 0 C19.8 0 39.6 0 60 0 C56.54295426 3.45704574 53.35965498 6.39113637 49.5625 9.375 C42.86209653 14.80385987 35.69693948 21.13987353 34 30 C33.89771818 32.39509921 33.81729934 34.79116267 33.75 37.1875 C32.99058036 52.79077763 28.05920327 67.99263068 16.515625 78.94140625 C10.45721516 83.89914225 3.72177246 87.98896107 -2.87060547 92.19287109 C-4.63202607 93.32240044 -6.37896829 94.47187414 -8.125 95.625 C-9.13820312 96.27726562 -10.15140625 96.92953125 -11.1953125 97.6015625 C-18.00749392 103.42702126 -20.76377736 111.84910375 -23.87304688 120.02148438 C-26.78249426 127.30391934 -30.70421741 133.53450327 -38 137 C-42.34318201 138.67069256 -45.97619781 139.25792216 -50.62109375 139.30859375 C-51.87937988 139.33139404 -53.13766602 139.35419434 -54.43408203 139.37768555 C-55.08878479 139.38681976 -55.74348755 139.39595398 -56.41802979 139.40536499 C-80.27637204 139.78501311 -96.98292327 143.64398425 -114 161 C-114.7528125 161.76570312 -115.505625 162.53140625 -116.28125 163.3203125 C-131.41959986 179.60004588 -141.55561706 200.61338734 -152 220 C-157.61 220 -163.22 220 -169 220 C-167.87493961 210.99951686 -167.87493961 210.99951686 -166.52880859 206.57568359 C-166.23114594 205.5861972 -165.93348328 204.59671082 -165.62680054 203.57723999 C-165.30394073 202.52823517 -164.98108093 201.47923035 -164.6484375 200.3984375 C-164.31131744 199.28554352 -163.97419739 198.17264954 -163.62686157 197.02603149 C-162.54897657 193.47380966 -161.46197094 189.92445068 -160.375 186.375 C-159.66740497 184.04444193 -158.96036885 181.71371409 -158.25390625 179.3828125 C-154.68466885 167.63365085 -151.05827103 155.90493315 -147.28256226 144.2203064 C-145.55354837 138.84671791 -143.9696542 133.45007925 -142.5 128 C-140.67630377 121.27145374 -138.64366332 114.63367607 -136.5 108 C-134.13716737 100.67799567 -131.92313637 93.34258888 -129.89868164 85.92041016 C-123.4120496 62.147278 -116.10120019 38.59481847 -109 15 C-108.01 15 -107.02 15 -106 15 C-105.55011719 15.825 -105.10023437 16.65 -104.63671875 17.5 C-96.93929294 31.4068051 -87.82767674 44.15529156 -78.0637207 56.6809082 C-77.53351318 57.36241943 -77.00330566 58.04393066 -76.45703125 58.74609375 C-75.98241455 59.35122803 -75.50779785 59.9563623 -75.01879883 60.57983398 C-74 62 -74 62 -74 63 C-74.62567871 63.01981934 -75.25135742 63.03963867 -75.89599609 63.06005859 C-78.72276519 63.15514226 -81.54877815 63.26488746 -84.375 63.375 C-85.35984375 63.4059375 -86.3446875 63.436875 -87.359375 63.46875 C-88.77089844 63.52675781 -88.77089844 63.52675781 -90.2109375 63.5859375 C-91.51490479 63.63306885 -91.51490479 63.63306885 -92.84521484 63.68115234 C-95.20961794 63.81229433 -95.20961794 63.81229433 -97 66 C-97.45356358 70.0389823 -97.45356358 70.0389823 -95.91760254 73.66912842 C-92.99643231 75.69650498 -90.5303981 75.36647489 -87.00585938 75.35644531 C-86.29822952 75.35848969 -85.59059967 75.36053406 -84.86152649 75.36264038 C-82.52200493 75.36564892 -80.18318782 75.34716919 -77.84375 75.328125 C-76.21854832 75.32506724 -74.59334403 75.32319125 -72.96813965 75.32244873 C-69.56182833 75.31784514 -66.15575336 75.30341768 -62.74951172 75.28125 C-58.38131067 75.25296764 -54.01329581 75.24203845 -49.6450119 75.2375679 C-46.28902318 75.23341242 -42.93307215 75.22359385 -39.57710266 75.21169281 C-37.96633709 75.20599204 -36.35556791 75.20123269 -34.74479675 75.19742584 C-32.49451324 75.19055663 -30.24437704 75.17692102 -27.99414062 75.16113281 C-26.07245056 75.15089081 -26.07245056 75.15089081 -24.11193848 75.14044189 C-20.96603112 75.14041907 -20.96603112 75.14041907 -18 74 C-17.95875 72.72125 -17.9175 71.4425 -17.875 70.125 C-17.85179687 69.40570313 -17.82859375 68.68640625 -17.8046875 67.9453125 C-17.81668311 65.76136355 -17.81668311 65.76136355 -20 64 C-22.12860662 63.63047951 -22.12860662 63.63047951 -24.5703125 63.5859375 C-25.46621094 63.54726563 -26.36210937 63.50859375 -27.28515625 63.46875 C-28.22230469 63.4378125 -29.15945312 63.406875 -30.125 63.375 C-31.06988281 63.33632813 -32.01476562 63.29765625 -32.98828125 63.2578125 C-35.32532375 63.16338654 -37.66235501 63.07781606 -40 63 C-38.68894128 60.2013051 -37.22625155 57.84128942 -35.3125 55.41796875 C-34.78374268 54.74121094 -34.25498535 54.06445312 -33.71020508 53.3671875 C-33.1458374 52.64789063 -32.58146973 51.92859375 -32 51.1875 C-23.82431141 40.61344373 -16.49976164 29.68438592 -9.6875 18.1875 C-9.29087158 17.51847656 -8.89424316 16.84945312 -8.4855957 16.16015625 C-5.39781105 10.86347289 -2.75744388 5.51488776 0 0 Z " fill="#5FB6FC" transform="translate(223,210)"/>
<path d="M0 0 C4.47710891 3.39317728 7.29372839 8.05120994 10.109375 12.8125 C10.52703125 13.44414062 10.9446875 14.07578125 11.375 14.7265625 C16.13328029 23.13732555 15.31731465 34.97638706 13.4140625 44.171875 C12.50446213 46.87774502 11.45009514 49.29445998 10.109375 51.8125 C9.696875 52.59753906 9.284375 53.38257813 8.859375 54.19140625 C3.00856308 64.01478648 -5.63232427 69.53755544 -16.37890625 72.96484375 C-27.29000805 75.59855798 -37.92966412 73.69143544 -47.72265625 68.234375 C-57.72741502 61.57453558 -62.89151361 53.52450072 -67.203125 42.4375 C-69.50545659 30.29793346 -67.46547218 18.72153281 -60.578125 8.375 C-44.80860537 -12.27237952 -21.00333103 -13.19217486 0 0 Z " fill="#213140" transform="translate(418.890625,208.1875)"/>
<path d="M0 0 C1.1763501 0.00858032 1.1763501 0.00858032 2.37646484 0.01733398 C12.27760707 0.31881432 20.34952304 3.73403256 27.5078125 10.625 C35.83429212 19.58623367 39.88467226 28.1446912 39.72265625 40.52734375 C39.20424885 52.42817447 34.01849059 61.09004538 25.625 69.1875 C15.86628689 77.18524233 5.44743735 78.72132374 -6.77685547 77.75244141 C-10.94562191 77.21909514 -14.25839147 75.76798679 -17.75 73.5 C-18.8225 72.860625 -19.895 72.22125 -21 71.5625 C-28.85897562 65.66826829 -35.17095941 58.07553102 -37.75 48.5 C-38.16695525 45.36166714 -38.22796945 42.28798989 -38.1875 39.125 C-38.17505249 37.86937256 -38.17505249 37.86937256 -38.16235352 36.58837891 C-37.87252101 25.98319101 -34.17262273 18.12055933 -26.75 10.5 C-18.59530354 3.64899074 -10.68469339 -0.09137159 0 0 Z " fill="#203040" transform="translate(164.75,102.5)"/>
<path d="M0 0 C5.09557251 3.84901614 8.22089993 8.65348512 10.0703125 14.75 C11.30507644 24.29234235 10.17112739 31.81740901 4.71484375 39.7109375 C0.6308215 44.900821 -4.32749844 48.50560834 -10.9296875 49.75 C-19.87869842 50.47925584 -27.74290853 50.78747626 -34.9296875 44.75 C-40.95498166 38.99643479 -45.24530603 33.17704378 -45.44921875 24.63427734 C-45.44277344 23.90934082 -45.43632812 23.1844043 -45.4296875 22.4375 C-45.42324219 21.6842041 -45.41679687 20.9309082 -45.41015625 20.15478516 C-45.1317706 11.67684307 -42.20303524 6.68476392 -36.1171875 0.875 C-25.15160167 -7.90969794 -11.57877117 -7.50041857 0 0 Z " fill="#4086B4" transform="translate(409.9296875,218.25)"/>
<path d="M0 0 C5.58455335 3.9519923 9.24852136 8.96656025 11.19140625 15.55078125 C12.25532963 24.94220368 10.4995057 31.58863207 5.31640625 39.36328125 C-0.43764548 45.28656979 -6.44307252 47.60429879 -14.55859375 47.98828125 C-21.7535254 47.84545382 -27.22679238 45.67065898 -32.65625 40.94140625 C-37.78313206 35.44921809 -39.92058444 29.63099441 -40.24609375 22.17578125 C-39.97542399 14.35883847 -37.82934274 8.03187823 -32.05859375 2.61328125 C-22.46712449 -4.86242273 -10.74404376 -6.12220792 0 0 Z " fill="#4086B3" transform="translate(179.80859375,119.44921875)"/>
</svg>
