<svg version="1.1" id="Layer_1" xmlns="http://www.w3.org/2000/svg" xmlns:xlink="http://www.w3.org/1999/xlink" x="0px" y="0px"
	 width="100%" viewBox="0 0 512 512" enable-background="new 0 0 512 512" xml:space="preserve">
<path fill="#000000" opacity="1.000000" stroke="none" 
	d="
M283.000000,513.000000 
	C188.689560,513.000000 94.879120,513.000000 1.034338,513.000000 
	C1.034338,342.397858 1.034338,171.795731 1.034338,1.096792 
	C171.560455,1.096792 342.121002,1.096792 512.840759,1.096792 
	C512.840759,171.666550 512.840759,342.333252 512.840759,513.000000 
	C436.462372,513.000000 359.981171,513.000000 283.000000,513.000000 
M436.953705,134.428360 
	C436.645660,134.180191 436.337585,133.932037 435.813080,133.075317 
	C430.367645,126.826019 424.995422,120.509926 419.408661,114.389656 
	C418.414490,113.300583 416.529358,113.024834 415.055603,112.373535 
	C414.778564,112.861633 414.501526,113.349739 414.224487,113.837837 
	C422.899384,126.559013 431.442993,139.372696 440.309265,151.959045 
	C444.249603,157.552673 450.410065,157.962372 457.383148,157.959961 
	C456.018433,156.507584 455.249023,155.688751 454.187653,154.277206 
	C453.818237,154.085464 453.448822,153.893723 453.304779,153.843613 
	C453.304779,153.843613 453.438324,153.613327 453.145203,153.005035 
	C448.305969,147.513412 443.466736,142.021790 438.639496,136.651047 
	C438.639496,136.651047 438.580292,136.544998 438.324493,136.013199 
	C437.896820,135.635590 437.469177,135.257980 437.007263,134.978104 
	C437.007263,134.978104 437.105621,135.010483 436.953705,134.428360 
M477.311554,211.287018 
	C472.154663,211.990646 466.980164,212.651978 462.676636,217.302689 
	C467.120422,219.874374 470.691589,223.236130 476.829132,221.019196 
	C478.893402,220.046021 480.957703,219.072845 483.022003,218.099701 
	C481.523224,215.775909 483.382050,210.965637 477.311554,211.287018 
M354.670624,141.372772 
	C353.839600,140.818970 353.003021,140.273346 352.178558,139.709915 
	C348.800201,137.401154 345.349609,135.642258 342.154358,139.842972 
	C339.679718,143.096298 340.928436,146.239716 345.824738,149.543427 
	C351.344452,153.267792 357.121063,156.660767 362.332306,160.772751 
	C365.025940,162.898193 367.273407,166.012985 368.762207,169.138214 
	C370.798492,173.412735 371.920593,178.122757 373.435699,182.649582 
	C383.440247,178.996719 384.351776,177.110596 380.825104,168.095505 
	C380.708557,167.797592 380.463379,167.550003 380.204163,166.442612 
	C378.333710,162.519775 377.400787,157.517715 374.392639,154.904495 
	C368.582367,149.857040 361.601196,146.157440 354.670624,141.372772 
M453.783356,269.965332 
	C459.718048,267.945190 465.652710,265.925049 471.587402,263.904907 
	C471.670074,263.313293 471.752777,262.721680 471.835449,262.130066 
	C463.898987,259.133911 455.962494,256.137787 447.307983,252.838593 
	C439.693604,251.822647 432.079224,250.806702 423.358856,249.643188 
	C425.276367,255.611069 426.613098,259.837372 427.993500,264.049377 
	C429.422211,268.408722 430.893250,272.754211 432.466858,277.468445 
	C439.646790,274.841705 446.329529,272.396851 453.783356,269.965332 
M147.425659,226.548019 
	C143.354385,224.004074 139.038589,221.775620 135.263214,218.849854 
	C127.637650,212.940369 120.365761,206.576218 112.803024,200.582535 
	C111.244698,199.347504 108.901657,198.006653 107.184593,198.293991 
	C103.506737,198.909409 100.001511,200.556458 95.655090,202.044891 
	C97.423759,203.661987 98.550560,204.787888 99.774368,205.796036 
	C109.792175,214.048828 120.179688,221.894226 129.755600,230.629913 
	C138.614243,238.711319 148.505020,241.556717 160.941010,239.886353 
	C163.812332,239.886353 166.683640,239.886353 169.554962,239.886353 
	C169.865891,239.217529 170.176819,238.548721 170.487762,237.879898 
	C167.348190,234.941238 164.645950,231.092010 160.948013,229.315979 
	C157.130051,227.482300 152.343872,227.664581 147.425659,226.548019 
M83.792503,190.045044 
	C87.345779,188.854706 90.899055,187.664368 94.452332,186.474030 
	C94.691597,186.036575 94.930855,185.599106 95.170120,185.161652 
	C94.399323,184.828568 93.481224,184.663895 92.879448,184.137573 
	C80.470055,173.283981 68.121529,162.360703 55.687416,151.535675 
	C53.963837,150.035141 51.852730,148.979736 49.432404,147.188431 
	C41.581482,144.546906 33.585846,145.291855 24.541355,145.587097 
	C36.411343,159.797363 47.332500,173.360519 58.820114,186.425598 
	C64.899849,193.340210 73.770241,194.177933 83.792503,190.045044 
M225.318375,262.409058 
	C226.901138,259.134186 228.667786,255.930038 229.968445,252.546707 
	C230.433273,251.337570 230.318558,249.211105 229.536865,248.326385 
	C222.848648,240.756714 215.946381,233.376205 208.863098,225.297897 
	C206.932922,224.037018 204.830887,221.501740 203.102142,221.734848 
	C195.426987,222.769775 187.858856,224.598389 179.721329,226.247482 
	C191.414520,243.491882 202.808502,260.295013 215.119659,278.450714 
	C218.831818,272.550018 221.851730,267.749664 225.318375,262.409058 
M253.703568,260.190155 
	C255.343201,260.342407 256.982819,260.494690 258.730347,260.656952 
	C259.160797,259.853485 259.631958,259.169495 259.916046,258.415039 
	C265.787689,242.822830 275.838135,230.749176 290.718506,223.182816 
	C310.993256,212.873550 331.475494,202.972229 351.874390,192.907394 
	C353.509491,192.100647 355.206177,191.415634 356.808228,190.551666 
	C356.923309,190.489594 356.494507,189.419083 355.867981,188.220795 
	C350.733734,185.030258 345.664734,185.261063 340.294037,187.928116 
	C318.172638,198.913437 296.172882,210.175613 273.740417,220.492416 
	C256.103394,228.603790 250.209839,244.749969 243.026230,260.810822 
	C246.743744,260.501282 249.875046,260.240540 253.703568,260.190155 
M255.862228,278.291901 
	C255.382462,272.762268 251.075378,275.070526 248.654907,275.333862 
	C228.458435,277.531525 215.518326,294.350037 217.980164,314.662323 
	C218.414902,318.249176 219.496399,320.661224 223.827393,320.054138 
	C230.453690,319.125397 235.585785,321.623871 240.222137,326.510437 
	C246.422577,333.045502 254.633636,334.352386 262.706085,330.874603 
	C270.376282,327.984131 274.361176,322.202240 275.102325,314.275146 
	C275.925171,305.473969 272.436615,298.398560 264.636444,294.302612 
	C258.209961,290.927948 255.150375,286.247498 255.862228,278.291901 
M183.804123,209.952744 
	C186.668167,209.399017 189.532227,208.845291 193.265915,208.123428 
	C188.814972,203.164749 185.050217,198.808411 181.080734,194.647354 
	C179.894531,193.403931 178.246399,192.218811 176.618759,191.849564 
	C171.459625,190.679199 166.210159,189.906998 160.324905,188.629166 
	C140.716309,183.761703 121.722008,177.442154 104.537941,166.383972 
	C101.647926,164.524231 97.691025,164.322403 94.227074,163.354538 
	C94.032288,163.856964 93.837502,164.359375 93.642708,164.861801 
	C94.385551,165.666061 95.046074,166.570267 95.883362,167.259827 
	C112.821663,181.209473 129.753967,195.166702 146.751434,209.044052 
	C151.606262,213.007736 157.354645,214.836472 163.536880,213.913437 
	C170.079468,212.936615 176.521042,211.283463 183.804123,209.952744 
M127.857979,329.808838 
	C140.960526,329.172699 154.067520,328.609558 167.160141,327.810852 
	C168.856003,327.707428 170.999268,326.814697 172.035706,325.550232 
	C175.124725,321.781494 178.839706,319.954773 183.675674,320.018860 
	C190.261688,320.106171 196.849731,320.040619 201.882065,320.040619 
	C203.000534,310.764130 204.105728,302.301880 204.966476,293.814819 
	C205.122894,292.272522 204.279617,290.628784 203.763657,288.359467 
	C200.955032,284.291718 198.146408,280.223969 195.387711,276.228516 
	C168.464249,287.151672 85.222466,328.105042 83.464172,331.918152 
	C98.227867,331.159485 112.571106,330.422424 127.857979,329.808838 
M48.815514,291.992584 
	C48.998104,291.897736 49.076488,291.748291 49.635696,291.116730 
	C71.559723,271.285492 104.456291,270.793610 125.106476,290.382843 
	C125.849960,291.088135 127.617744,291.502777 128.515503,291.123444 
	C133.069229,289.199615 137.493210,286.968658 142.703461,284.493317 
	C124.855507,265.931152 104.395378,256.759705 78.243065,260.094696 
	C26.691299,266.136688 -1.250448,326.416870 27.487318,369.992157 
	C39.006874,387.459351 54.990589,398.631226 76.895012,401.921967 
	C120.819679,409.598816 156.003052,373.419647 157.660706,343.355957 
	C153.686905,343.551971 149.743484,344.001373 145.821198,343.860809 
	C142.565628,343.744171 141.299377,345.018707 140.312943,348.046356 
	C135.375916,363.199524 125.646538,374.320953 111.208015,381.151947 
	C91.326134,390.558228 64.796806,387.912872 45.791019,366.938965 
	C33.002228,351.355255 29.446419,333.598541 35.328022,314.612488 
	C37.655315,307.099915 43.023354,300.529327 47.590099,293.095367 
	C47.909328,292.732025 48.228558,292.368683 48.815514,291.992584 
M260.470886,152.116547 
	C229.557465,145.587021 209.686584,162.041794 192.405014,184.707565 
	C207.651672,201.581024 222.766113,218.308151 237.316269,234.410797 
	C243.081665,227.708115 248.549011,221.351913 254.672134,214.811432 
	C260.250336,211.555115 265.686493,208.019821 271.432770,205.093567 
	C290.438751,195.414917 309.556641,185.956039 328.923004,176.267029 
	C308.133148,162.650040 284.859741,156.961548 260.470886,152.116547 
M375.852173,353.320404 
	C366.653748,330.738007 370.667450,308.647034 386.917053,292.420929 
	C392.178009,287.167633 392.288635,283.309601 387.116913,276.474884 
	C385.226532,279.344208 383.291565,282.033539 381.610382,284.873108 
	C370.429993,303.756927 364.970917,324.656860 359.708862,345.712952 
	C357.924469,352.853119 359.244965,358.726929 362.550964,364.696991 
	C363.357910,366.154175 364.147980,367.627716 365.061676,369.017578 
	C374.387939,383.204681 386.316589,394.085510 403.730438,399.164825 
	C441.661194,411.799652 481.439850,392.149078 493.953308,354.068665 
	C502.808563,327.120697 497.469421,302.827759 478.210846,281.834564 
	C477.022797,280.539520 474.697968,279.005463 473.362213,279.352722 
	C467.964478,280.756012 462.747101,282.853149 456.913910,284.885529 
	C458.090271,285.930695 458.657227,286.488068 459.277710,286.977661 
	C467.833984,293.728699 474.503876,301.935059 477.899994,312.382599 
	C478.638794,314.655304 478.805786,318.855591 477.545593,319.729126 
	C472.605469,323.153381 473.174744,327.435364 473.921082,332.198792 
	C474.136322,333.572601 473.301880,335.077576 473.241211,336.534576 
	C473.096588,340.009216 471.232117,343.489258 475.159851,346.728577 
	C476.667572,347.972015 476.902405,352.641235 475.833801,354.829742 
	C466.905243,373.115875 452.133301,384.021790 431.865967,385.894989 
	C406.159576,388.270935 387.517456,377.069031 375.852173,353.320404 
M316.388123,234.494339 
	C311.799316,234.170319 306.787598,232.487625 302.696014,233.761124 
	C286.341644,238.851410 271.568146,259.384583 271.047241,276.773712 
	C270.996368,278.471802 272.355927,280.481262 273.578857,281.899445 
	C277.755096,286.742340 282.174316,291.375153 286.473389,296.112976 
	C287.456848,297.196777 288.099274,298.823456 289.292267,299.446045 
	C297.478424,303.718109 305.769348,307.789490 314.640778,312.339508 
	C325.069855,314.184021 335.488525,316.090393 345.933258,317.841583 
	C349.935638,318.512604 351.994659,316.854034 353.298248,312.653259 
	C357.898010,297.830750 363.967102,283.624359 372.808075,270.716583 
	C373.553833,269.627716 373.646820,267.021240 372.875153,266.122040 
	C358.105896,248.911362 339.380432,238.656845 316.388123,234.494339 
M209.093643,335.059662 
	C202.188812,335.059662 195.283997,335.059662 188.100601,335.059662 
	C188.369324,336.012177 188.386673,336.528259 188.634018,336.884674 
	C197.248322,349.298737 205.839462,361.729614 214.592941,374.045044 
	C215.388046,375.163696 217.233109,376.108582 218.613327,376.140167 
	C224.746719,376.280579 230.888382,376.058807 237.941727,376.173248 
	C245.771774,376.199036 253.601822,376.228485 261.431885,376.249603 
	C269.636230,376.271729 270.954773,377.192322 273.662659,384.832092 
	C279.968048,384.832092 286.273438,384.832092 292.538757,384.832092 
	C294.111725,377.891449 296.106293,376.281494 303.236694,376.259949 
	C314.066345,376.227234 324.897369,376.160828 335.725098,376.308258 
	C338.677887,376.348450 339.858643,375.435547 340.066406,372.430023 
	C340.317932,368.791595 341.030029,365.175385 341.691193,361.576813 
	C343.422028,352.155945 345.233643,342.749939 346.832062,334.295319 
	C334.355957,331.844421 322.182892,329.453064 309.472168,326.588684 
	C303.106049,323.846466 296.739960,321.104218 290.000336,318.201080 
	C288.354980,326.788025 284.028473,333.906677 277.038605,340.043335 
	C262.549408,350.154419 245.851547,351.057251 233.821350,340.709686 
	C228.160873,335.840973 222.723892,334.452820 215.975555,335.017487 
	C214.000107,335.182800 212.007935,335.148376 209.093643,335.059662 
M338.715210,224.990219 
	C356.763397,231.777023 372.440491,242.068436 385.060883,256.897308 
	C404.245331,240.687103 426.912994,232.831589 450.598969,226.388687 
	C446.691071,219.157974 446.145325,212.110519 452.237183,206.481201 
	C455.786560,203.201294 460.397095,200.876694 464.857574,198.838913 
	C468.225739,197.300186 472.112854,196.897522 476.137207,195.897766 
	C473.987671,189.841568 471.880829,184.100449 469.922729,178.309052 
	C468.894440,175.267853 467.126312,174.130005 463.767059,173.814911 
	C453.099548,172.814346 441.962555,173.298370 432.529358,165.456894 
	C425.993317,156.477509 419.447723,147.505051 412.928131,138.513718 
	C411.351654,136.339493 409.861115,134.102936 408.923981,132.750641 
	C409.146790,141.177795 410.489105,150.192245 409.386627,158.897049 
	C407.054169,177.313004 395.442474,189.307678 379.218994,197.025192 
	C363.335815,204.580811 347.250092,211.710388 331.266022,219.054672 
	C330.042816,219.616684 328.920776,220.398865 327.270142,221.358795 
	C331.394470,222.627502 334.718811,223.650116 338.715210,224.990219 
M412.816498,303.726593 
	C415.829559,312.894470 418.805725,322.074707 421.870544,331.225250 
	C423.512909,336.128723 426.278564,338.053741 429.762299,336.593353 
	C433.996643,334.818329 434.402802,331.580383 433.053467,327.509552 
	C425.833191,305.726440 418.734070,283.903198 411.566559,262.102539 
	C411.132294,260.781647 410.469849,259.535767 409.843048,258.092621 
	C408.151062,258.973816 407.007904,259.655975 405.797638,260.184357 
	C400.789368,262.370819 399.943268,265.517212 401.910004,270.759155 
	C405.880280,281.341034 409.051697,292.222626 412.816498,303.726593 
z"/>
<path fill="#FDC956" opacity="1.000000" stroke="none" 
	d="
M432.845093,166.027924 
	C441.962555,173.298370 453.099548,172.814346 463.767059,173.814911 
	C467.126312,174.130005 468.894440,175.267853 469.922729,178.309052 
	C471.880829,184.100449 473.987671,189.841568 476.137207,195.897766 
	C472.112854,196.897522 468.225739,197.300186 464.857574,198.838913 
	C460.397095,200.876694 455.786560,203.201294 452.237183,206.481201 
	C446.145325,212.110519 446.691071,219.157974 450.598969,226.388687 
	C426.912994,232.831589 404.245331,240.687103 385.060883,256.897308 
	C372.440491,242.068436 356.763397,231.777023 338.587799,224.581116 
	C357.885254,214.755096 377.189087,205.076569 396.778748,196.015915 
	C409.228851,190.257492 421.873138,185.105530 429.101959,172.353821 
	C430.310059,170.222733 431.595459,168.135468 432.845093,166.027924 
z"/>
<path fill="#FE6A6A" opacity="1.000000" stroke="none" 
	d="
M310.009827,327.061707 
	C322.182892,329.453064 334.355957,331.844421 346.832062,334.295319 
	C345.233643,342.749939 343.422028,352.155945 341.691193,361.576813 
	C341.030029,365.175385 340.317932,368.791595 340.066406,372.430023 
	C339.858643,375.435547 338.677887,376.348450 335.725098,376.308258 
	C324.897369,376.160828 314.066345,376.227234 303.236694,376.259949 
	C296.106293,376.281494 294.111725,377.891449 292.538757,384.832092 
	C286.273438,384.832092 279.968048,384.832092 273.662048,384.826599 
	C270.954773,377.192322 269.636230,376.271729 261.431885,376.249603 
	C253.601822,376.228485 245.771774,376.199036 237.425171,375.726440 
	C234.451035,371.534424 232.030457,367.764252 229.528641,364.048828 
	C223.046005,354.421539 216.527588,344.818359 210.023438,335.205536 
	C212.007935,335.148376 214.000107,335.182800 215.975555,335.017487 
	C222.723892,334.452820 228.160873,335.840973 233.821350,340.709686 
	C245.851547,351.057251 262.549408,350.154419 277.788330,340.029724 
	C291.218262,343.503052 305.308136,337.703400 310.009827,327.061707 
z"/>
<path fill="#ED5253" opacity="1.000000" stroke="none" 
	d="
M317.034119,234.953918 
	C339.380432,238.656845 358.105896,248.911362 372.875153,266.122040 
	C373.646820,267.021240 373.553833,269.627716 372.808075,270.716583 
	C363.967102,283.624359 357.898010,297.830750 353.298248,312.653259 
	C351.994659,316.854034 349.935638,318.512604 345.933258,317.841583 
	C335.488525,316.090393 325.069855,314.184021 314.332153,311.704651 
	C314.042114,300.671631 308.806274,293.443451 300.052612,288.587341 
	C296.428864,286.577026 294.773407,284.072876 294.925720,279.823364 
	C295.357239,267.784851 299.218536,256.974518 306.277985,247.364716 
	C309.508514,242.967102 313.427429,239.075195 317.034119,234.953918 
z"/>
<path fill="#566473" opacity="1.000000" stroke="none" 
	d="
M375.917511,354.064972 
	C387.517456,377.069031 406.159576,388.270935 431.865967,385.894989 
	C452.133301,384.021790 466.905243,373.115875 475.833801,354.829742 
	C476.902405,352.641235 476.667572,347.972015 475.159851,346.728577 
	C471.232117,343.489258 473.096588,340.009216 473.241211,336.534576 
	C473.301880,335.077576 474.136322,333.572601 473.921082,332.198792 
	C473.174744,327.435364 472.605469,323.153381 477.545593,319.729126 
	C478.805786,318.855591 478.638794,314.655304 477.899994,312.382599 
	C474.503876,301.935059 467.833984,293.728699 459.277710,286.977661 
	C458.657227,286.488068 458.090271,285.930695 456.913910,284.885529 
	C462.747101,282.853149 467.964478,280.756012 473.362213,279.352722 
	C474.697968,279.005463 477.022797,280.539520 478.210846,281.834564 
	C497.469421,302.827759 502.808563,327.120697 493.953308,354.068665 
	C481.439850,392.149078 441.661194,411.799652 403.328918,398.661987 
	C402.207855,397.274231 401.628448,396.205933 400.747223,395.532593 
	C391.057129,388.128204 383.399567,379.062683 378.979370,367.654785 
	C377.320007,363.372345 376.901642,358.609039 375.917511,354.064972 
z"/>
<path fill="#FDC956" opacity="1.000000" stroke="none" 
	d="
M261.173370,152.439117 
	C284.859741,156.961548 308.133148,162.650040 328.923004,176.267029 
	C309.556641,185.956039 290.438751,195.414917 271.432770,205.093567 
	C265.686493,208.019821 260.250336,211.555115 254.183502,214.611176 
	C248.819885,208.778641 243.885803,203.196167 239.085373,197.501053 
	C233.492783,190.866150 232.793640,182.205582 237.377502,175.467438 
	C239.138611,172.878662 241.109970,170.339966 243.393890,168.217987 
	C249.197372,162.825974 255.231552,157.682236 261.173370,152.439117 
z"/>
<path fill="#F2B437" opacity="1.000000" stroke="none" 
	d="
M260.822144,152.277832 
	C255.231552,157.682236 249.197372,162.825974 243.393890,168.217987 
	C241.109970,170.339966 239.138611,172.878662 237.377502,175.467438 
	C232.793640,182.205582 233.492783,190.866150 239.085373,197.501053 
	C243.885803,203.196167 248.819885,208.778641 253.855621,214.703308 
	C248.549011,221.351913 243.081665,227.708115 237.316269,234.410797 
	C222.766113,218.308151 207.651672,201.581024 192.405014,184.707565 
	C209.686584,162.041794 229.557465,145.587021 260.822144,152.277832 
z"/>
<path fill="#3D4A59" opacity="1.000000" stroke="none" 
	d="
M47.006889,293.529816 
	C43.023354,300.529327 37.655315,307.099915 35.328022,314.612488 
	C29.446419,333.598541 33.002228,351.355255 45.910370,367.640228 
	C46.475632,369.748169 46.660427,371.314880 47.408829,372.536194 
	C53.295155,382.141846 60.584209,390.445618 70.051247,396.738892 
	C72.210709,398.174408 74.069809,400.061798 76.067162,401.741211 
	C54.990589,398.631226 39.006874,387.459351 27.487318,369.992157 
	C-1.250448,326.416870 26.691299,266.136688 78.552879,260.476227 
	C78.106995,261.478821 77.353867,262.103088 76.595184,262.720490 
	C69.780136,268.266418 62.587429,273.422668 56.303753,279.516388 
	C53.054127,282.667786 51.416576,287.481506 49.050674,291.544189 
	C49.076488,291.748291 48.998104,291.897736 48.348961,292.168823 
	C47.590565,292.739960 47.298729,293.134888 47.006889,293.529816 
z"/>
<path fill="#566372" opacity="1.000000" stroke="none" 
	d="
M76.481079,401.831604 
	C74.069809,400.061798 72.210709,398.174408 70.051247,396.738892 
	C60.584209,390.445618 53.295155,382.141846 47.408829,372.536194 
	C46.660427,371.314880 46.475632,369.748169 46.042843,367.929657 
	C64.796806,387.912872 91.326134,390.558228 111.208015,381.151947 
	C125.646538,374.320953 135.375916,363.199524 140.312943,348.046356 
	C141.299377,345.018707 142.565628,343.744171 145.821198,343.860809 
	C149.743484,344.001373 153.686905,343.551971 157.660706,343.355957 
	C156.003052,373.419647 120.819679,409.598816 76.481079,401.831604 
z"/>
<path fill="#C4CFE2" opacity="1.000000" stroke="none" 
	d="
M126.914345,329.685364 
	C112.571106,330.422424 98.227867,331.159485 83.464172,331.918152 
	C85.222466,328.105042 168.464249,287.151672 195.387711,276.228516 
	C198.146408,280.223969 200.955032,284.291718 203.461304,288.710083 
	C198.605087,291.036377 194.002289,292.907196 189.505905,295.006012 
	C170.537216,303.860291 151.578568,312.736938 132.672592,321.723938 
	C129.456680,323.252625 126.730415,325.514465 126.914345,329.685364 
z"/>
<path fill="#D63940" opacity="1.000000" stroke="none" 
	d="
M316.711121,234.724121 
	C313.427429,239.075195 309.508514,242.967102 306.277985,247.364716 
	C299.218536,256.974518 295.357239,267.784851 294.925720,279.823364 
	C294.773407,284.072876 296.428864,286.577026 300.052612,288.587341 
	C308.806274,293.443451 314.042114,300.671631 314.025024,311.497650 
	C305.769348,307.789490 297.478424,303.718109 289.292267,299.446045 
	C288.099274,298.823456 287.456848,297.196777 286.473389,296.112976 
	C282.174316,291.375153 277.755096,286.742340 273.578857,281.899445 
	C272.355927,280.481262 270.996368,278.471802 271.047241,276.773712 
	C271.568146,259.384583 286.341644,238.851410 302.696014,233.761124 
	C306.787598,232.487625 311.799316,234.170319 316.711121,234.724121 
z"/>
<path fill="#F0B236" opacity="1.000000" stroke="none" 
	d="
M432.687225,165.742401 
	C431.595459,168.135468 430.310059,170.222733 429.101959,172.353821 
	C421.873138,185.105530 409.228851,190.257492 396.778748,196.015915 
	C377.189087,205.076569 357.885254,214.755096 338.251770,224.422363 
	C334.718811,223.650116 331.394470,222.627502 327.270142,221.358795 
	C328.920776,220.398865 330.042816,219.616684 331.266022,219.054672 
	C347.250092,211.710388 363.335815,204.580811 379.218994,197.025192 
	C395.442474,189.307678 407.054169,177.313004 409.386627,158.897049 
	C410.489105,150.192245 409.146790,141.177795 408.923981,132.750641 
	C409.861115,134.102936 411.351654,136.339493 412.928131,138.513718 
	C419.447723,147.505051 425.993317,156.477509 432.687225,165.742401 
z"/>
<path fill="#E2E8F6" opacity="1.000000" stroke="none" 
	d="
M127.386162,329.747101 
	C126.730415,325.514465 129.456680,323.252625 132.672592,321.723938 
	C151.578568,312.736938 170.537216,303.860291 189.505905,295.006012 
	C194.002289,292.907196 198.605087,291.036377 203.528381,289.046295 
	C204.279617,290.628784 205.122894,292.272522 204.966476,293.814819 
	C204.105728,302.301880 203.000534,310.764130 201.882065,320.040619 
	C196.849731,320.040619 190.261688,320.106171 183.675674,320.018860 
	C178.839706,319.954773 175.124725,321.781494 172.035706,325.550232 
	C170.999268,326.814697 168.856003,327.707428 167.160141,327.810852 
	C154.067520,328.609558 140.960526,329.172699 127.386162,329.747101 
z"/>
<path fill="#364350" opacity="1.000000" stroke="none" 
	d="
M183.006744,209.925720 
	C176.521042,211.283463 170.079468,212.936615 163.536880,213.913437 
	C157.354645,214.836472 151.606262,213.007736 146.751434,209.044052 
	C129.753967,195.166702 112.821663,181.209473 95.883362,167.259827 
	C95.046074,166.570267 94.385551,165.666061 93.642708,164.861801 
	C93.837502,164.359375 94.032288,163.856964 94.227074,163.354538 
	C97.691025,164.322403 101.647926,164.524231 104.537941,166.383972 
	C121.722008,177.442154 140.716309,183.761703 160.734055,189.135406 
	C164.887695,192.836533 168.741989,195.913147 172.346115,199.259216 
	C176.027496,202.677017 179.463379,206.359253 183.006744,209.925720 
z"/>
<path fill="#566372" opacity="1.000000" stroke="none" 
	d="
M49.343185,291.330444 
	C51.416576,287.481506 53.054127,282.667786 56.303753,279.516388 
	C62.587429,273.422668 69.780136,268.266418 76.595184,262.720490 
	C77.353867,262.103088 78.106995,261.478821 78.962479,260.544434 
	C104.395378,256.759705 124.855507,265.931152 142.703461,284.493317 
	C137.493210,286.968658 133.069229,289.199615 128.515503,291.123444 
	C127.617744,291.502777 125.849960,291.088135 125.106476,290.382843 
	C104.456291,270.793610 71.559723,271.285492 49.343185,291.330444 
z"/>
<path fill="#3D4958" opacity="1.000000" stroke="none" 
	d="
M375.884827,353.692688 
	C376.901642,358.609039 377.320007,363.372345 378.979370,367.654785 
	C383.399567,379.062683 391.057129,388.128204 400.747223,395.532593 
	C401.628448,396.205933 402.207855,397.274231 402.996002,398.485535 
	C386.316589,394.085510 374.387939,383.204681 365.061676,369.017578 
	C364.147980,367.627716 363.357910,366.154175 362.550964,364.696991 
	C359.244965,358.726929 357.924469,352.853119 359.708862,345.712952 
	C364.970917,324.656860 370.429993,303.756927 381.610382,284.873108 
	C383.291565,282.033539 385.226532,279.344208 387.116913,276.474884 
	C392.288635,283.309601 392.178009,287.167633 386.917053,292.420929 
	C370.667450,308.647034 366.653748,330.738007 375.884827,353.692688 
z"/>
<path fill="#566473" opacity="1.000000" stroke="none" 
	d="
M255.695084,279.103699 
	C255.150375,286.247498 258.209961,290.927948 264.636444,294.302612 
	C272.436615,298.398560 275.925171,305.473969 275.102325,314.275146 
	C274.361176,322.202240 270.376282,327.984131 262.229553,330.533478 
	C259.899567,329.802124 258.052368,329.112030 256.191589,329.073273 
	C247.856888,328.899475 243.080978,325.311554 242.080246,316.989441 
	C241.441925,311.681030 241.303757,306.024719 242.442764,300.855255 
	C244.329575,292.291840 247.804932,284.229187 255.695084,279.103699 
z"/>
<path fill="#3D4A59" opacity="1.000000" stroke="none" 
	d="
M255.778656,278.697815 
	C247.804932,284.229187 244.329575,292.291840 242.442764,300.855255 
	C241.303757,306.024719 241.441925,311.681030 242.080246,316.989441 
	C243.080978,325.311554 247.856888,328.899475 256.191589,329.073273 
	C258.052368,329.112030 259.899567,329.802124 261.875732,330.561432 
	C254.633636,334.352386 246.422577,333.045502 240.222137,326.510437 
	C235.585785,321.623871 230.453690,319.125397 223.827393,320.054138 
	C219.496399,320.661224 218.414902,318.249176 217.980164,314.662323 
	C215.518326,294.350037 228.458435,277.531525 248.654907,275.333862 
	C251.075378,275.070526 255.382462,272.762268 255.778656,278.697815 
z"/>
<path fill="#C4CFE2" opacity="1.000000" stroke="none" 
	d="
M253.006348,259.979828 
	C249.875046,260.240540 246.743744,260.501282 243.026230,260.810822 
	C250.209839,244.749969 256.103394,228.603790 273.740417,220.492416 
	C296.172882,210.175613 318.172638,198.913437 340.294037,187.928116 
	C345.664734,185.261063 350.733734,185.030258 355.747314,188.682419 
	C350.006836,191.632797 344.291626,193.928146 338.784698,196.645691 
	C320.432495,205.702042 302.348389,215.326889 283.790100,223.932877 
	C267.782288,231.356140 258.849518,244.196060 253.006348,259.979828 
z"/>
<path fill="#A8BAD4" opacity="1.000000" stroke="none" 
	d="
M224.871643,262.949310 
	C221.851730,267.749664 218.831818,272.550018 215.119659,278.450714 
	C202.808502,260.295013 191.414520,243.491882 179.721329,226.247482 
	C187.858856,224.598389 195.426987,222.769775 203.102142,221.734848 
	C204.830887,221.501740 206.932922,224.037018 208.707993,225.848480 
	C204.723328,231.364548 206.451355,236.119843 209.407257,240.562881 
	C214.430130,248.112778 219.703537,255.496033 224.871643,262.949310 
z"/>
<path fill="#EA5152" opacity="1.000000" stroke="none" 
	d="
M83.017822,190.052643 
	C73.770241,194.177933 64.899849,193.340210 58.820114,186.425598 
	C47.332500,173.360519 36.411343,159.797363 24.541355,145.587097 
	C33.585846,145.291855 41.581482,144.546906 49.697170,147.840088 
	C50.711544,149.905731 51.249699,151.492752 52.243382,152.706985 
	C62.459213,165.190170 72.748802,177.612991 83.017822,190.052643 
z"/>
<path fill="#3D4958" opacity="1.000000" stroke="none" 
	d="
M412.684570,303.353577 
	C409.051697,292.222626 405.880280,281.341034 401.910004,270.759155 
	C399.943268,265.517212 400.789368,262.370819 405.797638,260.184357 
	C407.007904,259.655975 408.151062,258.973816 409.843048,258.092621 
	C410.469849,259.535767 411.132294,260.781647 411.566559,262.102539 
	C418.734070,283.903198 425.833191,305.726440 433.053467,327.509552 
	C434.402802,331.580383 433.996643,334.818329 429.762299,336.593353 
	C426.278564,338.053741 423.512909,336.128723 421.870544,331.225250 
	C418.805725,322.074707 415.829559,312.894470 412.684570,303.353577 
z"/>
<path fill="#ED5253" opacity="1.000000" stroke="none" 
	d="
M209.558533,335.132599 
	C216.527588,344.818359 223.046005,354.421539 229.528641,364.048828 
	C232.030457,367.764252 234.451035,371.534424 236.967834,375.623779 
	C230.888382,376.058807 224.746719,376.280579 218.613327,376.140167 
	C217.233109,376.108582 215.388046,375.163696 214.592941,374.045044 
	C205.839462,361.729614 197.248322,349.298737 188.634018,336.884674 
	C188.386673,336.528259 188.369324,336.012177 188.100601,335.059662 
	C195.283997,335.059662 202.188812,335.059662 209.558533,335.132599 
z"/>
<path fill="#3D4A58" opacity="1.000000" stroke="none" 
	d="
M160.065872,239.777573 
	C148.505020,241.556717 138.614243,238.711319 129.755600,230.629913 
	C120.179688,221.894226 109.792175,214.048828 99.774368,205.796036 
	C98.550560,204.787888 97.423759,203.661987 95.655090,202.044891 
	C100.001511,200.556458 103.506737,198.909409 107.184593,198.293991 
	C108.901657,198.006653 111.244698,199.347504 112.803024,200.582535 
	C120.365761,206.576218 127.637650,212.940369 135.263214,218.849854 
	C139.038589,221.775620 143.354385,224.004074 147.750015,227.102844 
	C149.170929,228.841507 150.230865,230.061966 151.371262,231.201950 
	C154.250153,234.079803 157.165268,236.921432 160.065872,239.777573 
z"/>
<path fill="#F0B236" opacity="1.000000" stroke="none" 
	d="
M453.012299,269.951996 
	C446.329529,272.396851 439.646790,274.841705 432.466858,277.468445 
	C430.893250,272.754211 429.422211,268.408722 427.993500,264.049377 
	C426.613098,259.837372 425.276367,255.611069 423.358856,249.643188 
	C432.079224,250.806702 439.693604,251.822647 447.727173,253.351929 
	C449.768341,259.227509 451.390320,264.589752 453.012299,269.951996 
z"/>
<path fill="#3D4958" opacity="1.000000" stroke="none" 
	d="
M380.278137,167.278976 
	C380.463379,167.550003 380.708557,167.797592 380.825104,168.095505 
	C384.351776,177.110596 383.440247,178.996719 373.435699,182.649582 
	C371.920593,178.122757 370.798492,173.412735 368.762207,169.138214 
	C367.273407,166.012985 365.025940,162.898193 362.332306,160.772751 
	C357.121063,156.660767 351.344452,153.267792 345.824738,149.543427 
	C340.928436,146.239716 339.679718,143.096298 342.154358,139.842972 
	C345.349609,135.642258 348.800201,137.401154 352.178558,139.709915 
	C353.003021,140.273346 353.839600,140.818970 354.631592,141.910553 
	C353.113434,146.737778 355.190369,150.286392 358.158630,152.488937 
	C365.272858,157.767929 372.873688,162.391113 380.278137,167.278976 
z"/>
<path fill="#D8DEEC" opacity="1.000000" stroke="none" 
	d="
M253.354950,260.084991 
	C258.849518,244.196060 267.782288,231.356140 283.790100,223.932877 
	C302.348389,215.326889 320.432495,205.702042 338.784698,196.645691 
	C344.291626,193.928146 350.006836,191.632797 355.972595,188.980743 
	C356.494507,189.419083 356.923309,190.489594 356.808228,190.551666 
	C355.206177,191.415634 353.509491,192.100647 351.874390,192.907394 
	C331.475494,202.972229 310.993256,212.873550 290.718506,223.182816 
	C275.838135,230.749176 265.787689,242.822830 259.916046,258.415039 
	C259.631958,259.169495 259.160797,259.853485 258.730347,260.656952 
	C256.982819,260.494690 255.343201,260.342407 253.354950,260.084991 
z"/>
<path fill="#EA5152" opacity="1.000000" stroke="none" 
	d="
M309.740997,326.825195 
	C305.308136,337.703400 291.218262,343.503052 278.108704,339.923096 
	C284.028473,333.906677 288.354980,326.788025 290.000336,318.201080 
	C296.739960,321.104218 303.106049,323.846466 309.740997,326.825195 
z"/>
<path fill="#F96868" opacity="1.000000" stroke="none" 
	d="
M83.405167,190.048843 
	C72.748802,177.612991 62.459213,165.190170 52.243382,152.706985 
	C51.249699,151.492752 50.711544,149.905731 49.941483,148.105011 
	C51.852730,148.979736 53.963837,150.035141 55.687416,151.535675 
	C68.121529,162.360703 80.470055,173.283981 92.879448,184.137573 
	C93.481224,184.663895 94.399323,184.828568 95.170120,185.161652 
	C94.930855,185.599106 94.691597,186.036575 94.452332,186.474030 
	C90.899055,187.664368 87.345779,188.854706 83.405167,190.048843 
z"/>
<path fill="#C4CFE2" opacity="1.000000" stroke="none" 
	d="
M225.095001,262.679199 
	C219.703537,255.496033 214.430130,248.112778 209.407257,240.562881 
	C206.451355,236.119843 204.723328,231.364548 208.830505,226.169083 
	C215.946381,233.376205 222.848648,240.756714 229.536865,248.326385 
	C230.318558,249.211105 230.433273,251.337570 229.968445,252.546707 
	C228.667786,255.930038 226.901138,259.134186 225.095001,262.679199 
z"/>
<path fill="#529BF5" opacity="1.000000" stroke="none" 
	d="
M454.479614,154.869919 
	C455.249023,155.688751 456.018433,156.507584 457.383148,157.959961 
	C450.410065,157.962372 444.249603,157.552673 440.309265,151.959045 
	C431.442993,139.372696 422.899384,126.559013 414.224487,113.837837 
	C414.501526,113.349739 414.778564,112.861633 415.055603,112.373535 
	C416.529358,113.024834 418.414490,113.300583 419.408661,114.389656 
	C424.995422,120.509926 430.367645,126.826019 436.050507,133.640640 
	C436.560516,134.474136 436.833069,134.742310 437.105621,135.010468 
	C437.105621,135.010483 437.007263,134.978104 437.070007,135.251953 
	C437.615265,135.865524 438.097778,136.205261 438.580292,136.545013 
	C438.580292,136.544998 438.639496,136.651047 438.496460,136.949142 
	C441.475342,141.869125 444.384369,146.659805 447.839661,151.017349 
	C448.981384,152.457169 451.531921,152.779846 453.438324,153.613327 
	C453.438324,153.613327 453.304779,153.843613 453.368896,154.028702 
	C453.781860,154.432495 454.130737,154.651215 454.479614,154.869919 
z"/>
<path fill="#3D4958" opacity="1.000000" stroke="none" 
	d="
M183.405426,209.939240 
	C179.463379,206.359253 176.027496,202.677017 172.346115,199.259216 
	C168.741989,195.913147 164.887695,192.836533 161.069412,189.311249 
	C166.210159,189.906998 171.459625,190.679199 176.618759,191.849564 
	C178.246399,192.218811 179.894531,193.403931 181.080734,194.647354 
	C185.050217,198.808411 188.814972,203.164749 193.265915,208.123428 
	C189.532227,208.845291 186.668167,209.399017 183.405426,209.939240 
z"/>
<path fill="#566372" opacity="1.000000" stroke="none" 
	d="
M380.241150,166.860794 
	C372.873688,162.391113 365.272858,157.767929 358.158630,152.488937 
	C355.190369,150.286392 353.113434,146.737778 354.848999,142.173706 
	C361.601196,146.157440 368.582367,149.857040 374.392639,154.904495 
	C377.400787,157.517715 378.333710,162.519775 380.241150,166.860794 
z"/>
<path fill="#FDC956" opacity="1.000000" stroke="none" 
	d="
M453.397827,269.958679 
	C451.390320,264.589752 449.768341,259.227509 448.086182,253.503448 
	C455.962494,256.137787 463.898987,259.133911 471.835449,262.130066 
	C471.752777,262.721680 471.670074,263.313293 471.587402,263.904907 
	C465.652710,265.925049 459.718048,267.945190 453.397827,269.958679 
z"/>
<path fill="#566372" opacity="1.000000" stroke="none" 
	d="
M160.503448,239.831970 
	C157.165268,236.921432 154.250153,234.079803 151.371262,231.201950 
	C150.230865,230.061966 149.170929,228.841507 148.027832,227.311279 
	C152.343872,227.664581 157.130051,227.482300 160.948013,229.315979 
	C164.645950,231.092010 167.348190,234.941238 170.487762,237.879898 
	C170.176819,238.548721 169.865891,239.217529 169.554962,239.886353 
	C166.683640,239.886353 163.812332,239.886353 160.503448,239.831970 
z"/>
<path fill="#3D4958" opacity="1.000000" stroke="none" 
	d="
M475.991516,220.939316 
	C470.691589,223.236130 467.120422,219.874374 462.676636,217.302689 
	C466.980164,212.651978 472.154663,211.990646 477.595734,211.699219 
	C477.250458,215.054062 476.620972,217.996689 475.991516,220.939316 
z"/>
<path fill="#7DB4F0" opacity="1.000000" stroke="none" 
	d="
M453.291748,153.309174 
	C451.531921,152.779846 448.981384,152.457169 447.839661,151.017349 
	C444.384369,146.659805 441.475342,141.869125 438.490479,136.888702 
	C443.466736,142.021790 448.305969,147.513412 453.291748,153.309174 
z"/>
<path fill="#566372" opacity="1.000000" stroke="none" 
	d="
M476.410309,220.979248 
	C476.620972,217.996689 477.250458,215.054062 477.987610,211.779205 
	C483.382050,210.965637 481.523224,215.775909 483.022003,218.099701 
	C480.957703,219.072845 478.893402,220.046021 476.410309,220.979248 
z"/>
<path fill="#7DB4F0" opacity="1.000000" stroke="none" 
	d="
M438.452393,136.279114 
	C438.097778,136.205261 437.615265,135.865524 437.087128,135.203094 
	C437.469177,135.257980 437.896820,135.635590 438.452393,136.279114 
z"/>
<path fill="#7DB4F0" opacity="1.000000" stroke="none" 
	d="
M454.333618,154.573563 
	C454.130737,154.651215 453.781860,154.432495 453.256195,153.957886 
	C453.448822,153.893723 453.818237,154.085464 454.333618,154.573563 
z"/>
<path fill="#566372" opacity="1.000000" stroke="none" 
	d="
M47.298496,293.312592 
	C47.298729,293.134888 47.590565,292.739960 48.215096,292.175171 
	C48.228558,292.368683 47.909328,292.732025 47.298496,293.312592 
z"/>
<path fill="#7DB4F0" opacity="1.000000" stroke="none" 
	d="
M437.029663,134.719421 
	C436.833069,134.742310 436.560516,134.474136 436.158752,133.944916 
	C436.337585,133.932037 436.645660,134.180191 437.029663,134.719421 
z"/>
</svg>