<?xml version="1.0" encoding="UTF-8"?>
<svg version="1.1" xmlns="http://www.w3.org/2000/svg" width="512" height="512">
<path d="M0 0 C1.55485107 -0.0151062 1.55485107 -0.0151062 3.14111328 -0.03051758 C13.59557738 0.08612109 23.22127065 2.27756249 32.5 7.125 C33.17812744 7.47385254 33.85625488 7.82270508 34.55493164 8.18212891 C40.41414908 11.2892791 45.53730745 14.87988439 50.375 19.4375 C51.13039063 20.14003906 51.88578125 20.84257813 52.6640625 21.56640625 C62.57614858 31.63177201 68.00804978 44.51591144 72.1796875 57.8046875 C81.52875799 87.10860853 93.18689008 106.74485409 117.07093811 126.47149658 C122.51733919 131.07444649 126.11409389 136.31043855 127.375 143.4375 C127.69858848 150.38423272 126.75523154 157.06249726 125.78955078 163.93359375 C125.62029587 165.16727188 125.45104095 166.40095001 125.2766571 167.67201233 C124.71544819 171.74077299 124.14495981 175.80812088 123.5703125 179.875 C123.47209623 180.57074127 123.37387996 181.26648254 123.27268744 181.98330688 C122.34284838 188.5646143 121.40774593 195.14515758 120.46124458 201.72409058 C119.25861157 210.08612688 118.08098209 218.45083411 116.93751347 226.82117176 C116.12739179 232.73541393 115.28791825 238.64506235 114.4275111 244.55219555 C113.91651722 248.06588253 113.41784245 251.58021522 112.9510231 255.10006714 C110.82127923 271.0768061 108.43387652 283.62541513 98.375 296.4375 C97.3738124 297.93976481 96.38521231 299.45064996 95.41967773 300.97607422 C94.6350278 302.14970536 93.84809677 303.32181552 93.05859375 304.4921875 C92.41749413 305.44993576 92.41749413 305.44993576 91.76344299 306.42703247 C90.44876699 308.3904129 89.13090392 310.35162142 87.8125 312.3125 C86.46245865 314.32369257 85.11314704 316.33536621 83.76515198 318.34793091 C82.93843211 319.58193225 82.11047992 320.81510916 81.28111267 322.04733276 C77.65323625 327.45696082 77.23041085 330.86803674 77.19921875 337.3203125 C77.17600608 339.14584468 77.15188817 340.97136553 77.12695312 342.796875 C77.09194899 345.67357805 77.06255922 348.54986848 77.04907227 351.42675781 C77.03350316 354.20428664 76.99322217 356.98060687 76.94921875 359.7578125 C76.95112717 360.60707306 76.95303558 361.45633362 76.95500183 362.33132935 C76.83729929 368.13968931 75.63476133 372.57691278 72.375 377.4375 C67.02605003 382.52552558 62.40160235 382.78306443 55.2734375 382.72265625 C52.375 382.4375 52.375 382.4375 49.125 380.6875 C47.375 378.4375 47.375 378.4375 47.375 374.4375 C45.065 374.4375 42.755 374.4375 40.375 374.4375 C40.375 390.2775 40.375 406.1175 40.375 422.4375 C13.645 422.4375 -13.085 422.4375 -40.625 422.4375 C-40.625 406.5975 -40.625 390.7575 -40.625 374.4375 C-42.935 374.4375 -45.245 374.4375 -47.625 374.4375 C-47.893125 375.38625 -48.16125 376.335 -48.4375 377.3125 C-49.625 380.4375 -49.625 380.4375 -52.625 382.4375 C-59.0548297 383.15192552 -65.18998952 383.2817757 -70.625 379.4375 C-75.36184211 375.22697368 -75.36184211 375.22697368 -76.625 371.4375 C-76.74364929 368.58348873 -76.81028212 365.74948008 -76.8359375 362.89453125 C-76.86402032 361.16340223 -76.89268487 359.43228257 -76.921875 357.70117188 C-76.96300621 354.98039149 -76.99990486 352.25978311 -77.02636719 349.53881836 C-77.05416361 346.90702435 -77.10004661 344.27601686 -77.1484375 341.64453125 C-77.15169037 340.8421553 -77.15494324 340.03977936 -77.15829468 339.21308899 C-77.36787342 329.465384 -81.14706147 323.23558936 -86.8671875 315.55859375 C-88.11359414 313.81392925 -89.35697946 312.06710316 -90.59765625 310.31835938 C-92.52184925 307.61737686 -94.45713758 304.93202645 -96.44970703 302.28100586 C-106.95758805 288.22927482 -110.83685132 275.74201416 -112.79138088 258.43834686 C-113.48074249 252.37411589 -114.35923115 246.3494256 -115.29492188 240.31860352 C-115.52257233 238.85115645 -115.52257233 238.85115645 -115.75482178 237.35406399 C-116.06940168 235.32896421 -116.38421427 233.30390057 -116.69924927 231.27887154 C-117.49904268 226.09698557 -118.26988939 220.91082627 -119.04101562 215.72460938 C-119.9928507 209.32530096 -120.9468896 202.92641323 -121.91821289 196.5300293 C-122.71892038 191.25678176 -123.50802941 185.98191645 -124.28914452 180.70573235 C-124.58378182 178.72831022 -124.88229699 176.75146119 -125.18508339 174.77527046 C-130.1391355 142.37709231 -130.1391355 142.37709231 -125.05737305 134.2565918 C-120.03934282 127.88377038 -114.43907288 122.16630088 -108.4453125 116.72265625 C-93.99554602 103.48189988 -84.93232229 92.05303368 -78.82324219 73.04101562 C-76.83728013 67.06856249 -74.49764273 61.24106786 -72.15545654 55.40100098 C-71.40217619 53.50587085 -70.67076313 51.60361414 -69.94384766 49.69824219 C-62.67547858 31.10686682 -50.55805897 15.45594609 -32.25 6.625 C-30.38648587 5.86696035 -28.510809 5.13823777 -26.625 4.4375 C-25.17867187 3.8496875 -25.17867187 3.8496875 -23.703125 3.25 C-15.79030948 0.47086479 -8.33616781 0.05227787 0 0 Z " fill="#596597" transform="translate(310.625,89.5625)"/>
<path d="M0 0 C2.86253357 1.34716818 5.34286804 2.87773056 7.87890625 4.765625 C8.62575684 5.31895508 9.37260742 5.87228516 10.14208984 6.44238281 C11.34019287 7.33715332 11.34019287 7.33715332 12.5625 8.25 C14.27463927 9.52096847 15.98688183 10.79179783 17.69921875 12.0625 C18.57626465 12.71476563 19.45331055 13.36703125 20.35693359 14.0390625 C22.90540057 15.92981502 25.46070756 17.81079437 28.01953125 19.6875 C34.97858434 24.79191782 41.92869826 29.89976812 48.75 35.1875 C53.46830419 38.83511208 58.21269708 42.44330183 63 46 C63.62358398 46.46946045 64.24716797 46.9389209 64.88964844 47.42260742 C71.12293531 52.02477753 76.21596299 53.90596616 84 53 C90.70514205 50.816823 96.19791087 46.98925636 101.75 42.75 C102.56146484 42.1415625 103.37292969 41.533125 104.20898438 40.90625 C106.81408411 38.94794737 109.40830366 36.9760001 112 35 C112.86302734 34.34322266 113.72605469 33.68644531 114.61523438 33.00976562 C118.12282815 30.33918155 121.62873439 27.66642843 125.13037109 24.98803711 C136.27950113 16.46923983 147.56499758 8.13122203 159 0 C164.29012124 4.40843437 169.18808428 9.07559794 174 14 C171.15517675 17.83579248 168.19783748 20.58765862 164.375 23.4375 C163.20908391 24.31567452 162.04375212 25.19462515 160.87890625 26.07421875 C160.25387207 26.5439209 159.62883789 27.01362305 158.98486328 27.49755859 C154.62884784 30.79484261 150.33241729 34.17004973 146.02929688 37.53588867 C142.08933676 40.61346301 138.13191836 43.66100601 134.12890625 46.65625 C119.37988204 57.75139208 108.62104824 69.12810174 105 88 C104.72092455 90.9403755 104.67265414 93.86008663 104.6640625 96.8125 C104.6574057 97.62565674 104.6507489 98.43881348 104.64389038 99.27661133 C104.63383158 100.98418945 104.62907124 102.69180635 104.62939453 104.39941406 C104.62501098 106.99350156 104.58859301 109.58589884 104.55078125 112.1796875 C104.54491343 113.84895259 104.5409438 115.51822566 104.5390625 117.1875 C104.52469147 117.95231689 104.51032043 118.71713379 104.49551392 119.50512695 C104.54185365 125.0355579 105.81907602 129.42104911 109 134 C113.17638477 137.67443538 117.14930839 138.46203653 122.61547852 138.34863281 C126.859818 137.72808231 129.90217273 135.52879038 133.375 133.125 C134.16302002 132.60413818 134.95104004 132.08327637 135.76293945 131.54663086 C137.52702065 130.37646204 139.28457425 129.19641247 141.03662109 128.00830078 C144.33046345 125.77604281 147.64196383 123.57163779 150.95703125 121.37109375 C154.52920725 118.99855245 158.09980345 116.62389791 161.65966797 114.23291016 C178.39461254 103 178.39461254 103 181 103 C181.25745629 110.75127325 180.0211078 118.02964922 178.65039062 125.64282227 C177.67760181 131.19267693 176.90416511 136.52442138 176.828125 142.1640625 C176.08130104 161.78516482 166.17891473 175.00193844 155.10742188 190.55834961 C154.48170288 191.43816498 153.85598389 192.31798035 153.21130371 193.22445679 C152.02668864 194.87638569 150.83029557 196.51996173 149.61975098 198.15298462 C143.63886424 206.39073293 140.40674367 214.06150104 140.390625 224.2890625 C140.37408875 225.11836273 140.35755249 225.94766296 140.34051514 226.80209351 C140.292544 229.40980808 140.27077941 232.01694202 140.25 234.625 C140.22179752 236.41018468 140.19186422 238.19534289 140.16015625 239.98046875 C140.08680005 244.32026453 140.03691665 248.65974754 140 253 C136.96960449 253.68664551 136.96960449 253.68664551 133.93920898 254.37329102 C131.24111191 255.24525566 130.28010397 256.5150923 129 259 C128.67 259.99 128.34 260.98 128 262 C125.69 262 123.38 262 121 262 C121 277.84 121 293.68 121 310 C94.27 310 67.54 310 40 310 C40 294.16 40 278.32 40 262 C37.36 262 34.72 262 32 262 C31.71125 261.21625 31.4225 260.4325 31.125 259.625 C30.15087746 256.90328368 30.15087746 256.90328368 28 255 C25.34462628 254.43479997 22.70855287 254.26211802 20 254 C19.9906543 252.84064941 19.98130859 251.68129883 19.97167969 250.48681641 C19.93150365 246.14399202 19.86567094 241.80185566 19.79248047 237.45947266 C19.76442984 235.58781846 19.74313698 233.71604931 19.72900391 231.84423828 C19.70735204 229.13775443 19.66059237 226.43262987 19.609375 223.7265625 C19.60814636 222.90322418 19.60691772 222.07988586 19.60565186 221.2315979 C19.34583461 210.68962602 14.68055339 202.95777092 8.58984375 194.64453125 C7.33845097 192.86927749 6.08917002 191.09253356 4.84179688 189.31445312 C2.90436 186.57066442 0.95643784 183.83831195 -1.03051758 181.13012695 C-10.57085119 168.06731899 -15.06078353 157.54155724 -15.8625946 141.29992676 C-16.03300514 138.44755149 -16.46998131 135.6810597 -17 132.875 C-17.97446947 127.26138955 -18.8462145 121.6348998 -19.6875 116 C-19.83123047 115.07815918 -19.97496094 114.15631836 -20.12304688 113.20654297 C-20.31543945 111.8977417 -20.31543945 111.8977417 -20.51171875 110.5625 C-20.62990967 109.78003906 -20.74810059 108.99757813 -20.86987305 108.19140625 C-21.00601921 105.8986334 -20.67542074 104.18322838 -20 102 C-18.89881836 102.73935791 -18.89881836 102.73935791 -17.77539062 103.49365234 C1.57371742 116.49479083 1.57371742 116.49479083 21.28857422 128.9296875 C23.06493825 130.04061188 24.80042103 131.20027474 26.53515625 132.375 C34.14444989 137.5640491 34.14444989 137.5640491 43.06640625 138.53125 C47.95202766 137.18893786 51.38963812 134.25901148 54 130 C55.22252007 126.33243978 55.18147149 122.92641498 55.203125 119.10546875 C55.20882507 118.32166336 55.21452515 117.53785797 55.22039795 116.7303009 C55.22984878 115.06508734 55.23638226 113.39985507 55.24023438 111.73461914 C55.24981852 109.23483422 55.28078752 106.73591577 55.3125 104.23632812 C55.43369668 86.11934339 52.52024746 71.13290746 39.65234375 57.515625 C35.0500834 53.15059457 30.05946218 49.33942466 25.00244141 45.52001953 C21.3905915 42.77832512 17.82435772 39.97778012 14.25 37.1875 C9.47412101 33.46017385 4.68483077 29.75429634 -0.1484375 26.1015625 C-0.98149414 25.46710205 -1.81455078 24.8326416 -2.67285156 24.17895508 C-4.28095269 22.9549474 -5.89472723 21.73835017 -7.51464844 20.5300293 C-8.23426758 19.98000244 -8.95388672 19.42997559 -9.6953125 18.86328125 C-10.33484863 18.38157471 -10.97438477 17.89986816 -11.63330078 17.40356445 C-13 16 -13 16 -13 13 C-11.80664062 11.46606445 -11.80664062 11.46606445 -10.15625 9.86328125 C-9.56972656 9.28642578 -8.98320312 8.70957031 -8.37890625 8.11523438 C-7.75886719 7.52033203 -7.13882813 6.92542969 -6.5 6.3125 C-5.87996094 5.70599609 -5.25992188 5.09949219 -4.62109375 4.47460938 C-3.08735293 2.97626257 -1.54451802 1.48723507 0 0 Z " fill="#FD9295" transform="translate(230,202)"/>
<path d="M0 0 C14.71224014 13.67616689 25.83987456 34.36252649 27.11450195 54.62646484 C27.40326234 68.27758332 27.48679221 80.82307355 22.9375 93.8125 C22.586875 94.84890625 22.23625 95.8853125 21.875 96.953125 C13.44378055 119.31927661 -3.77529587 136.72219407 -25.36816406 146.53662109 C-34.36860475 150.38626356 -43.21860854 152.8125 -53.0625 152.8125 C-53.0625 242.5725 -53.0625 332.3325 -53.0625 424.8125 C-50.4225 425.1425 -47.7825 425.4725 -45.0625 425.8125 C-39.94958983 428.01707155 -35.68210628 431.62733024 -32.0625 435.8125 C-32.0625 436.4725 -32.0625 437.1325 -32.0625 437.8125 C-51.5325 437.8125 -71.0025 437.8125 -91.0625 437.8125 C-87.08283089 431.84299634 -85.89077943 430.19666225 -80.0625 426.8125 C-76.7625 426.1525 -73.4625 425.4925 -70.0625 424.8125 C-70.0625 335.0525 -70.0625 245.2925 -70.0625 152.8125 C-73.6925 152.4825 -77.3225 152.1525 -81.0625 151.8125 C-84.14404687 151.03096726 -87.01822401 150.22751461 -90 149.1875 C-90.77214844 148.92243652 -91.54429688 148.65737305 -92.33984375 148.38427734 C-107.3799883 143.01055903 -120.76545866 132.99334116 -131.0625 120.8125 C-131.63740677 120.15795334 -132.21231354 119.50340668 -132.80464172 118.82902527 C-139.74198371 109.71656174 -139.12043184 100.45310655 -139.0625 89.5078125 C-139.0723156 87.53684563 -139.08390346 85.56588687 -139.09716797 83.59494019 C-139.11643324 79.47780415 -139.10961385 75.36172771 -139.08496094 71.24462891 C-139.05630484 65.99974982 -139.09998422 60.75836191 -139.16436768 55.51390266 C-139.20491501 51.44703013 -139.20292384 47.3809788 -139.18896484 43.31396103 C-139.18799938 41.38206569 -139.20069646 39.45010816 -139.22802734 37.51840591 C-139.38493256 24.50975197 -137.97992693 16.63165782 -129.0625 6.8125 C-128.6149939 6.30852818 -128.16748779 5.80455635 -127.7064209 5.28531265 C-120.7613247 -2.51851478 -113.02053074 -8.00127168 -104.0625 -13.1875 C-103.19753906 -13.69152344 -102.33257812 -14.19554687 -101.44140625 -14.71484375 C-67.70781153 -32.93873975 -27.96226636 -23.80860658 0 0 Z " fill="#F4C390" transform="translate(138.0625,74.1875)"/>
<path d="M0 0 C14.71224014 13.67616689 25.83987456 34.36252649 27.11450195 54.62646484 C27.40326234 68.27758332 27.48679221 80.82307355 22.9375 93.8125 C22.586875 94.84890625 22.23625 95.8853125 21.875 96.953125 C13.44378055 119.31927661 -3.77529587 136.72219407 -25.36816406 146.53662109 C-34.36860475 150.38626356 -43.21860854 152.8125 -53.0625 152.8125 C-53.0625 242.5725 -53.0625 332.3325 -53.0625 424.8125 C-50.4225 425.1425 -47.7825 425.4725 -45.0625 425.8125 C-39.94958983 428.01707155 -35.68210628 431.62733024 -32.0625 435.8125 C-32.0625 436.4725 -32.0625 437.1325 -32.0625 437.8125 C-51.5325 437.8125 -71.0025 437.8125 -91.0625 437.8125 C-87.08283089 431.84299634 -85.89077943 430.19666225 -80.0625 426.8125 C-76.7625 426.1525 -73.4625 425.4925 -70.0625 424.8125 C-70.0625 335.0525 -70.0625 245.2925 -70.0625 152.8125 C-73.6925 152.4825 -77.3225 152.1525 -81.0625 151.8125 C-84.14404687 151.03096726 -87.01822401 150.22751461 -90 149.1875 C-90.77214844 148.92243652 -91.54429688 148.65737305 -92.33984375 148.38427734 C-107.3799883 143.01055903 -120.76545866 132.99334116 -131.0625 120.8125 C-131.63740677 120.15795334 -132.21231354 119.50340668 -132.80464172 118.82902527 C-139.74198371 109.71656174 -139.12043184 100.45310655 -139.0625 89.5078125 C-139.0723156 87.53684563 -139.08390346 85.56588687 -139.09716797 83.59494019 C-139.11643324 79.47780415 -139.10961385 75.36172771 -139.08496094 71.24462891 C-139.05630484 65.99974982 -139.09998422 60.75836191 -139.16436768 55.51390266 C-139.20491501 51.44703013 -139.20292384 47.3809788 -139.18896484 43.31396103 C-139.18799938 41.38206569 -139.20069646 39.45010816 -139.22802734 37.51840591 C-139.38493256 24.50975197 -137.97992693 16.63165782 -129.0625 6.8125 C-128.6149939 6.30852818 -128.16748779 5.80455635 -127.7064209 5.28531265 C-120.7613247 -2.51851478 -113.02053074 -8.00127168 -104.0625 -13.1875 C-103.19753906 -13.69152344 -102.33257812 -14.19554687 -101.44140625 -14.71484375 C-67.70781153 -32.93873975 -27.96226636 -23.80860658 0 0 Z M-117.75 18.875 C-131.62238402 36.56478466 -134.28280927 56.08544617 -132.859375 77.9296875 C-130.45370284 95.13547316 -119.79902204 110.68351412 -106.8203125 121.75 C-89.33735591 134.82507235 -71.15240696 138.31107217 -49.76171875 136.5390625 C-33.73883184 134.02287581 -20.46881483 125.9936902 -9.0625 114.8125 C-8.36125 114.14734375 -7.66 113.4821875 -6.9375 112.796875 C6.0526117 99.50230756 11.61318147 80.43486371 11.40844727 62.22900391 C10.79999158 45.37623389 4.18794525 29.38652704 -7.0625 16.8125 C-8.04476562 15.69101563 -8.04476562 15.69101563 -9.046875 14.546875 C-18.45427686 4.45280147 -29.95665987 -1.30137454 -43.0625 -5.1875 C-44.28646484 -5.55681641 -44.28646484 -5.55681641 -45.53515625 -5.93359375 C-72.48745307 -12.63699519 -99.87472227 -1.46688334 -117.75 18.875 Z " fill="#586596" transform="translate(138.0625,74.1875)"/>
<path d="M0 0 C0.6703125 0.47824219 1.340625 0.95648438 2.03125 1.44921875 C3.0625 2.17109375 4.09375 2.89296875 5.15625 3.63671875 C14.64332414 12.16442585 19.38818391 23.88951175 24.03125 35.44921875 C24.29047241 36.09221924 24.54969482 36.73521973 24.81677246 37.39770508 C26.62983231 41.90159043 28.41837714 46.41447439 30.18447876 50.9369812 C30.78876227 52.48195534 31.39663273 54.02553151 32.00814819 55.56765747 C32.87411339 57.75898498 33.72246616 59.95636113 34.56640625 62.15625 C34.83053314 62.81707581 35.09466003 63.47790161 35.36679077 64.15875244 C36.79686258 67.95187426 37.51880799 70.6028248 36.03125 74.44921875 C34.56689453 76.07983398 34.56689453 76.07983398 32.6640625 77.5078125 C31.95338623 78.05099121 31.24270996 78.59416992 30.51049805 79.15380859 C29.73359619 79.72566895 28.95669434 80.2975293 28.15625 80.88671875 C26.94545776 81.80251709 26.94545776 81.80251709 25.71020508 82.73681641 C23.16201444 84.65688507 20.59922438 86.55571139 18.03125 88.44921875 C17.24766113 89.02913574 16.46407227 89.60905273 15.65673828 90.20654297 C12.56756166 92.4909267 9.47534949 94.77094947 6.37402344 97.03881836 C-0.72453067 102.23488442 -7.71541725 107.56688325 -14.67700195 112.94482422 C-17.0926683 114.8006213 -19.5240112 116.63192622 -21.96875 118.44921875 C-23.1767627 119.35800781 -23.1767627 119.35800781 -24.40917969 120.28515625 C-25.18938477 120.84460938 -25.96958984 121.4040625 -26.7734375 121.98046875 C-27.46163574 122.48126953 -28.14983398 122.98207031 -28.85888672 123.49804688 C-31.67524478 124.76772184 -33.0645763 124.40652574 -35.96875 123.44921875 C-37.96313477 122.28857422 -37.96313477 122.28857422 -39.91015625 120.81640625 C-40.64814453 120.26533203 -41.38613281 119.71425781 -42.14648438 119.14648438 C-42.93345703 118.54513672 -43.72042969 117.94378906 -44.53125 117.32421875 C-45.36333984 116.69966797 -46.19542969 116.07511719 -47.05273438 115.43164062 C-48.81158277 114.11019873 -50.56754729 112.78491079 -52.32080078 111.45605469 C-55.69958447 108.89533166 -59.09206263 106.35313947 -62.48486328 103.81103516 C-64.1443303 102.56716888 -65.80285588 101.32204566 -67.46044922 100.07568359 C-74.08551475 95.09619468 -80.75000135 90.17192413 -87.43945312 85.27929688 C-92.69013381 81.42879771 -97.84784129 77.47058282 -102.96875 73.44921875 C-102.23142603 68.50022037 -100.3941144 64.04644689 -98.58203125 59.4140625 C-98.24253952 58.53955948 -97.90304779 57.66505646 -97.55326843 56.76405334 C-96.83325477 54.91325895 -96.11110205 53.06329548 -95.38696289 51.21411133 C-94.2956338 48.42349922 -93.21478337 45.62899028 -92.13476562 42.83398438 C-84.08795299 22.13826427 -76.48127571 4.58188718 -55.21875 -5.48828125 C-37.1739866 -13.40414444 -16.29530582 -10.78206068 0 0 Z " fill="#E5F3F5" transform="translate(342.96875,115.55078125)"/>
<path d="M0 0 C2.08531906 0.00849862 4.16788102 -0.02028364 6.25292969 -0.05200195 C17.17933654 -0.11041231 24.79826294 1.89923596 32.86621094 9.38745117 C38.96461176 16.1534664 42.91794281 24.16289689 43.04052734 33.33227539 C43.060392 34.47984818 43.08025665 35.62742096 43.10072327 36.80976868 C43.11227951 38.04841171 43.12383575 39.28705475 43.13574219 40.56323242 C43.15515366 41.86918869 43.17456512 43.17514496 43.19456482 44.52067566 C43.24644855 48.05611497 43.285999 51.59159154 43.32277298 55.12721634 C43.3546659 58.05390928 43.39366908 60.98049062 43.43254185 63.90709782 C43.76902619 89.42089112 43.80166778 114.92984194 43.72167969 140.44604492 C16.99167969 140.44604492 -9.73832031 140.44604492 -37.27832031 140.44604492 C-37.43875555 112.93585825 -37.43875555 112.93585825 -37.47363281 101.1706543 C-37.49750434 93.15613341 -37.52568438 85.14182068 -37.58007812 77.12744141 C-37.62367593 70.66296698 -37.64748712 64.19868952 -37.65782928 57.73407936 C-37.66519559 55.27302769 -37.67958009 52.81198628 -37.70124054 50.35101891 C-37.73045884 46.89247069 -37.7342685 43.43472684 -37.73242188 39.97607422 C-37.74680298 38.96833954 -37.76118408 37.96060486 -37.77600098 36.92233276 C-37.70940934 25.32642325 -33.69437988 15.95080577 -25.58300781 7.72729492 C-17.76822208 0.57834295 -10.21692121 -0.06346658 0 0 Z " fill="#586597" transform="translate(307.2783203125,371.553955078125)"/>
<path d="M0 0 C4.29161047 -0.05783842 8.58312145 -0.0935412 12.875 -0.125 C14.09832031 -0.14175781 15.32164062 -0.15851563 16.58203125 -0.17578125 C17.74863281 -0.18222656 18.91523438 -0.18867188 20.1171875 -0.1953125 C21.19597168 -0.20578613 22.27475586 -0.21625977 23.38623047 -0.22705078 C26 0 26 0 28 2 C27.33291016 2.63615234 27.33291016 2.63615234 26.65234375 3.28515625 C22.71541693 7.31505413 22.71541693 7.31505413 22 12.8125 C22.74740711 16.05608582 22.74740711 16.05608582 25 18 C29.8225171 18.31113014 32.75366805 18.39927276 37 16 C38.54592217 30.80649902 38.54592217 30.80649902 34.80859375 36.109375 C32.0625 38.625 32.0625 38.625 29.28515625 40.7265625 C26.26502812 43.73120279 26.06728919 45.80403811 26 50 C27.91666667 53.08333333 27.91666667 53.08333333 31 55 C34.12262309 55.17219686 34.12262309 55.17219686 37 55 C38.5488273 66.94317943 38.5488273 66.94317943 34.80859375 71.91015625 C32.0625 74.4375 32.0625 74.4375 29.28515625 76.62109375 C26.32107158 79.70678189 26.06794589 81.77764808 26 86 C27.91666667 89.08333333 27.91666667 89.08333333 31 91 C34.12262309 91.17219686 34.12262309 91.17219686 37 91 C38.5488273 102.94317943 38.5488273 102.94317943 34.80859375 107.91015625 C32.0625 110.4375 32.0625 110.4375 29.28515625 112.62109375 C25.97842901 116.06348159 26 119.38195935 26 124 C17.42 124 8.84 124 0 124 C0 121.36 0 118.72 0 116 C-2.36928694 113.18754238 -2.36928694 113.18754238 -5.5 110.875 C-8.91937709 107.93336529 -10.85333037 105.76628998 -11.73046875 101.18359375 C-11.6921107 97.72788211 -11.4940927 94.41872219 -11 91 C-6.05 90.505 -6.05 90.505 -1 90 C0.21859921 86.34420237 0.43001564 83.84119738 0 80 C-2.39269637 77.28643165 -2.39269637 77.28643165 -5.5 74.9375 C-8.91222479 71.97222186 -10.85272282 69.77025177 -11.73046875 65.1796875 C-11.69208744 61.72536968 -11.49389562 58.4173586 -11 55 C-6.05 54.505 -6.05 54.505 -1 54 C0.21730816 50.34807552 0.43130848 47.83615718 0 44 C-2.4036506 41.42717104 -2.4036506 41.42717104 -5.5 39.1875 C-9.33293108 35.93312455 -11.29431224 33.39890542 -11.73046875 28.2890625 C-11.80763044 23.8263989 -11.48294754 19.4343365 -11 15 C-10.42378906 15.48726563 -9.84757812 15.97453125 -9.25390625 16.4765625 C-5.66275651 18.90385609 -3.27401592 18.40704914 1 18 C3.14780077 17.10242444 3.14780077 17.10242444 4 15 C4.66707548 11.58500409 4.66707548 11.58500409 4 8 C1.64581624 5.06026719 1.64581624 5.06026719 -1 3 C-0.67 2.01 -0.34 1.02 0 0 Z " fill="#90A5B7" transform="translate(297,388)"/>
<path d="M0 0 C10.828125 -0.1546875 10.828125 -0.1546875 21.875 -0.3125 C25.26241455 -0.38078003 25.26241455 -0.38078003 28.71826172 -0.45043945 C30.53872194 -0.46506321 32.35919872 -0.47779939 34.1796875 -0.48828125 C35.10015869 -0.51386108 36.02062988 -0.53944092 36.96899414 -0.5657959 C44.6183679 -0.57086171 51.18644656 1.51350868 56.92062378 6.75590515 C62.74321551 12.97086729 64.5696087 19.49822573 64.5 27.8125 C64.49427979 28.60495117 64.48855957 29.39740234 64.48266602 30.21386719 C64.2542561 37.72293937 62.4413045 43.18268598 57.35546875 48.82421875 C49.05125431 56.56607104 40.97383908 56.39298547 30.0625 56.1875 C25.421875 56.125625 20.78125 56.06375 16 56 C16 66.56 16 77.12 16 88 C10.72 88 5.44 88 0 88 C0 58.96 0 29.92 0 0 Z " fill="#596596" transform="translate(49,99)"/>
<path d="M0 0 C2.15302942 1.12031295 3.39011739 1.97403007 4.82421875 3.94921875 C6.12369912 11.40212088 4.50916839 19.3931067 3.05908203 26.74365234 C2.25020125 30.89855436 1.75346491 34.78443013 1.765625 39.0234375 C1.63224481 45.43486413 1.42241737 51.26681071 -3.23974609 56.08007812 C-8.78920052 60.46846514 -14.90734187 63.86514458 -21.10742188 67.24072266 C-25.68214974 69.78798122 -30.00776979 72.67345598 -34.36328125 75.57421875 C-35.97789173 76.62435867 -37.59378035 77.67253605 -39.2109375 78.71875 C-42.7482219 81.0156787 -46.27473366 83.32835916 -49.796875 85.6484375 C-50.71766846 86.25284668 -51.63846191 86.85725586 -52.5871582 87.47998047 C-54.36285994 88.64588882 -56.13623577 89.81534922 -57.90698242 90.98876953 C-59.09578003 91.76776611 -59.09578003 91.76776611 -60.30859375 92.5625 C-61.00871582 93.02438721 -61.70883789 93.48627441 -62.43017578 93.9621582 C-64.17578125 94.94921875 -64.17578125 94.94921875 -66.17578125 94.94921875 C-66.27585303 90.59340224 -66.34780573 86.23822282 -66.39550781 81.8815918 C-66.41542612 80.40458497 -66.44257132 78.92765491 -66.47753906 77.45092773 C-66.78066532 64.30505516 -64.79660537 53.35043046 -56.17578125 42.94921875 C-50.2293289 36.741758 -43.30895211 31.70145554 -36.41918945 26.60668945 C-31.69277579 23.10983995 -27.06469894 19.51487818 -22.48828125 15.82421875 C-21.87662109 15.33373047 -21.26496094 14.84324219 -20.63476562 14.33789062 C-18.19137499 12.3784943 -15.74937403 10.41798564 -13.32421875 8.43603516 C-11.55444704 6.99150607 -9.77277573 5.5629923 -7.98828125 4.13671875 C-6.45107422 2.88955078 -6.45107422 2.88955078 -4.8828125 1.6171875 C-2.17578125 -0.05078125 -2.17578125 -0.05078125 0 0 Z " fill="#E4F2F4" transform="translate(416.17578125,229.05078125)"/>
<path d="M0 0 C4.96591725 3.20129886 9.60506599 6.7270027 14.25 10.375 C15.84889197 11.62508489 17.44785232 12.87508231 19.046875 14.125 C19.86349609 14.764375 20.68011719 15.40375 21.52148438 16.0625 C24.73656922 18.57578933 27.96076679 21.07722469 31.18530273 23.57836914 C34.15374458 25.88242605 37.1178452 28.19201143 40.08056641 30.50341797 C41.75372882 31.80798241 43.42938531 33.10934684 45.10546875 34.41015625 C47.43524158 36.23943325 49.73064047 38.0965257 52 40 C52.64066406 40.53238281 53.28132813 41.06476563 53.94140625 41.61328125 C59.96951357 47.06852308 63.45125539 54.35376617 66 62 C66.08481773 64.58630224 66.11598229 67.14478056 66.09765625 69.73046875 C66.0962413 70.48088943 66.09482635 71.23131012 66.09336853 72.00447083 C66.0877756 74.3988546 66.07522444 76.79314453 66.0625 79.1875 C66.05748408 80.81184761 66.05292134 82.43619668 66.04882812 84.06054688 C66.03780848 88.04040069 66.02054873 92.02018444 66 96 C61.74578328 94.37885322 58.17524913 92.25723408 54.4375 89.6875 C53.09711558 88.78012421 51.75592745 87.87393488 50.4140625 86.96875 C49.70024414 86.48664063 48.98642578 86.00453125 48.25097656 85.5078125 C44.29819062 82.86004612 40.30455329 80.27551893 36.3125 77.6875 C35.48024902 77.14633545 34.64799805 76.6051709 33.79052734 76.04760742 C29.3559641 73.16620019 24.91135444 70.30169449 20.453125 67.45703125 C19.55037842 66.87800049 18.64763184 66.29896973 17.7175293 65.70239258 C15.99316896 64.59674066 14.2656317 63.49602216 12.53442383 62.40112305 C1.6363571 55.3961035 1.6363571 55.3961035 0.2800293 50.2890625 C-0.32783833 46.86614876 -0.78077344 43.45248996 -1.1875 40 C-1.49315422 37.66662271 -1.79914307 35.33328923 -2.10546875 33 C-2.24960205 31.84765869 -2.39373535 30.69531738 -2.54223633 29.50805664 C-3.14298022 24.90427586 -3.85577882 20.32127411 -4.58349609 15.73608398 C-5.86099344 7.34398976 -5.86099344 7.34398976 -3.87890625 4.25 C-2.5 2.5625 -2.5 2.5625 0 0 Z " fill="#E4F2F5" transform="translate(204,228)"/>
<path d="M0 0 C4.2501688 -0.05387538 8.49965671 -0.09361561 12.75 -0.125 C13.9565625 -0.14175781 15.163125 -0.15851563 16.40625 -0.17578125 C17.56640625 -0.18222656 18.7265625 -0.18867187 19.921875 -0.1953125 C20.99018555 -0.20578613 22.05849609 -0.21625977 23.15917969 -0.22705078 C26.04043048 0.00323138 27.61903435 0.39647893 30 2 C32.35616475 5.53424712 32.2981228 7.18644102 32.3125 11.375 C32.32925781 12.49648437 32.34601563 13.61796875 32.36328125 14.7734375 C31.96543805 18.3069696 31.11376875 20.17135569 29 23 C26.23382437 24.38308781 23.98982 24.11210196 20.8984375 24.09765625 C19.68671875 24.09443359 18.475 24.09121094 17.2265625 24.08789062 C15.95554687 24.07951172 14.68453125 24.07113281 13.375 24.0625 C12.09625 24.05798828 10.8175 24.05347656 9.5 24.04882812 C6.33331355 24.03701213 3.16665104 24.01907621 0 24 C0 16.08 0 8.16 0 0 Z " fill="#F4C390" transform="translate(65,115)"/>
</svg>
