<svg version="1.1" id="Layer_1" xmlns="http://www.w3.org/2000/svg" xmlns:xlink="http://www.w3.org/1999/xlink" x="0px" y="0px"
	 width="100%" viewBox="0 0 512 512" enable-background="new 0 0 512 512" xml:space="preserve">
<path fill="#000000" opacity="1.000000" stroke="none" 
	d="
M1.000002,220.000000 
	C1.000000,147.033508 1.000000,74.067024 1.000000,1.050269 
	C171.554794,1.050269 342.109619,1.050269 513.000000,1.050269 
	C513.000000,73.687759 513.000000,146.376022 512.649292,219.658966 
	C511.543152,219.207077 510.653595,218.231918 510.053101,217.102982 
	C503.658325,205.081192 493.926239,198.784271 480.064423,198.959488 
	C465.576874,199.142624 451.082977,199.125732 436.597595,198.871277 
	C434.267731,198.830338 431.355133,197.690842 429.751434,196.045792 
	C417.693726,183.677124 405.940582,171.012466 394.007141,158.521561 
	C377.815430,141.573425 361.588837,124.658127 345.300232,107.803123 
	C332.240540,94.289314 319.003693,80.946106 306.014343,67.365669 
	C304.191711,65.460121 302.644836,62.770588 302.133667,60.211555 
	C297.159668,35.312660 273.313202,19.253237 246.759598,24.739822 
	C227.159470,28.789663 215.882706,41.798859 211.090622,60.874084 
	C210.707748,62.398136 210.157135,64.062820 209.166809,65.218628 
	C205.613266,69.365990 201.914948,73.397331 198.131958,77.338730 
	C180.763931,95.433998 163.339203,113.474831 145.955170,131.554764 
	C139.052612,138.733643 132.255646,146.014557 125.317711,153.158813 
	C111.302574,167.590729 97.284821,182.021683 83.083206,196.268661 
	C81.554932,197.801834 78.817581,198.845596 76.621231,198.880890 
	C62.301605,199.111023 47.974884,199.133850 33.653633,198.962006 
	C19.978912,198.797913 10.488496,205.209671 3.995421,216.845963 
	C3.310979,218.072556 2.013220,218.956894 1.000002,220.000000 
z"/>
<path fill="#983C2A" opacity="1.000000" stroke="none" 
	d="
M1.000002,220.468658 
	C2.013220,218.956894 3.310979,218.072556 3.995421,216.845963 
	C10.488496,205.209671 19.978912,198.797913 33.653633,198.962006 
	C47.974884,199.133850 62.301605,199.111023 76.621231,198.880890 
	C78.817581,198.845596 81.554932,197.801834 83.083206,196.268661 
	C97.284821,182.021683 111.302574,167.590729 125.317711,153.158813 
	C132.255646,146.014557 139.052612,138.733643 145.955170,131.554764 
	C163.339203,113.474831 180.763931,95.433998 198.131958,77.338730 
	C201.914948,73.397331 205.613266,69.365990 209.166809,65.218628 
	C210.157135,64.062820 210.707748,62.398136 211.090622,60.874084 
	C215.882706,41.798859 227.159470,28.789663 246.759598,24.739822 
	C273.313202,19.253237 297.159668,35.312660 302.133667,60.211555 
	C302.644836,62.770588 304.191711,65.460121 306.014343,67.365669 
	C319.003693,80.946106 332.240540,94.289314 345.300232,107.803123 
	C361.588837,124.658127 377.815430,141.573425 394.007141,158.521561 
	C405.940582,171.012466 417.693726,183.677124 429.751434,196.045792 
	C431.355133,197.690842 434.267731,198.830338 436.597595,198.871277 
	C451.082977,199.125732 465.576874,199.142624 480.064423,198.959488 
	C493.926239,198.784271 503.658325,205.081192 510.053101,217.102982 
	C510.653595,218.231918 511.543152,219.207077 512.649292,220.126801 
	C513.000000,302.687561 513.000000,385.375122 512.647461,468.409180 
	C511.693542,469.510406 510.924805,470.184448 510.515717,471.032074 
	C504.060150,484.408112 493.412964,490.104004 478.609711,490.089172 
	C330.468811,489.940765 182.327667,489.968018 34.186649,490.049438 
	C20.154404,490.057159 10.134879,484.180298 3.842271,471.685455 
	C3.290993,470.590790 1.965748,469.885925 0.999999,469.000000 
	C1.000000,386.312439 1.000000,303.624878 1.000002,220.468658 
M204.500000,225.919250 
	C148.508133,225.919952 92.516273,225.915497 36.524406,225.926941 
	C28.256948,225.928635 27.009356,227.189468 27.008442,235.501968 
	C27.000469,308.158356 27.000854,380.814728 27.007607,453.471130 
	C27.008400,461.994995 28.083435,463.111450 36.393417,463.111908 
	C183.205994,463.119629 330.018555,463.119690 476.831146,463.112061 
	C485.249329,463.111633 485.981171,462.355133 485.981415,454.004578 
	C485.983795,381.681458 485.983887,309.358368 485.980652,237.035263 
	C485.980194,226.627533 485.281494,225.921860 474.961884,225.921494 
	C385.141266,225.918320 295.320618,225.919373 204.500000,225.919250 
M376.514923,180.976685 
	C373.992126,178.134308 371.577423,175.186691 368.928741,172.466888 
	C353.383484,156.504028 337.775116,140.602631 322.213318,124.655800 
	C320.370483,122.767372 318.793579,120.613281 316.902191,118.779556 
	C309.529907,111.632034 302.080688,104.563911 294.686554,97.491570 
	C272.420166,123.899620 237.051880,121.500038 217.753922,96.993446 
	C216.549408,98.114784 215.304718,99.165230 214.183228,100.333893 
	C199.001495,116.154152 183.883362,132.035736 168.653885,147.809814 
	C155.489594,161.444870 142.165985,174.926132 129.000458,188.559998 
	C126.072449,191.592178 123.511627,194.978928 120.368263,198.690689 
	C211.707581,198.690689 302.322357,198.690689 394.643738,198.690689 
	C388.091309,192.301956 382.547577,186.896729 376.514923,180.976685 
M274.480865,77.664467 
	C274.829315,76.733208 275.247955,75.821602 275.515106,74.867584 
	C277.710022,67.029701 274.620483,58.561466 267.856812,53.797100 
	C261.073517,49.018894 252.561646,48.929329 245.946960,53.566536 
	C238.934219,58.482815 235.858597,66.463280 237.906921,74.428513 
	C239.813370,81.842133 246.222473,87.861603 253.362839,88.944824 
	C262.012482,90.257004 269.009003,86.678375 274.480865,77.664467 
z"/>
<path fill="#000000" opacity="1.000000" stroke="none" 
	d="
M0.999999,469.468658 
	C1.965748,469.885925 3.290993,470.590790 3.842271,471.685455 
	C10.134879,484.180298 20.154404,490.057159 34.186649,490.049438 
	C182.327667,489.968018 330.468811,489.940765 478.609711,490.089172 
	C493.412964,490.104004 504.060150,484.408112 510.515717,471.032074 
	C510.924805,470.184448 511.693542,469.510406 512.647461,468.877808 
	C513.000000,483.655975 513.000000,498.311920 513.000000,512.960449 
	C342.333313,512.953064 171.666656,512.953064 1.000000,512.953064 
	C1.000000,498.583191 1.000000,484.260254 0.999999,469.468658 
z"/>
<path fill="#F16A73" opacity="1.000000" stroke="none" 
	d="
M205.000000,225.919220 
	C295.320618,225.919373 385.141266,225.918320 474.961884,225.921494 
	C485.281494,225.921860 485.980194,226.627533 485.980652,237.035263 
	C485.983887,309.358368 485.983795,381.681458 485.981415,454.004578 
	C485.981171,462.355133 485.249329,463.111633 476.831146,463.112061 
	C330.018555,463.119690 183.205994,463.119629 36.393417,463.111908 
	C28.083435,463.111450 27.008400,461.994995 27.007607,453.471130 
	C27.000854,380.814728 27.000469,308.158356 27.008442,235.501968 
	C27.009356,227.189468 28.256948,225.928635 36.524406,225.926941 
	C92.516273,225.915497 148.508133,225.919952 205.000000,225.919220 
M412.024902,368.472076 
	C419.026642,378.394623 425.850037,388.449768 433.095642,398.190918 
	C437.581970,404.222412 443.669037,405.415009 451.499542,402.720245 
	C457.884918,400.522827 460.195343,396.903473 460.206055,388.824829 
	C460.231812,369.340302 460.229950,349.855743 460.211090,330.371185 
	C460.201111,320.046875 460.270874,309.719543 460.039429,299.399506 
	C459.894440,292.933624 456.234009,288.610504 450.255402,288.128906 
	C439.105865,287.230927 432.622894,290.807526 432.950653,302.802429 
	C433.341797,317.116272 433.403351,331.439362 433.566742,345.758881 
	C433.585449,347.399933 433.341705,349.044006 433.115234,352.092010 
	C428.306915,345.388885 424.454468,339.998047 420.581024,334.622345 
	C410.370453,320.451630 400.272339,306.197388 389.874786,292.165100 
	C385.721924,286.560516 380.027710,285.444489 372.835144,287.864410 
	C365.345215,290.384338 362.411682,293.732697 362.369843,300.592072 
	C362.187073,330.564758 362.047241,360.538269 362.114441,390.510956 
	C362.120209,393.091400 363.225800,396.049194 364.744873,398.169342 
	C368.179504,402.963104 375.289398,404.438049 381.377563,402.355255 
	C387.332367,400.318176 388.756317,395.392303 388.818329,390.042175 
	C389.001709,374.223541 388.893707,358.401581 388.899506,342.580902 
	C388.900146,340.839081 388.899628,339.097229 388.899628,337.355408 
	C389.260406,337.244446 389.621216,337.133514 389.981995,337.022583 
	C397.189972,347.311493 404.397919,357.600433 412.024902,368.472076 
M58.586308,373.829376 
	C70.848793,396.874268 97.435577,408.679352 122.986481,402.424377 
	C147.954926,396.311981 165.469528,372.687622 166.314316,344.988953 
	C167.696884,299.658112 120.254791,272.763428 83.942513,292.175690 
	C56.117252,307.050842 44.711491,343.246460 58.586308,373.829376 
M286.381348,286.776520 
	C278.186951,287.677795 274.077576,291.545074 273.977753,298.877808 
	C273.571991,328.689240 273.214783,358.501556 272.935028,388.314423 
	C272.855194,396.818726 276.970581,401.730133 285.435425,401.927429 
	C303.086792,402.338837 320.757172,402.311829 338.409027,401.946991 
	C341.308807,401.887085 344.937897,399.849182 346.857361,397.569672 
	C350.575745,393.153900 350.154602,387.507233 348.068604,382.439819 
	C346.172607,377.834045 341.639893,377.141602 337.174164,377.009674 
	C334.843231,376.940826 332.508545,376.996826 330.175568,376.996796 
	C320.225586,376.996704 310.275604,376.996765 300.128296,376.996765 
	C300.128296,370.031128 300.128296,363.664337 300.128296,357.132935 
	C301.489227,357.009186 302.463226,356.848114 303.438019,356.843353 
	C311.936310,356.801910 320.446594,357.060089 328.929718,356.689423 
	C337.240540,356.326355 341.216553,351.422363 341.003876,342.762817 
	C340.839478,336.067871 337.188110,333.118591 328.806610,332.947693 
	C327.142029,332.913757 325.475525,332.988159 323.809906,332.989288 
	C316.037598,332.994537 308.265259,332.991608 300.043884,332.991608 
	C300.414825,325.383728 300.751068,318.487488 301.113342,311.057281 
	C303.276154,311.057281 305.065247,311.063354 306.854279,311.056305 
	C316.685669,311.017456 326.519684,311.101471 336.347595,310.895721 
	C344.641632,310.722107 348.133942,307.009583 348.211426,298.841888 
	C348.282227,291.378601 343.975830,286.635498 336.228821,286.559967 
	C319.902344,286.400757 303.572479,286.592285 286.381348,286.776520 
M205.149475,374.594299 
	C205.149506,373.928467 205.148285,373.262665 205.149796,372.596832 
	C205.164490,366.096832 205.172180,366.269592 211.558441,365.990234 
	C218.850815,365.671326 226.283905,365.773651 233.380600,364.335083 
	C250.405319,360.883972 262.741516,344.027191 262.534821,325.655151 
	C262.306183,305.338318 251.982727,291.045654 232.829956,288.338409 
	C218.648346,286.333832 204.034729,287.156708 189.614838,287.195374 
	C184.799194,287.208282 179.884735,292.175690 179.104630,296.551819 
	C178.552048,299.651672 178.057495,302.814392 178.048920,305.950470 
	C177.969208,335.079132 177.861267,364.209869 178.224670,393.334198 
	C178.259384,396.115479 180.887314,400.439087 183.277481,401.271057 
	C187.558105,402.761078 192.690598,402.896637 197.251846,402.196472 
	C202.356766,401.412872 205.013290,397.391815 205.066284,392.049438 
	C205.120773,386.557281 205.123886,381.064606 205.149475,374.594299 
z"/>
<path fill="#000000" opacity="1.000000" stroke="none" 
	d="
M376.759399,181.234100 
	C382.547577,186.896729 388.091309,192.301956 394.643738,198.690689 
	C302.322357,198.690689 211.707581,198.690689 120.368263,198.690689 
	C123.511627,194.978928 126.072449,191.592178 129.000458,188.559998 
	C142.165985,174.926132 155.489594,161.444870 168.653885,147.809814 
	C183.883362,132.035736 199.001495,116.154152 214.183228,100.333893 
	C215.304718,99.165230 216.549408,98.114784 217.753922,96.993446 
	C237.051880,121.500038 272.420166,123.899620 294.686554,97.491570 
	C302.080688,104.563911 309.529907,111.632034 316.902191,118.779556 
	C318.793579,120.613281 320.370483,122.767372 322.213318,124.655800 
	C337.775116,140.602631 353.383484,156.504028 368.928741,172.466888 
	C371.577423,175.186691 373.992126,178.134308 376.759399,181.234100 
z"/>
<path fill="#FEE549" opacity="1.000000" stroke="none" 
	d="
M274.289062,78.001953 
	C269.009003,86.678375 262.012482,90.257004 253.362839,88.944824 
	C246.222473,87.861603 239.813370,81.842133 237.906921,74.428513 
	C235.858597,66.463280 238.934219,58.482815 245.946960,53.566536 
	C252.561646,48.929329 261.073517,49.018894 267.856812,53.797100 
	C274.620483,58.561466 277.710022,67.029701 275.515106,74.867584 
	C275.247955,75.821602 274.829315,76.733208 274.289062,78.001953 
z"/>
<path fill="#FFFEFE" opacity="1.000000" stroke="none" 
	d="
M411.815399,368.180725 
	C404.397919,357.600433 397.189972,347.311493 389.981995,337.022583 
	C389.621216,337.133514 389.260406,337.244446 388.899628,337.355408 
	C388.899628,339.097229 388.900146,340.839081 388.899506,342.580902 
	C388.893707,358.401581 389.001709,374.223541 388.818329,390.042175 
	C388.756317,395.392303 387.332367,400.318176 381.377563,402.355255 
	C375.289398,404.438049 368.179504,402.963104 364.744873,398.169342 
	C363.225800,396.049194 362.120209,393.091400 362.114441,390.510956 
	C362.047241,360.538269 362.187073,330.564758 362.369843,300.592072 
	C362.411682,293.732697 365.345215,290.384338 372.835144,287.864410 
	C380.027710,285.444489 385.721924,286.560516 389.874786,292.165100 
	C400.272339,306.197388 410.370453,320.451630 420.581024,334.622345 
	C424.454468,339.998047 428.306915,345.388885 433.115234,352.092010 
	C433.341705,349.044006 433.585449,347.399933 433.566742,345.758881 
	C433.403351,331.439362 433.341797,317.116272 432.950653,302.802429 
	C432.622894,290.807526 439.105865,287.230927 450.255402,288.128906 
	C456.234009,288.610504 459.894440,292.933624 460.039429,299.399506 
	C460.270874,309.719543 460.201111,320.046875 460.211090,330.371185 
	C460.229950,349.855743 460.231812,369.340302 460.206055,388.824829 
	C460.195343,396.903473 457.884918,400.522827 451.499542,402.720245 
	C443.669037,405.415009 437.581970,404.222412 433.095642,398.190918 
	C425.850037,388.449768 419.026642,378.394623 411.815399,368.180725 
z"/>
<path fill="#FFFEFE" opacity="1.000000" stroke="none" 
	d="
M58.402451,373.500488 
	C44.711491,343.246460 56.117252,307.050842 83.942513,292.175690 
	C120.254791,272.763428 167.696884,299.658112 166.314316,344.988953 
	C165.469528,372.687622 147.954926,396.311981 122.986481,402.424377 
	C97.435577,408.679352 70.848793,396.874268 58.402451,373.500488 
M127.020454,318.409912 
	C109.886742,305.577881 88.944084,311.760559 82.821495,332.114319 
	C80.830574,338.732910 80.322853,346.339203 81.298767,353.185547 
	C82.882217,364.294159 89.018135,372.719147 100.510605,376.260559 
	C111.326363,379.593414 120.946793,377.744141 128.759689,369.531250 
	C140.984161,356.680908 144.471756,332.325287 127.020454,318.409912 
z"/>
<path fill="#FFFEFE" opacity="1.000000" stroke="none" 
	d="
M286.812683,286.708191 
	C303.572479,286.592285 319.902344,286.400757 336.228821,286.559967 
	C343.975830,286.635498 348.282227,291.378601 348.211426,298.841888 
	C348.133942,307.009583 344.641632,310.722107 336.347595,310.895721 
	C326.519684,311.101471 316.685669,311.017456 306.854279,311.056305 
	C305.065247,311.063354 303.276154,311.057281 301.113342,311.057281 
	C300.751068,318.487488 300.414825,325.383728 300.043884,332.991608 
	C308.265259,332.991608 316.037598,332.994537 323.809906,332.989288 
	C325.475525,332.988159 327.142029,332.913757 328.806610,332.947693 
	C337.188110,333.118591 340.839478,336.067871 341.003876,342.762817 
	C341.216553,351.422363 337.240540,356.326355 328.929718,356.689423 
	C320.446594,357.060089 311.936310,356.801910 303.438019,356.843353 
	C302.463226,356.848114 301.489227,357.009186 300.128296,357.132935 
	C300.128296,363.664337 300.128296,370.031128 300.128296,376.996765 
	C310.275604,376.996765 320.225586,376.996704 330.175568,376.996796 
	C332.508545,376.996826 334.843231,376.940826 337.174164,377.009674 
	C341.639893,377.141602 346.172607,377.834045 348.068604,382.439819 
	C350.154602,387.507233 350.575745,393.153900 346.857361,397.569672 
	C344.937897,399.849182 341.308807,401.887085 338.409027,401.946991 
	C320.757172,402.311829 303.086792,402.338837 285.435425,401.927429 
	C276.970581,401.730133 272.855194,396.818726 272.935028,388.314423 
	C273.214783,358.501556 273.571991,328.689240 273.977753,298.877808 
	C274.077576,291.545074 278.186951,287.677795 286.812683,286.708191 
z"/>
<path fill="#FFFEFE" opacity="1.000000" stroke="none" 
	d="
M205.149475,375.083252 
	C205.123886,381.064606 205.120773,386.557281 205.066284,392.049438 
	C205.013290,397.391815 202.356766,401.412872 197.251846,402.196472 
	C192.690598,402.896637 187.558105,402.761078 183.277481,401.271057 
	C180.887314,400.439087 178.259384,396.115479 178.224670,393.334198 
	C177.861267,364.209869 177.969208,335.079132 178.048920,305.950470 
	C178.057495,302.814392 178.552048,299.651672 179.104630,296.551819 
	C179.884735,292.175690 184.799194,287.208282 189.614838,287.195374 
	C204.034729,287.156708 218.648346,286.333832 232.829956,288.338409 
	C251.982727,291.045654 262.306183,305.338318 262.534821,325.655151 
	C262.741516,344.027191 250.405319,360.883972 233.380600,364.335083 
	C226.283905,365.773651 218.850815,365.671326 211.558441,365.990234 
	C205.172180,366.269592 205.164490,366.096832 205.149796,372.596832 
	C205.148285,373.262665 205.149506,373.928467 205.149475,375.083252 
M214.517700,340.984711 
	C216.846939,340.969574 219.191284,341.120209 221.502686,340.909485 
	C229.705139,340.161621 234.977066,334.561157 235.957062,325.727478 
	C236.726761,318.789276 233.710724,313.328735 226.712097,311.830505 
	C220.191696,310.434601 213.338516,310.593170 206.406464,310.049774 
	C206.406464,320.934143 206.406464,330.659576 206.406464,340.984711 
	C208.998444,340.984711 211.282776,340.984711 214.517700,340.984711 
z"/>
<path fill="#F16B74" opacity="1.000000" stroke="none" 
	d="
M127.281906,318.657288 
	C144.471756,332.325287 140.984161,356.680908 128.759689,369.531250 
	C120.946793,377.744141 111.326363,379.593414 100.510605,376.260559 
	C89.018135,372.719147 82.882217,364.294159 81.298767,353.185547 
	C80.322853,346.339203 80.830574,338.732910 82.821495,332.114319 
	C88.944084,311.760559 109.886742,305.577881 127.281906,318.657288 
z"/>
<path fill="#F16D75" opacity="1.000000" stroke="none" 
	d="
M214.042419,340.984711 
	C211.282776,340.984711 208.998444,340.984711 206.406464,340.984711 
	C206.406464,330.659576 206.406464,320.934143 206.406464,310.049774 
	C213.338516,310.593170 220.191696,310.434601 226.712097,311.830505 
	C233.710724,313.328735 236.726761,318.789276 235.957062,325.727478 
	C234.977066,334.561157 229.705139,340.161621 221.502686,340.909485 
	C219.191284,341.120209 216.846939,340.969574 214.042419,340.984711 
z"/>
</svg>