<?xml version="1.0" encoding="UTF-8"?>
<svg version="1.1" xmlns="http://www.w3.org/2000/svg" width="512" height="512">
<path d="M0 0 C12.76945146 9.19674014 22.31101961 22.39704962 24.91796875 38.1015625 C26.07590567 55.38652034 26.07590567 55.38652034 24.10638428 63.40628052 C23.54750072 67.16375961 23.54750072 67.16375961 25.83189392 69.98425293 C26.77613448 70.95461083 27.74283516 71.90342246 28.72631836 72.83398438 C29.24976837 73.36020889 29.77321838 73.88643341 30.31253052 74.42860413 C32.04667571 76.1622747 33.80756146 77.86577532 35.5703125 79.5703125 C36.78736219 80.77496527 38.0027163 81.98133327 39.21644592 83.18933105 C42.41974659 86.36776377 45.64675001 89.52105734 48.87890625 92.67010498 C52.13995926 95.85674105 55.37594202 99.06861928 58.61523438 102.27734375 C72.44095676 116.03853576 72.44095676 116.03853576 86.91796875 129.1015625 C87.24796875 129.4315625 87.57796875 129.7615625 87.91796875 130.1015625 C89.95099512 130.20436852 91.98757849 130.23729105 94.02319336 130.2434082 C95.33223129 130.25044266 96.64126923 130.25747711 97.98997498 130.26472473 C98.69492033 130.26654062 99.39986568 130.26835651 100.12617302 130.27022743 C102.33442064 130.27738951 104.54244557 130.29305871 106.75062561 130.31156921 C113.03138975 130.36401625 119.31203974 130.41190951 125.59301758 130.42749023 C129.43291421 130.43764055 133.27226182 130.46715277 137.11194038 130.50881004 C138.56895329 130.52103799 140.02604412 130.52625646 141.48310661 130.52401161 C153.13236546 130.51049499 162.49801767 131.96842663 171.2265625 140.16796875 C176.07727039 145.71323527 178.03078762 151.98779078 178.06513977 159.25645447 C178.07587273 160.81889641 178.07587273 160.81889641 178.08682251 162.41290283 C178.08951141 163.55015808 178.09220032 164.68741333 178.0949707 165.85913086 C178.1015419 167.06112625 178.1081131 168.26312164 178.11488342 169.50154114 C178.13460486 173.48149872 178.14627732 177.46141608 178.15625 181.44140625 C178.16029903 182.8132536 178.16441599 184.18510076 178.16860008 185.55694771 C178.1876357 191.99994598 178.20187272 198.44293288 178.21021205 204.88595384 C178.21999267 212.3190944 178.24634013 219.75193783 178.28671294 227.18497366 C178.31686939 232.93455665 178.33168027 238.68405438 178.33499306 244.43371493 C178.3373432 247.86623722 178.34629891 251.29844147 178.37145424 254.73087883 C178.39905788 258.5588828 178.39490526 262.38649477 178.38793945 266.21459961 C178.40715454 267.91744614 178.40715454 267.91744614 178.42675781 269.6546936 C178.37615202 277.26651638 178.37615202 277.26651638 176.13859558 281.34449768 C173.91796875 283.1015625 173.91796875 283.1015625 169.91796875 283.1015625 C169.91796875 290.0315625 169.91796875 296.9615625 169.91796875 304.1015625 C172.16609375 304.1634375 174.41421875 304.2253125 176.73046875 304.2890625 C194.81870673 305.24355707 212.24142977 311.45303714 226.91796875 322.1015625 C229.22238429 325.55818581 229.1765701 327.05014131 228.91796875 331.1015625 C228.58796875 331.7615625 228.25796875 332.4215625 227.91796875 333.1015625 C228.500625 333.34648437 229.08328125 333.59140625 229.68359375 333.84375 C232.27287225 335.30135083 233.72633294 336.98806502 235.66796875 339.2265625 C238.38656119 342.18816884 238.38656119 342.18816884 242.0390625 343.44921875 C242.72097656 343.39636719 243.40289062 343.34351563 244.10546875 343.2890625 C247.91796875 343.1015625 247.91796875 343.1015625 250.41015625 345.19921875 C256.85057421 352.65284888 261.00350641 361.57649584 264.29296875 370.7890625 C264.53136475 371.45260742 264.76976074 372.11615234 265.01538086 372.79980469 C271.53512789 392.09769081 271.65175843 415.84989164 264.91796875 435.1015625 C264.67127441 435.81344727 264.42458008 436.52533203 264.17041016 437.25878906 C258.6996245 452.5662421 250.2669526 464.59273381 238.91796875 476.1015625 C238.12648438 476.9059375 237.335 477.7103125 236.51953125 478.5390625 C225.52419517 489.05951696 212.3167659 495.58665354 197.91796875 500.1015625 C196.88285156 500.441875 195.84773438 500.7821875 194.78125 501.1328125 C170.86032219 507.61577412 143.60323894 503.66350237 121.91796875 492.1015625 C97.95429151 478.21417846 80.3571365 456.81094026 73.1328125 429.87963867 C71.56858754 423.67850055 70.17939963 417.50661918 69.91796875 411.1015625 C69.840625 409.62429688 69.840625 409.62429688 69.76171875 408.1171875 C69.4772478 397.82882144 71.15651828 388.2299027 72.91796875 378.1015625 C65.98796875 377.7715625 59.05796875 377.4415625 51.91796875 377.1015625 C51.58796875 378.7515625 51.25796875 380.4015625 50.91796875 382.1015625 C47.7427434 384.2183794 46.97693268 384.35294721 43.34445095 384.36162472 C41.92874141 384.3722231 41.92874141 384.3722231 40.48443168 384.3830356 C39.44554442 384.38062052 38.40665715 384.37820543 37.33628845 384.37571716 C36.23413815 384.38095384 35.13198784 384.38619052 33.99643904 384.39158589 C30.28396681 384.40665011 26.57163162 384.40729246 22.85913086 384.40795898 C20.20499081 384.41557634 17.55086248 384.42395389 14.89672852 384.43318176 C7.67125918 384.45604934 0.44581917 384.46395482 -6.77968144 384.46900821 C-11.29265929 384.47226434 -15.80562859 384.47878647 -20.31860161 384.4860096 C-32.81651186 384.5055808 -45.31441417 384.52198097 -57.81234074 384.52488613 C-58.6124424 384.5250737 -59.41254407 384.52526127 -60.23689124 384.52545452 C-61.85888382 384.52582077 -63.4808764 384.52618447 -65.10286898 384.52654564 C-65.90802134 384.52672845 -66.7131737 384.52691126 -67.54272461 384.52709961 C-68.3488616 384.52728016 -69.1549986 384.52746071 -69.98556399 384.52764673 C-83.03784197 384.53118574 -96.08995468 384.55818862 -109.14217538 384.5955975 C-122.54653459 384.63370758 -135.95081188 384.65304382 -149.35522646 384.65334564 C-156.87967733 384.65392974 -164.40393127 384.66239047 -171.92833138 384.69134331 C-178.33815586 384.71589385 -184.74771166 384.72311578 -191.15757049 384.70809578 C-194.42581084 384.70094059 -197.69341241 384.70446056 -200.96161461 384.72450638 C-204.51202564 384.7449523 -208.0610714 384.73442139 -211.61146545 384.71629333 C-212.63473767 384.7294933 -213.65800988 384.74269327 -214.71229035 384.75629324 C-222.67292304 384.66371211 -229.29855274 382.59910383 -235.23448998 377.11177629 C-243.06455253 368.84230816 -243.52432964 361.34892854 -243.48608398 350.33520508 C-243.49179265 348.9416601 -243.49875883 347.54811979 -243.50688171 346.15458679 C-243.5247669 342.38618996 -243.52365439 338.61802654 -243.51793933 334.84960008 C-243.51484284 331.700698 -243.52094454 328.55184047 -243.52697808 325.40294474 C-243.54100442 317.97668108 -243.53947586 310.55053254 -243.52807617 303.12426758 C-243.51657729 295.46408724 -243.53070438 287.80425629 -243.55747265 280.14412194 C-243.57961427 273.56135748 -243.5862711 266.97870283 -243.58039623 260.39590377 C-243.57702409 256.46663293 -243.57945947 252.53758643 -243.59664726 248.60834694 C-243.61209164 244.91703271 -243.6081895 241.22623805 -243.58934212 237.53494453 C-243.58388892 235.5342847 -243.59818648 233.53360165 -243.61303711 231.5329895 C-243.5982859 229.74770088 -243.5982859 229.74770088 -243.58323669 227.92634583 C-243.58302741 226.8919679 -243.58281813 225.85758997 -243.5826025 224.79186726 C-242.94880125 221.38552198 -241.81429912 220.17461184 -239.08203125 218.1015625 C-238.09203125 218.1015625 -237.10203125 218.1015625 -236.08203125 218.1015625 C-236.08203125 211.5015625 -236.08203125 204.9015625 -236.08203125 198.1015625 C-237.73203125 197.7715625 -239.38203125 197.4415625 -241.08203125 197.1015625 C-243.46461168 194.71898207 -243.33972595 194.20572133 -243.37255859 190.96240234 C-243.3853183 190.10746185 -243.398078 189.25252136 -243.41122437 188.37167358 C-243.41345001 187.4446463 -243.41567566 186.51761902 -243.41796875 185.5625 C-243.42462555 184.60767731 -243.43128235 183.65285461 -243.43814087 182.6690979 C-243.4482823 180.64318775 -243.45295743 178.6172441 -243.45263672 176.59130859 C-243.45698475 173.50951872 -243.49321857 170.42919012 -243.53125 167.34765625 C-243.53712308 165.37760905 -243.54108918 163.40755506 -243.54296875 161.4375 C-243.55733978 160.5226181 -243.57171082 159.60773621 -243.58651733 158.66513062 C-243.52433143 149.83381637 -240.34852469 143.36805594 -234.08203125 137.1015625 C-227.33398785 132.55370083 -221.8440935 130.91741105 -213.69384766 131.13427734 C-211.78498276 131.17698257 -211.78498276 131.17698257 -209.83755493 131.22055054 C-209.16150837 131.23657696 -208.48546181 131.25260338 -207.78892899 131.26911545 C-203.40407133 131.35947402 -199.01818217 131.37694129 -194.63256264 131.40546227 C-190.79888004 131.43442193 -186.96933098 131.48998149 -183.13720703 131.60546875 C-163.65713948 132.893505 -163.65713948 132.893505 -146.81454468 124.98086548 C-144.5292883 122.45430331 -142.52139922 119.8161509 -140.56826782 117.02764893 C-138.44405725 114.27478089 -135.91767904 112.17731544 -133.2638855 109.94760132 C-126.16082111 103.93778989 -119.53354846 97.3486889 -112.8515625 90.88037109 C-110.92378089 89.01985002 -108.97630602 87.18415201 -107.00878906 85.36572266 C-95.29784685 75.7534495 -95.29784685 75.7534495 -89.29443359 62.71557617 C-89.82749625 58.9133292 -90.75524545 55.69292656 -92.08203125 52.1015625 C-93.5124642 36.22277475 -86.59972295 22.59877041 -77.89453125 9.9140625 C-56.77169159 -11.20877716 -25.6809038 -15.94455058 0 0 Z M-61.54052734 104.33300781 C-62.5673187 105.36011737 -63.58858373 106.39276928 -64.60546875 107.4296875 C-65.14805328 107.97510193 -65.69063782 108.52051636 -66.24966431 109.0824585 C-67.99018803 110.83420212 -69.7236605 112.59274337 -71.45703125 114.3515625 C-72.61802953 115.52259171 -73.77948249 116.69317032 -74.94140625 117.86328125 C-77.08536145 120.02357845 -79.22662673 122.18646615 -81.36474609 124.35253906 C-83.59606818 126.60992331 -85.83764025 128.8571715 -88.08203125 131.1015625 C-52.11203125 131.1015625 -16.14203125 131.1015625 20.91796875 131.1015625 C17.16611417 126.72439882 13.57636626 122.63844003 9.51953125 118.60546875 C9.03970795 118.12706039 8.55988464 117.64865204 8.06552124 117.15574646 C6.56037417 115.65611371 5.05175661 114.16003122 3.54296875 112.6640625 C2.5101828 111.63630267 1.47762884 110.60830965 0.4453125 109.58007812 C-2.06113412 107.08454652 -4.57070205 104.59218168 -7.08203125 102.1015625 C-7.73212158 102.30362305 -8.38221191 102.50568359 -9.05200195 102.71386719 C-24.60750216 107.47807137 -39.28128615 108.82222292 -54.7890625 102.94140625 C-58.3453012 101.63886567 -58.61920545 101.6814803 -61.54052734 104.33300781 Z " fill="#FEC168" transform="translate(243.08203125,8.8984375)"/>
<path d="M0 0 C12.76945146 9.19674014 22.31101961 22.39704962 24.91796875 38.1015625 C26.07590567 55.38652034 26.07590567 55.38652034 24.10638428 63.40628052 C23.54750072 67.16375961 23.54750072 67.16375961 25.83189392 69.98425293 C26.77613448 70.95461083 27.74283516 71.90342246 28.72631836 72.83398438 C29.24976837 73.36020889 29.77321838 73.88643341 30.31253052 74.42860413 C32.04667571 76.1622747 33.80756146 77.86577532 35.5703125 79.5703125 C36.78736219 80.77496527 38.0027163 81.98133327 39.21644592 83.18933105 C42.41974659 86.36776377 45.64675001 89.52105734 48.87890625 92.67010498 C52.13995926 95.85674105 55.37594202 99.06861928 58.61523438 102.27734375 C72.44095676 116.03853576 72.44095676 116.03853576 86.91796875 129.1015625 C87.24796875 129.4315625 87.57796875 129.7615625 87.91796875 130.1015625 C89.95099512 130.20436852 91.98757849 130.23729105 94.02319336 130.2434082 C95.33223129 130.25044266 96.64126923 130.25747711 97.98997498 130.26472473 C98.69492033 130.26654062 99.39986568 130.26835651 100.12617302 130.27022743 C102.33442064 130.27738951 104.54244557 130.29305871 106.75062561 130.31156921 C113.03138975 130.36401625 119.31203974 130.41190951 125.59301758 130.42749023 C129.43291421 130.43764055 133.27226182 130.46715277 137.11194038 130.50881004 C138.56895329 130.52103799 140.02604412 130.52625646 141.48310661 130.52401161 C153.13236546 130.51049499 162.49801767 131.96842663 171.2265625 140.16796875 C176.07727039 145.71323527 178.03078762 151.98779078 178.06513977 159.25645447 C178.07587273 160.81889641 178.07587273 160.81889641 178.08682251 162.41290283 C178.08951141 163.55015808 178.09220032 164.68741333 178.0949707 165.85913086 C178.1015419 167.06112625 178.1081131 168.26312164 178.11488342 169.50154114 C178.13460486 173.48149872 178.14627732 177.46141608 178.15625 181.44140625 C178.16029903 182.8132536 178.16441599 184.18510076 178.16860008 185.55694771 C178.1876357 191.99994598 178.20187272 198.44293288 178.21021205 204.88595384 C178.21999267 212.3190944 178.24634013 219.75193783 178.28671294 227.18497366 C178.31686939 232.93455665 178.33168027 238.68405438 178.33499306 244.43371493 C178.3373432 247.86623722 178.34629891 251.29844147 178.37145424 254.73087883 C178.39905788 258.5588828 178.39490526 262.38649477 178.38793945 266.21459961 C178.40715454 267.91744614 178.40715454 267.91744614 178.42675781 269.6546936 C178.37599521 277.29010285 178.37599521 277.29010285 176.10734558 281.30934143 C173.91796875 283.1015625 173.91796875 283.1015625 170.41796875 283.6640625 C166.45251202 283.02675695 165.31733478 282.239195 162.91796875 279.1015625 C161.68021199 276.62604899 161.79326798 274.9946227 161.793396 272.22514343 C161.79083298 271.19467896 161.78826996 270.16421448 161.78562927 269.1025238 C161.78772903 267.96742874 161.7898288 266.83233368 161.79199219 265.6628418 C161.78918999 263.87491714 161.78918999 263.87491714 161.78633118 262.0508728 C161.78231937 259.45519414 161.78025163 256.85951192 161.77986908 254.26383018 C161.77872963 250.15825257 161.76589763 246.05276506 161.75030518 241.94721985 C161.74773232 241.25454205 161.74515947 240.56186425 161.74250865 239.84819621 C161.73724195 238.4316094 161.73195647 237.01502267 161.72665262 235.598436 C161.69153471 226.03899883 161.66499042 216.47967304 161.66748047 206.92016602 C161.66906934 200.47388163 161.65302658 194.02790388 161.61677384 187.58171779 C161.59831465 184.17038121 161.5889698 180.75955653 161.60124969 177.34818077 C161.61083627 173.54112973 161.58975223 169.73539853 161.56152344 165.9284668 C161.57172012 164.79944443 161.58191681 163.67042206 161.59242249 162.50718689 C161.55424428 156.25181402 161.55424428 156.25181402 158.50274658 150.92488098 C154.58934128 148.16434035 152.62300902 147.97589964 147.84494305 147.97292805 C146.5412545 147.9697036 145.23756595 147.96647915 143.89437169 147.963157 C142.43378737 147.96462838 140.97320314 147.96619611 139.51261902 147.96784973 C137.97178047 147.96598312 136.43094239 147.96368302 134.89010507 147.96098441 C130.64008285 147.9548414 126.39008023 147.95500293 122.14005458 147.95617878 C117.56257945 147.95638216 112.98511073 147.95087002 108.40763855 147.94612122 C99.43323399 147.93780021 90.45883599 147.93506571 81.48442789 147.93450884 C74.19189641 147.93403432 66.89936711 147.93198282 59.60683632 147.92880821 C38.94774421 147.91999738 18.2886573 147.91538946 -2.37043671 147.91613869 C-4.04247459 147.91619862 -4.04247459 147.91619862 -5.74829102 147.91625977 C-6.86433839 147.91630065 -7.98038575 147.91634153 -9.13025274 147.91638365 C-27.22009773 147.91679015 -45.30992191 147.90722061 -63.39976088 147.8931214 C-81.95804348 147.87877081 -100.51631592 147.8718505 -119.07460421 147.87271518 C-129.50015719 147.87304762 -139.92568835 147.87027983 -150.35123634 147.85953712 C-159.22785148 147.85044939 -168.10443491 147.84824258 -176.98105267 147.85504655 C-181.51222941 147.85832063 -186.04334528 147.8583366 -190.5745163 147.8496933 C-194.72029968 147.84186631 -198.86597353 147.84322056 -203.01175412 147.85197743 C-204.51379268 147.85352086 -206.01583926 147.85166477 -207.51786838 147.84611735 C-209.55572867 147.83908782 -211.59362223 147.84552781 -213.63148212 147.85267353 C-214.76462261 147.85245616 -215.89776309 147.85223879 -217.06524116 147.85201484 C-220.15698366 148.10776253 -222.32805731 148.69189496 -225.08203125 150.1015625 C-227.69320652 154.2990943 -227.34539276 158.93559208 -227.3203125 163.7265625 C-227.33572583 165.41927891 -227.35202899 167.11198741 -227.36914062 168.8046875 C-227.38561233 171.4578606 -227.39450761 174.11045166 -227.38745117 176.76367188 C-227.38482998 179.33529805 -227.41294711 181.90517083 -227.4453125 184.4765625 C-227.43510574 185.26627441 -227.42489899 186.05598633 -227.41438293 186.86962891 C-227.48862694 191.05972374 -227.75175598 192.67211751 -230.39526367 196.109375 C-233.8769341 198.69096798 -235.84069758 198.72990823 -240.08203125 198.1015625 C-242.14202484 196.55510818 -242.970169 195.67210974 -243.4697113 193.1242218 C-243.47511429 192.373358 -243.48051727 191.6224942 -243.48608398 190.84887695 C-243.49876816 189.99401199 -243.51145233 189.13914703 -243.52452087 188.25837708 C-243.52158524 187.33651108 -243.5186496 186.41464508 -243.515625 185.46484375 C-243.52086685 184.511436 -243.5261087 183.55802826 -243.5315094 182.57572937 C-243.53793613 180.55578586 -243.53658421 178.53580496 -243.52807617 176.51586914 C-243.5196105 173.44283135 -243.54824661 170.37168008 -243.58007812 167.29882812 C-243.58169148 165.33333389 -243.58111005 163.36783638 -243.578125 161.40234375 C-243.58935898 160.49059891 -243.60059296 159.57885406 -243.61216736 158.63948059 C-243.51724084 149.82955535 -240.33379136 143.35332261 -234.08203125 137.1015625 C-227.33398785 132.55370083 -221.8440935 130.91741105 -213.69384766 131.13427734 C-211.78498276 131.17698257 -211.78498276 131.17698257 -209.83755493 131.22055054 C-209.16150837 131.23657696 -208.48546181 131.25260338 -207.78892899 131.26911545 C-203.40407133 131.35947402 -199.01818217 131.37694129 -194.63256264 131.40546227 C-190.79888004 131.43442193 -186.96933098 131.48998149 -183.13720703 131.60546875 C-163.65713948 132.893505 -163.65713948 132.893505 -146.81454468 124.98086548 C-144.5292883 122.45430331 -142.52139922 119.8161509 -140.56826782 117.02764893 C-138.44405725 114.27478089 -135.91767904 112.17731544 -133.2638855 109.94760132 C-126.16082111 103.93778989 -119.53354846 97.3486889 -112.8515625 90.88037109 C-110.92378089 89.01985002 -108.97630602 87.18415201 -107.00878906 85.36572266 C-95.29784685 75.7534495 -95.29784685 75.7534495 -89.29443359 62.71557617 C-89.82749625 58.9133292 -90.75524545 55.69292656 -92.08203125 52.1015625 C-93.5124642 36.22277475 -86.59972295 22.59877041 -77.89453125 9.9140625 C-56.77169159 -11.20877716 -25.6809038 -15.94455058 0 0 Z M-61.54052734 104.33300781 C-62.5673187 105.36011737 -63.58858373 106.39276928 -64.60546875 107.4296875 C-65.14805328 107.97510193 -65.69063782 108.52051636 -66.24966431 109.0824585 C-67.99018803 110.83420212 -69.7236605 112.59274337 -71.45703125 114.3515625 C-72.61802953 115.52259171 -73.77948249 116.69317032 -74.94140625 117.86328125 C-77.08536145 120.02357845 -79.22662673 122.18646615 -81.36474609 124.35253906 C-83.59606818 126.60992331 -85.83764025 128.8571715 -88.08203125 131.1015625 C-52.11203125 131.1015625 -16.14203125 131.1015625 20.91796875 131.1015625 C17.16611417 126.72439882 13.57636626 122.63844003 9.51953125 118.60546875 C9.03970795 118.12706039 8.55988464 117.64865204 8.06552124 117.15574646 C6.56037417 115.65611371 5.05175661 114.16003122 3.54296875 112.6640625 C2.5101828 111.63630267 1.47762884 110.60830965 0.4453125 109.58007812 C-2.06113412 107.08454652 -4.57070205 104.59218168 -7.08203125 102.1015625 C-7.73212158 102.30362305 -8.38221191 102.50568359 -9.05200195 102.71386719 C-24.60750216 107.47807137 -39.28128615 108.82222292 -54.7890625 102.94140625 C-58.3453012 101.63886567 -58.61920545 101.6814803 -61.54052734 104.33300781 Z " fill="#030201" transform="translate(243.08203125,8.8984375)"/>
<path d="M0 0 C1.0621875 0.36351562 2.124375 0.72703125 3.21875 1.1015625 C8.73213772 3.09823329 13.80192562 5.36997806 18.875 8.3125 C23.28750971 10.81463743 25.97237233 11.83793794 31 11 C31.99 10.34 32.98 9.68 34 9 C42.44646925 16.29840547 42.44646925 16.29840547 46 20 C45.649375 20.680625 45.29875 21.36125 44.9375 22.0625 C43.38119844 26.93891156 44.36211008 30.7584993 46.671875 35.25390625 C47.35765625 36.34574219 48.0434375 37.43757813 48.75 38.5625 C59.49506752 56.46051999 62.91737954 78.24608444 58.87890625 98.77734375 C52.3278757 122.79778909 38.10191741 142.26008115 16.62890625 155.07421875 C-2.11691283 165.39240386 -25.49155925 168.60115843 -46.24194336 162.97705078 C-68.94641013 156.021799 -87.53260381 140.64593708 -99 120 C-102.44690085 112.925236 -104.9641135 105.59330641 -107 98 C-107.25801392 97.10607544 -107.25801392 97.10607544 -107.52124023 96.1940918 C-111.95388052 75.87989585 -106.85316103 53.37299253 -96 36 C-82.77206732 16.31759377 -64.12586237 3.42885607 -41 -2 C-27.86557737 -4.39380364 -12.62454151 -4.53467727 0 0 Z " fill="#EAE8EA" transform="translate(437,332)"/>
<path d="M0 0 C2.32749345 3.49124017 2.50299316 4.89222251 2 9 C0.4375 11.375 0.4375 11.375 -2 13 C-7.75771276 13.60459499 -11.41352653 12.13068206 -16.25 9.25 C-28.96461414 2.09360984 -41.24057682 -1.40145255 -55.875 -1.25 C-57.3283374 -1.23767334 -57.3283374 -1.23767334 -58.81103516 -1.22509766 C-76.20623275 -0.95343462 -91.87746358 3.62775777 -106 14 C-107.35158203 14.96679688 -107.35158203 14.96679688 -108.73046875 15.953125 C-124.93274114 28.29336067 -136.68526544 47.21401316 -139.72314453 67.45361328 C-140.28118987 72.58625252 -140.39488168 77.71551906 -140.4375 82.875 C-140.4478125 83.90874756 -140.458125 84.94249512 -140.46875 86.00756836 C-140.38709877 93.0845751 -139.19208945 99.28237198 -137 106 C-136.62359375 107.15371094 -136.2471875 108.30742187 -135.859375 109.49609375 C-130.82260916 122.85061728 -123.97994678 132.99087209 -114 143 C-113.36578125 143.65742188 -112.7315625 144.31484375 -112.078125 144.9921875 C-101.65134313 155.00374354 -87.77388682 160.48192629 -74 164 C-73.23171875 164.20238281 -72.4634375 164.40476562 -71.671875 164.61328125 C-50.25666458 167.71285118 -27.50245704 163.33969051 -9.578125 150.99609375 C8.70205637 136.84280181 22.30212325 117.66797302 25.6875 94.36328125 C27.7378455 72.29643778 23.5562664 52.15206503 11.3125 33.41796875 C9.43035516 29.95056501 10.02954689 27.74317626 11 24 C12.125 22.0625 12.125 22.0625 14 21 C17.375 20.5 17.375 20.5 21 21 C29.22046357 28.09419533 33.78601923 38.63609307 37.375 48.6875 C37.73259399 49.68281738 37.73259399 49.68281738 38.09741211 50.69824219 C44.61715914 69.99612831 44.73378968 93.74832914 38 113 C37.75330566 113.71188477 37.50661133 114.42376953 37.25244141 115.15722656 C31.78165575 130.4646796 23.34898385 142.49117131 12 154 C11.20851563 154.804375 10.41703125 155.60875 9.6015625 156.4375 C-1.39377358 166.95795446 -14.60120285 173.48509104 -29 178 C-30.03511719 178.3403125 -31.07023437 178.680625 -32.13671875 179.03125 C-56.05764656 185.51421162 -83.31472981 181.56193987 -105 170 C-128.96367724 156.11261596 -146.56083225 134.70937776 -153.78515625 107.77807617 C-155.34938121 101.57693805 -156.73856912 95.40505668 -157 89 C-157.0515625 88.01515625 -157.103125 87.0303125 -157.15625 86.015625 C-157.52837682 72.55703845 -156.06124345 58.15933337 -150 46 C-149.41423088 44.74532033 -148.82970817 43.49005838 -148.24609375 42.234375 C-144.27457012 33.84309021 -139.88855022 26.22839243 -134 19 C-133.33613281 18.17242187 -132.67226563 17.34484375 -131.98828125 16.4921875 C-114.13209277 -4.56557267 -89.28724042 -15.34655545 -62.16015625 -17.671875 C-39.96059226 -19.25785011 -18.06495889 -13.10698477 0 0 Z " fill="#020101" transform="translate(470,331)"/>
<path d="M0 0 C3.14916776 0.57841857 4.82213574 1.32774981 7.01719475 3.66966438 C9.47035004 8.11183064 8.71705026 13.68362288 8.65844727 18.61108398 C8.66035214 19.95182783 8.66450967 21.29257008 8.67074585 22.63330078 C8.67952674 25.51561766 8.67280144 28.39733191 8.65408516 31.27960014 C8.62496132 35.83947564 8.63279449 40.39883347 8.64598083 44.95875549 C8.66663575 53.81634213 8.65105163 62.67367765 8.63050842 71.53125 C8.60536012 82.80214722 8.59252757 94.07290405 8.62046474 105.34380585 C8.63040693 109.87422026 8.62031737 114.40401225 8.59455693 118.93435848 C8.5823646 121.7557424 8.58659868 124.57693307 8.59513474 127.39832306 C8.59592279 129.32469817 8.57673119 131.2510492 8.55690002 133.17732239 C8.56441586 141.69917236 8.56441586 141.69917236 13.0625 148.5625 C16.03321798 150.37483029 18.23642231 150.81256636 21.69494534 150.81303978 C22.62640926 150.81803848 23.55787318 150.82303717 24.51756328 150.82818735 C25.53749357 150.82352413 26.55742385 150.81886092 27.60826111 150.8140564 C28.69437591 150.81702654 29.7804907 150.81999667 30.89951807 150.82305682 C34.55147336 150.83071648 38.20326874 150.8241947 41.85522461 150.81787109 C44.46835947 150.82062003 47.0814935 150.82429933 49.69462585 150.82884216 C55.32799566 150.83747762 60.96133405 150.83928272 66.5947094 150.83689499 C74.74509003 150.83379911 82.89540113 150.84542985 91.04576427 150.86144479 C104.27619015 150.88741187 117.50661608 150.9074283 130.73706055 150.92089844 C131.9249555 150.92211399 131.9249555 150.92211399 133.13684834 150.9233541 C144.37746537 150.93457761 155.61807745 150.93985717 166.85869933 150.94274123 C167.65032611 150.94294522 168.44195289 150.94314921 169.25756836 150.94335938 C170.04823127 150.94355931 170.83889419 150.94375925 171.65351658 150.94396524 C184.8330397 150.94769674 198.01248743 150.9667717 211.19197279 150.99845374 C219.3226139 151.01738092 227.45306181 151.02332217 235.5837189 151.01263656 C241.81167543 151.00557741 248.03943017 151.01907618 254.26735115 151.04025459 C256.82437776 151.04559258 259.38142912 151.04405257 261.93844604 151.03521919 C265.42254269 151.02415164 268.90571551 151.03746845 272.38975525 151.05697632 C273.91630459 151.04328933 273.91630459 151.04328933 275.47369331 151.02932584 C279.87086562 151.07740948 282.3701811 151.14096536 286.19023991 153.46689796 C288.22505533 155.74444656 288.72354299 156.61654038 288.625 159.625 C288.0625 163.5625 288.0625 163.5625 286.3208791 165.28464937 C283.75344734 166.73737017 282.2966264 166.93996905 279.36593437 166.94561005 C278.42013697 166.95466669 277.47433956 166.96372333 276.49988163 166.97305441 C275.4639072 166.96772648 274.42793278 166.96239856 273.36056519 166.95690918 C272.25756045 166.96300028 271.15455572 166.96909139 270.01812661 166.97536707 C266.30869306 166.99206408 262.59960028 166.98721152 258.89013672 166.98242188 C256.23584302 166.9897585 253.58157518 166.99825041 250.92729187 167.00808716 C244.45673921 167.0291568 237.98627613 167.03368102 231.51569323 167.03189927 C226.25413522 167.0305919 220.99260515 167.03439454 215.7310524 167.04182434 C214.21567444 167.04392355 212.70029648 167.04602115 211.18491852 167.04811716 C210.43065548 167.04916069 209.67639243 167.05020422 208.89927293 167.05127937 C194.62791443 167.07018944 180.3566073 167.06912979 166.08524145 167.06231004 C153.03948687 167.05673953 139.99392898 167.07753754 126.94822036 167.11067051 C113.54834146 167.1444382 100.14855668 167.15957164 86.74863446 167.15495348 C79.22756185 167.15271118 71.70667082 167.15791612 64.18563461 167.18284607 C57.77948249 167.20389958 51.37361139 167.2074118 44.96744756 167.18854648 C41.70123408 167.17941143 38.43565054 167.18090576 35.16945839 167.19890213 C31.62127551 167.21710031 28.07447814 167.20433857 24.52633667 167.18395996 C23.50374658 167.19647781 22.48115648 167.20899566 21.42757881 167.22189283 C13.47053446 167.1241902 6.84338579 165.0575557 0.91001499 159.57274008 C-6.91994758 151.30314047 -7.37979866 143.80994375 -7.34155273 132.79614258 C-7.3472614 131.4025976 -7.35422758 130.00905729 -7.36235046 128.61552429 C-7.38023565 124.84712746 -7.37912314 121.07896404 -7.37340808 117.31053758 C-7.37031159 114.1616355 -7.37641329 111.01277797 -7.38244683 107.86388224 C-7.39647317 100.43761858 -7.39494461 93.01147004 -7.38354492 85.58520508 C-7.37204604 77.92502474 -7.38617313 70.26519379 -7.4129414 62.60505944 C-7.43508302 56.02229498 -7.44173985 49.43964033 -7.43586498 42.85684127 C-7.43249284 38.92757043 -7.43492822 34.99852393 -7.45211601 31.06928444 C-7.46756039 27.37797021 -7.46365825 23.68717555 -7.44481087 19.99588203 C-7.43935767 17.9952222 -7.45365523 15.99453915 -7.46850586 13.993927 C-7.45867172 12.80373459 -7.44883759 11.61354218 -7.43870544 10.38728333 C-7.43849616 9.3529054 -7.43828688 8.31852747 -7.43807125 7.25280476 C-6.6100138 2.80243554 -4.3749672 0.83775968 0 0 Z " fill="#000000" transform="translate(6.9375,226.4375)"/>
<path d="M0 0 C8.31082699 6.48717819 15.11682814 16.51700999 17 27 C18.16181011 41.6517164 15.32591273 52.55657403 6.32421875 64.16015625 C-1.03382805 72.33751447 -11.70559826 77.47239752 -22.640625 78.16796875 C-36.07876665 78.26855364 -46.74099168 75.18607565 -56.8125 65.875 C-61.52023504 60.89728733 -64.33357935 55.25953176 -67 49 C-67.56074219 47.84951172 -67.56074219 47.84951172 -68.1328125 46.67578125 C-71.22152614 37.14529095 -69.82533658 25.35808479 -65.4765625 16.5390625 C-58.56347891 4.6514849 -49.27970584 -3.4068679 -36.0625 -7.6171875 C-23.04709456 -10.03292563 -11.07145018 -6.79693395 0 0 Z " fill="#B0E29D" transform="translate(236,23)"/>
<path d="M0 0 C10.37160731 5.9884516 17.66530489 14.88724064 21.29370117 26.24072266 C22.28490431 30.20633038 22.3924909 34.04162495 22.33984375 38.11328125 C22.33154541 38.94585449 22.32324707 39.77842773 22.31469727 40.63623047 C21.99320506 52.33580075 17.24226532 60.61150845 8.8359375 68.65234375 C3.36563155 73.25170653 -2.30782439 75.60543908 -9.09765625 77.67578125 C-10.08765625 78.00578125 -11.07765625 78.33578125 -12.09765625 78.67578125 C-25.14675853 79.82109814 -35.35699336 76.85394474 -45.6875 68.8125 C-52.60232601 62.68217613 -57.10576278 54.70694717 -59.09765625 45.67578125 C-59.92769761 31.82361555 -59.1025859 21.73150167 -49.94140625 10.70703125 C-37.04504075 -3.50082905 -17.7118124 -7.92899546 0 0 Z " fill="#040301" transform="translate(107.09765625,229.32421875)"/>
<path d="M0 0 C1.11084961 0.02030273 1.11084961 0.02030273 2.24414062 0.04101562 C4.05891075 0.07614021 5.87330288 0.12994028 7.6875 0.1875 C7.20021832 1.32640875 6.71293665 2.4653175 6.21088886 3.63873863 C4.51973819 8.1743837 4.26776068 12.16531312 4.3132782 16.96768188 C4.30930379 17.81557923 4.30532939 18.66347657 4.30123454 19.53706777 C4.29166201 22.35903308 4.30339889 25.1804907 4.31518555 28.00244141 C4.31275596 30.03327114 4.30903501 32.06409968 4.30412292 34.09492493 C4.29473447 39.59680886 4.30412161 45.09851427 4.31745505 50.60038424 C4.32878744 56.36179404 4.32466074 62.12319529 4.32270813 67.88461304 C4.32182586 77.55689403 4.33289268 87.22910484 4.35131836 96.90136719 C4.37249687 108.0826885 4.37599289 119.26390712 4.3697564 130.44524443 C4.3640618 141.20619984 4.36970878 151.96711911 4.38092995 162.72806931 C4.38557342 167.30608158 4.38645088 171.88407173 4.3843441 176.46208572 C4.38246041 181.85146733 4.39057141 187.24074439 4.4064045 192.63010216 C4.41064642 194.60780467 4.41149851 196.58551779 4.40871429 198.56322289 C4.40549052 201.26269173 4.41457928 203.96184862 4.42680359 206.6612854 C4.42302427 207.44377769 4.41924494 208.22626998 4.41535109 209.03247416 C4.45303884 213.73731273 5.14036536 216.54609608 6.6875 221.1875 C89.1875 221.1875 171.6875 221.1875 256.6875 221.1875 C256.6875 221.5175 256.6875 221.8475 256.6875 222.1875 C223.15761291 222.27904138 189.6277569 222.34953151 156.09777262 222.39176132 C152.13988857 222.39676419 148.18200477 222.40194147 144.22412109 222.40722656 C143.43617266 222.4082758 142.64822422 222.40932505 141.83639856 222.41040608 C129.07549047 222.42781467 116.31465441 222.45935485 103.55378906 222.49611118 C90.46144091 222.533508 77.3691305 222.55573318 64.27673113 222.56385398 C56.19699948 222.56934438 48.11747141 222.58668962 40.03780241 222.61916587 C33.84387182 222.64279524 27.65009667 222.64532302 21.45612717 222.63993073 C18.91401922 222.64103307 16.37190371 222.64901481 13.82984161 222.6643219 C10.36343813 222.68417477 6.89791111 222.67945544 3.43148804 222.66851807 C2.42175474 222.68016943 1.41202143 222.6918208 0.37169015 222.70382524 C-5.33797321 222.6550117 -8.90047303 222.18995144 -13.3125 218.1875 C-16.11793177 214.56809247 -16.68696691 211.9443002 -16.68431091 207.41209412 C-16.69106842 206.25826233 -16.69782593 205.10443054 -16.70478821 203.91563416 C-16.69706894 202.65884354 -16.68934967 201.40205292 -16.68139648 200.10717773 C-16.6838658 198.76319065 -16.68770555 197.41920549 -16.69281006 196.07522583 C-16.70113519 193.18650831 -16.70035166 190.29798801 -16.69262505 187.40926933 C-16.68102984 182.84160636 -16.69321395 178.27419652 -16.70924377 173.70655823 C-16.74541372 162.36395786 -16.75166568 151.02136374 -16.74914551 139.67871094 C-16.74743505 130.85839133 -16.75452639 122.03827872 -16.78912407 113.21801716 C-16.80593048 108.67707244 -16.80411369 104.13663245 -16.78830135 99.59568965 C-16.78250997 96.7721859 -16.79323382 93.94892226 -16.80854797 91.12546158 C-16.81405756 89.1915783 -16.79965152 87.25767048 -16.78468323 85.32383728 C-16.79904922 83.59731934 -16.79904922 83.59731934 -16.81370544 81.83592224 C-16.81349616 80.8358184 -16.81328688 79.83571455 -16.81307125 78.80530453 C-17.45338538 75.44903555 -18.66659945 74.28509496 -21.3125 72.1875 C-22.3025 71.8575 -23.2925 71.5275 -24.3125 71.1875 C-24.3125 64.5875 -24.3125 57.9875 -24.3125 51.1875 C-22.3325 50.1975 -20.3525 49.2075 -18.3125 48.1875 C-16.69659555 44.95569111 -17.13377763 41.40817559 -17.1015625 37.85546875 C-17.07348896 36.15298526 -17.04482446 34.45051143 -17.015625 32.74804688 C-16.97439707 30.06209636 -16.93751301 27.37632524 -16.91113281 24.69018555 C-16.88347386 22.09906659 -16.83759776 19.50876963 -16.7890625 16.91796875 C-16.78580963 16.11884567 -16.78255676 15.3197226 -16.77920532 14.49638367 C-16.67836997 9.90727193 -16.22858821 6.9411267 -13.3125 3.1875 C-9.16711612 -0.25578282 -5.16307925 -0.17994646 0 0 Z " fill="#FCA85E" transform="translate(31.3125,155.8125)"/>
<path d="M0 0 C7.92061225 1.74521965 12.64144277 11.37609641 16.9375 17.8125 C18.0661633 19.48323707 19.19507398 21.15380704 20.32421875 22.82421875 C21.16412354 24.07211182 21.16412354 24.07211182 22.02099609 25.34521484 C24.57228063 29.12243159 27.16094392 32.87361922 29.75 36.625 C30.61638632 37.88116509 31.48229992 39.13765639 32.34765625 40.39453125 C32.70480713 40.91249268 33.06195801 41.4304541 33.42993164 41.96411133 C35.20130915 44.56770269 36.9432308 47.19069777 38.6875 49.8125 C38.69114563 49.25761902 38.69479126 48.70273804 38.69854736 48.13104248 C38.7403584 42.35565306 38.80969341 36.5810594 38.89501953 30.80615234 C38.92324499 28.65095987 38.94445165 26.49566357 38.95849609 24.34033203 C38.97990347 21.2419717 39.0265432 18.14486173 39.078125 15.046875 C39.07935364 14.08320007 39.08058228 13.11952515 39.08184814 12.12664795 C39.2278521 5.45804026 39.2278521 5.45804026 41.54199219 2.20800781 C44.54117017 0.25724525 46.17623934 0.16757457 49.6875 0.8125 C52.97601273 3.41417553 54.51167739 4.90888756 55.32241821 9.07556152 C55.32639618 10.31068481 55.33037415 11.54580811 55.33447266 12.81835938 C55.34323425 13.50356155 55.35199585 14.18876373 55.36102295 14.89472961 C55.38294661 17.14922283 55.36849222 19.4017385 55.3515625 21.65625 C55.35493273 23.22896703 55.35978708 24.80168151 55.36605835 26.37438965 C55.37342004 29.66634991 55.36274787 32.95763062 55.33935547 36.24951172 C55.3108669 40.46327554 55.32727483 44.67544709 55.35721779 48.88915253 C55.37531052 52.13551774 55.36952395 55.3815072 55.35657883 58.62788391 C55.35325021 60.18117971 55.35731279 61.73450993 55.36897659 63.2877655 C55.38171943 65.46163904 55.36226729 67.63295688 55.33447266 69.80664062 C55.33049469 71.04176392 55.32651672 72.27688721 55.32241821 73.54943848 C54.51193491 77.71478896 52.97276463 79.20955869 49.6875 81.8125 C46.6875 82.375 46.6875 82.375 43.6875 81.8125 C40.05054631 79.26949616 37.72378998 76.73900457 35.375 73 C30.5957147 65.59804762 25.54850303 58.39399877 20.4987793 51.17456055 C19.836604 50.22621338 19.17442871 49.27786621 18.4921875 48.30078125 C17.61022705 47.04068237 17.61022705 47.04068237 16.71044922 45.75512695 C13.99326958 41.80265698 11.34000495 37.80856308 8.6875 33.8125 C8.68133667 35.77255981 8.68133667 35.77255981 8.67504883 37.7722168 C8.65325196 42.62743395 8.59895598 47.48184134 8.53491211 52.33666992 C8.51173704 54.43652578 8.49733756 56.5364978 8.49194336 58.63647461 C8.48265037 61.65812525 8.44165154 64.67795017 8.39453125 67.69921875 C8.40043022 69.10417854 8.40043022 69.10417854 8.40644836 70.53752136 C8.30414117 75.12361639 8.17755878 77.17590034 5.3034668 80.90942383 C2.6875 82.8125 2.6875 82.8125 0.125 83.375 C-3.05060981 82.64216697 -4.26522307 81.29847913 -6.3125 78.8125 C-7.76024478 75.91701043 -7.46385677 73.38219634 -7.48950195 70.1472168 C-7.49607315 69.4624527 -7.50264435 68.7776886 -7.50941467 68.07217407 C-7.52915361 65.80202122 -7.54081177 63.53193454 -7.55078125 61.26171875 C-7.55485678 60.48648172 -7.5589323 59.7112447 -7.56313133 58.91251564 C-7.58399505 54.80894868 -7.59829519 50.70541518 -7.60766602 46.60180664 C-7.61872862 42.3647287 -7.65312537 38.12817622 -7.69283772 33.89128399 C-7.71899325 30.63215666 -7.72735689 27.37315471 -7.73094749 24.11393166 C-7.73581659 22.55222845 -7.74743989 20.99053096 -7.76598549 19.42893028 C-7.79035488 17.24085342 -7.78941682 15.05413804 -7.7824707 12.8659668 C-7.78833694 11.62179489 -7.79420319 10.37762299 -7.80024719 9.0957489 C-7.03359024 3.93503117 -5.09722853 1.2502636 0 0 Z " fill="#040301" transform="translate(317.3125,225.1875)"/>
<path d="M0 0 C1.20527344 -0.00515625 2.41054687 -0.0103125 3.65234375 -0.015625 C4.90917969 -0.00015625 6.16601562 0.0153125 7.4609375 0.03125 C9.31138672 0.00804687 9.31138672 0.00804687 11.19921875 -0.015625 C20.01815005 0.02186249 27.40457249 1.01785777 34.45703125 6.609375 C40.38897783 13.70219714 43.52639194 19.5448609 43.1796875 28.94921875 C42.2033054 36.28317973 39.22840244 42.09207589 33.765625 47.0625 C26.77167056 52.38583374 20.22132294 53.67503865 11.5234375 53.59375 C10.26917969 53.58472656 9.01492187 53.57570313 7.72265625 53.56640625 C6.77003906 53.55480469 5.81742188 53.54320312 4.8359375 53.53125 C4.84641113 54.20704102 4.85688477 54.88283203 4.86767578 55.57910156 C4.90929726 58.64644642 4.93528323 61.71373178 4.9609375 64.78125 C4.97769531 65.84472656 4.99445313 66.90820312 5.01171875 68.00390625 C5.01816406 69.02871094 5.02460938 70.05351562 5.03125 71.109375 C5.04172363 72.05200195 5.05219727 72.99462891 5.06298828 73.96582031 C4.82128825 76.6967708 4.33671957 78.25046031 2.8359375 80.53125 C-0.1640625 82.53125 -0.1640625 82.53125 -3.6640625 82.40625 C-7.1640625 81.53125 -7.1640625 81.53125 -8.8575592 79.9197998 C-10.64385989 76.65408424 -10.55237845 74.15562188 -10.56811523 70.43945312 C-10.57841011 69.38019875 -10.57841011 69.38019875 -10.58891296 68.29954529 C-10.60718223 65.97032444 -10.60334398 63.64177697 -10.59765625 61.3125 C-10.60221764 59.69111919 -10.60752309 58.06974032 -10.61354065 56.44836426 C-10.62247168 53.05224751 -10.62004838 49.65636592 -10.61010742 46.26025391 C-10.59861078 41.90872393 -10.61883923 37.55800459 -10.64802456 33.20658112 C-10.66637133 29.8590988 -10.66609732 26.51181136 -10.66038704 23.16429138 C-10.66023367 21.55991986 -10.66629072 19.95553525 -10.67867851 18.35121155 C-10.69356084 16.10797245 -10.6829344 13.8662389 -10.66577148 11.62304688 C-10.66552223 9.70921204 -10.66552223 9.70921204 -10.66526794 7.75671387 C-9.66377471 1.31169161 -6.039186 0.0250329 0 0 Z " fill="#040301" transform="translate(166.1640625,225.46875)"/>
<path d="M0 0 C0 5.94 0 11.88 0 18 C-1.258125 18.08636719 -2.51625 18.17273438 -3.8125 18.26171875 C-26.01487324 19.99341662 -45.55864996 26.78652034 -63 41 C-63.83917969 41.67546875 -64.67835938 42.3509375 -65.54296875 43.046875 C-80.15191443 55.45881645 -89.59750946 71.76659442 -95 90 C-100.94 89.67 -106.88 89.34 -113 89 C-109.92564803 70.55388816 -100.27071104 53.86135876 -88 40 C-87.42765625 39.29617188 -86.8553125 38.59234375 -86.265625 37.8671875 C-76.0666808 25.48275526 -61.46484427 15.5649634 -46.42578125 10.0703125 C-43.98264512 8.99234261 -42.8444325 7.8603786 -41 6 C-40.01 6 -39.02 6 -38 6 C-35.70299681 5.39490709 -33.4122943 4.7658166 -31.125 4.125 C-21.12840875 1.4567325 -10.36543905 0 0 0 Z " fill="#FDA85E" transform="translate(413,296)"/>
<path d="M0 0 C0.71353638 -0.00241196 1.42707275 -0.00482391 2.16223145 -0.00730896 C3.66501444 -0.0063331 5.16783454 0.0069986 6.67041016 0.03198242 C8.96251287 0.06631283 11.25075972 0.05262863 13.54296875 0.03320312 C15.00782881 0.04010207 16.47267897 0.04977492 17.9375 0.0625 C18.61784302 0.05754013 19.29818604 0.05258026 19.99914551 0.04747009 C24.71325452 0.16336241 27.20152578 1.23557458 30.46875 4.62890625 C31.09375 7.56640625 31.09375 7.56640625 30.46875 10.62890625 C28.66796875 13.30078125 28.66796875 13.30078125 25.46875 15.62890625 C21.51444667 16.24620189 17.64600884 16.09982673 13.65625 15.94140625 C12.04459961 15.90756836 12.04459961 15.90756836 10.40039062 15.87304688 C7.75591112 15.81428066 5.11215067 15.72460458 2.46875 15.62890625 C2.46875 21.56890625 2.46875 27.50890625 2.46875 33.62890625 C3.92667969 33.57089844 5.38460937 33.51289063 6.88671875 33.453125 C8.80986378 33.40621902 10.73304349 33.36071976 12.65625 33.31640625 C13.61595703 33.27451172 14.57566406 33.23261719 15.56445312 33.18945312 C20.32434837 33.107102 22.6910244 33.06737497 26.64453125 35.921875 C28.46875 38.62890625 28.46875 38.62890625 28.46875 42.25390625 C27.48175969 45.58499855 27.15661034 46.6284209 24.46875 48.62890625 C22.10864258 48.96948242 22.10864258 48.96948242 19.36328125 48.921875 C18.38037109 48.91220703 17.39746094 48.90253906 16.38476562 48.89257812 C14.84852539 48.85487305 14.84852539 48.85487305 13.28125 48.81640625 C11.72760742 48.79610352 11.72760742 48.79610352 10.14257812 48.77539062 C7.58441388 48.7400243 5.02651671 48.68621721 2.46875 48.62890625 C2.46875 54.56890625 2.46875 60.50890625 2.46875 66.62890625 C3.99886719 66.59410156 5.52898437 66.55929687 7.10546875 66.5234375 C9.12238484 66.49529448 11.13931282 66.46799488 13.15625 66.44140625 C14.16365234 66.41626953 15.17105469 66.39113281 16.20898438 66.36523438 C25.60810131 66.27217381 25.60810131 66.27217381 29.46875 69.62890625 C30.88916821 72.46974266 30.78327272 74.48367903 30.46875 77.62890625 C28.94335938 79.78881836 28.94335938 79.78881836 26.46875 81.62890625 C23.69839676 82.03901613 21.33150943 82.21406473 18.5625 82.1953125 C17.80078491 82.20151108 17.03906982 82.20770966 16.25427246 82.21409607 C14.64722977 82.22118548 13.04011351 82.21803543 11.43310547 82.20532227 C8.97616371 82.19144811 6.52302678 82.22554087 4.06640625 82.26367188 C2.50260324 82.26462307 0.93879546 82.26276423 -0.625 82.2578125 C-1.72358337 82.27769981 -1.72358337 82.27769981 -2.84436035 82.29798889 C-6.38245606 82.23349074 -8.13089082 82.01277135 -10.72312927 79.52732849 C-12.94793486 75.96095933 -13.04368999 73.80893897 -13.06469727 69.62304688 C-13.07331284 68.9378447 -13.08192841 68.25264252 -13.09080505 67.54667664 C-13.11342005 65.29244704 -13.10673592 63.03946506 -13.09765625 60.78515625 C-13.10289357 59.21243929 -13.10917044 57.63972548 -13.11643982 56.0670166 C-13.12683545 52.7751586 -13.12229451 49.4837331 -13.10766602 46.19189453 C-13.09047132 41.97817601 -13.11398459 37.76582022 -13.14915562 33.55225372 C-13.17113901 30.30591843 -13.16968615 27.05990883 -13.1613903 23.81352234 C-13.16057143 22.26021326 -13.16742268 20.70688012 -13.18216133 19.15364075 C-13.19962856 16.97983532 -13.18505272 14.80847372 -13.16235352 12.63476562 C-13.16139175 11.39964233 -13.16042999 10.16451904 -13.15943909 8.89196777 C-11.74905689 1.56588716 -6.76734744 -0.13187893 0 0 Z " fill="#030201" transform="translate(249.53125,225.37109375)"/>
<path d="M0 0 C6.79047774 5.87815165 10.42066609 11.95151876 11.4375 20.8125 C11.14422738 27.5711008 8.43092799 35.70265858 3.7265625 40.65234375 C-2.79675355 45.74407234 -9.980574 49.06108791 -18.33984375 48.5078125 C-26.60802691 46.92945154 -31.97160359 42.60424916 -37.40625 36.37890625 C-41.945518 29.60338123 -41.84765102 21.86726106 -41 14 C-38.66909321 6.80956878 -33.67682366 1.62140435 -27.16015625 -2.03125 C-18.33038049 -5.93151905 -8.1594118 -5.03884206 0 0 Z " fill="#FCBF67" transform="translate(104,245)"/>
<path d="M0 0 C0.66 0.33 1.32 0.66 2 1 C1.3709375 1.49628906 0.741875 1.99257813 0.09375 2.50390625 C-1.70564696 3.93204209 -3.49816482 5.36887158 -5.28515625 6.8125 C-6.86075184 8.08204465 -8.44685417 9.33916825 -10.05859375 10.5625 C-26.33091698 23.55329443 -36.40512097 45.70174064 -39 66 C-40.643897 93.30980966 -34.88316852 117.87311089 -16.50830078 138.68994141 C-10.90459504 144.79610979 -5.21253698 149.83892097 2 154 C2 154.66 2 155.32 2 156 C-9.33188116 152.6241851 -18.73888957 145.24729586 -27 137 C-27.77085937 136.24074219 -28.54171875 135.48148438 -29.3359375 134.69921875 C-45.99213985 117.33242756 -51.70193741 95.78325974 -51.3046875 72.31640625 C-50.49174589 49.79926739 -39.87952813 29.82857183 -23.5 14.5625 C-16.43637949 8.66140738 -8.4359101 3.68112441 0 0 Z " fill="#D6D4D7" transform="translate(380,335)"/>
<path d="M0 0 C3.31874823 0.57717361 4.73614125 0.86755846 6.875 3.5 C7.33390998 6.66137986 7.54294911 8.48826518 6.875 11.5 C4.9375 13.9375 4.9375 13.9375 1.875 16.5 C0.42842159 17.94932856 -1.00821078 19.4086185 -2.4375 20.875 C-5.872782 24.310282 -9.38292956 27.58710834 -13.08984375 30.7265625 C-14.56103508 32.00856032 -15.98585045 33.34443909 -17.37890625 34.7109375 C-18.14074219 35.44570312 -18.90257812 36.18046875 -19.6875 36.9375 C-20.36941406 37.61683594 -21.05132812 38.29617187 -21.75390625 38.99609375 C-25.20678386 41.18613968 -27.10210019 41.20539689 -31.125 40.5 C-33.90412665 38.57770566 -36.09827211 36.23370316 -38.375 33.75 C-38.98601562 33.11578125 -39.59703125 32.4815625 -40.2265625 31.828125 C-46.38970545 25.36893589 -46.38970545 25.36893589 -48.125 22.5 C-48.00488224 19.07664374 -47.73226153 16.54583931 -46 13.5625 C-42.87928442 11.79409451 -40.6375966 12.02371572 -37.125 12.5 C-33.43562546 15.05418237 -30.61330836 17.76753746 -28.125 21.5 C-25.118182 20.16000502 -23.12737391 18.70154709 -20.875 16.3125 C-17.73300959 13.07631716 -14.46545127 10.07250947 -11.03515625 7.14453125 C-9.83067678 6.10754586 -8.64721662 5.04513189 -7.49609375 3.94921875 C-4.99180852 1.62801442 -3.4064296 0.54502874 0 0 Z " fill="#030402" transform="translate(230.125,37.5)"/>
<path d="M0 0 C4.57591228 1.35582586 4.57591228 1.35582586 6.375 4 C6.72232245 6.77613896 6.89063177 9.32386223 6.9140625 12.10546875 C6.92641937 12.90350418 6.93877625 13.70153961 6.95150757 14.52375793 C6.97107637 16.21408766 6.98230638 17.9045314 6.98583984 19.5949707 C6.99986236 22.16229958 7.06709793 24.72467383 7.13671875 27.29101562 C7.32386106 41.03869985 7.32386106 41.03869985 3.23046875 45.7734375 C1.97554727 46.88408764 0.69061533 47.96195957 -0.625 49 C-1.7177112 50.11078444 -2.797774 51.23418824 -3.86328125 52.37109375 C-4.88542654 53.39582348 -5.91013297 54.41800551 -6.9375 55.4375 C-7.46150391 55.96537109 -7.98550781 56.49324219 -8.52539062 57.03710938 C-13.36355762 61.8628867 -13.36355762 61.8628867 -17.5 62.3125 C-20.625 62 -20.625 62 -23 60.4375 C-25.30376231 56.98185653 -25.24803218 55.09482528 -24.625 51 C-23.0073689 49.29158926 -21.23503877 48.01905589 -19.34130859 46.62451172 C-14.09176116 42.6650367 -10.22272428 38.98982408 -8.89697266 32.35839844 C-8.35331849 26.80682601 -8.42790993 21.26952984 -8.65844727 15.703125 C-8.70670654 14.39601563 -8.75496582 13.08890625 -8.8046875 11.7421875 C-8.88444824 10.5651123 -8.96420898 9.38803711 -9.04638672 8.17529297 C-8.625 5 -8.625 5 -6.34033203 2.07861328 C-3.625 0 -3.625 0 0 0 Z " fill="#040404" transform="translate(413.625,375)"/>
<path d="M0 0 C4.02117253 0.54091277 5.84673793 2.48827435 8.64501953 5.3203125 C9.55921661 6.23796387 10.4734137 7.15561523 11.41531372 8.10107422 C12.40456491 9.10896613 13.39372909 10.11694344 14.3828125 11.125 C15.40290583 12.15323108 16.42373986 13.1807278 17.44528198 14.20751953 C20.13068235 16.91002897 22.80738609 19.62098305 25.48193359 22.33422852 C29.76780289 26.67932305 34.06644672 31.01177187 38.36562729 35.34368896 C39.86736458 36.85940825 41.36523582 38.37886728 42.86257935 39.89892578 C44.22441849 41.27540283 44.22441849 41.27540283 45.61376953 42.6796875 C46.81478806 43.89760986 46.81478806 43.89760986 48.04006958 45.14013672 C49.86755416 47.05514174 49.86755416 47.05514174 52 48 C52 48.66 52 49.32 52 50 C35.09562204 52.38141432 35.09562204 52.38141432 28.66210938 48.640625 C24.47311742 45.20588367 21.09198381 41.14839774 17.69458008 36.9519043 C15.37928788 34.28503193 12.77460902 32.07318102 10.08569336 29.79272461 C6.39083475 26.61686756 2.91649341 23.2210814 -0.5625 19.8125 C-1.29791016 19.11447266 -2.03332031 18.41644531 -2.79101562 17.69726562 C-3.48001953 17.01986328 -4.16902344 16.34246094 -4.87890625 15.64453125 C-5.5035376 15.03971924 -6.12816895 14.43490723 -6.77172852 13.81176758 C-8 12 -8 12 -7.796875 9.90600586 C-6.74970213 7.40132491 -5.26803871 5.74695132 -3.4375 3.75 C-2.79683594 3.04359375 -2.15617188 2.3371875 -1.49609375 1.609375 C-0.75552734 0.81273438 -0.75552734 0.81273438 0 0 Z " fill="#E4E2E4" transform="translate(257,91)"/>
<path d="M0 0 C2.04296875 2.1875 2.04296875 2.1875 4.1875 5 C5.26064453 6.3921875 5.26064453 6.3921875 6.35546875 7.8125 C7.16951172 8.8953125 7.16951172 8.8953125 8 10 C6.33392729 14.33389799 3.12471393 17.13295035 -0.125 20.3125 C-0.66898438 20.85583984 -1.21296875 21.39917969 -1.7734375 21.95898438 C-4.74576863 24.90006436 -7.78875257 27.68899219 -10.98046875 30.390625 C-13.79083776 32.81197481 -16.19160974 35.31565824 -18.54296875 38.18359375 C-28.63369069 50.18426634 -28.63369069 50.18426634 -36.70703125 51.03515625 C-41.85037831 51.16670517 -46.91590011 50.77121702 -52 50 C-52 49.34 -52 48.68 -52 48 C-50.58906555 46.61277771 -50.58906555 46.61277771 -48.6027832 44.97827148 C-43.57419066 40.69921853 -38.98180612 36.05367119 -34.35546875 31.34765625 C-32.52697708 29.5016714 -30.69819264 27.65597652 -28.86914062 25.81054688 C-26.01018045 22.92171431 -23.1543856 20.02981825 -20.30395508 17.13256836 C-17.53743734 14.32132809 -14.75905329 11.52197167 -11.98046875 8.72265625 C-10.69610176 7.41035789 -10.69610176 7.41035789 -9.38578796 6.07154846 C-8.59098526 5.27329147 -7.79618256 4.47503448 -6.97729492 3.65258789 C-6.2797258 2.94534073 -5.58215668 2.23809357 -4.8634491 1.50941467 C-3 0 -3 0 0 0 Z " fill="#E5E4E5" transform="translate(163,91)"/>
<path d="M0 0 C0.66 0.33 1.32 0.66 2 1 C1.48050781 1.60585938 0.96101563 2.21171875 0.42578125 2.8359375 C-10.50571489 15.96989774 -14.38356799 28.9870493 -13.23828125 46.03955078 C-11.8727962 57.27402311 -4.68621449 67.22687614 2 76 C-7.32968735 73.37602543 -13.83116062 64.443046 -18.48046875 56.45703125 C-23.24318912 46.78484001 -23.78287229 35.84441649 -21.078125 25.4609375 C-17.17803434 15.4574582 -9.85534582 4.92767291 0 0 Z " fill="#92D1A0" transform="translate(189,20)"/>
<path d="M0 0 C3.526875 -0.12375 3.526875 -0.12375 7.125 -0.25 C7.85348145 -0.28641602 8.58196289 -0.32283203 9.33251953 -0.36035156 C14.39479015 -0.44547789 17.11576798 0.85283611 21 4 C23.35242347 7.20785018 23.4684209 10.09649252 23 14 C20.96006092 17.6578218 19.49580738 19.66946174 16 22 C13.22503673 22.14289203 10.58047807 22.18737542 7.8125 22.125 C3.9453125 22.063125 3.9453125 22.063125 0 22 C0 14.74 0 7.48 0 0 Z " fill="#FBBF67" transform="translate(171,241)"/>
<path d="M0 0 C4.83790288 1.66824237 7.67213533 4.09289443 10.625 8.25 C11.875 11.875 11.875 11.875 11.625 15.25 C9.625 18.25 9.625 18.25 6.625 20.25 C2.88470569 20.52705884 0.72852835 20.03385545 -2.34375 17.8515625 C-5.55258221 14.94520218 -7.19908901 12.76014186 -8.625 8.625 C-8.375 5.25 -8.375 5.25 -6.375 2.25 C-3.375 0.25 -3.375 0.25 0 0 Z " fill="#070707" transform="translate(453.375,444.75)"/>
<path d="M0 0 C3.3125 2.0625 3.3125 2.0625 5 5 C5 8.44536734 4.81650542 10.78513035 2.87109375 13.6796875 C0.00963335 15.6988391 -2.4805163 15.4709802 -5.9375 15.5 C-7.77634766 15.54640625 -7.77634766 15.54640625 -9.65234375 15.59375 C-13 15 -13 15 -15.40625 12.625 C-17.22374854 9.63147299 -17.76907944 8.41813084 -17 5 C-12.99259493 -1.44047244 -6.86052733 -1.16392395 0 0 Z " fill="#090909" transform="translate(359,405)"/>
<path d="M0 0 C4.49153143 1.33082413 4.49153143 1.33082413 6.375 4 C6.84375 7.21484375 6.84375 7.21484375 6.875 10.9375 C6.9059375 12.16339844 6.936875 13.38929688 6.96875 14.65234375 C6.375 18 6.375 18 4.0703125 20.4375 C1.375 22 1.375 22 -2.25 22.0625 C-5.625 21 -5.625 21 -7.5625 19.125 C-9.17492013 14.38258786 -9.40273509 9.94787655 -8.625 5 C-6.00288058 0.86817545 -4.91269387 0 0 0 Z " fill="#080808" transform="translate(413.625,342)"/>
<path d="M0 0 C2.94814126 2.23117042 3.89849022 3.40885484 4.53125 7.09375 C4.5209375 8.2178125 4.510625 9.341875 4.5 10.5 C4.5103125 11.6240625 4.520625 12.748125 4.53125 13.90625 C3.89671432 17.60148722 2.97734739 18.78293953 0 21 C-3.5 21.5625 -3.5 21.5625 -7 21 C-9.98128659 18.78314587 -10.83397965 17.04467522 -11.4140625 13.39453125 C-11.65913461 8.61562517 -11.57216914 5.85825371 -8.875 1.8125 C-5.48733474 -0.32320201 -3.92646445 -0.75187617 0 0 Z " fill="#070607" transform="translate(416,462)"/>
<path d="M0 0 C4.80603448 1.92241379 4.80603448 1.92241379 6.125 4.25 C6.75 7.4375 6.75 7.4375 6.125 11.25 C3.71726063 14.78009705 0.99576793 18.31461603 -2.875 20.25 C-6.41731061 20.63503376 -8.23757342 20.66935959 -11.25 18.6875 C-12.875 16.25 -12.875 16.25 -13.6875 13.0625 C-12.23883914 6.26493749 -7.10136462 0.45815256 0 0 Z " fill="#060606" transform="translate(373.875,444.75)"/>
<path d="M0 0 C3.1875 1.5625 3.1875 1.5625 5 4 C5.5625 7.5 5.5625 7.5 5 11 C2.78293953 13.97734739 1.60148722 14.89671432 -2.09375 15.53125 C-3.2178125 15.5209375 -4.341875 15.510625 -5.5 15.5 C-6.6240625 15.5103125 -7.748125 15.520625 -8.90625 15.53125 C-12.59114516 14.89849022 -13.76882958 13.94814126 -16 11 C-16.75187617 7.07353555 -16.32320201 5.51266526 -14.1875 2.125 C-9.5375296 -0.97498027 -5.43312861 -0.86343573 0 0 Z " fill="#070707" transform="translate(478,405)"/>
<path d="M0 0 C3.69252204 0.94123111 5.0923961 1.62794207 7.1875 4.8125 C7.875 7.5625 7.875 7.5625 7.1875 10.8125 C4.73138015 14.28934498 2.04503936 17.88373032 -1.8125 19.8125 C-5.1875 20.1875 -5.1875 20.1875 -8.8125 19.8125 C-11.43536242 17.45864911 -12.64496149 15.94431568 -13.1640625 12.4375 C-12.55845947 7.91566401 -9.46750423 5.67689078 -6.265625 2.65625 C-3.8125 0.8125 -3.8125 0.8125 0 0 Z " fill="#060606" transform="translate(457.8125,360.1875)"/>
<path d="M0 0 C5.31111103 1.12350426 8.50474224 4.94224224 12.25 8.6875 C12.70714286 15.77321429 12.70714286 15.77321429 11.25 18.6875 C7.889372 20.367814 4.82410173 20.62839698 1.25 19.6875 C-2.07317755 17.2475379 -4.89757964 14.39234073 -6.75 10.6875 C-7.13932198 7.1057378 -7.18596718 5.32468279 -5.125 2.3125 C-2.75 0.6875 -2.75 0.6875 0 0 Z " fill="#040404" transform="translate(367.75,360.3125)"/>
</svg>
