<svg xmlns="http://www.w3.org/2000/svg" viewBox="0 0 28.87 28.87" id="youtube">
  <g id="Layer_2">
    <g id="Layer_1-2">
      <rect width="28.87" height="28.87" rx="6.48" ry="6.48" style="fill:#fd3832"></rect>
      <path d="M8 19.77a1.88 1.88 0 0 1-1.24-1.21c-.54-1.48-.7-7.66.34-8.88A2 2 0 0 1 8.46 9c2.79-.3 11.41-.26 12.4.1a1.94 1.94 0 0 1 1.22 1.17c.59 1.53.61 7.09-.08 8.56a1.89 1.89 0 0 1-.87.88c-1.04.52-11.75.51-13.13.06zm4.43-2.9l5-2.6-5-2.62z" style="fill:#fff;fill-rule:evenodd"></path>
    </g>
  </g>
</svg>
